M48
; DRILL file {KiCad (5.1.9)-1} date 04/14/21 14:29:20
; FORMAT={-:-/ absolute / inch / decimal}
; #@! TF.CreationDate,2021-04-14T14:29:20-04:00
; #@! TF.GenerationSoftware,Kicad,Pcbnew,(5.1.9)-1
; #@! TF.FileFunction,NonPlated,1,2,NPTH
FMAT,2
INCH
T1C0.0689
T2C0.1200
T3C0.1570
%
G90
G05
T1
X-0.2713Y-1.4105
X-0.2713Y-2.348
X-0.1775Y-3.848
X-0.1769Y-5.3476
X-0.0838Y-3.098
X-0.0831Y-5.3476
X0.01Y-3.848
X0.1287Y-1.4105
X0.1287Y-2.348
X0.1975Y-4.598
X0.2225Y-3.848
X0.2231Y-5.3476
X0.3162Y-3.098
X0.3169Y-5.3476
X0.41Y-3.848
X0.4787Y-2.348
X0.5975Y-4.598
X0.6657Y-1.4115
X0.7606Y-5.3476
X0.8537Y-3.098
X0.8787Y-2.348
X1.0412Y-3.848
X1.0419Y-5.3476
X1.0657Y-1.4115
X1.1606Y-5.3476
X1.2287Y-2.348
X1.2537Y-3.098
X1.4157Y-1.4115
X1.4162Y-4.598
X1.4412Y-3.848
X1.4419Y-5.3476
X1.6037Y-3.098
X1.6287Y-2.348
X1.698Y-5.3476
X1.7912Y-3.848
X1.8157Y-1.4115
X1.8162Y-4.598
X1.9787Y-2.348
X2.0037Y-3.098
X2.098Y-5.3476
X2.1657Y-1.4115
X2.1662Y-4.598
X2.1912Y-3.848
X2.3537Y-3.098
X2.3787Y-2.348
X2.5412Y-3.848
X2.5657Y-1.4115
X2.5662Y-4.598
X2.7287Y-2.348
X2.7537Y-3.098
X2.9157Y-1.4115
X2.9162Y-4.598
X2.9412Y-3.848
X3.1037Y-3.098
X3.1287Y-2.348
X3.2912Y-3.848
X3.3157Y-1.4115
X3.3162Y-4.598
X3.4787Y-2.348
X3.5037Y-3.098
X3.6663Y-4.598
X3.6912Y-3.848
X3.8532Y-1.4115
X3.8537Y-3.098
X3.8787Y-2.348
X4.0413Y-3.848
X4.0663Y-4.598
X4.2282Y-5.349
X4.2287Y-2.348
X4.2532Y-1.4115
X4.2537Y-3.098
X4.4163Y-4.598
X4.4413Y-3.848
X4.5097Y-5.3485
X4.6032Y-1.4115
X4.6037Y-3.098
X4.6282Y-5.349
X4.6287Y-2.348
X4.7913Y-3.848
X4.8163Y-4.598
X4.9097Y-5.3485
X4.9787Y-2.348
X5.0032Y-1.4115
X5.0037Y-3.098
X5.1663Y-4.598
X5.1913Y-3.848
X5.3532Y-1.4115
X5.3537Y-3.098
X5.3787Y-2.348
X5.5413Y-3.848
X5.5663Y-4.598
X5.7287Y-2.348
X5.7532Y-1.4115
X5.7537Y-3.098
X5.9163Y-4.598
X5.9413Y-3.848
X6.1032Y-1.4115
X6.1037Y-3.098
X6.1287Y-2.348
X6.2913Y-3.848
X6.3163Y-4.598
X6.4787Y-2.348
X6.5032Y-1.4115
X6.5037Y-3.098
X6.6663Y-4.598
X6.6913Y-3.848
X6.8537Y-3.098
X6.8787Y-2.348
X7.0407Y-1.4115
X7.0413Y-3.848
X7.0663Y-4.598
X7.2287Y-2.348
X7.2537Y-3.098
X7.416Y-5.3485
X7.4163Y-4.598
X7.4407Y-1.4115
X7.4413Y-3.848
X7.6037Y-3.098
X7.6287Y-2.348
X7.7907Y-1.4115
X7.7913Y-3.848
X7.816Y-5.3485
X7.8163Y-4.598
X7.9787Y-2.348
X8.0037Y-3.098
X8.1663Y-4.598
X8.1907Y-1.4115
X8.1913Y-3.848
X8.3537Y-3.098
X8.3787Y-2.348
X8.5407Y-1.4115
X8.541Y-5.3485
X8.5413Y-3.848
X8.5663Y-4.598
X8.7287Y-2.348
X8.7537Y-3.098
X8.9407Y-1.4115
X8.941Y-5.3485
X8.9413Y-3.848
X9.1037Y-3.098
X9.1287Y-2.348
X9.1975Y-4.598
X9.2907Y-1.4115
X9.5037Y-3.098
X9.5975Y-4.598
X9.666Y-5.536
X9.6907Y-1.4115
X9.76Y-3.848
X9.8537Y-2.348
X10.0412Y-3.098
X10.066Y-5.536
X10.16Y-3.848
X10.2285Y-1.4115
X10.2537Y-2.348
X10.416Y-5.536
X10.4163Y-4.7855
X10.4412Y-3.098
X10.6285Y-1.4115
X10.816Y-5.536
X10.8163Y-4.7855
X11.166Y-5.536
X11.3535Y-1.4115
X11.3537Y-2.348
X11.3537Y-3.098
X11.3537Y-3.848
X11.3538Y-4.598
X11.566Y-5.536
X11.7535Y-1.4115
X11.7537Y-2.348
X11.7537Y-3.098
X11.7537Y-3.848
X11.7538Y-4.598
T2
X-0.0713Y-4.323
X0.8662Y-4.323
X2.1782Y-5.624
X2.7412Y-5.6235
X6.6782Y-5.6235
X6.6782Y-5.624
X9.4912Y-3.573
X9.585Y-2.073
X10.4287Y-3.573
X10.5225Y-2.073
T3
X-0.0713Y-4.923
X-0.0713Y-1.4105
X-0.0713Y-2.348
X0.0225Y-3.848
X0.0231Y-5.3476
X0.1162Y-3.098
X0.1169Y-5.3476
X0.21Y-3.848
X0.3975Y-4.598
X0.6787Y-2.348
X0.8657Y-1.4115
X0.8662Y-4.923
X0.9606Y-5.3476
X1.0537Y-3.098
X1.2412Y-3.848
X1.2419Y-5.3476
X1.4287Y-2.348
X1.6157Y-1.4115
X1.6162Y-4.598
X1.8037Y-3.098
X1.898Y-5.3476
X1.9912Y-3.848
X2.1782Y-5.024
X2.1787Y-2.348
X2.3657Y-1.4115
X2.3662Y-4.598
X2.5537Y-3.098
X2.7412Y-5.0235
X2.7412Y-3.848
X2.9287Y-2.348
X3.1157Y-1.4115
X3.1162Y-4.598
X3.3037Y-3.098
X3.4912Y-3.848
X3.6787Y-2.348
X3.8663Y-4.598
X4.0532Y-1.4115
X4.0537Y-3.098
X4.2413Y-3.848
X4.4282Y-5.349
X4.4287Y-2.348
X4.6163Y-4.598
X4.7097Y-5.3485
X4.8032Y-1.4115
X4.8037Y-3.098
X4.9913Y-3.848
X5.1787Y-2.348
X5.3663Y-4.598
X5.5532Y-1.4115
X5.5537Y-3.098
X5.7413Y-3.848
X5.9287Y-2.348
X6.1163Y-4.598
X6.3032Y-1.4115
X6.3037Y-3.098
X6.4913Y-3.848
X6.6782Y-5.0235
X6.6782Y-5.024
X6.6787Y-2.348
X6.8663Y-4.598
X7.0537Y-3.098
X7.2407Y-1.4115
X7.2413Y-3.848
X7.4287Y-2.348
X7.616Y-5.3485
X7.6163Y-4.598
X7.8037Y-3.098
X7.9907Y-1.4115
X7.9913Y-3.848
X8.1787Y-2.348
X8.3663Y-4.598
X8.5537Y-3.098
X8.7407Y-1.4115
X8.741Y-5.3485
X8.7413Y-3.848
X8.9287Y-2.348
X9.3037Y-3.098
X9.3975Y-4.598
X9.4907Y-1.4115
X9.4912Y-4.173
X9.585Y-2.673
X9.866Y-5.536
X9.96Y-3.848
X10.0537Y-2.348
X10.2412Y-3.098
X10.4285Y-1.4115
X10.4287Y-4.173
X10.5225Y-2.673
X10.616Y-5.536
X10.6163Y-4.7855
X11.366Y-5.536
X11.5535Y-1.4115
X11.5537Y-2.348
X11.5537Y-3.098
X11.5537Y-3.848
X11.5538Y-4.598
T0
M30
