M48
; DRILL file {KiCad (5.1.9)-1} date 04/14/21 14:29:20
; FORMAT={-:-/ absolute / inch / decimal}
; #@! TF.CreationDate,2021-04-14T14:29:20-04:00
; #@! TF.GenerationSoftware,Kicad,Pcbnew,(5.1.9)-1
; #@! TF.FileFunction,Plated,1,2,PTH
FMAT,2
INCH
T1C0.0157
T2C0.0236
T3C0.0276
T4C0.0300
T5C0.0315
T6C0.0354
T7C0.0394
T8C0.0400
T9C0.0433
T10C0.0579
T11C0.0591
T12C0.0866
%
G90
G05
T1
X1.8809Y-0.9218
X1.9862Y-0.9218
X2.001Y-0.7869
X2.1302Y-0.7869
X2.6129Y-0.0988
X2.7579Y-0.1592
X2.7581Y-0.2113
X2.7795Y-0.0988
X2.7913Y-0.1592
X2.7915Y-0.2113
X2.795Y-0.3494
X2.8248Y-0.1592
X2.825Y-0.2113
X2.8583Y-0.1592
X2.8585Y-0.2113
X2.8917Y-0.1592
X2.8919Y-0.2113
X2.9252Y-0.1592
X2.9254Y-0.2113
X2.9587Y-0.1592
X2.9589Y-0.2113
X2.9923Y-0.1592
X2.9923Y-0.2113
X3.1299Y-0.1381
X3.1398Y-0.2657
X6.575Y-0.6558
X6.6037Y-0.431
X6.7527Y-0.5285
X6.8837Y-0.5795
X6.8872Y-0.1401
X6.9342Y-0.54
X7.5376Y-0.4413
X7.9098Y-0.7826
X8.7477Y-0.6155
X8.9945Y-0.8778
X9.0457Y-0.903
X9.0892Y-0.928
X9.2527Y-0.93
X9.3672Y-0.9785
X9.5417Y-0.986
X10.1005Y-0.4119
X10.1381Y-0.9695
X10.2303Y-0.3968
X10.2362Y-0.546
X10.3321Y-0.5418
X10.3476Y-0.3381
X10.387Y-0.3838
X10.4504Y-0.4468
X10.4562Y-0.9665
X10.511Y-0.3373
X10.5522Y-0.929
X10.5618Y-0.3838
X10.5984Y-0.4322
X10.6262Y-0.9035
X10.7317Y-0.892
X11.1622Y-0.423
X11.1785Y-0.0568
X11.2117Y-0.499
X11.4649Y-0.381
X11.4649Y-0.7086
X11.4935Y-0.3295
X11.5096Y-0.632
X11.5539Y-1.9192
T2
X7.9282Y-0.135
X7.9282Y-0.1941
T3
X6.3932Y-0.0466
X6.3932Y-0.2474
X8.3432Y-0.156
X8.3432Y-0.2544
X8.3432Y-0.3529
X8.3432Y-0.4513
X8.3432Y-0.5497
X8.3432Y-0.6481
X8.3432Y-0.7466
X8.6432Y-0.156
X8.6432Y-0.2544
X8.6432Y-0.3529
X8.6432Y-0.4513
X8.6432Y-0.5497
X8.6432Y-0.6481
X8.6432Y-0.7466
T4
X7.759Y-0.4838
X7.759Y-0.5838
X7.759Y-0.6838
X7.759Y-0.7838
T5
X7.9751Y-0.4315
X7.9751Y-0.6315
X8.1326Y-0.4315
X8.1326Y-0.6315
X8.8767Y-0.7283
X8.8782Y-0.1443
X8.9282Y-0.3373
X8.9282Y-0.5294
X8.9752Y-0.7283
X8.9767Y-0.1443
X9.1487Y-0.1585
X9.1487Y-0.7585
X9.2487Y-0.1585
X9.2487Y-0.7585
X9.3487Y-0.1585
X9.3487Y-0.7585
X9.4487Y-0.1585
X9.4487Y-0.7585
X9.5487Y-0.1585
X9.5487Y-0.7585
X9.6487Y-0.1585
X9.6487Y-0.7585
X9.7487Y-0.1585
X9.7487Y-0.7585
X9.8487Y-0.1585
X9.8487Y-0.7585
X9.9487Y-0.1585
X9.9487Y-0.7585
X10.0487Y-0.1585
X10.0487Y-0.7585
X10.0539Y-0.8569
X10.0549Y-0.0631
X10.1487Y-0.1585
X10.1487Y-0.7585
X10.2487Y-0.1585
X10.2487Y-0.7585
X10.2507Y-0.8569
X10.2517Y-0.0631
X10.3487Y-0.1585
X10.3487Y-0.7585
X10.4487Y-0.1585
X10.4487Y-0.7585
X10.5487Y-0.1585
X10.5487Y-0.7585
X10.6487Y-0.1585
X10.6487Y-0.7585
X10.7487Y-0.1585
X10.7487Y-0.7585
X10.8487Y-0.1585
X10.8487Y-0.7585
X10.9487Y-0.1585
X10.9487Y-0.7585
X11.0487Y-0.1585
X11.0487Y-0.7585
T6
X0.3031Y-2.3845
X0.3031Y-2.6845
X0.3407Y-1.4139
X0.3407Y-1.7139
X0.4517Y-1.414
X0.4517Y-1.714
X0.4795Y-5.3557
X0.4795Y-5.6557
X0.5002Y-3.1418
X0.5002Y-3.4418
X0.5925Y-5.3557
X0.5925Y-5.6557
X0.6178Y-3.1418
X0.6178Y-3.4418
X0.759Y-3.8253
X0.759Y-4.1253
X0.8771Y-3.8253
X0.8771Y-4.1253
X1.0531Y-2.3845
X1.0531Y-2.6845
X1.1616Y-4.5468
X1.1616Y-4.8468
X1.2549Y-1.414
X1.2549Y-1.714
X1.266Y-4.5465
X1.266Y-4.8465
X1.4259Y-3.1468
X1.4259Y-3.4468
X1.571Y-5.3517
X1.571Y-5.6517
X1.6251Y-3.8249
X1.6251Y-4.1249
X1.8031Y-2.3845
X1.8031Y-2.6845
X2.0002Y-4.5445
X2.0002Y-4.8445
X2.0049Y-1.414
X2.0049Y-1.714
X2.1759Y-3.1468
X2.1759Y-3.4468
X2.3751Y-3.8249
X2.3751Y-4.1249
X2.5531Y-2.3845
X2.5531Y-2.6845
X2.7502Y-4.5445
X2.7502Y-4.8445
X2.7549Y-1.414
X2.7549Y-1.714
X2.9259Y-3.1468
X2.9259Y-3.4468
X3.1251Y-3.8249
X3.1251Y-4.1249
X3.3031Y-2.3845
X3.3031Y-2.6845
X3.5002Y-4.5445
X3.5002Y-4.8445
X3.669Y-1.414
X3.669Y-1.714
X3.6759Y-3.1468
X3.6759Y-3.4468
X3.8751Y-3.8249
X3.8751Y-4.1249
X4.0531Y-2.3845
X4.0531Y-2.6845
X4.0707Y-5.2798
X4.0707Y-5.5798
X4.2502Y-4.5445
X4.2502Y-4.8445
X4.419Y-1.414
X4.419Y-1.714
X4.4259Y-3.1148
X4.4259Y-3.4148
X4.6251Y-3.8249
X4.6251Y-4.1249
X4.8031Y-2.3845
X4.8031Y-2.6845
X5.0002Y-4.5445
X5.0002Y-4.8445
X5.169Y-1.414
X5.169Y-1.714
X5.1759Y-3.1148
X5.1759Y-3.4148
X5.3751Y-3.8249
X5.3751Y-4.1249
X5.5531Y-2.3845
X5.5531Y-2.6845
X5.7502Y-4.5445
X5.7502Y-4.8445
X5.919Y-1.414
X5.919Y-1.714
X5.9259Y-3.1148
X5.9259Y-3.4148
X6.1251Y-3.8249
X6.1251Y-4.1249
X6.3031Y-2.3845
X6.3031Y-2.6845
X6.5002Y-4.5445
X6.5002Y-4.8445
X6.6759Y-3.1148
X6.6759Y-3.4148
X6.8564Y-1.414
X6.8564Y-1.714
X6.8751Y-3.8249
X6.8751Y-4.1249
X7.0531Y-2.3845
X7.0531Y-2.6845
X7.2222Y-5.2945
X7.2222Y-5.5945
X7.2502Y-4.5445
X7.2502Y-4.8445
X7.4259Y-3.1148
X7.4259Y-3.4148
X7.6064Y-1.414
X7.6064Y-1.714
X7.6251Y-3.8249
X7.6251Y-4.1249
X7.8031Y-2.3845
X7.8031Y-2.6845
X8.0002Y-4.5445
X8.0002Y-4.8445
X8.1102Y-0.1555
X8.1759Y-3.1148
X8.1759Y-3.4148
X8.2102Y-0.1555
X8.3437Y-5.2945
X8.3437Y-5.5945
X8.3564Y-1.414
X8.3564Y-1.714
X8.3751Y-3.8249
X8.3751Y-4.1249
X8.5531Y-2.3845
X8.5531Y-2.6845
X8.8684Y-4.5445
X8.8684Y-4.8445
X8.9259Y-3.1148
X8.9259Y-3.4148
X9.1064Y-1.414
X9.1064Y-1.714
X9.1251Y-3.8249
X9.1251Y-4.1249
X9.3031Y-2.3845
X9.3031Y-2.6845
X9.4661Y-5.4925
X9.4661Y-5.7925
X9.794Y-3.1074
X9.794Y-3.4074
X10.0439Y-1.414
X10.0439Y-1.714
X10.2162Y-4.7595
X10.2162Y-5.0595
X10.2555Y-5.4925
X10.2555Y-5.7925
X10.8122Y-2.3862
X10.8122Y-2.6862
X11.0055Y-5.4925
X11.0055Y-5.7925
X11.1538Y-4.5445
X11.1538Y-4.8445
X11.1743Y-3.8249
X11.1743Y-4.1249
X11.1751Y-2.3845
X11.1751Y-2.6845
X11.1779Y-3.1468
X11.1779Y-3.4468
X11.1783Y-1.414
X11.1783Y-1.714
T7
X11.4561Y-1.1359
X11.4561Y-1.7068
X11.5545Y-1.7068
X11.653Y-1.1359
X11.653Y-1.7068
T8
X6.5722Y-0.115
X6.5722Y-0.215
X6.6722Y-0.115
X6.6722Y-0.215
X6.7722Y-0.115
X6.7722Y-0.215
T9
X6.965Y-0.086
X6.965Y-0.2632
X7.2209Y-0.086
X7.2209Y-0.2632
X7.4285Y-0.083
X7.4285Y-0.2602
X7.6844Y-0.083
X7.6844Y-0.2602
T10
X-0.2213Y-1.3105
X-0.2213Y-2.248
X-0.1275Y-3.748
X-0.1269Y-5.2476
X-0.0338Y-2.998
X-0.0331Y-5.2476
X0.0287Y-1.2105
X0.0287Y-2.148
X0.06Y-3.748
X0.1225Y-3.648
X0.1231Y-5.1476
X0.2162Y-2.898
X0.2169Y-5.1476
X0.2475Y-4.498
X0.31Y-3.648
X0.4975Y-4.398
X0.5287Y-2.248
X0.7157Y-1.3115
X0.7787Y-2.148
X0.8106Y-5.2476
X0.9037Y-2.998
X0.9657Y-1.2115
X1.0606Y-5.1476
X1.0912Y-3.748
X1.0919Y-5.2476
X1.1537Y-2.898
X1.2787Y-2.248
X1.3412Y-3.648
X1.3419Y-5.1476
X1.4657Y-1.3115
X1.4662Y-4.498
X1.5287Y-2.148
X1.6537Y-2.998
X1.7157Y-1.2115
X1.7162Y-4.398
X1.748Y-5.2476
X1.8412Y-3.748
X1.9037Y-2.898
X1.998Y-5.1476
X2.0287Y-2.248
X2.0912Y-3.648
X2.2157Y-1.3115
X2.2162Y-4.498
X2.2787Y-2.148
X2.4037Y-2.998
X2.4657Y-1.2115
X2.4662Y-4.398
X2.5912Y-3.748
X2.6537Y-2.898
X2.7787Y-2.248
X2.8412Y-3.648
X2.9657Y-1.3115
X2.9662Y-4.498
X3.0287Y-2.148
X3.1537Y-2.998
X3.2157Y-1.2115
X3.2162Y-4.398
X3.3412Y-3.748
X3.4037Y-2.898
X3.5287Y-2.248
X3.5912Y-3.648
X3.7163Y-4.498
X3.7787Y-2.148
X3.9032Y-1.3115
X3.9037Y-2.998
X3.9663Y-4.398
X4.0913Y-3.748
X4.1532Y-1.2115
X4.1537Y-2.898
X4.2782Y-5.249
X4.2787Y-2.248
X4.3413Y-3.648
X4.4663Y-4.498
X4.5282Y-5.149
X4.5287Y-2.148
X4.5597Y-5.2485
X4.6532Y-1.3115
X4.6537Y-2.998
X4.7163Y-4.398
X4.8097Y-5.1485
X4.8413Y-3.748
X4.9032Y-1.2115
X4.9037Y-2.898
X5.0287Y-2.248
X5.0913Y-3.648
X5.2163Y-4.498
X5.2787Y-2.148
X5.4032Y-1.3115
X5.4037Y-2.998
X5.4663Y-4.398
X5.5913Y-3.748
X5.6532Y-1.2115
X5.6537Y-2.898
X5.7787Y-2.248
X5.8413Y-3.648
X5.9663Y-4.498
X6.0287Y-2.148
X6.1532Y-1.3115
X6.1537Y-2.998
X6.2163Y-4.398
X6.3413Y-3.748
X6.4032Y-1.2115
X6.4037Y-2.898
X6.5287Y-2.248
X6.5913Y-3.648
X6.7163Y-4.498
X6.7787Y-2.148
X6.9037Y-2.998
X6.9663Y-4.398
X7.0907Y-1.3115
X7.0913Y-3.748
X7.1537Y-2.898
X7.2787Y-2.248
X7.3407Y-1.2115
X7.3413Y-3.648
X7.466Y-5.2485
X7.4663Y-4.498
X7.5287Y-2.148
X7.6537Y-2.998
X7.716Y-5.1485
X7.7163Y-4.398
X7.8407Y-1.3115
X7.8413Y-3.748
X7.9037Y-2.898
X8.0287Y-2.248
X8.0907Y-1.2115
X8.0913Y-3.648
X8.2163Y-4.498
X8.2787Y-2.148
X8.4037Y-2.998
X8.4663Y-4.398
X8.5907Y-1.3115
X8.591Y-5.2485
X8.5913Y-3.748
X8.6537Y-2.898
X8.7787Y-2.248
X8.8407Y-1.2115
X8.841Y-5.1485
X8.8413Y-3.648
X9.0287Y-2.148
X9.1537Y-2.998
X9.2475Y-4.498
X9.3407Y-1.3115
X9.4037Y-2.898
X9.4975Y-4.398
X9.5907Y-1.2115
X9.716Y-5.436
X9.81Y-3.748
X9.9037Y-2.248
X9.966Y-5.336
X10.06Y-3.648
X10.0912Y-2.998
X10.1537Y-2.148
X10.2785Y-1.3115
X10.3412Y-2.898
X10.466Y-5.436
X10.4663Y-4.6855
X10.5285Y-1.2115
X10.716Y-5.336
X10.7163Y-4.5855
X11.216Y-5.436
X11.4035Y-1.3115
X11.4037Y-2.248
X11.4037Y-2.998
X11.4037Y-3.748
X11.4038Y-4.498
X11.466Y-5.336
X11.6535Y-1.2115
X11.6537Y-2.148
X11.6537Y-2.898
X11.6537Y-3.648
X11.6538Y-4.398
T12
X-0.2587Y-0.0633
X-0.2587Y-0.898
X-0.2587Y-3.4708
X-0.2498Y-5.7513
X5.7403Y-0.0623
X5.7403Y-0.897
X5.7403Y-5.6135
X5.7405Y-2.7208
X11.7393Y-0.898
X11.7403Y-0.0623
X11.7452Y-3.4747
X11.757Y-5.7671
T2
G00X2.7049Y-0.0554
M15
G01X2.7049Y-0.0239
M16
G05
G00X2.7049Y-0.2023
M15
G01X2.7049Y-0.1432
M16
G05
G00X3.0455Y-0.0554
M15
G01X3.0455Y-0.0239
M16
G05
G00X3.0455Y-0.2023
M15
G01X3.0455Y-0.1432
M16
G05
T11
G00X11.3341Y-1.4371
M15
G01X11.3341Y-1.3859
M16
G05
G00X11.775Y-1.4371
M15
G01X11.775Y-1.3859
M16
G05
T0
M30
