M48
; DRILL file {KiCad (5.1.7)-1} date 10/01/20 02:14:03
; FORMAT={-:-/ absolute / inch / decimal}
; #@! TF.CreationDate,2020-10-01T02:14:03-04:00
; #@! TF.GenerationSoftware,Kicad,Pcbnew,(5.1.7)-1
; #@! TF.FileFunction,Plated,1,2,PTH
FMAT,2
INCH
T1C0.0157
T2C0.0236
T3C0.0276
T4C0.0315
T5C0.0354
T6C0.0400
T7C0.0433
T8C0.0579
%
G90
G05
T1
X1.9563Y-1.0978
X2.0465Y-0.852
X2.2527Y-1.0978
X2.4125Y-0.9265
X3.065Y-0.032
X3.326Y-0.321
X6.924Y-0.7045
X7.055Y-0.7555
X7.0585Y-0.316
X7.1055Y-0.716
X8.919Y-0.7915
X9.1657Y-1.0537
X9.217Y-1.079
X9.2605Y-1.104
X9.424Y-1.106
X9.5385Y-1.1545
X9.713Y-1.162
X10.6275Y-1.1425
X10.7235Y-1.105
X10.7975Y-1.0795
X10.903Y-1.068
X2.9291Y-0.158
X2.9293Y-0.2102
X2.9626Y-0.158
X2.9628Y-0.2102
X2.9961Y-0.158
X2.9963Y-0.2102
X3.0295Y-0.158
X3.0297Y-0.2102
X3.063Y-0.158
X3.0632Y-0.2102
X3.0965Y-0.158
X3.0967Y-0.2102
X3.1299Y-0.158
X3.1301Y-0.2102
X3.1636Y-0.158
X3.1636Y-0.2102
T2
X8.0995Y-0.311
X8.0995Y-0.3701
T3
X8.5145Y-0.7257
X8.8145Y-0.7257
X8.5145Y-0.4304
X8.8145Y-0.4304
X8.5145Y-0.5288
X8.8145Y-0.5288
X8.5145Y-0.9225
X8.8145Y-0.9225
X8.5145Y-0.8241
X8.8145Y-0.8241
X8.5145Y-0.6273
X8.8145Y-0.6273
X6.5645Y-0.2226
X6.5645Y-0.4234
X8.5145Y-0.332
X8.8145Y-0.332
T4
X10.2261Y-0.2391
X10.423Y-0.2391
X8.1464Y-0.6075
X8.1464Y-0.8075
X10.2251Y-1.0329
X10.422Y-1.0329
X9.0495Y-0.3203
X9.1479Y-0.3203
X8.3039Y-0.6075
X8.3039Y-0.8075
X9.32Y-0.3345
X9.32Y-0.9345
X9.42Y-0.3345
X9.42Y-0.9345
X9.52Y-0.3345
X9.52Y-0.9345
X9.62Y-0.3345
X9.62Y-0.9345
X9.72Y-0.3345
X9.72Y-0.9345
X9.82Y-0.3345
X9.82Y-0.9345
X9.92Y-0.3345
X9.92Y-0.9345
X10.02Y-0.3345
X10.02Y-0.9345
X10.12Y-0.3345
X10.12Y-0.9345
X10.22Y-0.3345
X10.22Y-0.9345
X10.32Y-0.3345
X10.32Y-0.9345
X10.42Y-0.3345
X10.42Y-0.9345
X10.52Y-0.3345
X10.52Y-0.9345
X10.62Y-0.3345
X10.62Y-0.9345
X10.72Y-0.3345
X10.72Y-0.9345
X10.82Y-0.3345
X10.82Y-0.9345
X10.92Y-0.3345
X10.92Y-0.9345
X11.02Y-0.3345
X11.02Y-0.9345
X11.12Y-0.3345
X11.12Y-0.9345
X11.22Y-0.3345
X11.22Y-0.9345
X9.0995Y-0.5133
X9.0995Y-0.7054
X9.048Y-0.9043
X9.1464Y-0.9043
T5
X9.2964Y-4.0009
X9.2964Y-4.3009
X2.5464Y-4.0009
X2.5464Y-4.3009
X10.4267Y-5.6685
X10.4267Y-5.9685
X9.0971Y-3.3227
X9.0971Y-3.6227
X0.639Y-5.4657
X0.639Y-5.7657
X5.3471Y-3.3227
X5.3471Y-3.6227
X2.1715Y-4.7205
X2.1715Y-5.0205
X7.244Y-2.5605
X7.244Y-2.8605
X7.7777Y-1.59
X7.7777Y-1.89
X1.994Y-2.5605
X1.994Y-2.8605
X0.6761Y-1.59
X0.6761Y-1.89
X4.0464Y-4.0009
X4.0464Y-4.3009
X1.4215Y-4.7205
X1.4215Y-5.0205
X6.6715Y-4.7205
X6.6715Y-5.0205
X11.3491Y-3.3227
X11.3491Y-3.6227
X11.1767Y-5.6685
X11.1767Y-5.9685
X7.5971Y-3.3227
X7.5971Y-3.6227
X7.7964Y-4.0009
X7.7964Y-4.3009
X7.994Y-2.5605
X7.994Y-2.8605
X0.494Y-2.5605
X0.494Y-2.8605
X4.5902Y-1.59
X4.5902Y-1.89
X2.744Y-2.5605
X2.744Y-2.8605
X-0.0176Y-1.89
X0.2824Y-1.89
X3.6715Y-4.7205
X3.6715Y-5.0205
X10.3875Y-4.9355
X10.3875Y-5.2355
X3.2964Y-4.0009
X3.2964Y-4.3009
X9.0396Y-4.7205
X9.0396Y-5.0205
X4.5971Y-3.3227
X4.5971Y-3.6227
X8.5464Y-4.0009
X8.5464Y-4.3009
X2.3471Y-3.3227
X2.3471Y-3.6227
X3.8402Y-1.59
X3.8402Y-1.89
X9.2777Y-1.59
X9.2777Y-1.89
X10.2152Y-1.59
X10.2152Y-1.89
X2.9261Y-1.59
X2.9261Y-1.89
X5.1715Y-4.7205
X5.1715Y-5.0205
X1.0464Y-4.0009
X1.0464Y-4.3009
X9.6374Y-5.6685
X9.6374Y-5.9685
X-0.006Y-3.6227
X0.294Y-3.6227
X7.0464Y-4.0009
X7.0464Y-4.3009
X11.325Y-4.7205
X11.325Y-5.0205
X6.0971Y-3.3227
X6.0971Y-3.6227
X3.8471Y-3.3227
X3.8471Y-3.6227
X8.5277Y-1.59
X8.5277Y-1.89
X8.2815Y-0.3315
X8.3815Y-0.3315
X4.994Y-2.5605
X4.994Y-2.8605
X11.3495Y-1.59
X11.3495Y-1.89
X4.7964Y-4.0009
X4.7964Y-4.3009
X5.9215Y-4.7205
X5.9215Y-5.0205
X5.5464Y-4.0009
X5.5464Y-4.3009
X0.7785Y-5.4657
X0.7785Y-5.7657
X0.8471Y-3.3227
X0.8471Y-3.6227
X11.3456Y-4.0009
X11.3456Y-4.3009
X8.515Y-5.4705
X8.515Y-5.7705
X6.8471Y-3.3227
X6.8471Y-3.6227
X8.744Y-2.5605
X8.744Y-2.8605
X1.244Y-2.5605
X1.244Y-2.8605
X5.3402Y-1.59
X5.3402Y-1.89
X3.494Y-2.5605
X3.494Y-2.8605
X1.4261Y-1.59
X1.4261Y-1.89
X6.2964Y-4.0009
X6.2964Y-4.3009
X8.1715Y-4.7205
X8.1715Y-5.0205
X-0.043Y-4.2615
X0.257Y-4.2615
X4.242Y-5.4557
X4.242Y-5.7557
X1.5971Y-3.3227
X1.5971Y-3.6227
X2.9215Y-4.7205
X2.9215Y-5.0205
X7.3935Y-5.4705
X7.3935Y-5.7705
X5.744Y-2.5605
X5.744Y-2.8605
X9.494Y-2.5605
X9.494Y-2.8605
X4.244Y-2.5605
X4.244Y-2.8605
X6.0902Y-1.59
X6.0902Y-1.89
X2.1761Y-1.59
X2.1761Y-1.89
X9.9653Y-3.2834
X9.9653Y-3.5834
X8.3471Y-3.3227
X8.3471Y-3.6227
X1.74Y-5.4447
X1.74Y-5.7447
X1.7964Y-4.0009
X1.7964Y-4.3009
X7.4215Y-4.7205
X7.4215Y-5.0205
X3.0971Y-3.3227
X3.0971Y-3.6227
X-0.168Y-4.711
X-0.168Y-5.011
X4.4215Y-4.7205
X4.4215Y-5.0205
X6.494Y-2.5605
X6.494Y-2.8605
X11.3464Y-2.5605
X11.3464Y-2.8605
X-0.0009Y-2.8605
X0.2991Y-2.8605
X7.0277Y-1.59
X7.0277Y-1.89
T6
X6.7435Y-0.291
X6.7435Y-0.391
X6.8435Y-0.291
X6.8435Y-0.391
X6.9435Y-0.291
X6.9435Y-0.391
T7
X7.5997Y-0.259
X7.5997Y-0.4362
X7.8556Y-0.259
X7.8556Y-0.4362
X7.1362Y-0.262
X7.1362Y-0.4392
X7.3921Y-0.262
X7.3921Y-0.4392
T8
X8.7622Y-5.4245
X9.0122Y-5.3245
X3.1375Y-4.674
X3.3875Y-4.574
X8.3875Y-4.674
X8.6375Y-4.574
X6.1375Y-4.674
X6.3875Y-4.574
X1.9193Y-5.4236
X2.1693Y-5.3236
X5.0125Y-3.924
X5.2625Y-3.824
X9.325Y-3.174
X9.575Y-3.074
X6.3245Y-1.4875
X6.5745Y-1.3875
X5.575Y-3.174
X5.825Y-3.074
X4.45Y-2.424
X4.7Y-2.324
X0.0438Y-3.924
X0.2938Y-3.824
X2.387Y-1.4875
X2.637Y-1.3875
X1.2631Y-5.4236
X1.5131Y-5.3236
X11.5748Y-1.4875
X11.8248Y-1.3875
X5.3875Y-4.674
X5.6375Y-4.574
X4.731Y-5.4245
X4.981Y-5.3245
X4.2625Y-3.924
X4.5125Y-3.824
X4.4495Y-5.425
X4.6995Y-5.325
X8.2Y-2.424
X8.45Y-2.324
X1.6375Y-4.674
X1.8875Y-4.574
X11.575Y-3.174
X11.825Y-3.074
X5.2Y-2.424
X5.45Y-2.324
X0.2312Y-3.924
X0.4812Y-3.824
X1.2625Y-3.924
X1.5125Y-3.824
X5.95Y-2.424
X6.2Y-2.324
X-0.05Y-1.4865
X0.2Y-1.3865
X0.1381Y-5.4236
X0.3881Y-5.3236
X5.7625Y-3.924
X6.0125Y-3.824
X11.575Y-4.674
X11.825Y-4.574
X8.7625Y-3.924
X9.0125Y-3.824
X11.3872Y-5.612
X11.6372Y-5.512
X1.075Y-3.174
X1.325Y-3.074
X8.762Y-1.4875
X9.012Y-1.3875
X7.262Y-1.4875
X7.512Y-1.3875
X2.575Y-3.174
X2.825Y-3.074
X6.7Y-2.424
X6.95Y-2.324
X5.5745Y-1.4875
X5.8245Y-1.3875
X7.6372Y-5.4245
X7.8872Y-5.3245
X9.8872Y-5.612
X10.1372Y-5.512
X8.0125Y-3.924
X8.2625Y-3.824
X10.6375Y-4.8615
X10.8875Y-4.7615
X2.3875Y-4.674
X2.6375Y-4.574
X1.825Y-3.174
X2.075Y-3.074
X0.7Y-2.424
X0.95Y-2.324
X8.012Y-1.4875
X8.262Y-1.3875
X3.325Y-3.174
X3.575Y-3.074
X2.95Y-2.424
X3.2Y-2.324
X0.887Y-1.4875
X1.137Y-1.3875
X4.0745Y-1.4875
X4.3245Y-1.3875
X0.1375Y-3.174
X0.3875Y-3.074
X11.575Y-3.924
X11.825Y-3.824
X3.8875Y-4.674
X4.1375Y-4.574
X9.4188Y-4.674
X9.6688Y-4.574
X7.2625Y-3.924
X7.5125Y-3.824
X4.075Y-3.174
X4.325Y-3.074
X10.075Y-2.424
X10.325Y-2.324
X10.4498Y-1.4875
X10.6998Y-1.3875
X9.512Y-1.4875
X9.762Y-1.3875
X7.075Y-3.174
X7.325Y-3.074
X3.137Y-1.4875
X3.387Y-1.3875
X4.8245Y-1.4875
X5.0745Y-1.3875
X7.45Y-2.424
X7.7Y-2.324
X9.9813Y-3.924
X10.2313Y-3.824
X2.0125Y-3.924
X2.2625Y-3.824
X10.6372Y-5.612
X10.8872Y-5.512
X3.5125Y-3.924
X3.7625Y-3.824
X0.0444Y-5.4236
X0.2944Y-5.3236
X4.6375Y-4.674
X4.8875Y-4.574
X4.825Y-3.174
X5.075Y-3.074
X10.2625Y-3.174
X10.5125Y-3.074
X11.575Y-2.424
X11.825Y-2.324
X1.45Y-2.424
X1.7Y-2.324
X-0.05Y-2.424
X0.2Y-2.324
X8.95Y-2.424
X9.2Y-2.324
X1.637Y-1.4875
X1.887Y-1.3875
X0.4187Y-4.674
X0.6687Y-4.574
X2.7625Y-3.924
X3.0125Y-3.824
X7.6375Y-4.674
X7.8875Y-4.574
X6.5125Y-3.924
X6.7625Y-3.824
X0.9818Y-5.4236
X1.2318Y-5.3236
X6.8875Y-4.674
X7.1375Y-4.574
X8.575Y-3.174
X8.825Y-3.074
X7.825Y-3.174
X8.075Y-3.074
X6.325Y-3.174
X6.575Y-3.074
X2.2Y-2.424
X2.45Y-2.324
X3.7Y-2.424
X3.95Y-2.324
T2
G00X2.8762Y-0.0543
M15
G01X2.8762Y-0.0228
M16
G05
G00X2.8762Y-0.2011
M15
G01X2.8762Y-0.1421
M16
G05
G00X3.2167Y-0.0543
M15
G01X3.2167Y-0.0228
M16
G05
G00X3.2167Y-0.2011
M15
G01X3.2167Y-0.1421
M16
G05
T0
M30
