%TF.GenerationSoftware,KiCad,Pcbnew,(5.1.7)-1*%
%TF.CreationDate,2020-10-01T02:14:01-04:00*%
%TF.ProjectId,LCK75,4c434b37-352e-46b6-9963-61645f706362,rev?*%
%TF.SameCoordinates,Original*%
%TF.FileFunction,Soldermask,Bot*%
%TF.FilePolarity,Negative*%
%FSLAX46Y46*%
G04 Gerber Fmt 4.6, Leading zero omitted, Abs format (unit mm)*
G04 Created by KiCad (PCBNEW (5.1.7)-1) date 2020-10-01 02:14:01*
%MOMM*%
%LPD*%
G01*
G04 APERTURE LIST*
%ADD10C,2.350000*%
%ADD11C,4.087800*%
%ADD12C,1.850000*%
%ADD13O,1.900000X1.900000*%
%ADD14O,0.750000X1.100000*%
%ADD15O,1.000000X2.500000*%
%ADD16O,1.000000X1.800000*%
%ADD17C,3.148000*%
%ADD18C,1.600000*%
%ADD19O,1.700000X1.700000*%
%ADD20C,2.100000*%
%ADD21C,1.500000*%
%ADD22O,1.500000X1.500000*%
%ADD23C,1.900000*%
%ADD24C,1.800000*%
%ADD25C,1.700000*%
%ADD26C,1.300000*%
G04 APERTURE END LIST*
D10*
%TO.C,SW44*%
X267017000Y-78079400D03*
D11*
X264477000Y-83159400D03*
D10*
X260667000Y-80619400D03*
D12*
X259397000Y-83159400D03*
X269557000Y-83159400D03*
%TD*%
D13*
%TO.C,D85*%
X236127800Y-101622100D03*
G36*
G01*
X237027800Y-110192100D02*
X235227800Y-110192100D01*
G75*
G02*
X235177800Y-110142100I0J50000D01*
G01*
X235177800Y-108342100D01*
G75*
G02*
X235227800Y-108292100I50000J0D01*
G01*
X237027800Y-108292100D01*
G75*
G02*
X237077800Y-108342100I0J-50000D01*
G01*
X237077800Y-110142100D01*
G75*
G02*
X237027800Y-110192100I-50000J0D01*
G01*
G37*
%TD*%
%TO.C,D91*%
X253117600Y-83397600D03*
G36*
G01*
X254017600Y-91967600D02*
X252217600Y-91967600D01*
G75*
G02*
X252167600Y-91917600I0J50000D01*
G01*
X252167600Y-90117600D01*
G75*
G02*
X252217600Y-90067600I50000J0D01*
G01*
X254017600Y-90067600D01*
G75*
G02*
X254067600Y-90117600I0J-50000D01*
G01*
X254067600Y-91917600D01*
G75*
G02*
X254017600Y-91967600I-50000J0D01*
G01*
G37*
%TD*%
%TO.C,D53*%
X159927800Y-101622100D03*
G36*
G01*
X160827800Y-110192100D02*
X159027800Y-110192100D01*
G75*
G02*
X158977800Y-110142100I0J50000D01*
G01*
X158977800Y-108342100D01*
G75*
G02*
X159027800Y-108292100I50000J0D01*
G01*
X160827800Y-108292100D01*
G75*
G02*
X160877800Y-108342100I0J-50000D01*
G01*
X160877800Y-110142100D01*
G75*
G02*
X160827800Y-110192100I-50000J0D01*
G01*
G37*
%TD*%
%TO.C,D51*%
X121827800Y-101622100D03*
G36*
G01*
X122727800Y-110192100D02*
X120927800Y-110192100D01*
G75*
G02*
X120877800Y-110142100I0J50000D01*
G01*
X120877800Y-108342100D01*
G75*
G02*
X120927800Y-108292100I50000J0D01*
G01*
X122727800Y-108292100D01*
G75*
G02*
X122777800Y-108342100I0J-50000D01*
G01*
X122777800Y-110142100D01*
G75*
G02*
X122727800Y-110192100I-50000J0D01*
G01*
G37*
%TD*%
%TO.C,D50*%
X102777800Y-101622100D03*
G36*
G01*
X103677800Y-110192100D02*
X101877800Y-110192100D01*
G75*
G02*
X101827800Y-110142100I0J50000D01*
G01*
X101827800Y-108342100D01*
G75*
G02*
X101877800Y-108292100I50000J0D01*
G01*
X103677800Y-108292100D01*
G75*
G02*
X103727800Y-108342100I0J-50000D01*
G01*
X103727800Y-110142100D01*
G75*
G02*
X103677800Y-110192100I-50000J0D01*
G01*
G37*
%TD*%
D12*
%TO.C,SW6*%
X112382000Y-40322500D03*
X102222000Y-40322500D03*
D10*
X103492000Y-37782500D03*
D11*
X107302000Y-40322500D03*
D10*
X109842000Y-35242500D03*
%TD*%
D13*
%TO.C,D82*%
X283889200Y-143979900D03*
G36*
G01*
X284789200Y-152549900D02*
X282989200Y-152549900D01*
G75*
G02*
X282939200Y-152499900I0J50000D01*
G01*
X282939200Y-150699900D01*
G75*
G02*
X282989200Y-150649900I50000J0D01*
G01*
X284789200Y-150649900D01*
G75*
G02*
X284839200Y-150699900I0J-50000D01*
G01*
X284839200Y-152499900D01*
G75*
G02*
X284789200Y-152549900I-50000J0D01*
G01*
G37*
%TD*%
%TO.C,D81*%
G36*
G01*
X265739200Y-152549900D02*
X263939200Y-152549900D01*
G75*
G02*
X263889200Y-152499900I0J50000D01*
G01*
X263889200Y-150699900D01*
G75*
G02*
X263939200Y-150649900I50000J0D01*
G01*
X265739200Y-150649900D01*
G75*
G02*
X265789200Y-150699900I0J-50000D01*
G01*
X265789200Y-152499900D01*
G75*
G02*
X265739200Y-152549900I-50000J0D01*
G01*
G37*
X264839200Y-143979900D03*
%TD*%
%TO.C,D80*%
G36*
G01*
X245689200Y-152549900D02*
X243889200Y-152549900D01*
G75*
G02*
X243839200Y-152499900I0J50000D01*
G01*
X243839200Y-150699900D01*
G75*
G02*
X243889200Y-150649900I50000J0D01*
G01*
X245689200Y-150649900D01*
G75*
G02*
X245739200Y-150699900I0J-50000D01*
G01*
X245739200Y-152499900D01*
G75*
G02*
X245689200Y-152549900I-50000J0D01*
G01*
G37*
X244789200Y-143979900D03*
%TD*%
%TO.C,D79*%
G36*
G01*
X217181000Y-147520700D02*
X215381000Y-147520700D01*
G75*
G02*
X215331000Y-147470700I0J50000D01*
G01*
X215331000Y-145670700D01*
G75*
G02*
X215381000Y-145620700I50000J0D01*
G01*
X217181000Y-145620700D01*
G75*
G02*
X217231000Y-145670700I0J-50000D01*
G01*
X217231000Y-147470700D01*
G75*
G02*
X217181000Y-147520700I-50000J0D01*
G01*
G37*
X216281000Y-138950700D03*
%TD*%
%TO.C,D78*%
G36*
G01*
X188694900Y-147520700D02*
X186894900Y-147520700D01*
G75*
G02*
X186844900Y-147470700I0J50000D01*
G01*
X186844900Y-145670700D01*
G75*
G02*
X186894900Y-145620700I50000J0D01*
G01*
X188694900Y-145620700D01*
G75*
G02*
X188744900Y-145670700I0J-50000D01*
G01*
X188744900Y-147470700D01*
G75*
G02*
X188694900Y-147520700I-50000J0D01*
G01*
G37*
X187794900Y-138950700D03*
%TD*%
%TO.C,D77*%
G36*
G01*
X108646800Y-147145800D02*
X106846800Y-147145800D01*
G75*
G02*
X106796800Y-147095800I0J50000D01*
G01*
X106796800Y-145295800D01*
G75*
G02*
X106846800Y-145245800I50000J0D01*
G01*
X108646800Y-145245800D01*
G75*
G02*
X108696800Y-145295800I0J-50000D01*
G01*
X108696800Y-147095800D01*
G75*
G02*
X108646800Y-147145800I-50000J0D01*
G01*
G37*
X107746800Y-138575800D03*
%TD*%
%TO.C,D76*%
G36*
G01*
X45096000Y-146866400D02*
X43296000Y-146866400D01*
G75*
G02*
X43246000Y-146816400I0J50000D01*
G01*
X43246000Y-145016400D01*
G75*
G02*
X43296000Y-144966400I50000J0D01*
G01*
X45096000Y-144966400D01*
G75*
G02*
X45146000Y-145016400I0J-50000D01*
G01*
X45146000Y-146816400D01*
G75*
G02*
X45096000Y-146866400I-50000J0D01*
G01*
G37*
X44196000Y-138296400D03*
%TD*%
%TO.C,D75*%
G36*
G01*
X20673900Y-147399800D02*
X18873900Y-147399800D01*
G75*
G02*
X18823900Y-147349800I0J50000D01*
G01*
X18823900Y-145549800D01*
G75*
G02*
X18873900Y-145499800I50000J0D01*
G01*
X20673900Y-145499800D01*
G75*
G02*
X20723900Y-145549800I0J-50000D01*
G01*
X20723900Y-147349800D01*
G75*
G02*
X20673900Y-147399800I-50000J0D01*
G01*
G37*
X19773900Y-138829800D03*
%TD*%
%TO.C,D74*%
G36*
G01*
X17130600Y-147399800D02*
X15330600Y-147399800D01*
G75*
G02*
X15280600Y-147349800I0J50000D01*
G01*
X15280600Y-145549800D01*
G75*
G02*
X15330600Y-145499800I50000J0D01*
G01*
X17130600Y-145499800D01*
G75*
G02*
X17180600Y-145549800I0J-50000D01*
G01*
X17180600Y-147349800D01*
G75*
G02*
X17130600Y-147399800I-50000J0D01*
G01*
G37*
X16230600Y-138829800D03*
%TD*%
%TO.C,D73*%
G36*
G01*
X264742500Y-133931700D02*
X262942500Y-133931700D01*
G75*
G02*
X262892500Y-133881700I0J50000D01*
G01*
X262892500Y-132081700D01*
G75*
G02*
X262942500Y-132031700I50000J0D01*
G01*
X264742500Y-132031700D01*
G75*
G02*
X264792500Y-132081700I0J-50000D01*
G01*
X264792500Y-133881700D01*
G75*
G02*
X264742500Y-133931700I-50000J0D01*
G01*
G37*
X263842500Y-125361700D03*
%TD*%
%TO.C,D72*%
G36*
G01*
X288556100Y-128470700D02*
X286756100Y-128470700D01*
G75*
G02*
X286706100Y-128420700I0J50000D01*
G01*
X286706100Y-126620700D01*
G75*
G02*
X286756100Y-126570700I50000J0D01*
G01*
X288556100Y-126570700D01*
G75*
G02*
X288606100Y-126620700I0J-50000D01*
G01*
X288606100Y-128420700D01*
G75*
G02*
X288556100Y-128470700I-50000J0D01*
G01*
G37*
X287656100Y-119900700D03*
%TD*%
%TO.C,D71*%
G36*
G01*
X230506100Y-128470700D02*
X228706100Y-128470700D01*
G75*
G02*
X228656100Y-128420700I0J50000D01*
G01*
X228656100Y-126620700D01*
G75*
G02*
X228706100Y-126570700I50000J0D01*
G01*
X230506100Y-126570700D01*
G75*
G02*
X230556100Y-126620700I0J-50000D01*
G01*
X230556100Y-128420700D01*
G75*
G02*
X230506100Y-128470700I-50000J0D01*
G01*
G37*
X229606100Y-119900700D03*
%TD*%
%TO.C,D70*%
G36*
G01*
X208456100Y-128470700D02*
X206656100Y-128470700D01*
G75*
G02*
X206606100Y-128420700I0J50000D01*
G01*
X206606100Y-126620700D01*
G75*
G02*
X206656100Y-126570700I50000J0D01*
G01*
X208456100Y-126570700D01*
G75*
G02*
X208506100Y-126620700I0J-50000D01*
G01*
X208506100Y-128420700D01*
G75*
G02*
X208456100Y-128470700I-50000J0D01*
G01*
G37*
X207556100Y-119900700D03*
%TD*%
%TO.C,D69*%
G36*
G01*
X189406100Y-128470700D02*
X187606100Y-128470700D01*
G75*
G02*
X187556100Y-128420700I0J50000D01*
G01*
X187556100Y-126620700D01*
G75*
G02*
X187606100Y-126570700I50000J0D01*
G01*
X189406100Y-126570700D01*
G75*
G02*
X189456100Y-126620700I0J-50000D01*
G01*
X189456100Y-128420700D01*
G75*
G02*
X189406100Y-128470700I-50000J0D01*
G01*
G37*
X188506100Y-119900700D03*
%TD*%
%TO.C,D68*%
G36*
G01*
X170356100Y-128470700D02*
X168556100Y-128470700D01*
G75*
G02*
X168506100Y-128420700I0J50000D01*
G01*
X168506100Y-126620700D01*
G75*
G02*
X168556100Y-126570700I50000J0D01*
G01*
X170356100Y-126570700D01*
G75*
G02*
X170406100Y-126620700I0J-50000D01*
G01*
X170406100Y-128420700D01*
G75*
G02*
X170356100Y-128470700I-50000J0D01*
G01*
G37*
X169456100Y-119900700D03*
%TD*%
%TO.C,D67*%
G36*
G01*
X151306100Y-128470700D02*
X149506100Y-128470700D01*
G75*
G02*
X149456100Y-128420700I0J50000D01*
G01*
X149456100Y-126620700D01*
G75*
G02*
X149506100Y-126570700I50000J0D01*
G01*
X151306100Y-126570700D01*
G75*
G02*
X151356100Y-126620700I0J-50000D01*
G01*
X151356100Y-128420700D01*
G75*
G02*
X151306100Y-128470700I-50000J0D01*
G01*
G37*
X150406100Y-119900700D03*
%TD*%
%TO.C,D66*%
G36*
G01*
X132256100Y-128470700D02*
X130456100Y-128470700D01*
G75*
G02*
X130406100Y-128420700I0J50000D01*
G01*
X130406100Y-126620700D01*
G75*
G02*
X130456100Y-126570700I50000J0D01*
G01*
X132256100Y-126570700D01*
G75*
G02*
X132306100Y-126620700I0J-50000D01*
G01*
X132306100Y-128420700D01*
G75*
G02*
X132256100Y-128470700I-50000J0D01*
G01*
G37*
X131356100Y-119900700D03*
%TD*%
%TO.C,D65*%
X112306100Y-119900700D03*
G36*
G01*
X113206100Y-128470700D02*
X111406100Y-128470700D01*
G75*
G02*
X111356100Y-128420700I0J50000D01*
G01*
X111356100Y-126620700D01*
G75*
G02*
X111406100Y-126570700I50000J0D01*
G01*
X113206100Y-126570700D01*
G75*
G02*
X113256100Y-126620700I0J-50000D01*
G01*
X113256100Y-128420700D01*
G75*
G02*
X113206100Y-128470700I-50000J0D01*
G01*
G37*
%TD*%
%TO.C,D64*%
X93256100Y-119900700D03*
G36*
G01*
X94156100Y-128470700D02*
X92356100Y-128470700D01*
G75*
G02*
X92306100Y-128420700I0J50000D01*
G01*
X92306100Y-126620700D01*
G75*
G02*
X92356100Y-126570700I50000J0D01*
G01*
X94156100Y-126570700D01*
G75*
G02*
X94206100Y-126620700I0J-50000D01*
G01*
X94206100Y-128420700D01*
G75*
G02*
X94156100Y-128470700I-50000J0D01*
G01*
G37*
%TD*%
%TO.C,D63*%
X74206100Y-119900700D03*
G36*
G01*
X75106100Y-128470700D02*
X73306100Y-128470700D01*
G75*
G02*
X73256100Y-128420700I0J50000D01*
G01*
X73256100Y-126620700D01*
G75*
G02*
X73306100Y-126570700I50000J0D01*
G01*
X75106100Y-126570700D01*
G75*
G02*
X75156100Y-126620700I0J-50000D01*
G01*
X75156100Y-128420700D01*
G75*
G02*
X75106100Y-128470700I-50000J0D01*
G01*
G37*
%TD*%
%TO.C,D62*%
X55156100Y-119900700D03*
G36*
G01*
X56056100Y-128470700D02*
X54256100Y-128470700D01*
G75*
G02*
X54206100Y-128420700I0J50000D01*
G01*
X54206100Y-126620700D01*
G75*
G02*
X54256100Y-126570700I50000J0D01*
G01*
X56056100Y-126570700D01*
G75*
G02*
X56106100Y-126620700I0J-50000D01*
G01*
X56106100Y-128420700D01*
G75*
G02*
X56056100Y-128470700I-50000J0D01*
G01*
G37*
%TD*%
%TO.C,D61*%
X36106100Y-119900700D03*
G36*
G01*
X37006100Y-128470700D02*
X35206100Y-128470700D01*
G75*
G02*
X35156100Y-128420700I0J50000D01*
G01*
X35156100Y-126620700D01*
G75*
G02*
X35206100Y-126570700I50000J0D01*
G01*
X37006100Y-126570700D01*
G75*
G02*
X37056100Y-126620700I0J-50000D01*
G01*
X37056100Y-128420700D01*
G75*
G02*
X37006100Y-128470700I-50000J0D01*
G01*
G37*
%TD*%
%TO.C,D59*%
X-4267200Y-119659400D03*
G36*
G01*
X-3367200Y-128229400D02*
X-5167200Y-128229400D01*
G75*
G02*
X-5217200Y-128179400I0J50000D01*
G01*
X-5217200Y-126379400D01*
G75*
G02*
X-5167200Y-126329400I50000J0D01*
G01*
X-3367200Y-126329400D01*
G75*
G02*
X-3317200Y-126379400I0J-50000D01*
G01*
X-3317200Y-128179400D01*
G75*
G02*
X-3367200Y-128229400I-50000J0D01*
G01*
G37*
%TD*%
%TO.C,D58*%
X288177800Y-101622100D03*
G36*
G01*
X289077800Y-110192100D02*
X287277800Y-110192100D01*
G75*
G02*
X287227800Y-110142100I0J50000D01*
G01*
X287227800Y-108342100D01*
G75*
G02*
X287277800Y-108292100I50000J0D01*
G01*
X289077800Y-108292100D01*
G75*
G02*
X289127800Y-108342100I0J-50000D01*
G01*
X289127800Y-110142100D01*
G75*
G02*
X289077800Y-110192100I-50000J0D01*
G01*
G37*
%TD*%
%TO.C,D56*%
X217077800Y-101622100D03*
G36*
G01*
X217977800Y-110192100D02*
X216177800Y-110192100D01*
G75*
G02*
X216127800Y-110142100I0J50000D01*
G01*
X216127800Y-108342100D01*
G75*
G02*
X216177800Y-108292100I50000J0D01*
G01*
X217977800Y-108292100D01*
G75*
G02*
X218027800Y-108342100I0J-50000D01*
G01*
X218027800Y-110142100D01*
G75*
G02*
X217977800Y-110192100I-50000J0D01*
G01*
G37*
%TD*%
%TO.C,D55*%
X198027800Y-101622100D03*
G36*
G01*
X198927800Y-110192100D02*
X197127800Y-110192100D01*
G75*
G02*
X197077800Y-110142100I0J50000D01*
G01*
X197077800Y-108342100D01*
G75*
G02*
X197127800Y-108292100I50000J0D01*
G01*
X198927800Y-108292100D01*
G75*
G02*
X198977800Y-108342100I0J-50000D01*
G01*
X198977800Y-110142100D01*
G75*
G02*
X198927800Y-110192100I-50000J0D01*
G01*
G37*
%TD*%
%TO.C,D54*%
X178977800Y-101622100D03*
G36*
G01*
X179877800Y-110192100D02*
X178077800Y-110192100D01*
G75*
G02*
X178027800Y-110142100I0J50000D01*
G01*
X178027800Y-108342100D01*
G75*
G02*
X178077800Y-108292100I50000J0D01*
G01*
X179877800Y-108292100D01*
G75*
G02*
X179927800Y-108342100I0J-50000D01*
G01*
X179927800Y-110142100D01*
G75*
G02*
X179877800Y-110192100I-50000J0D01*
G01*
G37*
%TD*%
%TO.C,D52*%
X140877800Y-101622100D03*
G36*
G01*
X141777800Y-110192100D02*
X139977800Y-110192100D01*
G75*
G02*
X139927800Y-110142100I0J50000D01*
G01*
X139927800Y-108342100D01*
G75*
G02*
X139977800Y-108292100I50000J0D01*
G01*
X141777800Y-108292100D01*
G75*
G02*
X141827800Y-108342100I0J-50000D01*
G01*
X141827800Y-110142100D01*
G75*
G02*
X141777800Y-110192100I-50000J0D01*
G01*
G37*
%TD*%
%TO.C,D49*%
X83727800Y-101622100D03*
G36*
G01*
X84627800Y-110192100D02*
X82827800Y-110192100D01*
G75*
G02*
X82777800Y-110142100I0J50000D01*
G01*
X82777800Y-108342100D01*
G75*
G02*
X82827800Y-108292100I50000J0D01*
G01*
X84627800Y-108292100D01*
G75*
G02*
X84677800Y-108342100I0J-50000D01*
G01*
X84677800Y-110142100D01*
G75*
G02*
X84627800Y-110192100I-50000J0D01*
G01*
G37*
%TD*%
%TO.C,D48*%
X64677800Y-101622100D03*
G36*
G01*
X65577800Y-110192100D02*
X63777800Y-110192100D01*
G75*
G02*
X63727800Y-110142100I0J50000D01*
G01*
X63727800Y-108342100D01*
G75*
G02*
X63777800Y-108292100I50000J0D01*
G01*
X65577800Y-108292100D01*
G75*
G02*
X65627800Y-108342100I0J-50000D01*
G01*
X65627800Y-110142100D01*
G75*
G02*
X65577800Y-110192100I-50000J0D01*
G01*
G37*
%TD*%
%TO.C,D47*%
G36*
G01*
X46527800Y-110192100D02*
X44727800Y-110192100D01*
G75*
G02*
X44677800Y-110142100I0J50000D01*
G01*
X44677800Y-108342100D01*
G75*
G02*
X44727800Y-108292100I50000J0D01*
G01*
X46527800Y-108292100D01*
G75*
G02*
X46577800Y-108342100I0J-50000D01*
G01*
X46577800Y-110142100D01*
G75*
G02*
X46527800Y-110192100I-50000J0D01*
G01*
G37*
X45627800Y-101622100D03*
%TD*%
%TO.C,D46*%
G36*
G01*
X27477800Y-110192100D02*
X25677800Y-110192100D01*
G75*
G02*
X25627800Y-110142100I0J50000D01*
G01*
X25627800Y-108342100D01*
G75*
G02*
X25677800Y-108292100I50000J0D01*
G01*
X27477800Y-108292100D01*
G75*
G02*
X27527800Y-108342100I0J-50000D01*
G01*
X27527800Y-110142100D01*
G75*
G02*
X27477800Y-110192100I-50000J0D01*
G01*
G37*
X26577800Y-101622100D03*
%TD*%
%TO.C,D45*%
X-1092200Y-108242100D03*
G36*
G01*
X7477800Y-107342100D02*
X7477800Y-109142100D01*
G75*
G02*
X7427800Y-109192100I-50000J0D01*
G01*
X5627800Y-109192100D01*
G75*
G02*
X5577800Y-109142100I0J50000D01*
G01*
X5577800Y-107342100D01*
G75*
G02*
X5627800Y-107292100I50000J0D01*
G01*
X7427800Y-107292100D01*
G75*
G02*
X7477800Y-107342100I0J-50000D01*
G01*
G37*
%TD*%
%TO.C,D44*%
X288267600Y-84397600D03*
G36*
G01*
X289167600Y-92967600D02*
X287367600Y-92967600D01*
G75*
G02*
X287317600Y-92917600I0J50000D01*
G01*
X287317600Y-91117600D01*
G75*
G02*
X287367600Y-91067600I50000J0D01*
G01*
X289167600Y-91067600D01*
G75*
G02*
X289217600Y-91117600I0J-50000D01*
G01*
X289217600Y-92917600D01*
G75*
G02*
X289167600Y-92967600I-50000J0D01*
G01*
G37*
%TD*%
%TO.C,D43*%
X231067600Y-84397600D03*
G36*
G01*
X231967600Y-92967600D02*
X230167600Y-92967600D01*
G75*
G02*
X230117600Y-92917600I0J50000D01*
G01*
X230117600Y-91117600D01*
G75*
G02*
X230167600Y-91067600I50000J0D01*
G01*
X231967600Y-91067600D01*
G75*
G02*
X232017600Y-91117600I0J-50000D01*
G01*
X232017600Y-92917600D01*
G75*
G02*
X231967600Y-92967600I-50000J0D01*
G01*
G37*
%TD*%
%TO.C,D42*%
X212017600Y-84397600D03*
G36*
G01*
X212917600Y-92967600D02*
X211117600Y-92967600D01*
G75*
G02*
X211067600Y-92917600I0J50000D01*
G01*
X211067600Y-91117600D01*
G75*
G02*
X211117600Y-91067600I50000J0D01*
G01*
X212917600Y-91067600D01*
G75*
G02*
X212967600Y-91117600I0J-50000D01*
G01*
X212967600Y-92917600D01*
G75*
G02*
X212917600Y-92967600I-50000J0D01*
G01*
G37*
%TD*%
%TO.C,D41*%
X192967600Y-84397600D03*
G36*
G01*
X193867600Y-92967600D02*
X192067600Y-92967600D01*
G75*
G02*
X192017600Y-92917600I0J50000D01*
G01*
X192017600Y-91117600D01*
G75*
G02*
X192067600Y-91067600I50000J0D01*
G01*
X193867600Y-91067600D01*
G75*
G02*
X193917600Y-91117600I0J-50000D01*
G01*
X193917600Y-92917600D01*
G75*
G02*
X193867600Y-92967600I-50000J0D01*
G01*
G37*
%TD*%
%TO.C,D40*%
X173917600Y-84397600D03*
G36*
G01*
X174817600Y-92967600D02*
X173017600Y-92967600D01*
G75*
G02*
X172967600Y-92917600I0J50000D01*
G01*
X172967600Y-91117600D01*
G75*
G02*
X173017600Y-91067600I50000J0D01*
G01*
X174817600Y-91067600D01*
G75*
G02*
X174867600Y-91117600I0J-50000D01*
G01*
X174867600Y-92917600D01*
G75*
G02*
X174817600Y-92967600I-50000J0D01*
G01*
G37*
%TD*%
%TO.C,D39*%
X154867600Y-84397600D03*
G36*
G01*
X155767600Y-92967600D02*
X153967600Y-92967600D01*
G75*
G02*
X153917600Y-92917600I0J50000D01*
G01*
X153917600Y-91117600D01*
G75*
G02*
X153967600Y-91067600I50000J0D01*
G01*
X155767600Y-91067600D01*
G75*
G02*
X155817600Y-91117600I0J-50000D01*
G01*
X155817600Y-92917600D01*
G75*
G02*
X155767600Y-92967600I-50000J0D01*
G01*
G37*
%TD*%
%TO.C,D38*%
X135817600Y-84397600D03*
G36*
G01*
X136717600Y-92967600D02*
X134917600Y-92967600D01*
G75*
G02*
X134867600Y-92917600I0J50000D01*
G01*
X134867600Y-91117600D01*
G75*
G02*
X134917600Y-91067600I50000J0D01*
G01*
X136717600Y-91067600D01*
G75*
G02*
X136767600Y-91117600I0J-50000D01*
G01*
X136767600Y-92917600D01*
G75*
G02*
X136717600Y-92967600I-50000J0D01*
G01*
G37*
%TD*%
%TO.C,D37*%
X116767600Y-84397600D03*
G36*
G01*
X117667600Y-92967600D02*
X115867600Y-92967600D01*
G75*
G02*
X115817600Y-92917600I0J50000D01*
G01*
X115817600Y-91117600D01*
G75*
G02*
X115867600Y-91067600I50000J0D01*
G01*
X117667600Y-91067600D01*
G75*
G02*
X117717600Y-91117600I0J-50000D01*
G01*
X117717600Y-92917600D01*
G75*
G02*
X117667600Y-92967600I-50000J0D01*
G01*
G37*
%TD*%
%TO.C,D36*%
X97717600Y-84397600D03*
G36*
G01*
X98617600Y-92967600D02*
X96817600Y-92967600D01*
G75*
G02*
X96767600Y-92917600I0J50000D01*
G01*
X96767600Y-91117600D01*
G75*
G02*
X96817600Y-91067600I50000J0D01*
G01*
X98617600Y-91067600D01*
G75*
G02*
X98667600Y-91117600I0J-50000D01*
G01*
X98667600Y-92917600D01*
G75*
G02*
X98617600Y-92967600I-50000J0D01*
G01*
G37*
%TD*%
%TO.C,D35*%
X78667600Y-84397600D03*
G36*
G01*
X79567600Y-92967600D02*
X77767600Y-92967600D01*
G75*
G02*
X77717600Y-92917600I0J50000D01*
G01*
X77717600Y-91117600D01*
G75*
G02*
X77767600Y-91067600I50000J0D01*
G01*
X79567600Y-91067600D01*
G75*
G02*
X79617600Y-91117600I0J-50000D01*
G01*
X79617600Y-92917600D01*
G75*
G02*
X79567600Y-92967600I-50000J0D01*
G01*
G37*
%TD*%
%TO.C,D34*%
X59617600Y-84397600D03*
G36*
G01*
X60517600Y-92967600D02*
X58717600Y-92967600D01*
G75*
G02*
X58667600Y-92917600I0J50000D01*
G01*
X58667600Y-91117600D01*
G75*
G02*
X58717600Y-91067600I50000J0D01*
G01*
X60517600Y-91067600D01*
G75*
G02*
X60567600Y-91117600I0J-50000D01*
G01*
X60567600Y-92917600D01*
G75*
G02*
X60517600Y-92967600I-50000J0D01*
G01*
G37*
%TD*%
%TO.C,D33*%
X40567600Y-84397600D03*
G36*
G01*
X41467600Y-92967600D02*
X39667600Y-92967600D01*
G75*
G02*
X39617600Y-92917600I0J50000D01*
G01*
X39617600Y-91117600D01*
G75*
G02*
X39667600Y-91067600I50000J0D01*
G01*
X41467600Y-91067600D01*
G75*
G02*
X41517600Y-91117600I0J-50000D01*
G01*
X41517600Y-92917600D01*
G75*
G02*
X41467600Y-92967600I-50000J0D01*
G01*
G37*
%TD*%
%TO.C,D32*%
X21517600Y-84397600D03*
G36*
G01*
X22417600Y-92967600D02*
X20617600Y-92967600D01*
G75*
G02*
X20567600Y-92917600I0J50000D01*
G01*
X20567600Y-91117600D01*
G75*
G02*
X20617600Y-91067600I50000J0D01*
G01*
X22417600Y-91067600D01*
G75*
G02*
X22467600Y-91117600I0J-50000D01*
G01*
X22467600Y-92917600D01*
G75*
G02*
X22417600Y-92967600I-50000J0D01*
G01*
G37*
%TD*%
%TO.C,D31*%
X-152400Y-92017600D03*
G36*
G01*
X8417600Y-91117600D02*
X8417600Y-92917600D01*
G75*
G02*
X8367600Y-92967600I-50000J0D01*
G01*
X6567600Y-92967600D01*
G75*
G02*
X6517600Y-92917600I0J50000D01*
G01*
X6517600Y-91117600D01*
G75*
G02*
X6567600Y-91067600I50000J0D01*
G01*
X8367600Y-91067600D01*
G75*
G02*
X8417600Y-91117600I0J-50000D01*
G01*
G37*
%TD*%
%TO.C,D30*%
G36*
G01*
X289097600Y-73606700D02*
X287297600Y-73606700D01*
G75*
G02*
X287247600Y-73556700I0J50000D01*
G01*
X287247600Y-71756700D01*
G75*
G02*
X287297600Y-71706700I50000J0D01*
G01*
X289097600Y-71706700D01*
G75*
G02*
X289147600Y-71756700I0J-50000D01*
G01*
X289147600Y-73556700D01*
G75*
G02*
X289097600Y-73606700I-50000J0D01*
G01*
G37*
X288197600Y-65036700D03*
%TD*%
%TO.C,D29*%
G36*
G01*
X242047600Y-73606700D02*
X240247600Y-73606700D01*
G75*
G02*
X240197600Y-73556700I0J50000D01*
G01*
X240197600Y-71756700D01*
G75*
G02*
X240247600Y-71706700I50000J0D01*
G01*
X242047600Y-71706700D01*
G75*
G02*
X242097600Y-71756700I0J-50000D01*
G01*
X242097600Y-73556700D01*
G75*
G02*
X242047600Y-73606700I-50000J0D01*
G01*
G37*
X241147600Y-65036700D03*
%TD*%
%TO.C,D28*%
X222097600Y-65036700D03*
G36*
G01*
X222997600Y-73606700D02*
X221197600Y-73606700D01*
G75*
G02*
X221147600Y-73556700I0J50000D01*
G01*
X221147600Y-71756700D01*
G75*
G02*
X221197600Y-71706700I50000J0D01*
G01*
X222997600Y-71706700D01*
G75*
G02*
X223047600Y-71756700I0J-50000D01*
G01*
X223047600Y-73556700D01*
G75*
G02*
X222997600Y-73606700I-50000J0D01*
G01*
G37*
%TD*%
%TO.C,D27*%
X203047600Y-65036700D03*
G36*
G01*
X203947600Y-73606700D02*
X202147600Y-73606700D01*
G75*
G02*
X202097600Y-73556700I0J50000D01*
G01*
X202097600Y-71756700D01*
G75*
G02*
X202147600Y-71706700I50000J0D01*
G01*
X203947600Y-71706700D01*
G75*
G02*
X203997600Y-71756700I0J-50000D01*
G01*
X203997600Y-73556700D01*
G75*
G02*
X203947600Y-73606700I-50000J0D01*
G01*
G37*
%TD*%
%TO.C,D26*%
X183997600Y-65036700D03*
G36*
G01*
X184897600Y-73606700D02*
X183097600Y-73606700D01*
G75*
G02*
X183047600Y-73556700I0J50000D01*
G01*
X183047600Y-71756700D01*
G75*
G02*
X183097600Y-71706700I50000J0D01*
G01*
X184897600Y-71706700D01*
G75*
G02*
X184947600Y-71756700I0J-50000D01*
G01*
X184947600Y-73556700D01*
G75*
G02*
X184897600Y-73606700I-50000J0D01*
G01*
G37*
%TD*%
%TO.C,D25*%
G36*
G01*
X165847600Y-73606700D02*
X164047600Y-73606700D01*
G75*
G02*
X163997600Y-73556700I0J50000D01*
G01*
X163997600Y-71756700D01*
G75*
G02*
X164047600Y-71706700I50000J0D01*
G01*
X165847600Y-71706700D01*
G75*
G02*
X165897600Y-71756700I0J-50000D01*
G01*
X165897600Y-73556700D01*
G75*
G02*
X165847600Y-73606700I-50000J0D01*
G01*
G37*
X164947600Y-65036700D03*
%TD*%
%TO.C,D24*%
X145897600Y-65036700D03*
G36*
G01*
X146797600Y-73606700D02*
X144997600Y-73606700D01*
G75*
G02*
X144947600Y-73556700I0J50000D01*
G01*
X144947600Y-71756700D01*
G75*
G02*
X144997600Y-71706700I50000J0D01*
G01*
X146797600Y-71706700D01*
G75*
G02*
X146847600Y-71756700I0J-50000D01*
G01*
X146847600Y-73556700D01*
G75*
G02*
X146797600Y-73606700I-50000J0D01*
G01*
G37*
%TD*%
%TO.C,D23*%
X126847600Y-65036700D03*
G36*
G01*
X127747600Y-73606700D02*
X125947600Y-73606700D01*
G75*
G02*
X125897600Y-73556700I0J50000D01*
G01*
X125897600Y-71756700D01*
G75*
G02*
X125947600Y-71706700I50000J0D01*
G01*
X127747600Y-71706700D01*
G75*
G02*
X127797600Y-71756700I0J-50000D01*
G01*
X127797600Y-73556700D01*
G75*
G02*
X127747600Y-73606700I-50000J0D01*
G01*
G37*
%TD*%
%TO.C,D22*%
X107797600Y-65036700D03*
G36*
G01*
X108697600Y-73606700D02*
X106897600Y-73606700D01*
G75*
G02*
X106847600Y-73556700I0J50000D01*
G01*
X106847600Y-71756700D01*
G75*
G02*
X106897600Y-71706700I50000J0D01*
G01*
X108697600Y-71706700D01*
G75*
G02*
X108747600Y-71756700I0J-50000D01*
G01*
X108747600Y-73556700D01*
G75*
G02*
X108697600Y-73606700I-50000J0D01*
G01*
G37*
%TD*%
%TO.C,D21*%
X88747600Y-65036700D03*
G36*
G01*
X89647600Y-73606700D02*
X87847600Y-73606700D01*
G75*
G02*
X87797600Y-73556700I0J50000D01*
G01*
X87797600Y-71756700D01*
G75*
G02*
X87847600Y-71706700I50000J0D01*
G01*
X89647600Y-71706700D01*
G75*
G02*
X89697600Y-71756700I0J-50000D01*
G01*
X89697600Y-73556700D01*
G75*
G02*
X89647600Y-73606700I-50000J0D01*
G01*
G37*
%TD*%
%TO.C,D20*%
X69697600Y-65036700D03*
G36*
G01*
X70597600Y-73606700D02*
X68797600Y-73606700D01*
G75*
G02*
X68747600Y-73556700I0J50000D01*
G01*
X68747600Y-71756700D01*
G75*
G02*
X68797600Y-71706700I50000J0D01*
G01*
X70597600Y-71706700D01*
G75*
G02*
X70647600Y-71756700I0J-50000D01*
G01*
X70647600Y-73556700D01*
G75*
G02*
X70597600Y-73606700I-50000J0D01*
G01*
G37*
%TD*%
%TO.C,D19*%
X50647600Y-65036700D03*
G36*
G01*
X51547600Y-73606700D02*
X49747600Y-73606700D01*
G75*
G02*
X49697600Y-73556700I0J50000D01*
G01*
X49697600Y-71756700D01*
G75*
G02*
X49747600Y-71706700I50000J0D01*
G01*
X51547600Y-71706700D01*
G75*
G02*
X51597600Y-71756700I0J-50000D01*
G01*
X51597600Y-73556700D01*
G75*
G02*
X51547600Y-73606700I-50000J0D01*
G01*
G37*
%TD*%
%TO.C,D18*%
X31597600Y-65036700D03*
G36*
G01*
X32497600Y-73606700D02*
X30697600Y-73606700D01*
G75*
G02*
X30647600Y-73556700I0J50000D01*
G01*
X30647600Y-71756700D01*
G75*
G02*
X30697600Y-71706700I50000J0D01*
G01*
X32497600Y-71706700D01*
G75*
G02*
X32547600Y-71756700I0J-50000D01*
G01*
X32547600Y-73556700D01*
G75*
G02*
X32497600Y-73606700I-50000J0D01*
G01*
G37*
%TD*%
%TO.C,D17*%
X12547600Y-65036700D03*
G36*
G01*
X13447600Y-73606700D02*
X11647600Y-73606700D01*
G75*
G02*
X11597600Y-73556700I0J50000D01*
G01*
X11597600Y-71756700D01*
G75*
G02*
X11647600Y-71706700I50000J0D01*
G01*
X13447600Y-71706700D01*
G75*
G02*
X13497600Y-71756700I0J-50000D01*
G01*
X13497600Y-73556700D01*
G75*
G02*
X13447600Y-73606700I-50000J0D01*
G01*
G37*
%TD*%
%TO.C,D16*%
X-22400Y-72656700D03*
G36*
G01*
X8547600Y-71756700D02*
X8547600Y-73556700D01*
G75*
G02*
X8497600Y-73606700I-50000J0D01*
G01*
X6697600Y-73606700D01*
G75*
G02*
X6647600Y-73556700I0J50000D01*
G01*
X6647600Y-71756700D01*
G75*
G02*
X6697600Y-71706700I50000J0D01*
G01*
X8497600Y-71706700D01*
G75*
G02*
X8547600Y-71756700I0J-50000D01*
G01*
G37*
%TD*%
%TO.C,D15*%
X288277700Y-40386000D03*
G36*
G01*
X289177700Y-48956000D02*
X287377700Y-48956000D01*
G75*
G02*
X287327700Y-48906000I0J50000D01*
G01*
X287327700Y-47106000D01*
G75*
G02*
X287377700Y-47056000I50000J0D01*
G01*
X289177700Y-47056000D01*
G75*
G02*
X289227700Y-47106000I0J-50000D01*
G01*
X289227700Y-48906000D01*
G75*
G02*
X289177700Y-48956000I-50000J0D01*
G01*
G37*
%TD*%
%TO.C,D14*%
X259465700Y-40386000D03*
G36*
G01*
X260365700Y-48956000D02*
X258565700Y-48956000D01*
G75*
G02*
X258515700Y-48906000I0J50000D01*
G01*
X258515700Y-47106000D01*
G75*
G02*
X258565700Y-47056000I50000J0D01*
G01*
X260365700Y-47056000D01*
G75*
G02*
X260415700Y-47106000I0J-50000D01*
G01*
X260415700Y-48906000D01*
G75*
G02*
X260365700Y-48956000I-50000J0D01*
G01*
G37*
%TD*%
%TO.C,D13*%
X235653700Y-40386000D03*
G36*
G01*
X236553700Y-48956000D02*
X234753700Y-48956000D01*
G75*
G02*
X234703700Y-48906000I0J50000D01*
G01*
X234703700Y-47106000D01*
G75*
G02*
X234753700Y-47056000I50000J0D01*
G01*
X236553700Y-47056000D01*
G75*
G02*
X236603700Y-47106000I0J-50000D01*
G01*
X236603700Y-48906000D01*
G75*
G02*
X236553700Y-48956000I-50000J0D01*
G01*
G37*
%TD*%
%TO.C,D12*%
X216603700Y-40386000D03*
G36*
G01*
X217503700Y-48956000D02*
X215703700Y-48956000D01*
G75*
G02*
X215653700Y-48906000I0J50000D01*
G01*
X215653700Y-47106000D01*
G75*
G02*
X215703700Y-47056000I50000J0D01*
G01*
X217503700Y-47056000D01*
G75*
G02*
X217553700Y-47106000I0J-50000D01*
G01*
X217553700Y-48906000D01*
G75*
G02*
X217503700Y-48956000I-50000J0D01*
G01*
G37*
%TD*%
%TO.C,D11*%
X197553700Y-40386000D03*
G36*
G01*
X198453700Y-48956000D02*
X196653700Y-48956000D01*
G75*
G02*
X196603700Y-48906000I0J50000D01*
G01*
X196603700Y-47106000D01*
G75*
G02*
X196653700Y-47056000I50000J0D01*
G01*
X198453700Y-47056000D01*
G75*
G02*
X198503700Y-47106000I0J-50000D01*
G01*
X198503700Y-48906000D01*
G75*
G02*
X198453700Y-48956000I-50000J0D01*
G01*
G37*
%TD*%
%TO.C,D10*%
X178503700Y-40386000D03*
G36*
G01*
X179403700Y-48956000D02*
X177603700Y-48956000D01*
G75*
G02*
X177553700Y-48906000I0J50000D01*
G01*
X177553700Y-47106000D01*
G75*
G02*
X177603700Y-47056000I50000J0D01*
G01*
X179403700Y-47056000D01*
G75*
G02*
X179453700Y-47106000I0J-50000D01*
G01*
X179453700Y-48906000D01*
G75*
G02*
X179403700Y-48956000I-50000J0D01*
G01*
G37*
%TD*%
%TO.C,D9*%
X154691700Y-40386000D03*
G36*
G01*
X155591700Y-48956000D02*
X153791700Y-48956000D01*
G75*
G02*
X153741700Y-48906000I0J50000D01*
G01*
X153741700Y-47106000D01*
G75*
G02*
X153791700Y-47056000I50000J0D01*
G01*
X155591700Y-47056000D01*
G75*
G02*
X155641700Y-47106000I0J-50000D01*
G01*
X155641700Y-48906000D01*
G75*
G02*
X155591700Y-48956000I-50000J0D01*
G01*
G37*
%TD*%
%TO.C,D8*%
X135641700Y-40386000D03*
G36*
G01*
X136541700Y-48956000D02*
X134741700Y-48956000D01*
G75*
G02*
X134691700Y-48906000I0J50000D01*
G01*
X134691700Y-47106000D01*
G75*
G02*
X134741700Y-47056000I50000J0D01*
G01*
X136541700Y-47056000D01*
G75*
G02*
X136591700Y-47106000I0J-50000D01*
G01*
X136591700Y-48906000D01*
G75*
G02*
X136541700Y-48956000I-50000J0D01*
G01*
G37*
%TD*%
%TO.C,D7*%
X116591700Y-40386000D03*
G36*
G01*
X117491700Y-48956000D02*
X115691700Y-48956000D01*
G75*
G02*
X115641700Y-48906000I0J50000D01*
G01*
X115641700Y-47106000D01*
G75*
G02*
X115691700Y-47056000I50000J0D01*
G01*
X117491700Y-47056000D01*
G75*
G02*
X117541700Y-47106000I0J-50000D01*
G01*
X117541700Y-48906000D01*
G75*
G02*
X117491700Y-48956000I-50000J0D01*
G01*
G37*
%TD*%
%TO.C,D6*%
X97541700Y-40386000D03*
G36*
G01*
X98441700Y-48956000D02*
X96641700Y-48956000D01*
G75*
G02*
X96591700Y-48906000I0J50000D01*
G01*
X96591700Y-47106000D01*
G75*
G02*
X96641700Y-47056000I50000J0D01*
G01*
X98441700Y-47056000D01*
G75*
G02*
X98491700Y-47106000I0J-50000D01*
G01*
X98491700Y-48906000D01*
G75*
G02*
X98441700Y-48956000I-50000J0D01*
G01*
G37*
%TD*%
%TO.C,D5*%
X74323700Y-40386000D03*
G36*
G01*
X75223700Y-48956000D02*
X73423700Y-48956000D01*
G75*
G02*
X73373700Y-48906000I0J50000D01*
G01*
X73373700Y-47106000D01*
G75*
G02*
X73423700Y-47056000I50000J0D01*
G01*
X75223700Y-47056000D01*
G75*
G02*
X75273700Y-47106000I0J-50000D01*
G01*
X75273700Y-48906000D01*
G75*
G02*
X75223700Y-48956000I-50000J0D01*
G01*
G37*
%TD*%
%TO.C,D4*%
X55273700Y-40386000D03*
G36*
G01*
X56173700Y-48956000D02*
X54373700Y-48956000D01*
G75*
G02*
X54323700Y-48906000I0J50000D01*
G01*
X54323700Y-47106000D01*
G75*
G02*
X54373700Y-47056000I50000J0D01*
G01*
X56173700Y-47056000D01*
G75*
G02*
X56223700Y-47106000I0J-50000D01*
G01*
X56223700Y-48906000D01*
G75*
G02*
X56173700Y-48956000I-50000J0D01*
G01*
G37*
%TD*%
%TO.C,D3*%
X36223700Y-40386000D03*
G36*
G01*
X37123700Y-48956000D02*
X35323700Y-48956000D01*
G75*
G02*
X35273700Y-48906000I0J50000D01*
G01*
X35273700Y-47106000D01*
G75*
G02*
X35323700Y-47056000I50000J0D01*
G01*
X37123700Y-47056000D01*
G75*
G02*
X37173700Y-47106000I0J-50000D01*
G01*
X37173700Y-48906000D01*
G75*
G02*
X37123700Y-48956000I-50000J0D01*
G01*
G37*
%TD*%
%TO.C,D2*%
X17173700Y-40386000D03*
G36*
G01*
X18073700Y-48956000D02*
X16273700Y-48956000D01*
G75*
G02*
X16223700Y-48906000I0J50000D01*
G01*
X16223700Y-47106000D01*
G75*
G02*
X16273700Y-47056000I50000J0D01*
G01*
X18073700Y-47056000D01*
G75*
G02*
X18123700Y-47106000I0J-50000D01*
G01*
X18123700Y-48906000D01*
G75*
G02*
X18073700Y-48956000I-50000J0D01*
G01*
G37*
%TD*%
%TO.C,D1*%
X-446300Y-48006000D03*
G36*
G01*
X8123700Y-47106000D02*
X8123700Y-48906000D01*
G75*
G02*
X8073700Y-48956000I-50000J0D01*
G01*
X6273700Y-48956000D01*
G75*
G02*
X6223700Y-48906000I0J50000D01*
G01*
X6223700Y-47106000D01*
G75*
G02*
X6273700Y-47056000I50000J0D01*
G01*
X8073700Y-47056000D01*
G75*
G02*
X8123700Y-47106000I0J-50000D01*
G01*
G37*
%TD*%
D12*
%TO.C,SW83*%
X231451000Y-140322000D03*
X221291000Y-140322000D03*
D10*
X222561000Y-137782000D03*
D11*
X226371000Y-140322000D03*
D10*
X228911000Y-135242000D03*
%TD*%
%TO.C,SW26*%
X195580000Y-59029400D03*
D11*
X193040000Y-64109400D03*
D10*
X189230000Y-61569400D03*
D12*
X187960000Y-64109400D03*
X198120000Y-64109400D03*
%TD*%
%TO.C,SW15*%
X302890000Y-40322500D03*
X292730000Y-40322500D03*
D10*
X294000000Y-37782500D03*
D11*
X297810000Y-40322500D03*
D10*
X300350000Y-35242500D03*
%TD*%
D14*
%TO.C,USB1*%
X78655200Y-5338200D03*
X80355200Y-5338200D03*
X79505200Y-5338200D03*
X77805200Y-5338200D03*
X76955200Y-5338200D03*
X76105200Y-5338200D03*
X75255200Y-5338200D03*
X74405200Y-5338200D03*
X80355200Y-4013200D03*
X79500200Y-4013200D03*
X78650200Y-4013200D03*
X77800200Y-4013200D03*
X76950200Y-4013200D03*
X76100200Y-4013200D03*
X75250200Y-4013200D03*
X74400200Y-4013200D03*
D15*
X81705200Y-4358200D03*
X73055200Y-4358200D03*
D16*
X81705200Y-978200D03*
X73055200Y-978200D03*
%TD*%
D11*
%TO.C,SW63*%
X26352250Y-129514000D03*
X2539750Y-129514000D03*
D17*
X26352250Y-114274000D03*
X2539750Y-114274000D03*
D12*
X19526000Y-121259000D03*
X9366000Y-121259000D03*
D10*
X10636000Y-118719000D03*
D11*
X14446000Y-121259000D03*
D10*
X16986000Y-116179000D03*
%TD*%
D11*
%TO.C,SW60*%
X269240250Y-110464000D03*
X245427750Y-110464000D03*
D17*
X269240250Y-95224000D03*
X245427750Y-95224000D03*
D12*
X262414000Y-102209000D03*
X252254000Y-102209000D03*
D10*
X253524000Y-99669000D03*
D11*
X257334000Y-102209000D03*
D10*
X259874000Y-97129000D03*
%TD*%
D12*
%TO.C,SW31*%
X12382500Y-83159400D03*
X2222500Y-83159400D03*
D10*
X3492500Y-80619400D03*
D11*
X7302500Y-83159400D03*
D10*
X9842500Y-78079400D03*
%TD*%
D12*
%TO.C,SW82*%
X202876000Y-140322000D03*
X192716000Y-140322000D03*
D10*
X193986000Y-137782000D03*
D11*
X197796000Y-140322000D03*
D10*
X200336000Y-135242000D03*
%TD*%
D12*
%TO.C,SW88*%
X12398500Y-140300000D03*
X2238500Y-140300000D03*
D10*
X3508500Y-137760000D03*
D11*
X7318500Y-140300000D03*
D10*
X9858500Y-135220000D03*
%TD*%
D12*
%TO.C,SW89*%
X40973400Y-140300000D03*
X30813400Y-140300000D03*
D10*
X32083400Y-137760000D03*
D11*
X35893400Y-140300000D03*
D10*
X38433400Y-135220000D03*
%TD*%
D12*
%TO.C,SW61*%
X302895000Y-102209000D03*
X292735000Y-102209000D03*
D10*
X294005000Y-99669000D03*
D11*
X297815000Y-102209000D03*
D10*
X300355000Y-97129000D03*
%TD*%
D18*
%TO.C,Y1*%
X231127300Y-13036800D03*
X231127300Y-17916800D03*
%TD*%
%TO.C,U1*%
G36*
G01*
X237528000Y-24586300D02*
X235928000Y-24586300D01*
G75*
G02*
X235878000Y-24536300I0J50000D01*
G01*
X235878000Y-22936300D01*
G75*
G02*
X235928000Y-22886300I50000J0D01*
G01*
X237528000Y-22886300D01*
G75*
G02*
X237578000Y-22936300I0J-50000D01*
G01*
X237578000Y-24536300D01*
G75*
G02*
X237528000Y-24586300I-50000J0D01*
G01*
G37*
D19*
X284988000Y-8496300D03*
X239268000Y-23736300D03*
X282448000Y-8496300D03*
X241808000Y-23736300D03*
X279908000Y-8496300D03*
X244348000Y-23736300D03*
X277368000Y-8496300D03*
X246888000Y-23736300D03*
X274828000Y-8496300D03*
X249428000Y-23736300D03*
X272288000Y-8496300D03*
X251968000Y-23736300D03*
X269748000Y-8496300D03*
X254508000Y-23736300D03*
X267208000Y-8496300D03*
X257048000Y-23736300D03*
X264668000Y-8496300D03*
X259588000Y-23736300D03*
X262128000Y-8496300D03*
X262128000Y-23736300D03*
X259588000Y-8496300D03*
X264668000Y-23736300D03*
X257048000Y-8496300D03*
X267208000Y-23736300D03*
X254508000Y-8496300D03*
X269748000Y-23736300D03*
X251968000Y-8496300D03*
X272288000Y-23736300D03*
X249428000Y-8496300D03*
X274828000Y-23736300D03*
X246888000Y-8496300D03*
X277368000Y-23736300D03*
X244348000Y-8496300D03*
X279908000Y-23736300D03*
X241808000Y-8496300D03*
X282448000Y-23736300D03*
X239268000Y-8496300D03*
X284988000Y-23736300D03*
X236728000Y-8496300D03*
%TD*%
D20*
%TO.C,SW91*%
X199533400Y-6578600D03*
X199533400Y-11078600D03*
X193033400Y-6578600D03*
X193033400Y-11078600D03*
%TD*%
D11*
%TO.C,SW90*%
X173976900Y-132067000D03*
X73977100Y-132067000D03*
D17*
X173976900Y-147307000D03*
X73977100Y-147307000D03*
D12*
X129057000Y-140322000D03*
X118897000Y-140322000D03*
D10*
X120167000Y-137782000D03*
D11*
X123977000Y-140322000D03*
D10*
X126517000Y-135242000D03*
%TD*%
D20*
%TO.C,SW87*%
X187760500Y-6654800D03*
X187760500Y-11154800D03*
X181260500Y-6654800D03*
X181260500Y-11154800D03*
%TD*%
D10*
%TO.C,SW86*%
X295586000Y-140005000D03*
D11*
X293046000Y-145085000D03*
D10*
X289236000Y-142545000D03*
D12*
X287966000Y-145085000D03*
X298126000Y-145085000D03*
%TD*%
%TO.C,SW85*%
X279076000Y-145085000D03*
X268916000Y-145085000D03*
D10*
X270186000Y-142545000D03*
D11*
X273996000Y-145085000D03*
D10*
X276536000Y-140005000D03*
%TD*%
D12*
%TO.C,SW84*%
X260026000Y-145085000D03*
X249866000Y-145085000D03*
D10*
X251136000Y-142545000D03*
D11*
X254946000Y-145085000D03*
D10*
X257486000Y-140005000D03*
%TD*%
D11*
%TO.C,SW81*%
X173977000Y-132080000D03*
X59677000Y-132080000D03*
D17*
X173977000Y-147320000D03*
X59677000Y-147320000D03*
D12*
X121907000Y-140335000D03*
X111747000Y-140335000D03*
D10*
X113017000Y-137795000D03*
D11*
X116827000Y-140335000D03*
D10*
X119367000Y-135255000D03*
%TD*%
D12*
%TO.C,SW80*%
X57639500Y-140300000D03*
X47479500Y-140300000D03*
D10*
X48749500Y-137760000D03*
D11*
X52559500Y-140300000D03*
D10*
X55099500Y-135220000D03*
%TD*%
D12*
%TO.C,SW79*%
X33828400Y-140300000D03*
X23668400Y-140300000D03*
D10*
X24938400Y-137760000D03*
D11*
X28748400Y-140300000D03*
D10*
X31288400Y-135220000D03*
%TD*%
D12*
%TO.C,SW78*%
X10017300Y-140300000D03*
X-142700Y-140300000D03*
D10*
X1127300Y-137760000D03*
D11*
X4937300Y-140300000D03*
D10*
X7477300Y-135220000D03*
%TD*%
D12*
%TO.C,SW77*%
X279083000Y-126022000D03*
X268923000Y-126022000D03*
D10*
X270193000Y-123482000D03*
D11*
X274003000Y-126022000D03*
D10*
X276543000Y-120942000D03*
%TD*%
D12*
%TO.C,SW76*%
X302896000Y-121259000D03*
X292736000Y-121259000D03*
D10*
X294006000Y-118719000D03*
D11*
X297816000Y-121259000D03*
D10*
X300356000Y-116179000D03*
%TD*%
D12*
%TO.C,SW75*%
X248127000Y-121259000D03*
X237967000Y-121259000D03*
D10*
X239237000Y-118719000D03*
D11*
X243047000Y-121259000D03*
D10*
X245587000Y-116179000D03*
%TD*%
D12*
%TO.C,SW74*%
X221933000Y-121259000D03*
X211773000Y-121259000D03*
D10*
X213043000Y-118719000D03*
D11*
X216853000Y-121259000D03*
D10*
X219393000Y-116179000D03*
%TD*%
D12*
%TO.C,SW73*%
X202883000Y-121259000D03*
X192723000Y-121259000D03*
D10*
X193993000Y-118719000D03*
D11*
X197803000Y-121259000D03*
D10*
X200343000Y-116179000D03*
%TD*%
D12*
%TO.C,SW72*%
X183833000Y-121259000D03*
X173673000Y-121259000D03*
D10*
X174943000Y-118719000D03*
D11*
X178753000Y-121259000D03*
D10*
X181293000Y-116179000D03*
%TD*%
D12*
%TO.C,SW71*%
X164783000Y-121259000D03*
X154623000Y-121259000D03*
D10*
X155893000Y-118719000D03*
D11*
X159703000Y-121259000D03*
D10*
X162243000Y-116179000D03*
%TD*%
%TO.C,SW70*%
X143193000Y-116179000D03*
D11*
X140653000Y-121259000D03*
D10*
X136843000Y-118719000D03*
D12*
X135573000Y-121259000D03*
X145733000Y-121259000D03*
%TD*%
D10*
%TO.C,SW69*%
X124143000Y-116179000D03*
D11*
X121603000Y-121259000D03*
D10*
X117793000Y-118719000D03*
D12*
X116523000Y-121259000D03*
X126683000Y-121259000D03*
%TD*%
%TO.C,SW68*%
X107633000Y-121259000D03*
X97473000Y-121259000D03*
D10*
X98743000Y-118719000D03*
D11*
X102553000Y-121259000D03*
D10*
X105093000Y-116179000D03*
%TD*%
D12*
%TO.C,SW67*%
X88582600Y-121259000D03*
X78422600Y-121259000D03*
D10*
X79692600Y-118719000D03*
D11*
X83502600Y-121259000D03*
D10*
X86042600Y-116179000D03*
%TD*%
D12*
%TO.C,SW66*%
X69532600Y-121259000D03*
X59372600Y-121259000D03*
D10*
X60642600Y-118719000D03*
D11*
X64452600Y-121259000D03*
D10*
X66992600Y-116179000D03*
%TD*%
D12*
%TO.C,SW65*%
X50482600Y-121259000D03*
X40322600Y-121259000D03*
D10*
X41592600Y-118719000D03*
D11*
X45402600Y-121259000D03*
D10*
X47942600Y-116179000D03*
%TD*%
D12*
%TO.C,SW58*%
X231458000Y-102209000D03*
X221298000Y-102209000D03*
D10*
X222568000Y-99669000D03*
D11*
X226378000Y-102209000D03*
D10*
X228918000Y-97129000D03*
%TD*%
D12*
%TO.C,SW57*%
X212408000Y-102209000D03*
X202248000Y-102209000D03*
D10*
X203518000Y-99669000D03*
D11*
X207328000Y-102209000D03*
D10*
X209868000Y-97129000D03*
%TD*%
D12*
%TO.C,SW56*%
X193358000Y-102209000D03*
X183198000Y-102209000D03*
D10*
X184468000Y-99669000D03*
D11*
X188278000Y-102209000D03*
D10*
X190818000Y-97129000D03*
%TD*%
D12*
%TO.C,SW55*%
X174308000Y-102209000D03*
X164148000Y-102209000D03*
D10*
X165418000Y-99669000D03*
D11*
X169228000Y-102209000D03*
D10*
X171768000Y-97129000D03*
%TD*%
D12*
%TO.C,SW54*%
X155258000Y-102209000D03*
X145098000Y-102209000D03*
D10*
X146368000Y-99669000D03*
D11*
X150178000Y-102209000D03*
D10*
X152718000Y-97129000D03*
%TD*%
D12*
%TO.C,SW53*%
X136208000Y-102209000D03*
X126048000Y-102209000D03*
D10*
X127318000Y-99669000D03*
D11*
X131128000Y-102209000D03*
D10*
X133668000Y-97129000D03*
%TD*%
D12*
%TO.C,SW52*%
X117158000Y-102209000D03*
X106998000Y-102209000D03*
D10*
X108268000Y-99669000D03*
D11*
X112078000Y-102209000D03*
D10*
X114618000Y-97129000D03*
%TD*%
D12*
%TO.C,SW51*%
X98107600Y-102209000D03*
X87947600Y-102209000D03*
D10*
X89217600Y-99669000D03*
D11*
X93027600Y-102209000D03*
D10*
X95567600Y-97129000D03*
%TD*%
D12*
%TO.C,SW50*%
X79057600Y-102209000D03*
X68897600Y-102209000D03*
D10*
X70167600Y-99669000D03*
D11*
X73977600Y-102209000D03*
D10*
X76517600Y-97129000D03*
%TD*%
D12*
%TO.C,SW49*%
X60007600Y-102209000D03*
X49847600Y-102209000D03*
D10*
X51117600Y-99669000D03*
D11*
X54927600Y-102209000D03*
D10*
X57467600Y-97129000D03*
%TD*%
D12*
%TO.C,SW48*%
X40957600Y-102209000D03*
X30797600Y-102209000D03*
D10*
X32067600Y-99669000D03*
D11*
X35877600Y-102209000D03*
D10*
X38417600Y-97129000D03*
%TD*%
D12*
%TO.C,SW47*%
X14763700Y-102209000D03*
X4603700Y-102209000D03*
D10*
X5873700Y-99669000D03*
D11*
X9683700Y-102209000D03*
D10*
X12223700Y-97129000D03*
%TD*%
D12*
%TO.C,SW46*%
X10001300Y-102209000D03*
X-158700Y-102209000D03*
D10*
X1111300Y-99669000D03*
D11*
X4921300Y-102209000D03*
D10*
X7461300Y-97129000D03*
%TD*%
D12*
%TO.C,SW45*%
X302895000Y-83159400D03*
X292735000Y-83159400D03*
D10*
X294005000Y-80619400D03*
D11*
X297815000Y-83159400D03*
D10*
X300355000Y-78079400D03*
%TD*%
D12*
%TO.C,SW43*%
X245745000Y-83159400D03*
X235585000Y-83159400D03*
D10*
X236855000Y-80619400D03*
D11*
X240665000Y-83159400D03*
D10*
X243205000Y-78079400D03*
%TD*%
D12*
%TO.C,SW42*%
X226695000Y-83159400D03*
X216535000Y-83159400D03*
D10*
X217805000Y-80619400D03*
D11*
X221615000Y-83159400D03*
D10*
X224155000Y-78079400D03*
%TD*%
D12*
%TO.C,SW41*%
X207645000Y-83159400D03*
X197485000Y-83159400D03*
D10*
X198755000Y-80619400D03*
D11*
X202565000Y-83159400D03*
D10*
X205105000Y-78079400D03*
%TD*%
D12*
%TO.C,SW40*%
X188595000Y-83159400D03*
X178435000Y-83159400D03*
D10*
X179705000Y-80619400D03*
D11*
X183515000Y-83159400D03*
D10*
X186055000Y-78079400D03*
%TD*%
D12*
%TO.C,SW39*%
X169545000Y-83159400D03*
X159385000Y-83159400D03*
D10*
X160655000Y-80619400D03*
D11*
X164465000Y-83159400D03*
D10*
X167005000Y-78079400D03*
%TD*%
D12*
%TO.C,SW38*%
X150495000Y-83159400D03*
X140335000Y-83159400D03*
D10*
X141605000Y-80619400D03*
D11*
X145415000Y-83159400D03*
D10*
X147955000Y-78079400D03*
%TD*%
D12*
%TO.C,SW37*%
X131445000Y-83159400D03*
X121285000Y-83159400D03*
D10*
X122555000Y-80619400D03*
D11*
X126365000Y-83159400D03*
D10*
X128905000Y-78079400D03*
%TD*%
D12*
%TO.C,SW36*%
X112395000Y-83159400D03*
X102235000Y-83159400D03*
D10*
X103505000Y-80619400D03*
D11*
X107315000Y-83159400D03*
D10*
X109855000Y-78079400D03*
%TD*%
D12*
%TO.C,SW35*%
X93345000Y-83159400D03*
X83185000Y-83159400D03*
D10*
X84455000Y-80619400D03*
D11*
X88265000Y-83159400D03*
D10*
X90805000Y-78079400D03*
%TD*%
D12*
%TO.C,SW34*%
X74295000Y-83159400D03*
X64135000Y-83159400D03*
D10*
X65405000Y-80619400D03*
D11*
X69215000Y-83159400D03*
D10*
X71755000Y-78079400D03*
%TD*%
D12*
%TO.C,SW33*%
X55245000Y-83159400D03*
X45085000Y-83159400D03*
D10*
X46355000Y-80619400D03*
D11*
X50165000Y-83159400D03*
D10*
X52705000Y-78079400D03*
%TD*%
D12*
%TO.C,SW32*%
X36195000Y-83159400D03*
X26035000Y-83159400D03*
D10*
X27305000Y-80619400D03*
D11*
X31115000Y-83159400D03*
D10*
X33655000Y-78079400D03*
%TD*%
D12*
%TO.C,SW30*%
X302895000Y-64109400D03*
X292735000Y-64109400D03*
D10*
X294005000Y-61569400D03*
D11*
X297815000Y-64109400D03*
D10*
X300355000Y-59029400D03*
%TD*%
D11*
%TO.C,SW29*%
X271621250Y-72364400D03*
X247808750Y-72364400D03*
D17*
X271621250Y-57124400D03*
X247808750Y-57124400D03*
D12*
X264795000Y-64109400D03*
X254635000Y-64109400D03*
D10*
X255905000Y-61569400D03*
D11*
X259715000Y-64109400D03*
D10*
X262255000Y-59029400D03*
%TD*%
D12*
%TO.C,SW28*%
X236220000Y-64109400D03*
X226060000Y-64109400D03*
D10*
X227330000Y-61569400D03*
D11*
X231140000Y-64109400D03*
D10*
X233680000Y-59029400D03*
%TD*%
D12*
%TO.C,SW27*%
X217170000Y-64109400D03*
X207010000Y-64109400D03*
D10*
X208280000Y-61569400D03*
D11*
X212090000Y-64109400D03*
D10*
X214630000Y-59029400D03*
%TD*%
D12*
%TO.C,SW25*%
X179070000Y-64109400D03*
X168910000Y-64109400D03*
D10*
X170180000Y-61569400D03*
D11*
X173990000Y-64109400D03*
D10*
X176530000Y-59029400D03*
%TD*%
D12*
%TO.C,SW24*%
X160020000Y-64109400D03*
X149860000Y-64109400D03*
D10*
X151130000Y-61569400D03*
D11*
X154940000Y-64109400D03*
D10*
X157480000Y-59029400D03*
%TD*%
D12*
%TO.C,SW23*%
X140970000Y-64109400D03*
X130810000Y-64109400D03*
D10*
X132080000Y-61569400D03*
D11*
X135890000Y-64109400D03*
D10*
X138430000Y-59029400D03*
%TD*%
D12*
%TO.C,SW22*%
X121920000Y-64109400D03*
X111760000Y-64109400D03*
D10*
X113030000Y-61569400D03*
D11*
X116840000Y-64109400D03*
D10*
X119380000Y-59029400D03*
%TD*%
D12*
%TO.C,SW21*%
X102870000Y-64109400D03*
X92710000Y-64109400D03*
D10*
X93980000Y-61569400D03*
D11*
X97790000Y-64109400D03*
D10*
X100330000Y-59029400D03*
%TD*%
D12*
%TO.C,SW20*%
X83820000Y-64109400D03*
X73660000Y-64109400D03*
D10*
X74930000Y-61569400D03*
D11*
X78740000Y-64109400D03*
D10*
X81280000Y-59029400D03*
%TD*%
D12*
%TO.C,SW19*%
X64770000Y-64109400D03*
X54610000Y-64109400D03*
D10*
X55880000Y-61569400D03*
D11*
X59690000Y-64109400D03*
D10*
X62230000Y-59029400D03*
%TD*%
D12*
%TO.C,SW18*%
X45720000Y-64109400D03*
X35560000Y-64109400D03*
D10*
X36830000Y-61569400D03*
D11*
X40640000Y-64109400D03*
D10*
X43180000Y-59029400D03*
%TD*%
D12*
%TO.C,SW17*%
X26670000Y-64109400D03*
X16510000Y-64109400D03*
D10*
X17780000Y-61569400D03*
D11*
X21590000Y-64109400D03*
D10*
X24130000Y-59029400D03*
%TD*%
D12*
%TO.C,SW16*%
X7620000Y-64109400D03*
X-2540000Y-64109400D03*
D10*
X-1270000Y-61569400D03*
D11*
X2540000Y-64109400D03*
D10*
X5080000Y-59029400D03*
%TD*%
D12*
%TO.C,SW14*%
X274315000Y-40322500D03*
X264155000Y-40322500D03*
D10*
X265425000Y-37782500D03*
D11*
X269235000Y-40322500D03*
D10*
X271775000Y-35242500D03*
%TD*%
D12*
%TO.C,SW13*%
X250494000Y-40322500D03*
X240334000Y-40322500D03*
D10*
X241604000Y-37782500D03*
D11*
X245414000Y-40322500D03*
D10*
X247954000Y-35242500D03*
%TD*%
D12*
%TO.C,SW12*%
X231444000Y-40322500D03*
X221284000Y-40322500D03*
D10*
X222554000Y-37782500D03*
D11*
X226364000Y-40322500D03*
D10*
X228904000Y-35242500D03*
%TD*%
D12*
%TO.C,SW11*%
X212394000Y-40322500D03*
X202234000Y-40322500D03*
D10*
X203504000Y-37782500D03*
D11*
X207314000Y-40322500D03*
D10*
X209854000Y-35242500D03*
%TD*%
D12*
%TO.C,SW10*%
X193344000Y-40322500D03*
X183184000Y-40322500D03*
D10*
X184454000Y-37782500D03*
D11*
X188264000Y-40322500D03*
D10*
X190804000Y-35242500D03*
%TD*%
D12*
%TO.C,SW9*%
X169532000Y-40322500D03*
X159372000Y-40322500D03*
D10*
X160642000Y-37782500D03*
D11*
X164452000Y-40322500D03*
D10*
X166992000Y-35242500D03*
%TD*%
D12*
%TO.C,SW8*%
X150482000Y-40322500D03*
X140322000Y-40322500D03*
D10*
X141592000Y-37782500D03*
D11*
X145402000Y-40322500D03*
D10*
X147942000Y-35242500D03*
%TD*%
D12*
%TO.C,SW7*%
X131432000Y-40322500D03*
X121272000Y-40322500D03*
D10*
X122542000Y-37782500D03*
D11*
X126352000Y-40322500D03*
D10*
X128892000Y-35242500D03*
%TD*%
D12*
%TO.C,SW5*%
X88569800Y-40322500D03*
X78409800Y-40322500D03*
D10*
X79679800Y-37782500D03*
D11*
X83489800Y-40322500D03*
D10*
X86029800Y-35242500D03*
%TD*%
D12*
%TO.C,SW4*%
X69519800Y-40322500D03*
X59359800Y-40322500D03*
D10*
X60629800Y-37782500D03*
D11*
X64439800Y-40322500D03*
D10*
X66979800Y-35242500D03*
%TD*%
D12*
%TO.C,SW3*%
X50469800Y-40322500D03*
X40309800Y-40322500D03*
D10*
X41579800Y-37782500D03*
D11*
X45389800Y-40322500D03*
D10*
X47929800Y-35242500D03*
%TD*%
D12*
%TO.C,SW2*%
X31419800Y-40322500D03*
X21259800Y-40322500D03*
D10*
X22529800Y-37782500D03*
D11*
X26339800Y-40322500D03*
D10*
X28879800Y-35242500D03*
%TD*%
%TO.C,SW1*%
X5080000Y-35217100D03*
D11*
X2540000Y-40297100D03*
D10*
X-1270000Y-37757100D03*
D12*
X-2540000Y-40297100D03*
X7620000Y-40297100D03*
%TD*%
D21*
%TO.C,R7*%
X223888300Y-8432500D03*
D22*
X216268300Y-8432500D03*
%TD*%
D21*
%TO.C,R6*%
X223888300Y-10932500D03*
D22*
X216268300Y-10932500D03*
%TD*%
D21*
%TO.C,R5*%
X223888300Y-13432500D03*
D22*
X216268300Y-13432500D03*
%TD*%
D21*
%TO.C,R4*%
X223888300Y-15932500D03*
D22*
X216268300Y-15932500D03*
%TD*%
D21*
%TO.C,R3*%
X223888300Y-18432500D03*
D22*
X216268300Y-18432500D03*
%TD*%
D21*
%TO.C,R2*%
X223888300Y-20932500D03*
D22*
X216268300Y-20932500D03*
%TD*%
D21*
%TO.C,R1*%
X223888300Y-23432500D03*
D22*
X216268300Y-23432500D03*
%TD*%
D23*
%TO.C,LED1*%
X212890100Y-8420100D03*
G36*
G01*
X209400100Y-9320100D02*
X209400100Y-7520100D01*
G75*
G02*
X209450100Y-7470100I50000J0D01*
G01*
X211250100Y-7470100D01*
G75*
G02*
X211300100Y-7520100I0J-50000D01*
G01*
X211300100Y-9320100D01*
G75*
G02*
X211250100Y-9370100I-50000J0D01*
G01*
X209450100Y-9370100D01*
G75*
G02*
X209400100Y-9320100I0J50000D01*
G01*
G37*
%TD*%
%TO.C,J1*%
G36*
G01*
X177264900Y-6541400D02*
X177264900Y-8241400D01*
G75*
G02*
X177214900Y-8291400I-50000J0D01*
G01*
X175514900Y-8291400D01*
G75*
G02*
X175464900Y-8241400I0J50000D01*
G01*
X175464900Y-6541400D01*
G75*
G02*
X175514900Y-6491400I50000J0D01*
G01*
X177214900Y-6491400D01*
G75*
G02*
X177264900Y-6541400I0J-50000D01*
G01*
G37*
D24*
X176364900Y-9931400D03*
X173824900Y-7391400D03*
X173824900Y-9931400D03*
X171284900Y-7391400D03*
X171284900Y-9931400D03*
%TD*%
D21*
%TO.C,F1*%
X166738300Y-5654200D03*
X166738300Y-10754200D03*
%TD*%
D19*
%TO.C,D84*%
X210918300Y-20510500D03*
G36*
G01*
X210118300Y-14580500D02*
X211718300Y-14580500D01*
G75*
G02*
X211768300Y-14630500I0J-50000D01*
G01*
X211768300Y-16230500D01*
G75*
G02*
X211718300Y-16280500I-50000J0D01*
G01*
X210118300Y-16280500D01*
G75*
G02*
X210068300Y-16230500I0J50000D01*
G01*
X210068300Y-14630500D01*
G75*
G02*
X210118300Y-14580500I50000J0D01*
G01*
G37*
%TD*%
%TO.C,D83*%
X206918300Y-20510500D03*
G36*
G01*
X206118300Y-14580500D02*
X207718300Y-14580500D01*
G75*
G02*
X207768300Y-14630500I0J-50000D01*
G01*
X207768300Y-16230500D01*
G75*
G02*
X207718300Y-16280500I-50000J0D01*
G01*
X206118300Y-16280500D01*
G75*
G02*
X206068300Y-16230500I0J50000D01*
G01*
X206068300Y-14630500D01*
G75*
G02*
X206118300Y-14580500I50000J0D01*
G01*
G37*
%TD*%
D25*
%TO.C,C5*%
X259718800Y-26235700D03*
X264718800Y-26235700D03*
%TD*%
%TO.C,C4*%
X259744200Y-6073900D03*
X264744200Y-6073900D03*
%TD*%
%TO.C,C3*%
G36*
G01*
X205127300Y-7249400D02*
X206327300Y-7249400D01*
G75*
G02*
X206377300Y-7299400I0J-50000D01*
G01*
X206377300Y-8499400D01*
G75*
G02*
X206327300Y-8549400I-50000J0D01*
G01*
X205127300Y-8549400D01*
G75*
G02*
X205077300Y-8499400I0J50000D01*
G01*
X205077300Y-7299400D01*
G75*
G02*
X205127300Y-7249400I50000J0D01*
G01*
G37*
D26*
X205727300Y-9399400D03*
%TD*%
D25*
%TO.C,C2*%
X229819200Y-22968200D03*
X232319200Y-22968200D03*
%TD*%
%TO.C,C1*%
X229857300Y-8134600D03*
X232357300Y-8134600D03*
%TD*%
M02*
