M48
; DRILL file {KiCad (5.1.7)-1} date 10/01/20 02:14:03
; FORMAT={-:-/ absolute / inch / decimal}
; #@! TF.CreationDate,2020-10-01T02:14:03-04:00
; #@! TF.GenerationSoftware,Kicad,Pcbnew,(5.1.7)-1
; #@! TF.FileFunction,NonPlated,1,2,NPTH
FMAT,2
INCH
T1C0.0689
T2C0.1200
T3C0.1570
%
G90
G05
T1
X5.5245Y-1.5875
X5.9245Y-1.5875
X7.5872Y-5.5245
X7.9872Y-5.5245
X9.8372Y-5.712
X10.2372Y-5.712
X7.9625Y-4.024
X8.3625Y-4.024
X10.5875Y-4.9615
X10.9875Y-4.9615
X2.3375Y-4.774
X2.7375Y-4.774
X1.775Y-3.274
X2.175Y-3.274
X0.65Y-2.524
X1.05Y-2.524
X7.962Y-1.5875
X8.362Y-1.5875
X3.275Y-3.274
X3.675Y-3.274
X2.9Y-2.524
X3.3Y-2.524
X0.837Y-1.5875
X1.237Y-1.5875
X4.0245Y-1.5875
X4.4245Y-1.5875
X0.0875Y-3.274
X0.4875Y-3.274
X11.525Y-4.024
X11.925Y-4.024
X3.8375Y-4.774
X4.2375Y-4.774
X9.3688Y-4.774
X9.7688Y-4.774
X7.2125Y-4.024
X7.6125Y-4.024
X4.025Y-3.274
X4.425Y-3.274
X10.025Y-2.524
X10.425Y-2.524
X10.3998Y-1.5875
X10.7998Y-1.5875
X9.462Y-1.5875
X9.862Y-1.5875
X7.025Y-3.274
X7.425Y-3.274
X3.087Y-1.5875
X3.487Y-1.5875
X4.7745Y-1.5875
X5.1745Y-1.5875
X7.4Y-2.524
X7.8Y-2.524
X9.9313Y-4.024
X10.3313Y-4.024
X1.9625Y-4.024
X2.3625Y-4.024
X10.5872Y-5.712
X10.9872Y-5.712
X3.4625Y-4.024
X3.8625Y-4.024
X-0.0056Y-5.5236
X0.3944Y-5.5236
X4.5875Y-4.774
X4.9875Y-4.774
X4.775Y-3.274
X5.175Y-3.274
X10.2125Y-3.274
X10.6125Y-3.274
X11.525Y-2.524
X11.925Y-2.524
X1.4Y-2.524
X1.8Y-2.524
X-0.1Y-2.524
X0.3Y-2.524
X8.9Y-2.524
X9.3Y-2.524
X1.587Y-1.5875
X1.987Y-1.5875
X0.3687Y-4.774
X0.7687Y-4.774
X2.7125Y-4.024
X3.1125Y-4.024
X7.5875Y-4.774
X7.9875Y-4.774
X6.4625Y-4.024
X6.8625Y-4.024
X0.9318Y-5.5236
X1.3318Y-5.5236
X6.8375Y-4.774
X7.2375Y-4.774
X8.525Y-3.274
X8.925Y-3.274
X7.775Y-3.274
X8.175Y-3.274
X6.275Y-3.274
X6.675Y-3.274
X2.15Y-2.524
X2.55Y-2.524
X3.65Y-2.524
X4.05Y-2.524
X8.7122Y-5.5245
X9.1122Y-5.5245
X3.0875Y-4.774
X3.4875Y-4.774
X8.3375Y-4.774
X8.7375Y-4.774
X6.0875Y-4.774
X6.4875Y-4.774
X1.8693Y-5.5236
X2.2693Y-5.5236
X4.9625Y-4.024
X5.3625Y-4.024
X9.275Y-3.274
X9.675Y-3.274
X6.2745Y-1.5875
X6.6745Y-1.5875
X5.525Y-3.274
X5.925Y-3.274
X4.4Y-2.524
X4.8Y-2.524
X-0.0062Y-4.024
X0.3938Y-4.024
X2.337Y-1.5875
X2.737Y-1.5875
X1.2131Y-5.5236
X1.6131Y-5.5236
X11.5248Y-1.5875
X11.9248Y-1.5875
X5.3375Y-4.774
X5.7375Y-4.774
X4.681Y-5.5245
X5.081Y-5.5245
X4.2125Y-4.024
X4.6125Y-4.024
X4.3995Y-5.525
X4.7995Y-5.525
X8.15Y-2.524
X8.55Y-2.524
X1.5875Y-4.774
X1.9875Y-4.774
X11.525Y-3.274
X11.925Y-3.274
X5.15Y-2.524
X5.55Y-2.524
X0.1812Y-4.024
X0.5812Y-4.024
X1.2125Y-4.024
X1.6125Y-4.024
X5.9Y-2.524
X6.3Y-2.524
X-0.1Y-1.5865
X0.3Y-1.5865
X0.0881Y-5.5236
X0.4881Y-5.5236
X5.7125Y-4.024
X6.1125Y-4.024
X11.525Y-4.774
X11.925Y-4.774
X8.7125Y-4.024
X9.1125Y-4.024
X11.3372Y-5.712
X11.7372Y-5.712
X1.025Y-3.274
X1.425Y-3.274
X8.712Y-1.5875
X9.112Y-1.5875
X7.212Y-1.5875
X7.612Y-1.5875
X2.525Y-3.274
X2.925Y-3.274
X6.65Y-2.524
X7.05Y-2.524
T2
X9.7562Y-2.249
X10.6937Y-2.249
X9.6625Y-3.749
X10.6Y-3.749
X0.1Y-4.499
X1.0375Y-4.499
X2.9125Y-5.7995
X6.8495Y-5.7995
X2.3495Y-5.8
X6.8495Y-5.8
T3
X3.287Y-1.5875
X4.9745Y-1.5875
X7.6Y-2.524
X9.6625Y-4.349
X10.1313Y-4.024
X10.6Y-4.349
X2.1625Y-4.024
X10.7872Y-5.712
X3.6625Y-4.024
X0.1944Y-5.5236
X4.7875Y-4.774
X4.975Y-3.274
X10.4125Y-3.274
X11.725Y-2.524
X1.6Y-2.524
X0.1Y-2.524
X9.1Y-2.524
X1.787Y-1.5875
X0.1Y-5.099
X0.5687Y-4.774
X1.0375Y-5.099
X2.9125Y-4.024
X7.7875Y-4.774
X6.6625Y-4.024
X1.1318Y-5.5236
X7.0375Y-4.774
X8.725Y-3.274
X7.975Y-3.274
X6.475Y-3.274
X2.35Y-2.524
X3.85Y-2.524
X8.9122Y-5.5245
X3.2875Y-4.774
X8.5375Y-4.774
X6.2875Y-4.774
X2.0693Y-5.5236
X5.1625Y-4.024
X9.475Y-3.274
X6.4745Y-1.5875
X5.725Y-3.274
X4.6Y-2.524
X0.1938Y-4.024
X2.537Y-1.5875
X1.4131Y-5.5236
X11.7248Y-1.5875
X5.5375Y-4.774
X2.9125Y-5.1995
X4.881Y-5.5245
X6.8495Y-5.1995
X4.4125Y-4.024
X2.3495Y-5.2
X4.5995Y-5.525
X6.8495Y-5.2
X8.35Y-2.524
X1.7875Y-4.774
X11.725Y-3.274
X5.35Y-2.524
X0.3812Y-4.024
X1.4125Y-4.024
X6.1Y-2.524
X0.1Y-1.5865
X0.2881Y-5.5236
X5.9125Y-4.024
X11.725Y-4.774
X8.9125Y-4.024
X11.5372Y-5.712
X1.225Y-3.274
X8.912Y-1.5875
X7.412Y-1.5875
X2.725Y-3.274
X6.85Y-2.524
X5.7245Y-1.5875
X7.7872Y-5.5245
X10.0372Y-5.712
X8.1625Y-4.024
X10.7875Y-4.9615
X2.5375Y-4.774
X1.975Y-3.274
X0.85Y-2.524
X8.162Y-1.5875
X3.475Y-3.274
X3.1Y-2.524
X1.037Y-1.5875
X4.2245Y-1.5875
X0.2875Y-3.274
X11.725Y-4.024
X4.0375Y-4.774
X9.5688Y-4.774
X7.4125Y-4.024
X4.225Y-3.274
X9.7562Y-2.849
X10.225Y-2.524
X10.6937Y-2.849
X10.5998Y-1.5875
X9.662Y-1.5875
X7.225Y-3.274
T0
M30
