%TF.GenerationSoftware,KiCad,Pcbnew,(5.1.7)-1*%
%TF.CreationDate,2020-10-01T02:14:01-04:00*%
%TF.ProjectId,LCK75,4c434b37-352e-46b6-9963-61645f706362,rev?*%
%TF.SameCoordinates,Original*%
%TF.FileFunction,Profile,NP*%
%FSLAX46Y46*%
G04 Gerber Fmt 4.6, Leading zero omitted, Abs format (unit mm)*
G04 Created by KiCad (PCBNEW (5.1.7)-1) date 2020-10-01 02:14:01*
%MOMM*%
%LPD*%
G01*
G04 APERTURE LIST*
%TA.AperFunction,Profile*%
%ADD10C,0.200000*%
%TD*%
G04 APERTURE END LIST*
D10*
X85605279Y-3625300D02*
G75*
G02*
X84105279Y-2125300I0J1500000D01*
G01*
X78887400Y774700D02*
X82605279Y774700D01*
X-6476482Y-33625300D02*
X-6476482Y-31625300D01*
X84105279Y-725300D02*
X84105279Y-2125300D01*
X70693356Y-725300D02*
X70693356Y-2125300D01*
X-4476482Y-3625300D02*
X69193356Y-3625300D01*
X304798868Y-3625300D02*
G75*
G02*
X306798868Y-5625300I0J-2000000D01*
G01*
X74087400Y774700D02*
X72193356Y774700D01*
X306798868Y-152400270D02*
G75*
G02*
X304798868Y-154400270I-2000000J0D01*
G01*
X-6476482Y-33625300D02*
X-6476482Y-64437600D01*
X85605279Y-3625300D02*
X304798868Y-3625300D01*
X76487400Y774700D02*
X78887400Y774700D01*
X70693356Y-2125300D02*
G75*
G02*
X69193356Y-3625300I-1500000J0D01*
G01*
X-6476482Y-31625300D02*
X-6476482Y-5625300D01*
X254935868Y-154400270D02*
X304798868Y-154400270D01*
X-4476482Y-154400270D02*
X254935868Y-154400270D01*
X70693356Y-725300D02*
G75*
G02*
X72193356Y774700I1500000J0D01*
G01*
X306798868Y-152400270D02*
X306798868Y-5626100D01*
X-6476482Y-5625300D02*
G75*
G02*
X-4476482Y-3625300I2000000J0D01*
G01*
X-4476482Y-154400270D02*
G75*
G02*
X-6476482Y-152400270I0J2000000D01*
G01*
X82605279Y774700D02*
G75*
G02*
X84105279Y-725300I0J-1500000D01*
G01*
X76487400Y774700D02*
X74087400Y774700D01*
X-6476482Y-64437600D02*
X-6476482Y-152400270D01*
M02*
