%TF.GenerationSoftware,KiCad,Pcbnew,(5.1.9)-1*%
%TF.CreationDate,2021-04-14T14:29:18-04:00*%
%TF.ProjectId,LCK75,4c434b37-352e-46b6-9963-61645f706362,rev?*%
%TF.SameCoordinates,Original*%
%TF.FileFunction,Soldermask,Top*%
%TF.FilePolarity,Negative*%
%FSLAX46Y46*%
G04 Gerber Fmt 4.6, Leading zero omitted, Abs format (unit mm)*
G04 Created by KiCad (PCBNEW (5.1.9)-1) date 2021-04-14 14:29:18*
%MOMM*%
%LPD*%
G01*
G04 APERTURE LIST*
%ADD10C,0.010000*%
%ADD11C,4.087800*%
%ADD12C,1.850000*%
%ADD13C,1.624000*%
%ADD14C,2.100000*%
%ADD15O,1.900000X1.900000*%
%ADD16C,3.148000*%
%ADD17O,1.500000X1.500000*%
%ADD18C,1.500000*%
%ADD19C,1.600000*%
%ADD20O,1.000000X1.800000*%
%ADD21O,1.000000X2.500000*%
%ADD22O,0.750000X1.100000*%
%ADD23O,1.700000X1.700000*%
%ADD24C,4.500000*%
%ADD25C,1.900000*%
%ADD26C,1.700000*%
%ADD27C,1.800000*%
%ADD28C,1.300000*%
G04 APERTURE END LIST*
D10*
%TO.C,G\u002A\u002A\u002A*%
G36*
X299272084Y-4346017D02*
G01*
X299426139Y-4481023D01*
X299531778Y-4633350D01*
X299545065Y-4728349D01*
X299549278Y-4889287D01*
X299584100Y-4943834D01*
X299582303Y-5038279D01*
X299497307Y-5248523D01*
X299325834Y-5581057D01*
X299064605Y-6042372D01*
X298820734Y-6455178D01*
X298560459Y-6893463D01*
X298334778Y-7279492D01*
X298156486Y-7590876D01*
X298038379Y-7805226D01*
X297993251Y-7900156D01*
X297993483Y-7902639D01*
X298078592Y-7888615D01*
X298261253Y-7824123D01*
X298327696Y-7797142D01*
X298581386Y-7709154D01*
X298917835Y-7615184D01*
X299182419Y-7553406D01*
X299727014Y-7439249D01*
X299943623Y-7665341D01*
X300086507Y-7837890D01*
X300158255Y-7970380D01*
X300160233Y-7985080D01*
X300090228Y-8069945D01*
X299916559Y-8186179D01*
X299693745Y-8304721D01*
X299476306Y-8396510D01*
X299320878Y-8432500D01*
X299198145Y-8454768D01*
X298952270Y-8514912D01*
X298622538Y-8602941D01*
X298352776Y-8678692D01*
X297736194Y-8852225D01*
X297262357Y-8977242D01*
X296912731Y-9056820D01*
X296668777Y-9094033D01*
X296511959Y-9091956D01*
X296423741Y-9053664D01*
X296391788Y-9004000D01*
X296370000Y-8846906D01*
X296421396Y-8651308D01*
X296558877Y-8376460D01*
X296628698Y-8255728D01*
X296757696Y-8026114D01*
X296840965Y-7856176D01*
X296858233Y-7802283D01*
X296908124Y-7701188D01*
X297031822Y-7532040D01*
X297069900Y-7485726D01*
X297208863Y-7280315D01*
X297279378Y-7097304D01*
X297281566Y-7071337D01*
X297309200Y-6936854D01*
X297345066Y-6907809D01*
X297416184Y-6840265D01*
X297547000Y-6662048D01*
X297711826Y-6408714D01*
X297747233Y-6351144D01*
X298056789Y-5849475D01*
X298351174Y-5384476D01*
X298616926Y-4976338D01*
X298840586Y-4645250D01*
X299008694Y-4411403D01*
X299107789Y-4294987D01*
X299124177Y-4285716D01*
X299272084Y-4346017D01*
G37*
X299272084Y-4346017D02*
X299426139Y-4481023D01*
X299531778Y-4633350D01*
X299545065Y-4728349D01*
X299549278Y-4889287D01*
X299584100Y-4943834D01*
X299582303Y-5038279D01*
X299497307Y-5248523D01*
X299325834Y-5581057D01*
X299064605Y-6042372D01*
X298820734Y-6455178D01*
X298560459Y-6893463D01*
X298334778Y-7279492D01*
X298156486Y-7590876D01*
X298038379Y-7805226D01*
X297993251Y-7900156D01*
X297993483Y-7902639D01*
X298078592Y-7888615D01*
X298261253Y-7824123D01*
X298327696Y-7797142D01*
X298581386Y-7709154D01*
X298917835Y-7615184D01*
X299182419Y-7553406D01*
X299727014Y-7439249D01*
X299943623Y-7665341D01*
X300086507Y-7837890D01*
X300158255Y-7970380D01*
X300160233Y-7985080D01*
X300090228Y-8069945D01*
X299916559Y-8186179D01*
X299693745Y-8304721D01*
X299476306Y-8396510D01*
X299320878Y-8432500D01*
X299198145Y-8454768D01*
X298952270Y-8514912D01*
X298622538Y-8602941D01*
X298352776Y-8678692D01*
X297736194Y-8852225D01*
X297262357Y-8977242D01*
X296912731Y-9056820D01*
X296668777Y-9094033D01*
X296511959Y-9091956D01*
X296423741Y-9053664D01*
X296391788Y-9004000D01*
X296370000Y-8846906D01*
X296421396Y-8651308D01*
X296558877Y-8376460D01*
X296628698Y-8255728D01*
X296757696Y-8026114D01*
X296840965Y-7856176D01*
X296858233Y-7802283D01*
X296908124Y-7701188D01*
X297031822Y-7532040D01*
X297069900Y-7485726D01*
X297208863Y-7280315D01*
X297279378Y-7097304D01*
X297281566Y-7071337D01*
X297309200Y-6936854D01*
X297345066Y-6907809D01*
X297416184Y-6840265D01*
X297547000Y-6662048D01*
X297711826Y-6408714D01*
X297747233Y-6351144D01*
X298056789Y-5849475D01*
X298351174Y-5384476D01*
X298616926Y-4976338D01*
X298840586Y-4645250D01*
X299008694Y-4411403D01*
X299107789Y-4294987D01*
X299124177Y-4285716D01*
X299272084Y-4346017D01*
G36*
X-5612582Y-4515351D02*
G01*
X-5458528Y-4650356D01*
X-5352889Y-4802684D01*
X-5339602Y-4897682D01*
X-5335389Y-5058621D01*
X-5300567Y-5113167D01*
X-5302364Y-5207612D01*
X-5387360Y-5417857D01*
X-5558833Y-5750391D01*
X-5820062Y-6211705D01*
X-6063933Y-6624512D01*
X-6324208Y-7062797D01*
X-6549889Y-7448825D01*
X-6728180Y-7760209D01*
X-6846288Y-7974560D01*
X-6891415Y-8069489D01*
X-6891184Y-8071972D01*
X-6806075Y-8057948D01*
X-6623413Y-7993456D01*
X-6556971Y-7966476D01*
X-6303281Y-7878487D01*
X-5966832Y-7784518D01*
X-5702247Y-7722739D01*
X-5157653Y-7608582D01*
X-4941043Y-7834674D01*
X-4798160Y-8007223D01*
X-4726412Y-8139713D01*
X-4724434Y-8154413D01*
X-4794439Y-8239278D01*
X-4968108Y-8355512D01*
X-5190921Y-8474055D01*
X-5408360Y-8565844D01*
X-5563789Y-8601833D01*
X-5686522Y-8624101D01*
X-5932397Y-8684245D01*
X-6262129Y-8772274D01*
X-6531891Y-8848025D01*
X-7148473Y-9021558D01*
X-7622309Y-9146576D01*
X-7971936Y-9226153D01*
X-8215890Y-9263366D01*
X-8372707Y-9261289D01*
X-8460926Y-9222997D01*
X-8492879Y-9173333D01*
X-8514667Y-9016239D01*
X-8463270Y-8820641D01*
X-8325790Y-8545793D01*
X-8255969Y-8425061D01*
X-8126971Y-8195447D01*
X-8043702Y-8025509D01*
X-8026434Y-7971617D01*
X-7976543Y-7870522D01*
X-7852845Y-7701373D01*
X-7814767Y-7655059D01*
X-7675804Y-7449648D01*
X-7605289Y-7266638D01*
X-7603100Y-7240670D01*
X-7575466Y-7106187D01*
X-7539600Y-7077142D01*
X-7468483Y-7009598D01*
X-7337667Y-6831381D01*
X-7172840Y-6578047D01*
X-7137434Y-6520477D01*
X-6827877Y-6018808D01*
X-6533493Y-5553809D01*
X-6267741Y-5145671D01*
X-6044080Y-4814583D01*
X-5875973Y-4580736D01*
X-5776878Y-4464321D01*
X-5760490Y-4455049D01*
X-5612582Y-4515351D01*
G37*
X-5612582Y-4515351D02*
X-5458528Y-4650356D01*
X-5352889Y-4802684D01*
X-5339602Y-4897682D01*
X-5335389Y-5058621D01*
X-5300567Y-5113167D01*
X-5302364Y-5207612D01*
X-5387360Y-5417857D01*
X-5558833Y-5750391D01*
X-5820062Y-6211705D01*
X-6063933Y-6624512D01*
X-6324208Y-7062797D01*
X-6549889Y-7448825D01*
X-6728180Y-7760209D01*
X-6846288Y-7974560D01*
X-6891415Y-8069489D01*
X-6891184Y-8071972D01*
X-6806075Y-8057948D01*
X-6623413Y-7993456D01*
X-6556971Y-7966476D01*
X-6303281Y-7878487D01*
X-5966832Y-7784518D01*
X-5702247Y-7722739D01*
X-5157653Y-7608582D01*
X-4941043Y-7834674D01*
X-4798160Y-8007223D01*
X-4726412Y-8139713D01*
X-4724434Y-8154413D01*
X-4794439Y-8239278D01*
X-4968108Y-8355512D01*
X-5190921Y-8474055D01*
X-5408360Y-8565844D01*
X-5563789Y-8601833D01*
X-5686522Y-8624101D01*
X-5932397Y-8684245D01*
X-6262129Y-8772274D01*
X-6531891Y-8848025D01*
X-7148473Y-9021558D01*
X-7622309Y-9146576D01*
X-7971936Y-9226153D01*
X-8215890Y-9263366D01*
X-8372707Y-9261289D01*
X-8460926Y-9222997D01*
X-8492879Y-9173333D01*
X-8514667Y-9016239D01*
X-8463270Y-8820641D01*
X-8325790Y-8545793D01*
X-8255969Y-8425061D01*
X-8126971Y-8195447D01*
X-8043702Y-8025509D01*
X-8026434Y-7971617D01*
X-7976543Y-7870522D01*
X-7852845Y-7701373D01*
X-7814767Y-7655059D01*
X-7675804Y-7449648D01*
X-7605289Y-7266638D01*
X-7603100Y-7240670D01*
X-7575466Y-7106187D01*
X-7539600Y-7077142D01*
X-7468483Y-7009598D01*
X-7337667Y-6831381D01*
X-7172840Y-6578047D01*
X-7137434Y-6520477D01*
X-6827877Y-6018808D01*
X-6533493Y-5553809D01*
X-6267741Y-5145671D01*
X-6044080Y-4814583D01*
X-5875973Y-4580736D01*
X-5776878Y-4464321D01*
X-5760490Y-4455049D01*
X-5612582Y-4515351D01*
G36*
X300169640Y-9688207D02*
G01*
X300314416Y-9805442D01*
X300449124Y-9971685D01*
X300530785Y-10135751D01*
X300528563Y-10231857D01*
X300441400Y-10328788D01*
X300250731Y-10512768D01*
X299981532Y-10760546D01*
X299658777Y-11048867D01*
X299525233Y-11166013D01*
X298918003Y-11716380D01*
X298424886Y-12213547D01*
X298015399Y-12692441D01*
X297659062Y-13187986D01*
X297408456Y-13591406D01*
X297448240Y-13598922D01*
X297595458Y-13542528D01*
X297810509Y-13442302D01*
X298053791Y-13318324D01*
X298285703Y-13190672D01*
X298466643Y-13079426D01*
X298551630Y-13011788D01*
X298648423Y-12943039D01*
X298832905Y-12836973D01*
X298875366Y-12814359D01*
X299127775Y-12723940D01*
X299336205Y-12766039D01*
X299549043Y-12952782D01*
X299582271Y-12991547D01*
X299672074Y-13122399D01*
X299642884Y-13188736D01*
X299602653Y-13207232D01*
X299504643Y-13283812D01*
X299498889Y-13319644D01*
X299471466Y-13523909D01*
X299309317Y-13751868D01*
X299039696Y-13977863D01*
X298689858Y-14176239D01*
X298509233Y-14251251D01*
X298220185Y-14328214D01*
X297872365Y-14380345D01*
X297542075Y-14399274D01*
X297323900Y-14381242D01*
X297125694Y-14282654D01*
X296901702Y-14097854D01*
X296705672Y-13880002D01*
X296591348Y-13682258D01*
X296582738Y-13648179D01*
X296598936Y-13416993D01*
X296693551Y-13085686D01*
X296850892Y-12694913D01*
X297055268Y-12285328D01*
X297211276Y-12019708D01*
X297466785Y-11664810D01*
X297795949Y-11282442D01*
X298172068Y-10896341D01*
X298568439Y-10530240D01*
X298958362Y-10207876D01*
X299315134Y-9952984D01*
X299612054Y-9789298D01*
X299774615Y-9741153D01*
X299965337Y-9705461D01*
X300057773Y-9671163D01*
X300169640Y-9688207D01*
G37*
X300169640Y-9688207D02*
X300314416Y-9805442D01*
X300449124Y-9971685D01*
X300530785Y-10135751D01*
X300528563Y-10231857D01*
X300441400Y-10328788D01*
X300250731Y-10512768D01*
X299981532Y-10760546D01*
X299658777Y-11048867D01*
X299525233Y-11166013D01*
X298918003Y-11716380D01*
X298424886Y-12213547D01*
X298015399Y-12692441D01*
X297659062Y-13187986D01*
X297408456Y-13591406D01*
X297448240Y-13598922D01*
X297595458Y-13542528D01*
X297810509Y-13442302D01*
X298053791Y-13318324D01*
X298285703Y-13190672D01*
X298466643Y-13079426D01*
X298551630Y-13011788D01*
X298648423Y-12943039D01*
X298832905Y-12836973D01*
X298875366Y-12814359D01*
X299127775Y-12723940D01*
X299336205Y-12766039D01*
X299549043Y-12952782D01*
X299582271Y-12991547D01*
X299672074Y-13122399D01*
X299642884Y-13188736D01*
X299602653Y-13207232D01*
X299504643Y-13283812D01*
X299498889Y-13319644D01*
X299471466Y-13523909D01*
X299309317Y-13751868D01*
X299039696Y-13977863D01*
X298689858Y-14176239D01*
X298509233Y-14251251D01*
X298220185Y-14328214D01*
X297872365Y-14380345D01*
X297542075Y-14399274D01*
X297323900Y-14381242D01*
X297125694Y-14282654D01*
X296901702Y-14097854D01*
X296705672Y-13880002D01*
X296591348Y-13682258D01*
X296582738Y-13648179D01*
X296598936Y-13416993D01*
X296693551Y-13085686D01*
X296850892Y-12694913D01*
X297055268Y-12285328D01*
X297211276Y-12019708D01*
X297466785Y-11664810D01*
X297795949Y-11282442D01*
X298172068Y-10896341D01*
X298568439Y-10530240D01*
X298958362Y-10207876D01*
X299315134Y-9952984D01*
X299612054Y-9789298D01*
X299774615Y-9741153D01*
X299965337Y-9705461D01*
X300057773Y-9671163D01*
X300169640Y-9688207D01*
G36*
X-4715026Y-9857540D02*
G01*
X-4570250Y-9974775D01*
X-4435543Y-10141019D01*
X-4353882Y-10305085D01*
X-4356104Y-10401191D01*
X-4443267Y-10498121D01*
X-4633936Y-10682102D01*
X-4903135Y-10929879D01*
X-5225889Y-11218201D01*
X-5359434Y-11335346D01*
X-5966664Y-11885713D01*
X-6459781Y-12382880D01*
X-6869267Y-12861774D01*
X-7225604Y-13357320D01*
X-7476210Y-13760739D01*
X-7436426Y-13768256D01*
X-7289208Y-13711861D01*
X-7074157Y-13611636D01*
X-6830875Y-13487658D01*
X-6598963Y-13360006D01*
X-6418023Y-13248759D01*
X-6333037Y-13181121D01*
X-6236243Y-13112372D01*
X-6051761Y-13006306D01*
X-6009300Y-12983692D01*
X-5756892Y-12893274D01*
X-5548461Y-12935372D01*
X-5335624Y-13122115D01*
X-5302395Y-13160880D01*
X-5212592Y-13291733D01*
X-5241783Y-13358069D01*
X-5282014Y-13376565D01*
X-5380023Y-13453146D01*
X-5385778Y-13488977D01*
X-5413200Y-13693242D01*
X-5575350Y-13921201D01*
X-5844971Y-14147196D01*
X-6194809Y-14345572D01*
X-6375434Y-14420585D01*
X-6664481Y-14497548D01*
X-7012302Y-14549678D01*
X-7342591Y-14568608D01*
X-7560767Y-14550576D01*
X-7758973Y-14451987D01*
X-7982964Y-14267187D01*
X-8178995Y-14049336D01*
X-8293318Y-13851591D01*
X-8301929Y-13817512D01*
X-8285731Y-13586326D01*
X-8191116Y-13255019D01*
X-8033775Y-12864246D01*
X-7829399Y-12454662D01*
X-7673390Y-12189042D01*
X-7465702Y-11901019D01*
X-7177365Y-11555490D01*
X-6854975Y-11206676D01*
X-6679633Y-11032695D01*
X-6375390Y-10733433D01*
X-6186910Y-10524335D01*
X-6100021Y-10386980D01*
X-6100549Y-10302946D01*
X-6109380Y-10291468D01*
X-6148185Y-10222591D01*
X-6051372Y-10225599D01*
X-6005148Y-10236122D01*
X-5751098Y-10212869D01*
X-5567446Y-10109743D01*
X-5339147Y-9979967D01*
X-5119467Y-9911529D01*
X-5117069Y-9911256D01*
X-4923951Y-9875785D01*
X-4826894Y-9840497D01*
X-4715026Y-9857540D01*
G37*
X-4715026Y-9857540D02*
X-4570250Y-9974775D01*
X-4435543Y-10141019D01*
X-4353882Y-10305085D01*
X-4356104Y-10401191D01*
X-4443267Y-10498121D01*
X-4633936Y-10682102D01*
X-4903135Y-10929879D01*
X-5225889Y-11218201D01*
X-5359434Y-11335346D01*
X-5966664Y-11885713D01*
X-6459781Y-12382880D01*
X-6869267Y-12861774D01*
X-7225604Y-13357320D01*
X-7476210Y-13760739D01*
X-7436426Y-13768256D01*
X-7289208Y-13711861D01*
X-7074157Y-13611636D01*
X-6830875Y-13487658D01*
X-6598963Y-13360006D01*
X-6418023Y-13248759D01*
X-6333037Y-13181121D01*
X-6236243Y-13112372D01*
X-6051761Y-13006306D01*
X-6009300Y-12983692D01*
X-5756892Y-12893274D01*
X-5548461Y-12935372D01*
X-5335624Y-13122115D01*
X-5302395Y-13160880D01*
X-5212592Y-13291733D01*
X-5241783Y-13358069D01*
X-5282014Y-13376565D01*
X-5380023Y-13453146D01*
X-5385778Y-13488977D01*
X-5413200Y-13693242D01*
X-5575350Y-13921201D01*
X-5844971Y-14147196D01*
X-6194809Y-14345572D01*
X-6375434Y-14420585D01*
X-6664481Y-14497548D01*
X-7012302Y-14549678D01*
X-7342591Y-14568608D01*
X-7560767Y-14550576D01*
X-7758973Y-14451987D01*
X-7982964Y-14267187D01*
X-8178995Y-14049336D01*
X-8293318Y-13851591D01*
X-8301929Y-13817512D01*
X-8285731Y-13586326D01*
X-8191116Y-13255019D01*
X-8033775Y-12864246D01*
X-7829399Y-12454662D01*
X-7673390Y-12189042D01*
X-7465702Y-11901019D01*
X-7177365Y-11555490D01*
X-6854975Y-11206676D01*
X-6679633Y-11032695D01*
X-6375390Y-10733433D01*
X-6186910Y-10524335D01*
X-6100021Y-10386980D01*
X-6100549Y-10302946D01*
X-6109380Y-10291468D01*
X-6148185Y-10222591D01*
X-6051372Y-10225599D01*
X-6005148Y-10236122D01*
X-5751098Y-10212869D01*
X-5567446Y-10109743D01*
X-5339147Y-9979967D01*
X-5119467Y-9911529D01*
X-5117069Y-9911256D01*
X-4923951Y-9875785D01*
X-4826894Y-9840497D01*
X-4715026Y-9857540D01*
G36*
X301258773Y-15072453D02*
G01*
X301492476Y-15138815D01*
X301599566Y-15169205D01*
X301735928Y-15267760D01*
X301766207Y-15359705D01*
X301712520Y-15545811D01*
X301592269Y-15715289D01*
X301456971Y-15797749D01*
X301445045Y-15798500D01*
X301337871Y-15865218D01*
X301251448Y-15985494D01*
X301161003Y-16125534D01*
X301033784Y-16256482D01*
X300844949Y-16394920D01*
X300569656Y-16557430D01*
X300183063Y-16760595D01*
X299812711Y-16945878D01*
X298827630Y-17432957D01*
X299282265Y-18400528D01*
X299454763Y-18772982D01*
X299597201Y-19090691D01*
X299695737Y-19322037D01*
X299736529Y-19435400D01*
X299736900Y-19439060D01*
X299670533Y-19524294D01*
X299510473Y-19645963D01*
X299315279Y-19766390D01*
X299143511Y-19847898D01*
X299078784Y-19862500D01*
X298989826Y-19795199D01*
X298856888Y-19622685D01*
X298766152Y-19478843D01*
X298585739Y-19154112D01*
X298404395Y-18802396D01*
X298352752Y-18695677D01*
X298221413Y-18423822D01*
X298101995Y-18187089D01*
X298058686Y-18105891D01*
X297953182Y-17915615D01*
X297464142Y-18162482D01*
X297120644Y-18349882D01*
X296906485Y-18506557D01*
X296791183Y-18657732D01*
X296759358Y-18745702D01*
X296689231Y-18858706D01*
X296532248Y-19049402D01*
X296322249Y-19276712D01*
X296320084Y-19278941D01*
X296099514Y-19498820D01*
X295956220Y-19612675D01*
X295853403Y-19639626D01*
X295754266Y-19598792D01*
X295732086Y-19584469D01*
X295537897Y-19429630D01*
X295465542Y-19277668D01*
X295513612Y-19088332D01*
X295680702Y-18821370D01*
X295704258Y-18788360D01*
X295865138Y-18556366D01*
X295976381Y-18380539D01*
X296011566Y-18306499D01*
X296056607Y-18219120D01*
X296178967Y-18022496D01*
X296359502Y-17746554D01*
X296560317Y-17448656D01*
X296785732Y-17107116D01*
X296976372Y-16797031D01*
X297110028Y-16555868D01*
X297162162Y-16433379D01*
X297221460Y-16275127D01*
X297273153Y-16221833D01*
X297340558Y-16154044D01*
X297465900Y-15974806D01*
X297624197Y-15720315D01*
X297653029Y-15671418D01*
X297975008Y-15121003D01*
X298362277Y-15158927D01*
X298671624Y-15226240D01*
X298897218Y-15345839D01*
X298914883Y-15362187D01*
X298998459Y-15455564D01*
X299019910Y-15541731D01*
X298967336Y-15661758D01*
X298828836Y-15856717D01*
X298736303Y-15978533D01*
X298567151Y-16209284D01*
X298453761Y-16381390D01*
X298420580Y-16457734D01*
X298420646Y-16457802D01*
X298501961Y-16431798D01*
X298707155Y-16341363D01*
X299009278Y-16199035D01*
X299381382Y-16017355D01*
X299579736Y-15918448D01*
X299995017Y-15712966D01*
X300371813Y-15531992D01*
X300677151Y-15390965D01*
X300878059Y-15305320D01*
X300922233Y-15289901D01*
X301071564Y-15210691D01*
X301110606Y-15126354D01*
X301152119Y-15059441D01*
X301258773Y-15072453D01*
G37*
X301258773Y-15072453D02*
X301492476Y-15138815D01*
X301599566Y-15169205D01*
X301735928Y-15267760D01*
X301766207Y-15359705D01*
X301712520Y-15545811D01*
X301592269Y-15715289D01*
X301456971Y-15797749D01*
X301445045Y-15798500D01*
X301337871Y-15865218D01*
X301251448Y-15985494D01*
X301161003Y-16125534D01*
X301033784Y-16256482D01*
X300844949Y-16394920D01*
X300569656Y-16557430D01*
X300183063Y-16760595D01*
X299812711Y-16945878D01*
X298827630Y-17432957D01*
X299282265Y-18400528D01*
X299454763Y-18772982D01*
X299597201Y-19090691D01*
X299695737Y-19322037D01*
X299736529Y-19435400D01*
X299736900Y-19439060D01*
X299670533Y-19524294D01*
X299510473Y-19645963D01*
X299315279Y-19766390D01*
X299143511Y-19847898D01*
X299078784Y-19862500D01*
X298989826Y-19795199D01*
X298856888Y-19622685D01*
X298766152Y-19478843D01*
X298585739Y-19154112D01*
X298404395Y-18802396D01*
X298352752Y-18695677D01*
X298221413Y-18423822D01*
X298101995Y-18187089D01*
X298058686Y-18105891D01*
X297953182Y-17915615D01*
X297464142Y-18162482D01*
X297120644Y-18349882D01*
X296906485Y-18506557D01*
X296791183Y-18657732D01*
X296759358Y-18745702D01*
X296689231Y-18858706D01*
X296532248Y-19049402D01*
X296322249Y-19276712D01*
X296320084Y-19278941D01*
X296099514Y-19498820D01*
X295956220Y-19612675D01*
X295853403Y-19639626D01*
X295754266Y-19598792D01*
X295732086Y-19584469D01*
X295537897Y-19429630D01*
X295465542Y-19277668D01*
X295513612Y-19088332D01*
X295680702Y-18821370D01*
X295704258Y-18788360D01*
X295865138Y-18556366D01*
X295976381Y-18380539D01*
X296011566Y-18306499D01*
X296056607Y-18219120D01*
X296178967Y-18022496D01*
X296359502Y-17746554D01*
X296560317Y-17448656D01*
X296785732Y-17107116D01*
X296976372Y-16797031D01*
X297110028Y-16555868D01*
X297162162Y-16433379D01*
X297221460Y-16275127D01*
X297273153Y-16221833D01*
X297340558Y-16154044D01*
X297465900Y-15974806D01*
X297624197Y-15720315D01*
X297653029Y-15671418D01*
X297975008Y-15121003D01*
X298362277Y-15158927D01*
X298671624Y-15226240D01*
X298897218Y-15345839D01*
X298914883Y-15362187D01*
X298998459Y-15455564D01*
X299019910Y-15541731D01*
X298967336Y-15661758D01*
X298828836Y-15856717D01*
X298736303Y-15978533D01*
X298567151Y-16209284D01*
X298453761Y-16381390D01*
X298420580Y-16457734D01*
X298420646Y-16457802D01*
X298501961Y-16431798D01*
X298707155Y-16341363D01*
X299009278Y-16199035D01*
X299381382Y-16017355D01*
X299579736Y-15918448D01*
X299995017Y-15712966D01*
X300371813Y-15531992D01*
X300677151Y-15390965D01*
X300878059Y-15305320D01*
X300922233Y-15289901D01*
X301071564Y-15210691D01*
X301110606Y-15126354D01*
X301152119Y-15059441D01*
X301258773Y-15072453D01*
G36*
X-3625894Y-15241786D02*
G01*
X-3392190Y-15308148D01*
X-3285100Y-15338539D01*
X-3148739Y-15437093D01*
X-3118460Y-15529039D01*
X-3172146Y-15715145D01*
X-3292398Y-15884622D01*
X-3427696Y-15967082D01*
X-3439622Y-15967833D01*
X-3546795Y-16034552D01*
X-3633219Y-16154828D01*
X-3723664Y-16294868D01*
X-3850883Y-16425815D01*
X-4039718Y-16564253D01*
X-4315011Y-16726763D01*
X-4701603Y-16929928D01*
X-5071956Y-17115212D01*
X-6057037Y-17602290D01*
X-5602402Y-18569861D01*
X-5429903Y-18942315D01*
X-5287465Y-19260024D01*
X-5188929Y-19491370D01*
X-5148138Y-19604733D01*
X-5147767Y-19608394D01*
X-5214134Y-19693627D01*
X-5374194Y-19815296D01*
X-5569387Y-19935724D01*
X-5741156Y-20017231D01*
X-5805882Y-20031833D01*
X-5894841Y-19964532D01*
X-6027779Y-19792018D01*
X-6118515Y-19648177D01*
X-6298928Y-19323445D01*
X-6480271Y-18971730D01*
X-6531915Y-18865010D01*
X-6663253Y-18593155D01*
X-6782672Y-18356423D01*
X-6825981Y-18275224D01*
X-6931485Y-18084949D01*
X-7420525Y-18331815D01*
X-7764023Y-18519216D01*
X-7978182Y-18675891D01*
X-8093484Y-18827066D01*
X-8125308Y-18915035D01*
X-8195436Y-19028039D01*
X-8352419Y-19218735D01*
X-8562418Y-19446046D01*
X-8564583Y-19448274D01*
X-8785152Y-19668154D01*
X-8928447Y-19782009D01*
X-9031264Y-19808959D01*
X-9130401Y-19768125D01*
X-9152581Y-19753802D01*
X-9346770Y-19598963D01*
X-9419125Y-19447001D01*
X-9371055Y-19257665D01*
X-9203965Y-18990703D01*
X-9180408Y-18957693D01*
X-9019529Y-18725699D01*
X-8908286Y-18549872D01*
X-8873100Y-18475832D01*
X-8828060Y-18388453D01*
X-8705700Y-18191829D01*
X-8525164Y-17915887D01*
X-8324350Y-17617989D01*
X-8098935Y-17276449D01*
X-7908295Y-16966364D01*
X-7774638Y-16725201D01*
X-7722505Y-16602712D01*
X-7663207Y-16444460D01*
X-7611514Y-16391167D01*
X-7544108Y-16323377D01*
X-7418767Y-16144140D01*
X-7260470Y-15889649D01*
X-7231638Y-15840751D01*
X-6909659Y-15290336D01*
X-6522389Y-15328260D01*
X-6213043Y-15395573D01*
X-5987449Y-15515172D01*
X-5969783Y-15531521D01*
X-5886207Y-15624897D01*
X-5864757Y-15711064D01*
X-5917331Y-15831092D01*
X-6055831Y-16026051D01*
X-6148364Y-16147866D01*
X-6317516Y-16378617D01*
X-6430905Y-16550723D01*
X-6464086Y-16627067D01*
X-6464021Y-16627135D01*
X-6382706Y-16601132D01*
X-6177512Y-16510696D01*
X-5875389Y-16368368D01*
X-5503285Y-16186689D01*
X-5304931Y-16087781D01*
X-4889649Y-15882299D01*
X-4512853Y-15701326D01*
X-4207515Y-15560298D01*
X-4006608Y-15474653D01*
X-3962434Y-15459235D01*
X-3813103Y-15380024D01*
X-3774061Y-15295687D01*
X-3732547Y-15228774D01*
X-3625894Y-15241786D01*
G37*
X-3625894Y-15241786D02*
X-3392190Y-15308148D01*
X-3285100Y-15338539D01*
X-3148739Y-15437093D01*
X-3118460Y-15529039D01*
X-3172146Y-15715145D01*
X-3292398Y-15884622D01*
X-3427696Y-15967082D01*
X-3439622Y-15967833D01*
X-3546795Y-16034552D01*
X-3633219Y-16154828D01*
X-3723664Y-16294868D01*
X-3850883Y-16425815D01*
X-4039718Y-16564253D01*
X-4315011Y-16726763D01*
X-4701603Y-16929928D01*
X-5071956Y-17115212D01*
X-6057037Y-17602290D01*
X-5602402Y-18569861D01*
X-5429903Y-18942315D01*
X-5287465Y-19260024D01*
X-5188929Y-19491370D01*
X-5148138Y-19604733D01*
X-5147767Y-19608394D01*
X-5214134Y-19693627D01*
X-5374194Y-19815296D01*
X-5569387Y-19935724D01*
X-5741156Y-20017231D01*
X-5805882Y-20031833D01*
X-5894841Y-19964532D01*
X-6027779Y-19792018D01*
X-6118515Y-19648177D01*
X-6298928Y-19323445D01*
X-6480271Y-18971730D01*
X-6531915Y-18865010D01*
X-6663253Y-18593155D01*
X-6782672Y-18356423D01*
X-6825981Y-18275224D01*
X-6931485Y-18084949D01*
X-7420525Y-18331815D01*
X-7764023Y-18519216D01*
X-7978182Y-18675891D01*
X-8093484Y-18827066D01*
X-8125308Y-18915035D01*
X-8195436Y-19028039D01*
X-8352419Y-19218735D01*
X-8562418Y-19446046D01*
X-8564583Y-19448274D01*
X-8785152Y-19668154D01*
X-8928447Y-19782009D01*
X-9031264Y-19808959D01*
X-9130401Y-19768125D01*
X-9152581Y-19753802D01*
X-9346770Y-19598963D01*
X-9419125Y-19447001D01*
X-9371055Y-19257665D01*
X-9203965Y-18990703D01*
X-9180408Y-18957693D01*
X-9019529Y-18725699D01*
X-8908286Y-18549872D01*
X-8873100Y-18475832D01*
X-8828060Y-18388453D01*
X-8705700Y-18191829D01*
X-8525164Y-17915887D01*
X-8324350Y-17617989D01*
X-8098935Y-17276449D01*
X-7908295Y-16966364D01*
X-7774638Y-16725201D01*
X-7722505Y-16602712D01*
X-7663207Y-16444460D01*
X-7611514Y-16391167D01*
X-7544108Y-16323377D01*
X-7418767Y-16144140D01*
X-7260470Y-15889649D01*
X-7231638Y-15840751D01*
X-6909659Y-15290336D01*
X-6522389Y-15328260D01*
X-6213043Y-15395573D01*
X-5987449Y-15515172D01*
X-5969783Y-15531521D01*
X-5886207Y-15624897D01*
X-5864757Y-15711064D01*
X-5917331Y-15831092D01*
X-6055831Y-16026051D01*
X-6148364Y-16147866D01*
X-6317516Y-16378617D01*
X-6430905Y-16550723D01*
X-6464086Y-16627067D01*
X-6464021Y-16627135D01*
X-6382706Y-16601132D01*
X-6177512Y-16510696D01*
X-5875389Y-16368368D01*
X-5503285Y-16186689D01*
X-5304931Y-16087781D01*
X-4889649Y-15882299D01*
X-4512853Y-15701326D01*
X-4207515Y-15560298D01*
X-4006608Y-15474653D01*
X-3962434Y-15459235D01*
X-3813103Y-15380024D01*
X-3774061Y-15295687D01*
X-3732547Y-15228774D01*
X-3625894Y-15241786D01*
%TD*%
D11*
%TO.C,SW44*%
X260127000Y-78689400D03*
D12*
X255047000Y-78689400D03*
X265207000Y-78689400D03*
%TD*%
D13*
%TO.C,SSD1306*%
X197078900Y-12288500D03*
X197078900Y-14828500D03*
X197078900Y-17368500D03*
X197078900Y-19908500D03*
%TD*%
%TO.C,SW93*%
G36*
G01*
X291985100Y-44401500D02*
X289985100Y-44401500D01*
G75*
G02*
X289935100Y-44351500I0J50000D01*
G01*
X289935100Y-42351500D01*
G75*
G02*
X289985100Y-42301500I50000J0D01*
G01*
X291985100Y-42301500D01*
G75*
G02*
X292035100Y-42351500I0J-50000D01*
G01*
X292035100Y-44351500D01*
G75*
G02*
X291985100Y-44401500I-50000J0D01*
G01*
G37*
D14*
X293485100Y-43351500D03*
X295985100Y-43351500D03*
G36*
G01*
X288885100Y-37501500D02*
X286885100Y-37501500D01*
G75*
G02*
X286835100Y-37451500I0J50000D01*
G01*
X286835100Y-34251500D01*
G75*
G02*
X286885100Y-34201500I50000J0D01*
G01*
X288885100Y-34201500D01*
G75*
G02*
X288935100Y-34251500I0J-50000D01*
G01*
X288935100Y-37451500D01*
G75*
G02*
X288885100Y-37501500I-50000J0D01*
G01*
G37*
G36*
G01*
X300085100Y-37501500D02*
X298085100Y-37501500D01*
G75*
G02*
X298035100Y-37451500I0J50000D01*
G01*
X298035100Y-34251500D01*
G75*
G02*
X298085100Y-34201500I50000J0D01*
G01*
X300085100Y-34201500D01*
G75*
G02*
X300135100Y-34251500I0J-50000D01*
G01*
X300135100Y-37451500D01*
G75*
G02*
X300085100Y-37501500I-50000J0D01*
G01*
G37*
X290985100Y-28851500D03*
X295985100Y-28851500D03*
%TD*%
D11*
%TO.C,SW40*%
X179165000Y-78689400D03*
D12*
X174085000Y-78689400D03*
X184245000Y-78689400D03*
%TD*%
D11*
%TO.C,SW56*%
X183928000Y-97739000D03*
D12*
X178848000Y-97739000D03*
X189008000Y-97739000D03*
%TD*%
D11*
%TO.C,SW42*%
X217265000Y-78689400D03*
D12*
X212185000Y-78689400D03*
X222345000Y-78689400D03*
%TD*%
D11*
%TO.C,SW43*%
X236315000Y-78689400D03*
D12*
X231235000Y-78689400D03*
X241395000Y-78689400D03*
%TD*%
D11*
%TO.C,SW45*%
X293465000Y-78689400D03*
D12*
X288385000Y-78689400D03*
X298545000Y-78689400D03*
%TD*%
D11*
%TO.C,SW53*%
X126778000Y-97739000D03*
D12*
X121698000Y-97739000D03*
X131858000Y-97739000D03*
%TD*%
D11*
%TO.C,SW50*%
X69627600Y-97739000D03*
D12*
X64547600Y-97739000D03*
X74707600Y-97739000D03*
%TD*%
%TO.C,SW70*%
X141383000Y-116789000D03*
X131223000Y-116789000D03*
D11*
X136303000Y-116789000D03*
%TD*%
%TO.C,SW67*%
X79152600Y-116789000D03*
D12*
X74072600Y-116789000D03*
X84232600Y-116789000D03*
%TD*%
D11*
%TO.C,SW35*%
X83915000Y-78689400D03*
D12*
X78835000Y-78689400D03*
X88995000Y-78689400D03*
%TD*%
D11*
%TO.C,SW73*%
X193453000Y-116789000D03*
D12*
X188373000Y-116789000D03*
X198533000Y-116789000D03*
%TD*%
D11*
%TO.C,SW36*%
X102965000Y-78689400D03*
D12*
X97885000Y-78689400D03*
X108045000Y-78689400D03*
%TD*%
D11*
%TO.C,SW48*%
X31527600Y-97739000D03*
D12*
X26447600Y-97739000D03*
X36607600Y-97739000D03*
%TD*%
D11*
%TO.C,SW54*%
X145828000Y-97739000D03*
D12*
X140748000Y-97739000D03*
X150908000Y-97739000D03*
%TD*%
D11*
%TO.C,SW74*%
X212503000Y-116789000D03*
D12*
X207423000Y-116789000D03*
X217583000Y-116789000D03*
%TD*%
D11*
%TO.C,SW41*%
X198215000Y-78689400D03*
D12*
X193135000Y-78689400D03*
X203295000Y-78689400D03*
%TD*%
D11*
%TO.C,SW72*%
X174403000Y-116789000D03*
D12*
X169323000Y-116789000D03*
X179483000Y-116789000D03*
%TD*%
D11*
%TO.C,SW49*%
X50577600Y-97739000D03*
D12*
X45497600Y-97739000D03*
X55657600Y-97739000D03*
%TD*%
D11*
%TO.C,SW52*%
X107728000Y-97739000D03*
D12*
X102648000Y-97739000D03*
X112808000Y-97739000D03*
%TD*%
D11*
%TO.C,SW55*%
X164878000Y-97739000D03*
D12*
X159798000Y-97739000D03*
X169958000Y-97739000D03*
%TD*%
D11*
%TO.C,SW75*%
X238697000Y-116789000D03*
D12*
X233617000Y-116789000D03*
X243777000Y-116789000D03*
%TD*%
D11*
%TO.C,SW58*%
X222028000Y-97739000D03*
D12*
X216948000Y-97739000D03*
X227108000Y-97739000D03*
%TD*%
D11*
%TO.C,SW37*%
X122015000Y-78689400D03*
D12*
X116935000Y-78689400D03*
X127095000Y-78689400D03*
%TD*%
D11*
%TO.C,SW46*%
X571300Y-97739000D03*
D12*
X-4508700Y-97739000D03*
X5651300Y-97739000D03*
%TD*%
D11*
%TO.C,SW39*%
X160115000Y-78689400D03*
D12*
X155035000Y-78689400D03*
X165195000Y-78689400D03*
%TD*%
D11*
%TO.C,SW68*%
X98203000Y-116789000D03*
D12*
X93123000Y-116789000D03*
X103283000Y-116789000D03*
%TD*%
D11*
%TO.C,SW71*%
X155353000Y-116789000D03*
D12*
X150273000Y-116789000D03*
X160433000Y-116789000D03*
%TD*%
D11*
%TO.C,SW47*%
X5333700Y-97739000D03*
D12*
X253700Y-97739000D03*
X10413700Y-97739000D03*
%TD*%
D11*
%TO.C,SW38*%
X141065000Y-78689400D03*
D12*
X135985000Y-78689400D03*
X146145000Y-78689400D03*
%TD*%
D11*
%TO.C,SW51*%
X88677600Y-97739000D03*
D12*
X83597600Y-97739000D03*
X93757600Y-97739000D03*
%TD*%
D11*
%TO.C,SW57*%
X202978000Y-97739000D03*
D12*
X197898000Y-97739000D03*
X208058000Y-97739000D03*
%TD*%
D11*
%TO.C,SW77*%
X269653000Y-121552000D03*
D12*
X264573000Y-121552000D03*
X274733000Y-121552000D03*
%TD*%
D11*
%TO.C,SW65*%
X41052600Y-116789000D03*
D12*
X35972600Y-116789000D03*
X46132600Y-116789000D03*
%TD*%
D11*
%TO.C,SW66*%
X60102600Y-116789000D03*
D12*
X55022600Y-116789000D03*
X65182600Y-116789000D03*
%TD*%
D11*
%TO.C,SW76*%
X293466000Y-116789000D03*
D12*
X288386000Y-116789000D03*
X298546000Y-116789000D03*
%TD*%
%TO.C,SW69*%
X122333000Y-116789000D03*
X112173000Y-116789000D03*
D11*
X117253000Y-116789000D03*
%TD*%
%TO.C,D27*%
G36*
G01*
X218147600Y-69136700D02*
X216347600Y-69136700D01*
G75*
G02*
X216297600Y-69086700I0J50000D01*
G01*
X216297600Y-67286700D01*
G75*
G02*
X216347600Y-67236700I50000J0D01*
G01*
X218147600Y-67236700D01*
G75*
G02*
X218197600Y-67286700I0J-50000D01*
G01*
X218197600Y-69086700D01*
G75*
G02*
X218147600Y-69136700I-50000J0D01*
G01*
G37*
D15*
X217247600Y-60566700D03*
%TD*%
%TO.C,D20*%
G36*
G01*
X84797600Y-69136700D02*
X82997600Y-69136700D01*
G75*
G02*
X82947600Y-69086700I0J50000D01*
G01*
X82947600Y-67286700D01*
G75*
G02*
X82997600Y-67236700I50000J0D01*
G01*
X84797600Y-67236700D01*
G75*
G02*
X84847600Y-67286700I0J-50000D01*
G01*
X84847600Y-69086700D01*
G75*
G02*
X84797600Y-69136700I-50000J0D01*
G01*
G37*
X83897600Y-60566700D03*
%TD*%
%TO.C,D33*%
G36*
G01*
X37117600Y-88497600D02*
X35317600Y-88497600D01*
G75*
G02*
X35267600Y-88447600I0J50000D01*
G01*
X35267600Y-86647600D01*
G75*
G02*
X35317600Y-86597600I50000J0D01*
G01*
X37117600Y-86597600D01*
G75*
G02*
X37167600Y-86647600I0J-50000D01*
G01*
X37167600Y-88447600D01*
G75*
G02*
X37117600Y-88497600I-50000J0D01*
G01*
G37*
X36217600Y-79927600D03*
%TD*%
%TO.C,D29*%
X274628900Y-60608500D03*
G36*
G01*
X275528900Y-69178500D02*
X273728900Y-69178500D01*
G75*
G02*
X273678900Y-69128500I0J50000D01*
G01*
X273678900Y-67328500D01*
G75*
G02*
X273728900Y-67278500I50000J0D01*
G01*
X275528900Y-67278500D01*
G75*
G02*
X275578900Y-67328500I0J-50000D01*
G01*
X275578900Y-69128500D01*
G75*
G02*
X275528900Y-69178500I-50000J0D01*
G01*
G37*
%TD*%
%TO.C,D21*%
G36*
G01*
X103847600Y-69136700D02*
X102047600Y-69136700D01*
G75*
G02*
X101997600Y-69086700I0J50000D01*
G01*
X101997600Y-67286700D01*
G75*
G02*
X102047600Y-67236700I50000J0D01*
G01*
X103847600Y-67236700D01*
G75*
G02*
X103897600Y-67286700I0J-50000D01*
G01*
X103897600Y-69086700D01*
G75*
G02*
X103847600Y-69136700I-50000J0D01*
G01*
G37*
X102947600Y-60566700D03*
%TD*%
%TO.C,D24*%
G36*
G01*
X160997600Y-69136700D02*
X159197600Y-69136700D01*
G75*
G02*
X159147600Y-69086700I0J50000D01*
G01*
X159147600Y-67286700D01*
G75*
G02*
X159197600Y-67236700I50000J0D01*
G01*
X160997600Y-67236700D01*
G75*
G02*
X161047600Y-67286700I0J-50000D01*
G01*
X161047600Y-69086700D01*
G75*
G02*
X160997600Y-69136700I-50000J0D01*
G01*
G37*
X160097600Y-60566700D03*
%TD*%
%TO.C,D26*%
G36*
G01*
X199097600Y-69136700D02*
X197297600Y-69136700D01*
G75*
G02*
X197247600Y-69086700I0J50000D01*
G01*
X197247600Y-67286700D01*
G75*
G02*
X197297600Y-67236700I50000J0D01*
G01*
X199097600Y-67236700D01*
G75*
G02*
X199147600Y-67286700I0J-50000D01*
G01*
X199147600Y-69086700D01*
G75*
G02*
X199097600Y-69136700I-50000J0D01*
G01*
G37*
X198197600Y-60566700D03*
%TD*%
%TO.C,D32*%
G36*
G01*
X16592600Y-88372600D02*
X14792600Y-88372600D01*
G75*
G02*
X14742600Y-88322600I0J50000D01*
G01*
X14742600Y-86522600D01*
G75*
G02*
X14792600Y-86472600I50000J0D01*
G01*
X16592600Y-86472600D01*
G75*
G02*
X16642600Y-86522600I0J-50000D01*
G01*
X16642600Y-88322600D01*
G75*
G02*
X16592600Y-88372600I-50000J0D01*
G01*
G37*
X15692600Y-79802600D03*
%TD*%
%TO.C,D16*%
G36*
G01*
X8597600Y-69136700D02*
X6797600Y-69136700D01*
G75*
G02*
X6747600Y-69086700I0J50000D01*
G01*
X6747600Y-67286700D01*
G75*
G02*
X6797600Y-67236700I50000J0D01*
G01*
X8597600Y-67236700D01*
G75*
G02*
X8647600Y-67286700I0J-50000D01*
G01*
X8647600Y-69086700D01*
G75*
G02*
X8597600Y-69136700I-50000J0D01*
G01*
G37*
X7697600Y-60566700D03*
%TD*%
%TO.C,D18*%
G36*
G01*
X46697600Y-69136700D02*
X44897600Y-69136700D01*
G75*
G02*
X44847600Y-69086700I0J50000D01*
G01*
X44847600Y-67286700D01*
G75*
G02*
X44897600Y-67236700I50000J0D01*
G01*
X46697600Y-67236700D01*
G75*
G02*
X46747600Y-67286700I0J-50000D01*
G01*
X46747600Y-69086700D01*
G75*
G02*
X46697600Y-69136700I-50000J0D01*
G01*
G37*
X45797600Y-60566700D03*
%TD*%
%TO.C,D22*%
G36*
G01*
X122897600Y-69136700D02*
X121097600Y-69136700D01*
G75*
G02*
X121047600Y-69086700I0J50000D01*
G01*
X121047600Y-67286700D01*
G75*
G02*
X121097600Y-67236700I50000J0D01*
G01*
X122897600Y-67236700D01*
G75*
G02*
X122947600Y-67286700I0J-50000D01*
G01*
X122947600Y-69086700D01*
G75*
G02*
X122897600Y-69136700I-50000J0D01*
G01*
G37*
X121997600Y-60566700D03*
%TD*%
%TO.C,D25*%
X179147600Y-60566700D03*
G36*
G01*
X180047600Y-69136700D02*
X178247600Y-69136700D01*
G75*
G02*
X178197600Y-69086700I0J50000D01*
G01*
X178197600Y-67286700D01*
G75*
G02*
X178247600Y-67236700I50000J0D01*
G01*
X180047600Y-67236700D01*
G75*
G02*
X180097600Y-67286700I0J-50000D01*
G01*
X180097600Y-69086700D01*
G75*
G02*
X180047600Y-69136700I-50000J0D01*
G01*
G37*
%TD*%
%TO.C,D30*%
X283847600Y-60566700D03*
G36*
G01*
X284747600Y-69136700D02*
X282947600Y-69136700D01*
G75*
G02*
X282897600Y-69086700I0J50000D01*
G01*
X282897600Y-67286700D01*
G75*
G02*
X282947600Y-67236700I50000J0D01*
G01*
X284747600Y-67236700D01*
G75*
G02*
X284797600Y-67286700I0J-50000D01*
G01*
X284797600Y-69086700D01*
G75*
G02*
X284747600Y-69136700I-50000J0D01*
G01*
G37*
%TD*%
%TO.C,D23*%
G36*
G01*
X141947600Y-69136700D02*
X140147600Y-69136700D01*
G75*
G02*
X140097600Y-69086700I0J50000D01*
G01*
X140097600Y-67286700D01*
G75*
G02*
X140147600Y-67236700I50000J0D01*
G01*
X141947600Y-67236700D01*
G75*
G02*
X141997600Y-67286700I0J-50000D01*
G01*
X141997600Y-69086700D01*
G75*
G02*
X141947600Y-69136700I-50000J0D01*
G01*
G37*
X141047600Y-60566700D03*
%TD*%
%TO.C,D31*%
G36*
G01*
X13603900Y-88372600D02*
X11803900Y-88372600D01*
G75*
G02*
X11753900Y-88322600I0J50000D01*
G01*
X11753900Y-86522600D01*
G75*
G02*
X11803900Y-86472600I50000J0D01*
G01*
X13603900Y-86472600D01*
G75*
G02*
X13653900Y-86522600I0J-50000D01*
G01*
X13653900Y-88322600D01*
G75*
G02*
X13603900Y-88372600I-50000J0D01*
G01*
G37*
X12703900Y-79802600D03*
%TD*%
%TO.C,D17*%
G36*
G01*
X27647600Y-69136700D02*
X25847600Y-69136700D01*
G75*
G02*
X25797600Y-69086700I0J50000D01*
G01*
X25797600Y-67286700D01*
G75*
G02*
X25847600Y-67236700I50000J0D01*
G01*
X27647600Y-67236700D01*
G75*
G02*
X27697600Y-67286700I0J-50000D01*
G01*
X27697600Y-69086700D01*
G75*
G02*
X27647600Y-69136700I-50000J0D01*
G01*
G37*
X26747600Y-60566700D03*
%TD*%
%TO.C,D19*%
G36*
G01*
X65747600Y-69136700D02*
X63947600Y-69136700D01*
G75*
G02*
X63897600Y-69086700I0J50000D01*
G01*
X63897600Y-67286700D01*
G75*
G02*
X63947600Y-67236700I50000J0D01*
G01*
X65747600Y-67236700D01*
G75*
G02*
X65797600Y-67286700I0J-50000D01*
G01*
X65797600Y-69086700D01*
G75*
G02*
X65747600Y-69136700I-50000J0D01*
G01*
G37*
X64847600Y-60566700D03*
%TD*%
%TO.C,D28*%
G36*
G01*
X237197600Y-69136700D02*
X235397600Y-69136700D01*
G75*
G02*
X235347600Y-69086700I0J50000D01*
G01*
X235347600Y-67286700D01*
G75*
G02*
X235397600Y-67236700I50000J0D01*
G01*
X237197600Y-67236700D01*
G75*
G02*
X237247600Y-67286700I0J-50000D01*
G01*
X237247600Y-69086700D01*
G75*
G02*
X237197600Y-69136700I-50000J0D01*
G01*
G37*
X236297600Y-60566700D03*
%TD*%
%TO.C,D49*%
G36*
G01*
X80277800Y-105722100D02*
X78477800Y-105722100D01*
G75*
G02*
X78427800Y-105672100I0J50000D01*
G01*
X78427800Y-103872100D01*
G75*
G02*
X78477800Y-103822100I50000J0D01*
G01*
X80277800Y-103822100D01*
G75*
G02*
X80327800Y-103872100I0J-50000D01*
G01*
X80327800Y-105672100D01*
G75*
G02*
X80277800Y-105722100I-50000J0D01*
G01*
G37*
X79377800Y-97152100D03*
%TD*%
%TO.C,D44*%
G36*
G01*
X284817600Y-88497600D02*
X283017600Y-88497600D01*
G75*
G02*
X282967600Y-88447600I0J50000D01*
G01*
X282967600Y-86647600D01*
G75*
G02*
X283017600Y-86597600I50000J0D01*
G01*
X284817600Y-86597600D01*
G75*
G02*
X284867600Y-86647600I0J-50000D01*
G01*
X284867600Y-88447600D01*
G75*
G02*
X284817600Y-88497600I-50000J0D01*
G01*
G37*
X283917600Y-79927600D03*
%TD*%
%TO.C,D45*%
G36*
G01*
X20178900Y-105733500D02*
X18378900Y-105733500D01*
G75*
G02*
X18328900Y-105683500I0J50000D01*
G01*
X18328900Y-103883500D01*
G75*
G02*
X18378900Y-103833500I50000J0D01*
G01*
X20178900Y-103833500D01*
G75*
G02*
X20228900Y-103883500I0J-50000D01*
G01*
X20228900Y-105683500D01*
G75*
G02*
X20178900Y-105733500I-50000J0D01*
G01*
G37*
X19278900Y-97163500D03*
%TD*%
%TO.C,D34*%
G36*
G01*
X56167600Y-88497600D02*
X54367600Y-88497600D01*
G75*
G02*
X54317600Y-88447600I0J50000D01*
G01*
X54317600Y-86647600D01*
G75*
G02*
X54367600Y-86597600I50000J0D01*
G01*
X56167600Y-86597600D01*
G75*
G02*
X56217600Y-86647600I0J-50000D01*
G01*
X56217600Y-88447600D01*
G75*
G02*
X56167600Y-88497600I-50000J0D01*
G01*
G37*
X55267600Y-79927600D03*
%TD*%
%TO.C,D54*%
G36*
G01*
X175527800Y-105722100D02*
X173727800Y-105722100D01*
G75*
G02*
X173677800Y-105672100I0J50000D01*
G01*
X173677800Y-103872100D01*
G75*
G02*
X173727800Y-103822100I50000J0D01*
G01*
X175527800Y-103822100D01*
G75*
G02*
X175577800Y-103872100I0J-50000D01*
G01*
X175577800Y-105672100D01*
G75*
G02*
X175527800Y-105722100I-50000J0D01*
G01*
G37*
X174627800Y-97152100D03*
%TD*%
%TO.C,D39*%
G36*
G01*
X151417600Y-87684800D02*
X149617600Y-87684800D01*
G75*
G02*
X149567600Y-87634800I0J50000D01*
G01*
X149567600Y-85834800D01*
G75*
G02*
X149617600Y-85784800I50000J0D01*
G01*
X151417600Y-85784800D01*
G75*
G02*
X151467600Y-85834800I0J-50000D01*
G01*
X151467600Y-87634800D01*
G75*
G02*
X151417600Y-87684800I-50000J0D01*
G01*
G37*
X150517600Y-79114800D03*
%TD*%
%TO.C,D42*%
G36*
G01*
X208567600Y-87684800D02*
X206767600Y-87684800D01*
G75*
G02*
X206717600Y-87634800I0J50000D01*
G01*
X206717600Y-85834800D01*
G75*
G02*
X206767600Y-85784800I50000J0D01*
G01*
X208567600Y-85784800D01*
G75*
G02*
X208617600Y-85834800I0J-50000D01*
G01*
X208617600Y-87634800D01*
G75*
G02*
X208567600Y-87684800I-50000J0D01*
G01*
G37*
X207667600Y-79114800D03*
%TD*%
%TO.C,D37*%
G36*
G01*
X113317600Y-87684800D02*
X111517600Y-87684800D01*
G75*
G02*
X111467600Y-87634800I0J50000D01*
G01*
X111467600Y-85834800D01*
G75*
G02*
X111517600Y-85784800I50000J0D01*
G01*
X113317600Y-85784800D01*
G75*
G02*
X113367600Y-85834800I0J-50000D01*
G01*
X113367600Y-87634800D01*
G75*
G02*
X113317600Y-87684800I-50000J0D01*
G01*
G37*
X112417600Y-79114800D03*
%TD*%
%TO.C,D43*%
G36*
G01*
X227617600Y-87684800D02*
X225817600Y-87684800D01*
G75*
G02*
X225767600Y-87634800I0J50000D01*
G01*
X225767600Y-85834800D01*
G75*
G02*
X225817600Y-85784800I50000J0D01*
G01*
X227617600Y-85784800D01*
G75*
G02*
X227667600Y-85834800I0J-50000D01*
G01*
X227667600Y-87634800D01*
G75*
G02*
X227617600Y-87684800I-50000J0D01*
G01*
G37*
X226717600Y-79114800D03*
%TD*%
%TO.C,D52*%
G36*
G01*
X137427800Y-105722100D02*
X135627800Y-105722100D01*
G75*
G02*
X135577800Y-105672100I0J50000D01*
G01*
X135577800Y-103872100D01*
G75*
G02*
X135627800Y-103822100I50000J0D01*
G01*
X137427800Y-103822100D01*
G75*
G02*
X137477800Y-103872100I0J-50000D01*
G01*
X137477800Y-105672100D01*
G75*
G02*
X137427800Y-105722100I-50000J0D01*
G01*
G37*
X136527800Y-97152100D03*
%TD*%
%TO.C,D40*%
G36*
G01*
X170467600Y-87684800D02*
X168667600Y-87684800D01*
G75*
G02*
X168617600Y-87634800I0J50000D01*
G01*
X168617600Y-85834800D01*
G75*
G02*
X168667600Y-85784800I50000J0D01*
G01*
X170467600Y-85784800D01*
G75*
G02*
X170517600Y-85834800I0J-50000D01*
G01*
X170517600Y-87634800D01*
G75*
G02*
X170467600Y-87684800I-50000J0D01*
G01*
G37*
X169567600Y-79114800D03*
%TD*%
%TO.C,D35*%
G36*
G01*
X75217600Y-88497600D02*
X73417600Y-88497600D01*
G75*
G02*
X73367600Y-88447600I0J50000D01*
G01*
X73367600Y-86647600D01*
G75*
G02*
X73417600Y-86597600I50000J0D01*
G01*
X75217600Y-86597600D01*
G75*
G02*
X75267600Y-86647600I0J-50000D01*
G01*
X75267600Y-88447600D01*
G75*
G02*
X75217600Y-88497600I-50000J0D01*
G01*
G37*
X74317600Y-79927600D03*
%TD*%
%TO.C,D47*%
X41277800Y-97152100D03*
G36*
G01*
X42177800Y-105722100D02*
X40377800Y-105722100D01*
G75*
G02*
X40327800Y-105672100I0J50000D01*
G01*
X40327800Y-103872100D01*
G75*
G02*
X40377800Y-103822100I50000J0D01*
G01*
X42177800Y-103822100D01*
G75*
G02*
X42227800Y-103872100I0J-50000D01*
G01*
X42227800Y-105672100D01*
G75*
G02*
X42177800Y-105722100I-50000J0D01*
G01*
G37*
%TD*%
%TO.C,D36*%
G36*
G01*
X94267600Y-88497600D02*
X92467600Y-88497600D01*
G75*
G02*
X92417600Y-88447600I0J50000D01*
G01*
X92417600Y-86647600D01*
G75*
G02*
X92467600Y-86597600I50000J0D01*
G01*
X94267600Y-86597600D01*
G75*
G02*
X94317600Y-86647600I0J-50000D01*
G01*
X94317600Y-88447600D01*
G75*
G02*
X94267600Y-88497600I-50000J0D01*
G01*
G37*
X93367600Y-79927600D03*
%TD*%
%TO.C,D46*%
X22278900Y-97163500D03*
G36*
G01*
X23178900Y-105733500D02*
X21378900Y-105733500D01*
G75*
G02*
X21328900Y-105683500I0J50000D01*
G01*
X21328900Y-103883500D01*
G75*
G02*
X21378900Y-103833500I50000J0D01*
G01*
X23178900Y-103833500D01*
G75*
G02*
X23228900Y-103883500I0J-50000D01*
G01*
X23228900Y-105683500D01*
G75*
G02*
X23178900Y-105733500I-50000J0D01*
G01*
G37*
%TD*%
%TO.C,D38*%
G36*
G01*
X132367600Y-87684800D02*
X130567600Y-87684800D01*
G75*
G02*
X130517600Y-87634800I0J50000D01*
G01*
X130517600Y-85834800D01*
G75*
G02*
X130567600Y-85784800I50000J0D01*
G01*
X132367600Y-85784800D01*
G75*
G02*
X132417600Y-85834800I0J-50000D01*
G01*
X132417600Y-87634800D01*
G75*
G02*
X132367600Y-87684800I-50000J0D01*
G01*
G37*
X131467600Y-79114800D03*
%TD*%
%TO.C,D48*%
G36*
G01*
X61227800Y-105722100D02*
X59427800Y-105722100D01*
G75*
G02*
X59377800Y-105672100I0J50000D01*
G01*
X59377800Y-103872100D01*
G75*
G02*
X59427800Y-103822100I50000J0D01*
G01*
X61227800Y-103822100D01*
G75*
G02*
X61277800Y-103872100I0J-50000D01*
G01*
X61277800Y-105672100D01*
G75*
G02*
X61227800Y-105722100I-50000J0D01*
G01*
G37*
X60327800Y-97152100D03*
%TD*%
%TO.C,D41*%
G36*
G01*
X189517600Y-87684800D02*
X187717600Y-87684800D01*
G75*
G02*
X187667600Y-87634800I0J50000D01*
G01*
X187667600Y-85834800D01*
G75*
G02*
X187717600Y-85784800I50000J0D01*
G01*
X189517600Y-85784800D01*
G75*
G02*
X189567600Y-85834800I0J-50000D01*
G01*
X189567600Y-87634800D01*
G75*
G02*
X189517600Y-87684800I-50000J0D01*
G01*
G37*
X188617600Y-79114800D03*
%TD*%
D11*
%TO.C,SW32*%
X26765000Y-78689400D03*
D12*
X21685000Y-78689400D03*
X31845000Y-78689400D03*
%TD*%
D11*
%TO.C,SW13*%
X241064000Y-35852500D03*
D12*
X235984000Y-35852500D03*
X246144000Y-35852500D03*
%TD*%
D11*
%TO.C,SW24*%
X150590000Y-59639400D03*
D12*
X145510000Y-59639400D03*
X155670000Y-59639400D03*
%TD*%
%TO.C,SW1*%
X3270000Y-35827100D03*
X-6890000Y-35827100D03*
D11*
X-1810000Y-35827100D03*
%TD*%
%TO.C,SW4*%
X60089800Y-35852500D03*
D12*
X55009800Y-35852500D03*
X65169800Y-35852500D03*
%TD*%
D11*
%TO.C,SW27*%
X207740000Y-59639400D03*
D12*
X202660000Y-59639400D03*
X212820000Y-59639400D03*
%TD*%
D11*
%TO.C,SW28*%
X226790000Y-59639400D03*
D12*
X221710000Y-59639400D03*
X231870000Y-59639400D03*
%TD*%
D11*
%TO.C,SW29*%
X255365000Y-59639400D03*
D12*
X250285000Y-59639400D03*
X260445000Y-59639400D03*
D16*
X243458750Y-52654400D03*
X267271250Y-52654400D03*
D11*
X243458750Y-67894400D03*
X267271250Y-67894400D03*
%TD*%
%TO.C,SW9*%
X160102000Y-35852500D03*
D12*
X155022000Y-35852500D03*
X165182000Y-35852500D03*
%TD*%
D11*
%TO.C,SW17*%
X17240000Y-59639400D03*
D12*
X12160000Y-59639400D03*
X22320000Y-59639400D03*
%TD*%
D11*
%TO.C,SW20*%
X74390000Y-59639400D03*
D12*
X69310000Y-59639400D03*
X79470000Y-59639400D03*
%TD*%
D11*
%TO.C,SW21*%
X93440000Y-59639400D03*
D12*
X88360000Y-59639400D03*
X98520000Y-59639400D03*
%TD*%
D11*
%TO.C,SW30*%
X293465000Y-59639400D03*
D12*
X288385000Y-59639400D03*
X298545000Y-59639400D03*
%TD*%
D11*
%TO.C,SW14*%
X264885000Y-35852500D03*
D12*
X259805000Y-35852500D03*
X269965000Y-35852500D03*
%TD*%
D11*
%TO.C,SW23*%
X131540000Y-59639400D03*
D12*
X126460000Y-59639400D03*
X136620000Y-59639400D03*
%TD*%
D11*
%TO.C,SW16*%
X-1810000Y-59639400D03*
D12*
X-6890000Y-59639400D03*
X3270000Y-59639400D03*
%TD*%
D11*
%TO.C,SW22*%
X112490000Y-59639400D03*
D12*
X107410000Y-59639400D03*
X117570000Y-59639400D03*
%TD*%
D11*
%TO.C,SW34*%
X64865000Y-78689400D03*
D12*
X59785000Y-78689400D03*
X69945000Y-78689400D03*
%TD*%
D11*
%TO.C,SW3*%
X41039800Y-35852500D03*
D12*
X35959800Y-35852500D03*
X46119800Y-35852500D03*
%TD*%
D11*
%TO.C,SW10*%
X183914000Y-35852500D03*
D12*
X178834000Y-35852500D03*
X188994000Y-35852500D03*
%TD*%
D11*
%TO.C,SW11*%
X202964000Y-35852500D03*
D12*
X197884000Y-35852500D03*
X208044000Y-35852500D03*
%TD*%
D11*
%TO.C,SW19*%
X55340000Y-59639400D03*
D12*
X50260000Y-59639400D03*
X60420000Y-59639400D03*
%TD*%
D11*
%TO.C,SW2*%
X21989800Y-35852500D03*
D12*
X16909800Y-35852500D03*
X27069800Y-35852500D03*
%TD*%
D11*
%TO.C,SW5*%
X79139800Y-35852500D03*
D12*
X74059800Y-35852500D03*
X84219800Y-35852500D03*
%TD*%
D11*
%TO.C,SW7*%
X122002000Y-35852500D03*
D12*
X116922000Y-35852500D03*
X127082000Y-35852500D03*
%TD*%
D11*
%TO.C,SW18*%
X36290000Y-59639400D03*
D12*
X31210000Y-59639400D03*
X41370000Y-59639400D03*
%TD*%
D17*
%TO.C,R2*%
X211918300Y-16462500D03*
D18*
X219538300Y-16462500D03*
%TD*%
D11*
%TO.C,SW25*%
X169640000Y-59639400D03*
D12*
X164560000Y-59639400D03*
X174720000Y-59639400D03*
%TD*%
D17*
%TO.C,R3*%
X211918300Y-13962500D03*
D18*
X219538300Y-13962500D03*
%TD*%
D11*
%TO.C,SW12*%
X222014000Y-35852500D03*
D12*
X216934000Y-35852500D03*
X227094000Y-35852500D03*
%TD*%
D11*
%TO.C,SW33*%
X45815000Y-78689400D03*
D12*
X40735000Y-78689400D03*
X50895000Y-78689400D03*
%TD*%
D17*
%TO.C,R4*%
X211918300Y-11462500D03*
D18*
X219538300Y-11462500D03*
%TD*%
D17*
%TO.C,R5*%
X211918300Y-8962500D03*
D18*
X219538300Y-8962500D03*
%TD*%
D17*
%TO.C,R6*%
X211918300Y-6462500D03*
D18*
X219538300Y-6462500D03*
%TD*%
D17*
%TO.C,R7*%
X211918300Y-3962500D03*
D18*
X219538300Y-3962500D03*
%TD*%
D11*
%TO.C,SW8*%
X141052000Y-35852500D03*
D12*
X135972000Y-35852500D03*
X146132000Y-35852500D03*
%TD*%
D11*
%TO.C,SW82*%
X193446000Y-135852000D03*
D12*
X188366000Y-135852000D03*
X198526000Y-135852000D03*
%TD*%
D11*
%TO.C,SW15*%
X293460000Y-35852500D03*
D12*
X288380000Y-35852500D03*
X298540000Y-35852500D03*
%TD*%
D11*
%TO.C,SW85*%
X269646000Y-140615000D03*
D12*
X264566000Y-140615000D03*
X274726000Y-140615000D03*
%TD*%
D11*
%TO.C,SW84*%
X250596000Y-140615000D03*
D12*
X245516000Y-140615000D03*
X255676000Y-140615000D03*
%TD*%
%TO.C,SW86*%
X293776000Y-140615000D03*
X283616000Y-140615000D03*
D11*
X288696000Y-140615000D03*
%TD*%
D19*
%TO.C,Y1*%
X226777300Y-13446800D03*
X226777300Y-8566800D03*
%TD*%
D11*
%TO.C,SW61*%
X293465000Y-97739000D03*
D12*
X288385000Y-97739000D03*
X298545000Y-97739000D03*
%TD*%
D11*
%TO.C,SW88*%
X2968500Y-135830000D03*
D12*
X-2111500Y-135830000D03*
X8048500Y-135830000D03*
%TD*%
D11*
%TO.C,SW31*%
X2952500Y-78689400D03*
D12*
X-2127500Y-78689400D03*
X8032500Y-78689400D03*
%TD*%
D11*
%TO.C,SW60*%
X252984000Y-97739000D03*
D12*
X247904000Y-97739000D03*
X258064000Y-97739000D03*
D16*
X241077750Y-90754000D03*
X264890250Y-90754000D03*
D11*
X241077750Y-105994000D03*
X264890250Y-105994000D03*
%TD*%
%TO.C,SW63*%
X10096000Y-116789000D03*
D12*
X5016000Y-116789000D03*
X15176000Y-116789000D03*
D16*
X-1810250Y-109804000D03*
X22002250Y-109804000D03*
D11*
X-1810250Y-125044000D03*
X22002250Y-125044000D03*
%TD*%
D12*
%TO.C,SW26*%
X193770000Y-59639400D03*
X183610000Y-59639400D03*
D11*
X188690000Y-59639400D03*
%TD*%
%TO.C,SW78*%
X587300Y-135830000D03*
D12*
X-4492700Y-135830000D03*
X5667300Y-135830000D03*
%TD*%
D20*
%TO.C,USB1*%
X68705200Y-1008200D03*
X77355200Y-1008200D03*
D21*
X68705200Y-4388200D03*
X77355200Y-4388200D03*
D22*
X70050200Y-4043200D03*
X70900200Y-4043200D03*
X71750200Y-4043200D03*
X72600200Y-4043200D03*
X73450200Y-4043200D03*
X74300200Y-4043200D03*
X75150200Y-4043200D03*
X76005200Y-4043200D03*
X70055200Y-5368200D03*
X70905200Y-5368200D03*
X71755200Y-5368200D03*
X72605200Y-5368200D03*
X73455200Y-5368200D03*
X75155200Y-5368200D03*
X76005200Y-5368200D03*
X74305200Y-5368200D03*
%TD*%
D11*
%TO.C,SW79*%
X24398400Y-135830000D03*
D12*
X19318400Y-135830000D03*
X29478400Y-135830000D03*
%TD*%
D23*
%TO.C,U1*%
X232378000Y-4026300D03*
X280638000Y-19266300D03*
X234918000Y-4026300D03*
X278098000Y-19266300D03*
X237458000Y-4026300D03*
X275558000Y-19266300D03*
X239998000Y-4026300D03*
X273018000Y-19266300D03*
X242538000Y-4026300D03*
X270478000Y-19266300D03*
X245078000Y-4026300D03*
X267938000Y-19266300D03*
X247618000Y-4026300D03*
X265398000Y-19266300D03*
X250158000Y-4026300D03*
X262858000Y-19266300D03*
X252698000Y-4026300D03*
X260318000Y-19266300D03*
X255238000Y-4026300D03*
X257778000Y-19266300D03*
X257778000Y-4026300D03*
X255238000Y-19266300D03*
X260318000Y-4026300D03*
X252698000Y-19266300D03*
X262858000Y-4026300D03*
X250158000Y-19266300D03*
X265398000Y-4026300D03*
X247618000Y-19266300D03*
X267938000Y-4026300D03*
X245078000Y-19266300D03*
X270478000Y-4026300D03*
X242538000Y-19266300D03*
X273018000Y-4026300D03*
X239998000Y-19266300D03*
X275558000Y-4026300D03*
X237458000Y-19266300D03*
X278098000Y-4026300D03*
X234918000Y-19266300D03*
X280638000Y-4026300D03*
G36*
G01*
X233178000Y-20116300D02*
X231578000Y-20116300D01*
G75*
G02*
X231528000Y-20066300I0J50000D01*
G01*
X231528000Y-18466300D01*
G75*
G02*
X231578000Y-18416300I50000J0D01*
G01*
X233178000Y-18416300D01*
G75*
G02*
X233228000Y-18466300I0J-50000D01*
G01*
X233228000Y-20066300D01*
G75*
G02*
X233178000Y-20116300I-50000J0D01*
G01*
G37*
%TD*%
D11*
%TO.C,SW80*%
X48209500Y-135830000D03*
D12*
X43129500Y-135830000D03*
X53289500Y-135830000D03*
%TD*%
D11*
%TO.C,SW89*%
X31543400Y-135830000D03*
D12*
X26463400Y-135830000D03*
X36623400Y-135830000D03*
%TD*%
%TO.C,D7*%
G36*
G01*
X113141700Y-44486000D02*
X111341700Y-44486000D01*
G75*
G02*
X111291700Y-44436000I0J50000D01*
G01*
X111291700Y-42636000D01*
G75*
G02*
X111341700Y-42586000I50000J0D01*
G01*
X113141700Y-42586000D01*
G75*
G02*
X113191700Y-42636000I0J-50000D01*
G01*
X113191700Y-44436000D01*
G75*
G02*
X113141700Y-44486000I-50000J0D01*
G01*
G37*
D15*
X112241700Y-35916000D03*
%TD*%
%TO.C,D8*%
G36*
G01*
X132191700Y-44486000D02*
X130391700Y-44486000D01*
G75*
G02*
X130341700Y-44436000I0J50000D01*
G01*
X130341700Y-42636000D01*
G75*
G02*
X130391700Y-42586000I50000J0D01*
G01*
X132191700Y-42586000D01*
G75*
G02*
X132241700Y-42636000I0J-50000D01*
G01*
X132241700Y-44436000D01*
G75*
G02*
X132191700Y-44486000I-50000J0D01*
G01*
G37*
X131291700Y-35916000D03*
%TD*%
%TO.C,D9*%
G36*
G01*
X151241700Y-44486000D02*
X149441700Y-44486000D01*
G75*
G02*
X149391700Y-44436000I0J50000D01*
G01*
X149391700Y-42636000D01*
G75*
G02*
X149441700Y-42586000I50000J0D01*
G01*
X151241700Y-42586000D01*
G75*
G02*
X151291700Y-42636000I0J-50000D01*
G01*
X151291700Y-44436000D01*
G75*
G02*
X151241700Y-44486000I-50000J0D01*
G01*
G37*
X150341700Y-35916000D03*
%TD*%
%TO.C,D15*%
G36*
G01*
X284827700Y-44486000D02*
X283027700Y-44486000D01*
G75*
G02*
X282977700Y-44436000I0J50000D01*
G01*
X282977700Y-42636000D01*
G75*
G02*
X283027700Y-42586000I50000J0D01*
G01*
X284827700Y-42586000D01*
G75*
G02*
X284877700Y-42636000I0J-50000D01*
G01*
X284877700Y-44436000D01*
G75*
G02*
X284827700Y-44486000I-50000J0D01*
G01*
G37*
X283927700Y-35916000D03*
%TD*%
%TO.C,D11*%
G36*
G01*
X194103700Y-44486000D02*
X192303700Y-44486000D01*
G75*
G02*
X192253700Y-44436000I0J50000D01*
G01*
X192253700Y-42636000D01*
G75*
G02*
X192303700Y-42586000I50000J0D01*
G01*
X194103700Y-42586000D01*
G75*
G02*
X194153700Y-42636000I0J-50000D01*
G01*
X194153700Y-44436000D01*
G75*
G02*
X194103700Y-44486000I-50000J0D01*
G01*
G37*
X193203700Y-35916000D03*
%TD*%
%TO.C,D6*%
G36*
G01*
X94091700Y-44486000D02*
X92291700Y-44486000D01*
G75*
G02*
X92241700Y-44436000I0J50000D01*
G01*
X92241700Y-42636000D01*
G75*
G02*
X92291700Y-42586000I50000J0D01*
G01*
X94091700Y-42586000D01*
G75*
G02*
X94141700Y-42636000I0J-50000D01*
G01*
X94141700Y-44436000D01*
G75*
G02*
X94091700Y-44486000I-50000J0D01*
G01*
G37*
X93191700Y-35916000D03*
%TD*%
%TO.C,D13*%
G36*
G01*
X232203700Y-44486000D02*
X230403700Y-44486000D01*
G75*
G02*
X230353700Y-44436000I0J50000D01*
G01*
X230353700Y-42636000D01*
G75*
G02*
X230403700Y-42586000I50000J0D01*
G01*
X232203700Y-42586000D01*
G75*
G02*
X232253700Y-42636000I0J-50000D01*
G01*
X232253700Y-44436000D01*
G75*
G02*
X232203700Y-44486000I-50000J0D01*
G01*
G37*
X231303700Y-35916000D03*
%TD*%
D11*
%TO.C,SW83*%
X222021000Y-135852000D03*
D12*
X216941000Y-135852000D03*
X227101000Y-135852000D03*
%TD*%
%TO.C,D3*%
G36*
G01*
X32773700Y-44486000D02*
X30973700Y-44486000D01*
G75*
G02*
X30923700Y-44436000I0J50000D01*
G01*
X30923700Y-42636000D01*
G75*
G02*
X30973700Y-42586000I50000J0D01*
G01*
X32773700Y-42586000D01*
G75*
G02*
X32823700Y-42636000I0J-50000D01*
G01*
X32823700Y-44436000D01*
G75*
G02*
X32773700Y-44486000I-50000J0D01*
G01*
G37*
D15*
X31873700Y-35916000D03*
%TD*%
%TO.C,D5*%
G36*
G01*
X70873700Y-44486000D02*
X69073700Y-44486000D01*
G75*
G02*
X69023700Y-44436000I0J50000D01*
G01*
X69023700Y-42636000D01*
G75*
G02*
X69073700Y-42586000I50000J0D01*
G01*
X70873700Y-42586000D01*
G75*
G02*
X70923700Y-42636000I0J-50000D01*
G01*
X70923700Y-44436000D01*
G75*
G02*
X70873700Y-44486000I-50000J0D01*
G01*
G37*
X69973700Y-35916000D03*
%TD*%
%TO.C,D2*%
G36*
G01*
X12373700Y-44486000D02*
X10573700Y-44486000D01*
G75*
G02*
X10523700Y-44436000I0J50000D01*
G01*
X10523700Y-42636000D01*
G75*
G02*
X10573700Y-42586000I50000J0D01*
G01*
X12373700Y-42586000D01*
G75*
G02*
X12423700Y-42636000I0J-50000D01*
G01*
X12423700Y-44436000D01*
G75*
G02*
X12373700Y-44486000I-50000J0D01*
G01*
G37*
X11473700Y-35916000D03*
%TD*%
%TO.C,D10*%
G36*
G01*
X175053700Y-44486000D02*
X173253700Y-44486000D01*
G75*
G02*
X173203700Y-44436000I0J50000D01*
G01*
X173203700Y-42636000D01*
G75*
G02*
X173253700Y-42586000I50000J0D01*
G01*
X175053700Y-42586000D01*
G75*
G02*
X175103700Y-42636000I0J-50000D01*
G01*
X175103700Y-44436000D01*
G75*
G02*
X175053700Y-44486000I-50000J0D01*
G01*
G37*
X174153700Y-35916000D03*
%TD*%
%TO.C,D12*%
G36*
G01*
X213153700Y-44486000D02*
X211353700Y-44486000D01*
G75*
G02*
X211303700Y-44436000I0J50000D01*
G01*
X211303700Y-42636000D01*
G75*
G02*
X211353700Y-42586000I50000J0D01*
G01*
X213153700Y-42586000D01*
G75*
G02*
X213203700Y-42636000I0J-50000D01*
G01*
X213203700Y-44436000D01*
G75*
G02*
X213153700Y-44486000I-50000J0D01*
G01*
G37*
X212253700Y-35916000D03*
%TD*%
%TO.C,D1*%
G36*
G01*
X9553900Y-44483500D02*
X7753900Y-44483500D01*
G75*
G02*
X7703900Y-44433500I0J50000D01*
G01*
X7703900Y-42633500D01*
G75*
G02*
X7753900Y-42583500I50000J0D01*
G01*
X9553900Y-42583500D01*
G75*
G02*
X9603900Y-42633500I0J-50000D01*
G01*
X9603900Y-44433500D01*
G75*
G02*
X9553900Y-44483500I-50000J0D01*
G01*
G37*
X8653900Y-35913500D03*
%TD*%
%TO.C,D4*%
G36*
G01*
X51823700Y-44486000D02*
X50023700Y-44486000D01*
G75*
G02*
X49973700Y-44436000I0J50000D01*
G01*
X49973700Y-42636000D01*
G75*
G02*
X50023700Y-42586000I50000J0D01*
G01*
X51823700Y-42586000D01*
G75*
G02*
X51873700Y-42636000I0J-50000D01*
G01*
X51873700Y-44436000D01*
G75*
G02*
X51823700Y-44486000I-50000J0D01*
G01*
G37*
X50923700Y-35916000D03*
%TD*%
%TO.C,D14*%
G36*
G01*
X256015700Y-44486000D02*
X254215700Y-44486000D01*
G75*
G02*
X254165700Y-44436000I0J50000D01*
G01*
X254165700Y-42636000D01*
G75*
G02*
X254215700Y-42586000I50000J0D01*
G01*
X256015700Y-42586000D01*
G75*
G02*
X256065700Y-42636000I0J-50000D01*
G01*
X256065700Y-44436000D01*
G75*
G02*
X256015700Y-44486000I-50000J0D01*
G01*
G37*
X255115700Y-35916000D03*
%TD*%
D24*
%TO.C,REF\u002A\u002A*%
X-6571100Y-1608500D03*
%TD*%
%TO.C,D53*%
G36*
G01*
X156477800Y-105722100D02*
X154677800Y-105722100D01*
G75*
G02*
X154627800Y-105672100I0J50000D01*
G01*
X154627800Y-103872100D01*
G75*
G02*
X154677800Y-103822100I50000J0D01*
G01*
X156477800Y-103822100D01*
G75*
G02*
X156527800Y-103872100I0J-50000D01*
G01*
X156527800Y-105672100D01*
G75*
G02*
X156477800Y-105722100I-50000J0D01*
G01*
G37*
D15*
X155577800Y-97152100D03*
%TD*%
D24*
%TO.C,REF\u002A\u002A*%
X298203900Y-1583500D03*
%TD*%
D15*
%TO.C,D75*%
X15048900Y-136034800D03*
G36*
G01*
X15948900Y-144604800D02*
X14148900Y-144604800D01*
G75*
G02*
X14098900Y-144554800I0J50000D01*
G01*
X14098900Y-142754800D01*
G75*
G02*
X14148900Y-142704800I50000J0D01*
G01*
X15948900Y-142704800D01*
G75*
G02*
X15998900Y-142754800I0J-50000D01*
G01*
X15998900Y-144554800D01*
G75*
G02*
X15948900Y-144604800I-50000J0D01*
G01*
G37*
%TD*%
%TO.C,D76*%
X39903900Y-135933500D03*
G36*
G01*
X40803900Y-144503500D02*
X39003900Y-144503500D01*
G75*
G02*
X38953900Y-144453500I0J50000D01*
G01*
X38953900Y-142653500D01*
G75*
G02*
X39003900Y-142603500I50000J0D01*
G01*
X40803900Y-142603500D01*
G75*
G02*
X40853900Y-142653500I0J-50000D01*
G01*
X40853900Y-144453500D01*
G75*
G02*
X40803900Y-144503500I-50000J0D01*
G01*
G37*
%TD*%
%TO.C,D80*%
X240439200Y-139509900D03*
G36*
G01*
X241339200Y-148079900D02*
X239539200Y-148079900D01*
G75*
G02*
X239489200Y-148029900I0J50000D01*
G01*
X239489200Y-146229900D01*
G75*
G02*
X239539200Y-146179900I50000J0D01*
G01*
X241339200Y-146179900D01*
G75*
G02*
X241389200Y-146229900I0J-50000D01*
G01*
X241389200Y-148029900D01*
G75*
G02*
X241339200Y-148079900I-50000J0D01*
G01*
G37*
%TD*%
D24*
%TO.C,REF\u002A\u002A*%
X-6571100Y-22808500D03*
%TD*%
%TO.C,D85*%
G36*
G01*
X232677800Y-105722100D02*
X230877800Y-105722100D01*
G75*
G02*
X230827800Y-105672100I0J50000D01*
G01*
X230827800Y-103872100D01*
G75*
G02*
X230877800Y-103822100I50000J0D01*
G01*
X232677800Y-103822100D01*
G75*
G02*
X232727800Y-103872100I0J-50000D01*
G01*
X232727800Y-105672100D01*
G75*
G02*
X232677800Y-105722100I-50000J0D01*
G01*
G37*
D15*
X231777800Y-97152100D03*
%TD*%
%TO.C,D77*%
X103396800Y-134105800D03*
G36*
G01*
X104296800Y-142675800D02*
X102496800Y-142675800D01*
G75*
G02*
X102446800Y-142625800I0J50000D01*
G01*
X102446800Y-140825800D01*
G75*
G02*
X102496800Y-140775800I50000J0D01*
G01*
X104296800Y-140775800D01*
G75*
G02*
X104346800Y-140825800I0J-50000D01*
G01*
X104346800Y-142625800D01*
G75*
G02*
X104296800Y-142675800I-50000J0D01*
G01*
G37*
%TD*%
%TO.C,D78*%
X183444900Y-134480700D03*
G36*
G01*
X184344900Y-143050700D02*
X182544900Y-143050700D01*
G75*
G02*
X182494900Y-143000700I0J50000D01*
G01*
X182494900Y-141200700D01*
G75*
G02*
X182544900Y-141150700I50000J0D01*
G01*
X184344900Y-141150700D01*
G75*
G02*
X184394900Y-141200700I0J-50000D01*
G01*
X184394900Y-143000700D01*
G75*
G02*
X184344900Y-143050700I-50000J0D01*
G01*
G37*
%TD*%
D24*
%TO.C,REF\u002A\u002A*%
X298178900Y-22808500D03*
%TD*%
D15*
%TO.C,D79*%
X211931000Y-134480700D03*
G36*
G01*
X212831000Y-143050700D02*
X211031000Y-143050700D01*
G75*
G02*
X210981000Y-143000700I0J50000D01*
G01*
X210981000Y-141200700D01*
G75*
G02*
X211031000Y-141150700I50000J0D01*
G01*
X212831000Y-141150700D01*
G75*
G02*
X212881000Y-141200700I0J-50000D01*
G01*
X212881000Y-143000700D01*
G75*
G02*
X212831000Y-143050700I-50000J0D01*
G01*
G37*
%TD*%
%TO.C,D81*%
X260489200Y-139509900D03*
G36*
G01*
X261389200Y-148079900D02*
X259589200Y-148079900D01*
G75*
G02*
X259539200Y-148029900I0J50000D01*
G01*
X259539200Y-146229900D01*
G75*
G02*
X259589200Y-146179900I50000J0D01*
G01*
X261389200Y-146179900D01*
G75*
G02*
X261439200Y-146229900I0J-50000D01*
G01*
X261439200Y-148029900D01*
G75*
G02*
X261389200Y-148079900I-50000J0D01*
G01*
G37*
%TD*%
%TO.C,D82*%
G36*
G01*
X280439200Y-148079900D02*
X278639200Y-148079900D01*
G75*
G02*
X278589200Y-148029900I0J50000D01*
G01*
X278589200Y-146229900D01*
G75*
G02*
X278639200Y-146179900I50000J0D01*
G01*
X280439200Y-146179900D01*
G75*
G02*
X280489200Y-146229900I0J-50000D01*
G01*
X280489200Y-148029900D01*
G75*
G02*
X280439200Y-148079900I-50000J0D01*
G01*
G37*
X279539200Y-139509900D03*
%TD*%
D11*
%TO.C,SW6*%
X102952000Y-35852500D03*
D12*
X97872000Y-35852500D03*
X108032000Y-35852500D03*
%TD*%
%TO.C,D50*%
G36*
G01*
X99327800Y-105722100D02*
X97527800Y-105722100D01*
G75*
G02*
X97477800Y-105672100I0J50000D01*
G01*
X97477800Y-103872100D01*
G75*
G02*
X97527800Y-103822100I50000J0D01*
G01*
X99327800Y-103822100D01*
G75*
G02*
X99377800Y-103872100I0J-50000D01*
G01*
X99377800Y-105672100D01*
G75*
G02*
X99327800Y-105722100I-50000J0D01*
G01*
G37*
D15*
X98427800Y-97152100D03*
%TD*%
%TO.C,D51*%
G36*
G01*
X118377800Y-105722100D02*
X116577800Y-105722100D01*
G75*
G02*
X116527800Y-105672100I0J50000D01*
G01*
X116527800Y-103872100D01*
G75*
G02*
X116577800Y-103822100I50000J0D01*
G01*
X118377800Y-103822100D01*
G75*
G02*
X118427800Y-103872100I0J-50000D01*
G01*
X118427800Y-105672100D01*
G75*
G02*
X118377800Y-105722100I-50000J0D01*
G01*
G37*
X117477800Y-97152100D03*
%TD*%
%TO.C,D91*%
G36*
G01*
X249667600Y-87497600D02*
X247867600Y-87497600D01*
G75*
G02*
X247817600Y-87447600I0J50000D01*
G01*
X247817600Y-85647600D01*
G75*
G02*
X247867600Y-85597600I50000J0D01*
G01*
X249667600Y-85597600D01*
G75*
G02*
X249717600Y-85647600I0J-50000D01*
G01*
X249717600Y-87447600D01*
G75*
G02*
X249667600Y-87497600I-50000J0D01*
G01*
G37*
X248767600Y-78927600D03*
%TD*%
%TO.C,LED*%
G36*
G01*
X205050100Y-4850100D02*
X205050100Y-3050100D01*
G75*
G02*
X205100100Y-3000100I50000J0D01*
G01*
X206900100Y-3000100D01*
G75*
G02*
X206950100Y-3050100I0J-50000D01*
G01*
X206950100Y-4850100D01*
G75*
G02*
X206900100Y-4900100I-50000J0D01*
G01*
X205100100Y-4900100D01*
G75*
G02*
X205050100Y-4850100I0J50000D01*
G01*
G37*
D25*
X208540100Y-3950100D03*
%TD*%
D17*
%TO.C,R1*%
X211918300Y-18962500D03*
D18*
X219538300Y-18962500D03*
%TD*%
D26*
%TO.C,C4*%
X260394200Y-1603900D03*
X255394200Y-1603900D03*
%TD*%
%TO.C,D84*%
G36*
G01*
X205768300Y-10110500D02*
X207368300Y-10110500D01*
G75*
G02*
X207418300Y-10160500I0J-50000D01*
G01*
X207418300Y-11760500D01*
G75*
G02*
X207368300Y-11810500I-50000J0D01*
G01*
X205768300Y-11810500D01*
G75*
G02*
X205718300Y-11760500I0J50000D01*
G01*
X205718300Y-10160500D01*
G75*
G02*
X205768300Y-10110500I50000J0D01*
G01*
G37*
D23*
X206568300Y-16040500D03*
%TD*%
%TO.C,D83*%
G36*
G01*
X201768300Y-10110500D02*
X203368300Y-10110500D01*
G75*
G02*
X203418300Y-10160500I0J-50000D01*
G01*
X203418300Y-11760500D01*
G75*
G02*
X203368300Y-11810500I-50000J0D01*
G01*
X201768300Y-11810500D01*
G75*
G02*
X201718300Y-11760500I0J50000D01*
G01*
X201718300Y-10160500D01*
G75*
G02*
X201768300Y-10110500I50000J0D01*
G01*
G37*
X202568300Y-16040500D03*
%TD*%
D27*
%TO.C,J1*%
X166934900Y-5461400D03*
X166934900Y-2921400D03*
X169474900Y-5461400D03*
X169474900Y-2921400D03*
X172014900Y-5461400D03*
G36*
G01*
X172914900Y-2071400D02*
X172914900Y-3771400D01*
G75*
G02*
X172864900Y-3821400I-50000J0D01*
G01*
X171164900Y-3821400D01*
G75*
G02*
X171114900Y-3771400I0J50000D01*
G01*
X171114900Y-2071400D01*
G75*
G02*
X171164900Y-2021400I50000J0D01*
G01*
X172864900Y-2021400D01*
G75*
G02*
X172914900Y-2071400I0J-50000D01*
G01*
G37*
%TD*%
D26*
%TO.C,C1*%
X228007300Y-3664600D03*
X225507300Y-3664600D03*
%TD*%
%TO.C,C5*%
X260368800Y-21765700D03*
X255368800Y-21765700D03*
%TD*%
D18*
%TO.C,F1*%
X162388300Y-6284200D03*
X162388300Y-1184200D03*
%TD*%
D26*
%TO.C,C2*%
X227969200Y-18498200D03*
X225469200Y-18498200D03*
%TD*%
D24*
%TO.C,REF\u002A\u002A*%
X-6346100Y-146083500D03*
%TD*%
D28*
%TO.C,C3*%
X201377300Y-4929400D03*
G36*
G01*
X200777300Y-2779400D02*
X201977300Y-2779400D01*
G75*
G02*
X202027300Y-2829400I0J-50000D01*
G01*
X202027300Y-4029400D01*
G75*
G02*
X201977300Y-4079400I-50000J0D01*
G01*
X200777300Y-4079400D01*
G75*
G02*
X200727300Y-4029400I0J50000D01*
G01*
X200727300Y-2829400D01*
G75*
G02*
X200777300Y-2779400I50000J0D01*
G01*
G37*
%TD*%
D14*
%TO.C,SW91*%
X188683400Y-6608600D03*
X188683400Y-2108600D03*
X195183400Y-6608600D03*
X195183400Y-2108600D03*
%TD*%
D24*
%TO.C,REF\u002A\u002A*%
X145803900Y-22783500D03*
%TD*%
%TO.C,REF\u002A\u002A*%
X145803900Y-1583500D03*
%TD*%
D11*
%TO.C,SW90*%
X169626900Y-127597000D03*
X69627100Y-127597000D03*
D16*
X169626900Y-142837000D03*
X69627100Y-142837000D03*
D12*
X124707000Y-135852000D03*
X114547000Y-135852000D03*
D11*
X119627000Y-135852000D03*
%TD*%
D24*
%TO.C,REF\u002A\u002A*%
X-6571100Y-88158500D03*
%TD*%
%TO.C,REF\u002A\u002A*%
X145803900Y-142583500D03*
%TD*%
D14*
%TO.C,SW87*%
X176910500Y-6684800D03*
X176910500Y-2184800D03*
X183410500Y-6684800D03*
X183410500Y-2184800D03*
%TD*%
D24*
%TO.C,REF\u002A\u002A*%
X145809914Y-69108500D03*
%TD*%
%TO.C,REF\u002A\u002A*%
X298328900Y-88258500D03*
%TD*%
D11*
%TO.C,SW81*%
X169627000Y-127610000D03*
X55327000Y-127610000D03*
D16*
X169627000Y-142850000D03*
X55327000Y-142850000D03*
D12*
X117557000Y-135865000D03*
X107397000Y-135865000D03*
D11*
X112477000Y-135865000D03*
%TD*%
D24*
%TO.C,REF\u002A\u002A*%
X298628900Y-146483500D03*
%TD*%
%TO.C,D62*%
G36*
G01*
X51706100Y-124000700D02*
X49906100Y-124000700D01*
G75*
G02*
X49856100Y-123950700I0J50000D01*
G01*
X49856100Y-122150700D01*
G75*
G02*
X49906100Y-122100700I50000J0D01*
G01*
X51706100Y-122100700D01*
G75*
G02*
X51756100Y-122150700I0J-50000D01*
G01*
X51756100Y-123950700D01*
G75*
G02*
X51706100Y-124000700I-50000J0D01*
G01*
G37*
D15*
X50806100Y-115430700D03*
%TD*%
%TO.C,D71*%
X225256100Y-115430700D03*
G36*
G01*
X226156100Y-124000700D02*
X224356100Y-124000700D01*
G75*
G02*
X224306100Y-123950700I0J50000D01*
G01*
X224306100Y-122150700D01*
G75*
G02*
X224356100Y-122100700I50000J0D01*
G01*
X226156100Y-122100700D01*
G75*
G02*
X226206100Y-122150700I0J-50000D01*
G01*
X226206100Y-123950700D01*
G75*
G02*
X226156100Y-124000700I-50000J0D01*
G01*
G37*
%TD*%
%TO.C,D63*%
G36*
G01*
X70756100Y-124000700D02*
X68956100Y-124000700D01*
G75*
G02*
X68906100Y-123950700I0J50000D01*
G01*
X68906100Y-122150700D01*
G75*
G02*
X68956100Y-122100700I50000J0D01*
G01*
X70756100Y-122100700D01*
G75*
G02*
X70806100Y-122150700I0J-50000D01*
G01*
X70806100Y-123950700D01*
G75*
G02*
X70756100Y-124000700I-50000J0D01*
G01*
G37*
X69856100Y-115430700D03*
%TD*%
%TO.C,D64*%
G36*
G01*
X89806100Y-124000700D02*
X88006100Y-124000700D01*
G75*
G02*
X87956100Y-123950700I0J50000D01*
G01*
X87956100Y-122150700D01*
G75*
G02*
X88006100Y-122100700I50000J0D01*
G01*
X89806100Y-122100700D01*
G75*
G02*
X89856100Y-122150700I0J-50000D01*
G01*
X89856100Y-123950700D01*
G75*
G02*
X89806100Y-124000700I-50000J0D01*
G01*
G37*
X88906100Y-115430700D03*
%TD*%
%TO.C,D70*%
X203206100Y-115430700D03*
G36*
G01*
X204106100Y-124000700D02*
X202306100Y-124000700D01*
G75*
G02*
X202256100Y-123950700I0J50000D01*
G01*
X202256100Y-122150700D01*
G75*
G02*
X202306100Y-122100700I50000J0D01*
G01*
X204106100Y-122100700D01*
G75*
G02*
X204156100Y-122150700I0J-50000D01*
G01*
X204156100Y-123950700D01*
G75*
G02*
X204106100Y-124000700I-50000J0D01*
G01*
G37*
%TD*%
%TO.C,D67*%
X146056100Y-115430700D03*
G36*
G01*
X146956100Y-124000700D02*
X145156100Y-124000700D01*
G75*
G02*
X145106100Y-123950700I0J50000D01*
G01*
X145106100Y-122150700D01*
G75*
G02*
X145156100Y-122100700I50000J0D01*
G01*
X146956100Y-122100700D01*
G75*
G02*
X147006100Y-122150700I0J-50000D01*
G01*
X147006100Y-123950700D01*
G75*
G02*
X146956100Y-124000700I-50000J0D01*
G01*
G37*
%TD*%
%TO.C,D56*%
G36*
G01*
X213627800Y-105722100D02*
X211827800Y-105722100D01*
G75*
G02*
X211777800Y-105672100I0J50000D01*
G01*
X211777800Y-103872100D01*
G75*
G02*
X211827800Y-103822100I50000J0D01*
G01*
X213627800Y-103822100D01*
G75*
G02*
X213677800Y-103872100I0J-50000D01*
G01*
X213677800Y-105672100D01*
G75*
G02*
X213627800Y-105722100I-50000J0D01*
G01*
G37*
X212727800Y-97152100D03*
%TD*%
%TO.C,D68*%
X165106100Y-115430700D03*
G36*
G01*
X166006100Y-124000700D02*
X164206100Y-124000700D01*
G75*
G02*
X164156100Y-123950700I0J50000D01*
G01*
X164156100Y-122150700D01*
G75*
G02*
X164206100Y-122100700I50000J0D01*
G01*
X166006100Y-122100700D01*
G75*
G02*
X166056100Y-122150700I0J-50000D01*
G01*
X166056100Y-123950700D01*
G75*
G02*
X166006100Y-124000700I-50000J0D01*
G01*
G37*
%TD*%
%TO.C,D58*%
G36*
G01*
X284727800Y-105722100D02*
X282927800Y-105722100D01*
G75*
G02*
X282877800Y-105672100I0J50000D01*
G01*
X282877800Y-103872100D01*
G75*
G02*
X282927800Y-103822100I50000J0D01*
G01*
X284727800Y-103822100D01*
G75*
G02*
X284777800Y-103872100I0J-50000D01*
G01*
X284777800Y-105672100D01*
G75*
G02*
X284727800Y-105722100I-50000J0D01*
G01*
G37*
X283827800Y-97152100D03*
%TD*%
%TO.C,D69*%
X184156100Y-115430700D03*
G36*
G01*
X185056100Y-124000700D02*
X183256100Y-124000700D01*
G75*
G02*
X183206100Y-123950700I0J50000D01*
G01*
X183206100Y-122150700D01*
G75*
G02*
X183256100Y-122100700I50000J0D01*
G01*
X185056100Y-122100700D01*
G75*
G02*
X185106100Y-122150700I0J-50000D01*
G01*
X185106100Y-123950700D01*
G75*
G02*
X185056100Y-124000700I-50000J0D01*
G01*
G37*
%TD*%
%TO.C,D74*%
X12178900Y-136034800D03*
G36*
G01*
X13078900Y-144604800D02*
X11278900Y-144604800D01*
G75*
G02*
X11228900Y-144554800I0J50000D01*
G01*
X11228900Y-142754800D01*
G75*
G02*
X11278900Y-142704800I50000J0D01*
G01*
X13078900Y-142704800D01*
G75*
G02*
X13128900Y-142754800I0J-50000D01*
G01*
X13128900Y-144554800D01*
G75*
G02*
X13078900Y-144604800I-50000J0D01*
G01*
G37*
%TD*%
%TO.C,D65*%
G36*
G01*
X108856100Y-124000700D02*
X107056100Y-124000700D01*
G75*
G02*
X107006100Y-123950700I0J50000D01*
G01*
X107006100Y-122150700D01*
G75*
G02*
X107056100Y-122100700I50000J0D01*
G01*
X108856100Y-122100700D01*
G75*
G02*
X108906100Y-122150700I0J-50000D01*
G01*
X108906100Y-123950700D01*
G75*
G02*
X108856100Y-124000700I-50000J0D01*
G01*
G37*
X107956100Y-115430700D03*
%TD*%
%TO.C,D55*%
G36*
G01*
X194577800Y-105722100D02*
X192777800Y-105722100D01*
G75*
G02*
X192727800Y-105672100I0J50000D01*
G01*
X192727800Y-103872100D01*
G75*
G02*
X192777800Y-103822100I50000J0D01*
G01*
X194577800Y-103822100D01*
G75*
G02*
X194627800Y-103872100I0J-50000D01*
G01*
X194627800Y-105672100D01*
G75*
G02*
X194577800Y-105722100I-50000J0D01*
G01*
G37*
X193677800Y-97152100D03*
%TD*%
%TO.C,D59*%
G36*
G01*
X30403900Y-124058500D02*
X28603900Y-124058500D01*
G75*
G02*
X28553900Y-124008500I0J50000D01*
G01*
X28553900Y-122208500D01*
G75*
G02*
X28603900Y-122158500I50000J0D01*
G01*
X30403900Y-122158500D01*
G75*
G02*
X30453900Y-122208500I0J-50000D01*
G01*
X30453900Y-124008500D01*
G75*
G02*
X30403900Y-124058500I-50000J0D01*
G01*
G37*
X29503900Y-115488500D03*
%TD*%
%TO.C,D61*%
G36*
G01*
X33056100Y-124050700D02*
X31256100Y-124050700D01*
G75*
G02*
X31206100Y-124000700I0J50000D01*
G01*
X31206100Y-122200700D01*
G75*
G02*
X31256100Y-122150700I50000J0D01*
G01*
X33056100Y-122150700D01*
G75*
G02*
X33106100Y-122200700I0J-50000D01*
G01*
X33106100Y-124000700D01*
G75*
G02*
X33056100Y-124050700I-50000J0D01*
G01*
G37*
X32156100Y-115480700D03*
%TD*%
%TO.C,D66*%
X127006100Y-115430700D03*
G36*
G01*
X127906100Y-124000700D02*
X126106100Y-124000700D01*
G75*
G02*
X126056100Y-123950700I0J50000D01*
G01*
X126056100Y-122150700D01*
G75*
G02*
X126106100Y-122100700I50000J0D01*
G01*
X127906100Y-122100700D01*
G75*
G02*
X127956100Y-122150700I0J-50000D01*
G01*
X127956100Y-123950700D01*
G75*
G02*
X127906100Y-124000700I-50000J0D01*
G01*
G37*
%TD*%
%TO.C,D72*%
X283306100Y-115430700D03*
G36*
G01*
X284206100Y-124000700D02*
X282406100Y-124000700D01*
G75*
G02*
X282356100Y-123950700I0J50000D01*
G01*
X282356100Y-122150700D01*
G75*
G02*
X282406100Y-122100700I50000J0D01*
G01*
X284206100Y-122100700D01*
G75*
G02*
X284256100Y-122150700I0J-50000D01*
G01*
X284256100Y-123950700D01*
G75*
G02*
X284206100Y-124000700I-50000J0D01*
G01*
G37*
%TD*%
%TO.C,D73*%
X259492500Y-120891700D03*
G36*
G01*
X260392500Y-129461700D02*
X258592500Y-129461700D01*
G75*
G02*
X258542500Y-129411700I0J50000D01*
G01*
X258542500Y-127611700D01*
G75*
G02*
X258592500Y-127561700I50000J0D01*
G01*
X260392500Y-127561700D01*
G75*
G02*
X260442500Y-127611700I0J-50000D01*
G01*
X260442500Y-129411700D01*
G75*
G02*
X260392500Y-129461700I-50000J0D01*
G01*
G37*
%TD*%
M02*
