G04 #@! TF.GenerationSoftware,KiCad,Pcbnew,6.0.11-2627ca5db0~126~ubuntu22.04.1*
G04 #@! TF.CreationDate,2023-03-02T17:54:08+00:00*
G04 #@! TF.ProjectId,bottom-r1,626f7474-6f6d-42d7-9231-2e6b69636164,rev?*
G04 #@! TF.SameCoordinates,Original*
G04 #@! TF.FileFunction,Copper,L1,Top*
G04 #@! TF.FilePolarity,Positive*
%FSLAX46Y46*%
G04 Gerber Fmt 4.6, Leading zero omitted, Abs format (unit mm)*
G04 Created by KiCad (PCBNEW 6.0.11-2627ca5db0~126~ubuntu22.04.1) date 2023-03-02 17:54:08*
%MOMM*%
%LPD*%
G01*
G04 APERTURE LIST*
G04 #@! TA.AperFunction,ComponentPad*
%ADD10C,4.400000*%
G04 #@! TD*
G04 #@! TA.AperFunction,ComponentPad*
%ADD11C,7.500000*%
G04 #@! TD*
G04 APERTURE END LIST*
D10*
G04 #@! TO.P,REF\u002A\u002A,1*
G04 #@! TO.N,N/C*
X140389914Y-94598500D03*
G04 #@! TD*
G04 #@! TO.P,REF\u002A\u002A,1*
G04 #@! TO.N,N/C*
X140383900Y-48273500D03*
G04 #@! TD*
G04 #@! TO.P,REF\u002A\u002A,1*
G04 #@! TO.N,N/C*
X-11991100Y-113648500D03*
G04 #@! TD*
G04 #@! TO.P,REF\u002A\u002A,1*
G04 #@! TO.N,N/C*
X292908900Y-113748500D03*
G04 #@! TD*
G04 #@! TO.P,REF\u002A\u002A,1*
G04 #@! TO.N,N/C*
X-11766100Y-171573500D03*
G04 #@! TD*
G04 #@! TO.P,REF\u002A\u002A,1*
G04 #@! TO.N,N/C*
X140383900Y-27073500D03*
G04 #@! TD*
G04 #@! TO.P,REF\u002A\u002A,1*
G04 #@! TO.N,N/C*
X293208900Y-171973500D03*
G04 #@! TD*
G04 #@! TO.P,REF\u002A\u002A,1*
G04 #@! TO.N,N/C*
X140383900Y-168073500D03*
G04 #@! TD*
G04 #@! TO.P,REF\u002A\u002A,1*
G04 #@! TO.N,N/C*
X-11991100Y-48298500D03*
G04 #@! TD*
G04 #@! TO.P,REF\u002A\u002A,1*
G04 #@! TO.N,N/C*
X292783900Y-27073500D03*
G04 #@! TD*
G04 #@! TO.P,REF\u002A\u002A,1*
G04 #@! TO.N,N/C*
X292758900Y-48298500D03*
G04 #@! TD*
G04 #@! TO.P,REF\u002A\u002A,1*
G04 #@! TO.N,N/C*
X-11991100Y-27098500D03*
G04 #@! TD*
D11*
G04 #@! TO.P,REF\u002A\u002A,1*
G04 #@! TO.N,N/C*
X13008900Y-43098500D03*
G04 #@! TD*
G04 #@! TO.P,REF\u002A\u002A,1*
G04 #@! TO.N,N/C*
X267783900Y-43073500D03*
G04 #@! TD*
G04 #@! TA.AperFunction,NonConductor*
G36*
X296986020Y-23446793D02*
G01*
X297017634Y-23450786D01*
X297024641Y-23450099D01*
X297024649Y-23450099D01*
X297039767Y-23448616D01*
X297061946Y-23448402D01*
X297206644Y-23459787D01*
X297226168Y-23462880D01*
X297226182Y-23462883D01*
X297389911Y-23502189D01*
X297408710Y-23508297D01*
X297564300Y-23572742D01*
X297581899Y-23581709D01*
X297725486Y-23669697D01*
X297741473Y-23681312D01*
X297785480Y-23718896D01*
X297869528Y-23790679D01*
X297883509Y-23804660D01*
X297992872Y-23932706D01*
X298004493Y-23948701D01*
X298092478Y-24092277D01*
X298101455Y-24109895D01*
X298165896Y-24265468D01*
X298172006Y-24284270D01*
X298188141Y-24351480D01*
X298211317Y-24448012D01*
X298214410Y-24467541D01*
X298224915Y-24601029D01*
X298224311Y-24626697D01*
X298223382Y-24634053D01*
X298224069Y-24641060D01*
X298224069Y-24641063D01*
X298227767Y-24678775D01*
X298228368Y-24691070D01*
X298228368Y-175361633D01*
X298227375Y-175377421D01*
X298223382Y-175409035D01*
X298224069Y-175416042D01*
X298224069Y-175416049D01*
X298225552Y-175431167D01*
X298225766Y-175453345D01*
X298214382Y-175598028D01*
X298214381Y-175598039D01*
X298211288Y-175617568D01*
X298171979Y-175781306D01*
X298165869Y-175800110D01*
X298101432Y-175955678D01*
X298092456Y-175973295D01*
X298004473Y-176116873D01*
X297992858Y-176132860D01*
X297883498Y-176260905D01*
X297883492Y-176260912D01*
X297869511Y-176274892D01*
X297741468Y-176384251D01*
X297725472Y-176395873D01*
X297581895Y-176483856D01*
X297564278Y-176492832D01*
X297408709Y-176557269D01*
X297389905Y-176563379D01*
X297301535Y-176584594D01*
X297226164Y-176602688D01*
X297206640Y-176605781D01*
X297164085Y-176609129D01*
X297072989Y-176616297D01*
X297047318Y-176615692D01*
X297047124Y-176615668D01*
X297040128Y-176614784D01*
X296995399Y-176619169D01*
X296983106Y-176619770D01*
X-16187835Y-176619770D01*
X-16203626Y-176618777D01*
X-16235235Y-176614784D01*
X-16242242Y-176615471D01*
X-16242248Y-176615471D01*
X-16257373Y-176616954D01*
X-16279552Y-176617167D01*
X-16424241Y-176605780D01*
X-16443769Y-176602687D01*
X-16607509Y-176563376D01*
X-16626312Y-176557266D01*
X-16681061Y-176534589D01*
X-16781882Y-176492828D01*
X-16799496Y-176483853D01*
X-16943080Y-176395864D01*
X-16959068Y-176384249D01*
X-17087119Y-176274883D01*
X-17101097Y-176260905D01*
X-17210461Y-176132856D01*
X-17222076Y-176116868D01*
X-17310065Y-175973284D01*
X-17319042Y-175955666D01*
X-17383478Y-175800100D01*
X-17389588Y-175781297D01*
X-17428899Y-175617556D01*
X-17431992Y-175598028D01*
X-17442510Y-175464386D01*
X-17441905Y-175438711D01*
X-17440996Y-175431517D01*
X-17445381Y-175386795D01*
X-17445982Y-175374500D01*
X-17445982Y-171479092D01*
X-14770202Y-171479092D01*
X-14770107Y-171482722D01*
X-14770107Y-171482723D01*
X-14766207Y-171631667D01*
X-14761144Y-171825001D01*
X-14712388Y-172167576D01*
X-14624581Y-172502277D01*
X-14498886Y-172824667D01*
X-14336970Y-173130474D01*
X-14334920Y-173133457D01*
X-14334918Y-173133460D01*
X-14143035Y-173412652D01*
X-14143029Y-173412659D01*
X-14140978Y-173415644D01*
X-13913508Y-173676398D01*
X-13657576Y-173909278D01*
X-13376573Y-174111199D01*
X-13074224Y-174279485D01*
X-12754537Y-174411903D01*
X-12751043Y-174412898D01*
X-12751041Y-174412899D01*
X-12425249Y-174505704D01*
X-12425244Y-174505705D01*
X-12421748Y-174506701D01*
X-12186066Y-174545295D01*
X-12083849Y-174562034D01*
X-12083845Y-174562034D01*
X-12080269Y-174562620D01*
X-12076643Y-174562791D01*
X-11738253Y-174578749D01*
X-11738252Y-174578749D01*
X-11734626Y-174578920D01*
X-11723754Y-174578179D01*
X-11393031Y-174555633D01*
X-11393023Y-174555632D01*
X-11389400Y-174555385D01*
X-11385824Y-174554722D01*
X-11385822Y-174554722D01*
X-11052732Y-174492988D01*
X-11052728Y-174492987D01*
X-11049167Y-174492327D01*
X-10718437Y-174390581D01*
X-10441819Y-174269154D01*
X-10404928Y-174252960D01*
X-10401593Y-174251496D01*
X-10102835Y-174076916D01*
X-10037919Y-174028176D01*
X-9829029Y-173871337D01*
X-9829025Y-173871334D01*
X-9826122Y-173869154D01*
X-9575123Y-173630965D01*
X-9353164Y-173365505D01*
X-9262756Y-173227872D01*
X-9165174Y-173079318D01*
X-9165169Y-173079309D01*
X-9163187Y-173076292D01*
X-9034931Y-172821285D01*
X-9009337Y-172770398D01*
X-9009334Y-172770390D01*
X-9007710Y-172767162D01*
X-8913336Y-172509272D01*
X-8890043Y-172445622D01*
X-8890040Y-172445612D01*
X-8888795Y-172442210D01*
X-8887950Y-172438688D01*
X-8887947Y-172438680D01*
X-8808863Y-172109272D01*
X-8808862Y-172109268D01*
X-8808016Y-172105743D01*
X-8807579Y-172102133D01*
X-8780588Y-171879092D01*
X290204798Y-171879092D01*
X290204893Y-171882722D01*
X290204893Y-171882723D01*
X290212139Y-172159431D01*
X290213856Y-172225001D01*
X290262612Y-172567576D01*
X290350419Y-172902277D01*
X290476114Y-173224667D01*
X290638030Y-173530474D01*
X290640080Y-173533457D01*
X290640082Y-173533460D01*
X290831965Y-173812652D01*
X290831971Y-173812659D01*
X290834022Y-173815644D01*
X291061492Y-174076398D01*
X291317424Y-174309278D01*
X291598427Y-174511199D01*
X291900776Y-174679485D01*
X292220463Y-174811903D01*
X292223957Y-174812898D01*
X292223959Y-174812899D01*
X292549751Y-174905704D01*
X292549756Y-174905705D01*
X292553252Y-174906701D01*
X292788934Y-174945295D01*
X292891151Y-174962034D01*
X292891155Y-174962034D01*
X292894731Y-174962620D01*
X292898357Y-174962791D01*
X293236747Y-174978749D01*
X293236748Y-174978749D01*
X293240374Y-174978920D01*
X293251246Y-174978179D01*
X293581969Y-174955633D01*
X293581977Y-174955632D01*
X293585600Y-174955385D01*
X293589176Y-174954722D01*
X293589178Y-174954722D01*
X293922268Y-174892988D01*
X293922272Y-174892987D01*
X293925833Y-174892327D01*
X294256563Y-174790581D01*
X294573407Y-174651496D01*
X294845792Y-174492327D01*
X294869025Y-174478751D01*
X294869027Y-174478750D01*
X294872165Y-174476916D01*
X294958754Y-174411903D01*
X295145971Y-174271337D01*
X295145975Y-174271334D01*
X295148878Y-174269154D01*
X295399877Y-174030965D01*
X295621836Y-173765505D01*
X295623824Y-173762479D01*
X295809826Y-173479318D01*
X295809831Y-173479309D01*
X295811813Y-173476292D01*
X295940069Y-173221285D01*
X295965663Y-173170398D01*
X295965666Y-173170390D01*
X295967290Y-173167162D01*
X296065509Y-172898765D01*
X296084957Y-172845622D01*
X296084960Y-172845612D01*
X296086205Y-172842210D01*
X296087050Y-172838688D01*
X296087053Y-172838680D01*
X296166137Y-172509272D01*
X296166138Y-172509268D01*
X296166984Y-172505743D01*
X296167421Y-172502133D01*
X296208218Y-172165001D01*
X296208218Y-172164995D01*
X296208554Y-172162222D01*
X296210443Y-172102133D01*
X296214397Y-171976297D01*
X296214485Y-171973500D01*
X296209251Y-171882723D01*
X296194775Y-171631667D01*
X296194774Y-171631662D01*
X296194566Y-171628047D01*
X296184558Y-171570704D01*
X296135698Y-171290745D01*
X296135696Y-171290738D01*
X296135074Y-171287172D01*
X296117561Y-171228047D01*
X296068609Y-171062791D01*
X296036797Y-170955394D01*
X296035373Y-170952055D01*
X295902462Y-170640449D01*
X295902460Y-170640446D01*
X295901038Y-170637111D01*
X295866704Y-170576916D01*
X295731387Y-170339681D01*
X295729596Y-170336541D01*
X295669930Y-170255315D01*
X295526886Y-170060586D01*
X295524743Y-170057668D01*
X295289195Y-169804188D01*
X295026074Y-169579462D01*
X294738867Y-169386467D01*
X294431382Y-169227761D01*
X294107693Y-169105450D01*
X293772090Y-169021152D01*
X293602042Y-168998765D01*
X293432628Y-168976461D01*
X293432620Y-168976460D01*
X293429024Y-168975987D01*
X293277891Y-168973612D01*
X293086680Y-168970608D01*
X293086676Y-168970608D01*
X293083039Y-168970551D01*
X293079424Y-168970912D01*
X293079420Y-168970912D01*
X292940225Y-168984806D01*
X292738723Y-169004919D01*
X292735186Y-169005690D01*
X292735181Y-169005691D01*
X292404183Y-169077860D01*
X292404178Y-169077861D01*
X292400639Y-169078633D01*
X292073267Y-169190717D01*
X291760948Y-169339686D01*
X291467821Y-169523564D01*
X291464987Y-169525834D01*
X291464982Y-169525838D01*
X291330648Y-169633460D01*
X291197771Y-169739915D01*
X290954377Y-169985871D01*
X290952136Y-169988729D01*
X290754763Y-170240449D01*
X290740866Y-170258172D01*
X290560068Y-170553209D01*
X290558541Y-170556499D01*
X290558536Y-170556508D01*
X290468026Y-170751496D01*
X290414378Y-170867070D01*
X290413238Y-170870517D01*
X290372735Y-170992988D01*
X290305728Y-171195597D01*
X290235558Y-171534435D01*
X290235236Y-171538046D01*
X290209626Y-171825001D01*
X290204798Y-171879092D01*
X-8780588Y-171879092D01*
X-8766782Y-171765001D01*
X-8766782Y-171764995D01*
X-8766446Y-171762222D01*
X-8760515Y-171573500D01*
X-8762559Y-171538046D01*
X-8780225Y-171231667D01*
X-8780226Y-171231662D01*
X-8780434Y-171228047D01*
X-8786699Y-171192152D01*
X-8839302Y-170890745D01*
X-8839304Y-170890738D01*
X-8839926Y-170887172D01*
X-8938203Y-170555394D01*
X-8999622Y-170411398D01*
X-9072538Y-170240449D01*
X-9072540Y-170240446D01*
X-9073962Y-170237111D01*
X-9134506Y-170130965D01*
X-9243613Y-169939681D01*
X-9245404Y-169936541D01*
X-9305070Y-169855315D01*
X-9344357Y-169801833D01*
X-9450257Y-169657668D01*
X-9685805Y-169404188D01*
X-9704189Y-169388486D01*
X-9935748Y-169190717D01*
X-9948926Y-169179462D01*
X-10236133Y-168986467D01*
X-10543618Y-168827761D01*
X-10867307Y-168705450D01*
X-11202910Y-168621152D01*
X-11347375Y-168602133D01*
X-11542372Y-168576461D01*
X-11542380Y-168576460D01*
X-11545976Y-168575987D01*
X-11697109Y-168573612D01*
X-11888320Y-168570608D01*
X-11888324Y-168570608D01*
X-11891961Y-168570551D01*
X-11895576Y-168570912D01*
X-11895580Y-168570912D01*
X-12063454Y-168587669D01*
X-12236277Y-168604919D01*
X-12239814Y-168605690D01*
X-12239819Y-168605691D01*
X-12570817Y-168677860D01*
X-12570822Y-168677861D01*
X-12574361Y-168678633D01*
X-12901733Y-168790717D01*
X-13214052Y-168939686D01*
X-13507179Y-169123564D01*
X-13510013Y-169125834D01*
X-13510018Y-169125838D01*
X-13635639Y-169226480D01*
X-13777229Y-169339915D01*
X-13843460Y-169406843D01*
X-14007941Y-169573056D01*
X-14020623Y-169585871D01*
X-14022864Y-169588729D01*
X-14057937Y-169633460D01*
X-14234134Y-169858172D01*
X-14414932Y-170153209D01*
X-14416459Y-170156499D01*
X-14416464Y-170156508D01*
X-14498679Y-170333626D01*
X-14560622Y-170467070D01*
X-14561762Y-170470517D01*
X-14663943Y-170779485D01*
X-14669272Y-170795597D01*
X-14670008Y-170799152D01*
X-14670009Y-170799155D01*
X-14738707Y-171130885D01*
X-14739442Y-171134435D01*
X-14770202Y-171479092D01*
X-17445982Y-171479092D01*
X-17445982Y-167979092D01*
X137379798Y-167979092D01*
X137388856Y-168325001D01*
X137437612Y-168667576D01*
X137525419Y-169002277D01*
X137651114Y-169324667D01*
X137652811Y-169327872D01*
X137786021Y-169579462D01*
X137813030Y-169630474D01*
X137815080Y-169633457D01*
X137815082Y-169633460D01*
X138006965Y-169912652D01*
X138006971Y-169912659D01*
X138009022Y-169915644D01*
X138236492Y-170176398D01*
X138492424Y-170409278D01*
X138773427Y-170611199D01*
X139075776Y-170779485D01*
X139395463Y-170911903D01*
X139398957Y-170912898D01*
X139398959Y-170912899D01*
X139724751Y-171005704D01*
X139724756Y-171005705D01*
X139728252Y-171006701D01*
X139963934Y-171045295D01*
X140066151Y-171062034D01*
X140066155Y-171062034D01*
X140069731Y-171062620D01*
X140073357Y-171062791D01*
X140411747Y-171078749D01*
X140411748Y-171078749D01*
X140415374Y-171078920D01*
X140426246Y-171078179D01*
X140756969Y-171055633D01*
X140756977Y-171055632D01*
X140760600Y-171055385D01*
X140764176Y-171054722D01*
X140764178Y-171054722D01*
X141097268Y-170992988D01*
X141097272Y-170992987D01*
X141100833Y-170992327D01*
X141431563Y-170890581D01*
X141748407Y-170751496D01*
X142047165Y-170576916D01*
X142197859Y-170463772D01*
X142320971Y-170371337D01*
X142320975Y-170371334D01*
X142323878Y-170369154D01*
X142574877Y-170130965D01*
X142796836Y-169865505D01*
X142798824Y-169862479D01*
X142984826Y-169579318D01*
X142984831Y-169579309D01*
X142986813Y-169576292D01*
X143083121Y-169384806D01*
X143140663Y-169270398D01*
X143140666Y-169270390D01*
X143142290Y-169267162D01*
X143143535Y-169263760D01*
X143259957Y-168945622D01*
X143259960Y-168945612D01*
X143261205Y-168942210D01*
X143262050Y-168938688D01*
X143262053Y-168938680D01*
X143341137Y-168609272D01*
X143341138Y-168609268D01*
X143341984Y-168605743D01*
X143342421Y-168602133D01*
X143383218Y-168265001D01*
X143383218Y-168264995D01*
X143383554Y-168262222D01*
X143389485Y-168073500D01*
X143384251Y-167982723D01*
X143369775Y-167731667D01*
X143369774Y-167731662D01*
X143369566Y-167728047D01*
X143368943Y-167724477D01*
X143310698Y-167390745D01*
X143310696Y-167390738D01*
X143310074Y-167387172D01*
X143211797Y-167055394D01*
X143076038Y-166737111D01*
X142904596Y-166436541D01*
X142844930Y-166355315D01*
X142701886Y-166160586D01*
X142699743Y-166157668D01*
X142464195Y-165904188D01*
X142201074Y-165679462D01*
X141913867Y-165486467D01*
X141606382Y-165327761D01*
X141282693Y-165205450D01*
X140947090Y-165121152D01*
X140802881Y-165102167D01*
X140607628Y-165076461D01*
X140607620Y-165076460D01*
X140604024Y-165075987D01*
X140452891Y-165073612D01*
X140261680Y-165070608D01*
X140261676Y-165070608D01*
X140258039Y-165070551D01*
X140254424Y-165070912D01*
X140254420Y-165070912D01*
X140086546Y-165087669D01*
X139913723Y-165104919D01*
X139910186Y-165105690D01*
X139910181Y-165105691D01*
X139579183Y-165177860D01*
X139579178Y-165177861D01*
X139575639Y-165178633D01*
X139248267Y-165290717D01*
X138935948Y-165439686D01*
X138642821Y-165623564D01*
X138639987Y-165625834D01*
X138639982Y-165625838D01*
X138470966Y-165761246D01*
X138372771Y-165839915D01*
X138129377Y-166085871D01*
X137915866Y-166358172D01*
X137735068Y-166653209D01*
X137733541Y-166656499D01*
X137733536Y-166656508D01*
X137694572Y-166740449D01*
X137589378Y-166967070D01*
X137480728Y-167295597D01*
X137410558Y-167634435D01*
X137379798Y-167979092D01*
X-17445982Y-167979092D01*
X-17445982Y-113554092D01*
X-14995202Y-113554092D01*
X-14995107Y-113557722D01*
X-14995107Y-113557723D01*
X-14990111Y-113748500D01*
X-14986144Y-113900001D01*
X-14937388Y-114242576D01*
X-14849581Y-114577277D01*
X-14723886Y-114899667D01*
X-14561970Y-115205474D01*
X-14559920Y-115208457D01*
X-14559918Y-115208460D01*
X-14368035Y-115487652D01*
X-14368029Y-115487659D01*
X-14365978Y-115490644D01*
X-14138508Y-115751398D01*
X-13882576Y-115984278D01*
X-13601573Y-116186199D01*
X-13299224Y-116354485D01*
X-12979537Y-116486903D01*
X-12976043Y-116487898D01*
X-12976041Y-116487899D01*
X-12650249Y-116580704D01*
X-12650244Y-116580705D01*
X-12646748Y-116581701D01*
X-12411066Y-116620295D01*
X-12308849Y-116637034D01*
X-12308845Y-116637034D01*
X-12305269Y-116637620D01*
X-12301643Y-116637791D01*
X-11963253Y-116653749D01*
X-11963252Y-116653749D01*
X-11959626Y-116653920D01*
X-11948754Y-116653179D01*
X-11618031Y-116630633D01*
X-11618023Y-116630632D01*
X-11614400Y-116630385D01*
X-11610824Y-116629722D01*
X-11610822Y-116629722D01*
X-11277732Y-116567988D01*
X-11277728Y-116567987D01*
X-11274167Y-116567327D01*
X-10943437Y-116465581D01*
X-10626593Y-116326496D01*
X-10327835Y-116151916D01*
X-10240573Y-116086398D01*
X-10054029Y-115946337D01*
X-10054025Y-115946334D01*
X-10051122Y-115944154D01*
X-9800123Y-115705965D01*
X-9578164Y-115440505D01*
X-9576176Y-115437479D01*
X-9390174Y-115154318D01*
X-9390169Y-115154309D01*
X-9388187Y-115151292D01*
X-9310226Y-114996285D01*
X-9234337Y-114845398D01*
X-9234334Y-114845390D01*
X-9232710Y-114842162D01*
X-9172371Y-114677277D01*
X-9115043Y-114520622D01*
X-9115040Y-114520612D01*
X-9113795Y-114517210D01*
X-9112950Y-114513688D01*
X-9112947Y-114513680D01*
X-9033863Y-114184272D01*
X-9033862Y-114184268D01*
X-9033016Y-114180743D01*
X-9032579Y-114177133D01*
X-8991782Y-113840001D01*
X-8991782Y-113839995D01*
X-8991446Y-113837222D01*
X-8985691Y-113654092D01*
X289904798Y-113654092D01*
X289913856Y-114000001D01*
X289962612Y-114342576D01*
X290050419Y-114677277D01*
X290176114Y-114999667D01*
X290338030Y-115305474D01*
X290340080Y-115308457D01*
X290340082Y-115308460D01*
X290531965Y-115587652D01*
X290531971Y-115587659D01*
X290534022Y-115590644D01*
X290761492Y-115851398D01*
X291017424Y-116084278D01*
X291298427Y-116286199D01*
X291600776Y-116454485D01*
X291920463Y-116586903D01*
X291923957Y-116587898D01*
X291923959Y-116587899D01*
X292249751Y-116680704D01*
X292249756Y-116680705D01*
X292253252Y-116681701D01*
X292488934Y-116720295D01*
X292591151Y-116737034D01*
X292591155Y-116737034D01*
X292594731Y-116737620D01*
X292598357Y-116737791D01*
X292936747Y-116753749D01*
X292936748Y-116753749D01*
X292940374Y-116753920D01*
X292951246Y-116753179D01*
X293281969Y-116730633D01*
X293281977Y-116730632D01*
X293285600Y-116730385D01*
X293289176Y-116729722D01*
X293289178Y-116729722D01*
X293622268Y-116667988D01*
X293622272Y-116667987D01*
X293625833Y-116667327D01*
X293956563Y-116565581D01*
X294273407Y-116426496D01*
X294572165Y-116251916D01*
X294575074Y-116249732D01*
X294845971Y-116046337D01*
X294845975Y-116046334D01*
X294848878Y-116044154D01*
X295099877Y-115805965D01*
X295321836Y-115540505D01*
X295352791Y-115493381D01*
X295509826Y-115254318D01*
X295509831Y-115254309D01*
X295511813Y-115251292D01*
X295640069Y-114996285D01*
X295665663Y-114945398D01*
X295665666Y-114945390D01*
X295667290Y-114942162D01*
X295684079Y-114896285D01*
X295784957Y-114620622D01*
X295784960Y-114620612D01*
X295786205Y-114617210D01*
X295787050Y-114613688D01*
X295787053Y-114613680D01*
X295866137Y-114284272D01*
X295866138Y-114284268D01*
X295866984Y-114280743D01*
X295879522Y-114177133D01*
X295908218Y-113940001D01*
X295908218Y-113939995D01*
X295908554Y-113937222D01*
X295911785Y-113834431D01*
X295914397Y-113751297D01*
X295914485Y-113748500D01*
X295909251Y-113657723D01*
X295894775Y-113406667D01*
X295894774Y-113406662D01*
X295894566Y-113403047D01*
X295893943Y-113399477D01*
X295835698Y-113065745D01*
X295835696Y-113065738D01*
X295835074Y-113062172D01*
X295736797Y-112730394D01*
X295697717Y-112638772D01*
X295602462Y-112415449D01*
X295602460Y-112415446D01*
X295601038Y-112412111D01*
X295429596Y-112111541D01*
X295369930Y-112030315D01*
X295300841Y-111936263D01*
X295224743Y-111832668D01*
X294989195Y-111579188D01*
X294869353Y-111476833D01*
X294796856Y-111414915D01*
X294726074Y-111354462D01*
X294438867Y-111161467D01*
X294131382Y-111002761D01*
X293807693Y-110880450D01*
X293472090Y-110796152D01*
X293327881Y-110777167D01*
X293132628Y-110751461D01*
X293132620Y-110751460D01*
X293129024Y-110750987D01*
X292977891Y-110748612D01*
X292786680Y-110745608D01*
X292786676Y-110745608D01*
X292783039Y-110745551D01*
X292779424Y-110745912D01*
X292779420Y-110745912D01*
X292611546Y-110762669D01*
X292438723Y-110779919D01*
X292435186Y-110780690D01*
X292435181Y-110780691D01*
X292104183Y-110852860D01*
X292104178Y-110852861D01*
X292100639Y-110853633D01*
X291773267Y-110965717D01*
X291460948Y-111114686D01*
X291167821Y-111298564D01*
X291164987Y-111300834D01*
X291164982Y-111300838D01*
X291025426Y-111412644D01*
X290897771Y-111514915D01*
X290831540Y-111581843D01*
X290679399Y-111735586D01*
X290654377Y-111760871D01*
X290440866Y-112033172D01*
X290260068Y-112328209D01*
X290258541Y-112331499D01*
X290258536Y-112331508D01*
X290137109Y-112593101D01*
X290114378Y-112642070D01*
X290113238Y-112645517D01*
X290007333Y-112965745D01*
X290005728Y-112970597D01*
X289935558Y-113309435D01*
X289935236Y-113313046D01*
X289905547Y-113645704D01*
X289904798Y-113654092D01*
X-8985691Y-113654092D01*
X-8985515Y-113648500D01*
X-8990749Y-113557723D01*
X-9005225Y-113306667D01*
X-9005226Y-113306662D01*
X-9005434Y-113303047D01*
X-9006057Y-113299477D01*
X-9064302Y-112965745D01*
X-9064304Y-112965738D01*
X-9064926Y-112962172D01*
X-9163203Y-112630394D01*
X-9202283Y-112538772D01*
X-9297538Y-112315449D01*
X-9297540Y-112315446D01*
X-9298962Y-112312111D01*
X-9470404Y-112011541D01*
X-9530070Y-111930315D01*
X-9603750Y-111830013D01*
X-9675257Y-111732668D01*
X-9910805Y-111479188D01*
X-10059203Y-111352444D01*
X-10171170Y-111256816D01*
X-10173926Y-111254462D01*
X-10461133Y-111061467D01*
X-10648916Y-110964544D01*
X-10765398Y-110904423D01*
X-10768618Y-110902761D01*
X-11092307Y-110780450D01*
X-11427910Y-110696152D01*
X-11572119Y-110677167D01*
X-11767372Y-110651461D01*
X-11767380Y-110651460D01*
X-11770976Y-110650987D01*
X-11922109Y-110648612D01*
X-12113320Y-110645608D01*
X-12113324Y-110645608D01*
X-12116961Y-110645551D01*
X-12120576Y-110645912D01*
X-12120580Y-110645912D01*
X-12288454Y-110662669D01*
X-12461277Y-110679919D01*
X-12464814Y-110680690D01*
X-12464819Y-110680691D01*
X-12795817Y-110752860D01*
X-12795822Y-110752861D01*
X-12799361Y-110753633D01*
X-13126733Y-110865717D01*
X-13439052Y-111014686D01*
X-13732179Y-111198564D01*
X-13735013Y-111200834D01*
X-13735018Y-111200838D01*
X-13854584Y-111296629D01*
X-14002229Y-111414915D01*
X-14245623Y-111660871D01*
X-14459134Y-111933172D01*
X-14639932Y-112228209D01*
X-14641459Y-112231499D01*
X-14641464Y-112231508D01*
X-14680428Y-112315449D01*
X-14785622Y-112542070D01*
X-14894272Y-112870597D01*
X-14964442Y-113209435D01*
X-14995202Y-113554092D01*
X-17445982Y-113554092D01*
X-17445982Y-94504092D01*
X137385812Y-94504092D01*
X137394870Y-94850001D01*
X137443626Y-95192576D01*
X137531433Y-95527277D01*
X137657128Y-95849667D01*
X137819044Y-96155474D01*
X137821094Y-96158457D01*
X137821096Y-96158460D01*
X138012979Y-96437652D01*
X138012985Y-96437659D01*
X138015036Y-96440644D01*
X138242506Y-96701398D01*
X138498438Y-96934278D01*
X138779441Y-97136199D01*
X139081790Y-97304485D01*
X139401477Y-97436903D01*
X139404971Y-97437898D01*
X139404973Y-97437899D01*
X139730765Y-97530704D01*
X139730770Y-97530705D01*
X139734266Y-97531701D01*
X139969948Y-97570295D01*
X140072165Y-97587034D01*
X140072169Y-97587034D01*
X140075745Y-97587620D01*
X140079371Y-97587791D01*
X140417761Y-97603749D01*
X140417762Y-97603749D01*
X140421388Y-97603920D01*
X140432260Y-97603179D01*
X140762983Y-97580633D01*
X140762991Y-97580632D01*
X140766614Y-97580385D01*
X140770190Y-97579722D01*
X140770192Y-97579722D01*
X141103282Y-97517988D01*
X141103286Y-97517987D01*
X141106847Y-97517327D01*
X141437577Y-97415581D01*
X141754421Y-97276496D01*
X142053179Y-97101916D01*
X142056088Y-97099732D01*
X142326985Y-96896337D01*
X142326989Y-96896334D01*
X142329892Y-96894154D01*
X142580891Y-96655965D01*
X142802850Y-96390505D01*
X142955275Y-96158460D01*
X142990840Y-96104318D01*
X142990845Y-96104309D01*
X142992827Y-96101292D01*
X143121083Y-95846285D01*
X143146677Y-95795398D01*
X143146680Y-95795390D01*
X143148304Y-95792162D01*
X143246523Y-95523765D01*
X143265971Y-95470622D01*
X143265974Y-95470612D01*
X143267219Y-95467210D01*
X143268064Y-95463688D01*
X143268067Y-95463680D01*
X143347151Y-95134272D01*
X143347152Y-95134268D01*
X143347998Y-95130743D01*
X143348435Y-95127133D01*
X143389232Y-94790001D01*
X143389232Y-94789995D01*
X143389568Y-94787222D01*
X143395499Y-94598500D01*
X143390265Y-94507723D01*
X143375789Y-94256667D01*
X143375788Y-94256662D01*
X143375580Y-94253047D01*
X143374957Y-94249477D01*
X143316712Y-93915745D01*
X143316710Y-93915738D01*
X143316088Y-93912172D01*
X143217811Y-93580394D01*
X143082052Y-93262111D01*
X142910610Y-92961541D01*
X142850944Y-92880315D01*
X142707900Y-92685586D01*
X142705757Y-92682668D01*
X142470209Y-92429188D01*
X142207088Y-92204462D01*
X141919881Y-92011467D01*
X141612396Y-91852761D01*
X141288707Y-91730450D01*
X140953104Y-91646152D01*
X140808895Y-91627167D01*
X140613642Y-91601461D01*
X140613634Y-91601460D01*
X140610038Y-91600987D01*
X140458905Y-91598612D01*
X140267694Y-91595608D01*
X140267690Y-91595608D01*
X140264053Y-91595551D01*
X140260438Y-91595912D01*
X140260434Y-91595912D01*
X140092560Y-91612669D01*
X139919737Y-91629919D01*
X139916200Y-91630690D01*
X139916195Y-91630691D01*
X139585197Y-91702860D01*
X139585192Y-91702861D01*
X139581653Y-91703633D01*
X139254281Y-91815717D01*
X138941962Y-91964686D01*
X138648835Y-92148564D01*
X138646001Y-92150834D01*
X138645996Y-92150838D01*
X138476980Y-92286246D01*
X138378785Y-92364915D01*
X138135391Y-92610871D01*
X137921880Y-92883172D01*
X137741082Y-93178209D01*
X137739555Y-93181499D01*
X137739550Y-93181508D01*
X137700586Y-93265449D01*
X137595392Y-93492070D01*
X137486742Y-93820597D01*
X137416572Y-94159435D01*
X137385812Y-94504092D01*
X-17445982Y-94504092D01*
X-17445982Y-48204092D01*
X-14995202Y-48204092D01*
X-14995107Y-48207722D01*
X-14995107Y-48207723D01*
X-14993311Y-48276297D01*
X-14986144Y-48550001D01*
X-14937388Y-48892576D01*
X-14849581Y-49227277D01*
X-14723886Y-49549667D01*
X-14722189Y-49552872D01*
X-14602292Y-49779318D01*
X-14561970Y-49855474D01*
X-14559920Y-49858457D01*
X-14559918Y-49858460D01*
X-14368035Y-50137652D01*
X-14368029Y-50137659D01*
X-14365978Y-50140644D01*
X-14138508Y-50401398D01*
X-13882576Y-50634278D01*
X-13601573Y-50836199D01*
X-13299224Y-51004485D01*
X-12979537Y-51136903D01*
X-12976043Y-51137898D01*
X-12976041Y-51137899D01*
X-12650249Y-51230704D01*
X-12650244Y-51230705D01*
X-12646748Y-51231701D01*
X-12411066Y-51270295D01*
X-12308849Y-51287034D01*
X-12308845Y-51287034D01*
X-12305269Y-51287620D01*
X-12301643Y-51287791D01*
X-11963253Y-51303749D01*
X-11963252Y-51303749D01*
X-11959626Y-51303920D01*
X-11948754Y-51303179D01*
X-11618031Y-51280633D01*
X-11618023Y-51280632D01*
X-11614400Y-51280385D01*
X-11610824Y-51279722D01*
X-11610822Y-51279722D01*
X-11277732Y-51217988D01*
X-11277728Y-51217987D01*
X-11274167Y-51217327D01*
X-10943437Y-51115581D01*
X-10626593Y-50976496D01*
X-10327835Y-50801916D01*
X-10291629Y-50774732D01*
X-10054029Y-50596337D01*
X-10054025Y-50596334D01*
X-10051122Y-50594154D01*
X-9800123Y-50355965D01*
X-9578164Y-50090505D01*
X-9425739Y-49858460D01*
X-9390174Y-49804318D01*
X-9390169Y-49804309D01*
X-9388187Y-49801292D01*
X-9247357Y-49521285D01*
X-9234337Y-49495398D01*
X-9234334Y-49495390D01*
X-9232710Y-49492162D01*
X-9231465Y-49488760D01*
X-9115043Y-49170622D01*
X-9115040Y-49170612D01*
X-9113795Y-49167210D01*
X-9112950Y-49163688D01*
X-9112947Y-49163680D01*
X-9033863Y-48834272D01*
X-9033862Y-48834268D01*
X-9033016Y-48830743D01*
X-9029554Y-48802133D01*
X-8991782Y-48490001D01*
X-8991782Y-48489995D01*
X-8991446Y-48487222D01*
X-8990747Y-48465001D01*
X-8985603Y-48301297D01*
X-8985515Y-48298500D01*
X-8986795Y-48276297D01*
X-8992400Y-48179092D01*
X137379798Y-48179092D01*
X137388856Y-48525001D01*
X137437612Y-48867576D01*
X137525419Y-49202277D01*
X137651114Y-49524667D01*
X137652811Y-49527872D01*
X137795866Y-49798056D01*
X137813030Y-49830474D01*
X137815080Y-49833457D01*
X137815082Y-49833460D01*
X138006965Y-50112652D01*
X138006971Y-50112659D01*
X138009022Y-50115644D01*
X138011410Y-50118381D01*
X138220852Y-50358469D01*
X138236492Y-50376398D01*
X138492424Y-50609278D01*
X138773427Y-50811199D01*
X139075776Y-50979485D01*
X139395463Y-51111903D01*
X139398957Y-51112898D01*
X139398959Y-51112899D01*
X139724751Y-51205704D01*
X139724756Y-51205705D01*
X139728252Y-51206701D01*
X139963934Y-51245295D01*
X140066151Y-51262034D01*
X140066155Y-51262034D01*
X140069731Y-51262620D01*
X140073357Y-51262791D01*
X140411747Y-51278749D01*
X140411748Y-51278749D01*
X140415374Y-51278920D01*
X140426246Y-51278179D01*
X140756969Y-51255633D01*
X140756977Y-51255632D01*
X140760600Y-51255385D01*
X140764176Y-51254722D01*
X140764178Y-51254722D01*
X141097268Y-51192988D01*
X141097272Y-51192987D01*
X141100833Y-51192327D01*
X141431563Y-51090581D01*
X141688667Y-50977720D01*
X141745072Y-50952960D01*
X141748407Y-50951496D01*
X141992125Y-50809079D01*
X142044025Y-50778751D01*
X142044027Y-50778750D01*
X142047165Y-50776916D01*
X142050074Y-50774732D01*
X142320971Y-50571337D01*
X142320975Y-50571334D01*
X142323878Y-50569154D01*
X142574877Y-50330965D01*
X142796836Y-50065505D01*
X142932839Y-49858460D01*
X142984826Y-49779318D01*
X142984831Y-49779309D01*
X142986813Y-49776292D01*
X143128089Y-49495398D01*
X143140663Y-49470398D01*
X143140666Y-49470390D01*
X143142290Y-49467162D01*
X143143535Y-49463760D01*
X143259957Y-49145622D01*
X143259960Y-49145612D01*
X143261205Y-49142210D01*
X143262050Y-49138688D01*
X143262053Y-49138680D01*
X143341137Y-48809272D01*
X143341138Y-48809268D01*
X143341984Y-48805743D01*
X143372932Y-48550001D01*
X143383218Y-48465001D01*
X143383218Y-48464995D01*
X143383554Y-48462222D01*
X143389485Y-48273500D01*
X143385483Y-48204092D01*
X289754798Y-48204092D01*
X289754893Y-48207722D01*
X289754893Y-48207723D01*
X289756689Y-48276297D01*
X289763856Y-48550001D01*
X289812612Y-48892576D01*
X289900419Y-49227277D01*
X290026114Y-49549667D01*
X290027811Y-49552872D01*
X290147708Y-49779318D01*
X290188030Y-49855474D01*
X290190080Y-49858457D01*
X290190082Y-49858460D01*
X290381965Y-50137652D01*
X290381971Y-50137659D01*
X290384022Y-50140644D01*
X290611492Y-50401398D01*
X290867424Y-50634278D01*
X291148427Y-50836199D01*
X291450776Y-51004485D01*
X291770463Y-51136903D01*
X291773957Y-51137898D01*
X291773959Y-51137899D01*
X292099751Y-51230704D01*
X292099756Y-51230705D01*
X292103252Y-51231701D01*
X292338934Y-51270295D01*
X292441151Y-51287034D01*
X292441155Y-51287034D01*
X292444731Y-51287620D01*
X292448357Y-51287791D01*
X292786747Y-51303749D01*
X292786748Y-51303749D01*
X292790374Y-51303920D01*
X292801246Y-51303179D01*
X293131969Y-51280633D01*
X293131977Y-51280632D01*
X293135600Y-51280385D01*
X293139176Y-51279722D01*
X293139178Y-51279722D01*
X293472268Y-51217988D01*
X293472272Y-51217987D01*
X293475833Y-51217327D01*
X293806563Y-51115581D01*
X294123407Y-50976496D01*
X294422165Y-50801916D01*
X294458371Y-50774732D01*
X294695971Y-50596337D01*
X294695975Y-50596334D01*
X294698878Y-50594154D01*
X294949877Y-50355965D01*
X295171836Y-50090505D01*
X295324261Y-49858460D01*
X295359826Y-49804318D01*
X295359831Y-49804309D01*
X295361813Y-49801292D01*
X295502643Y-49521285D01*
X295515663Y-49495398D01*
X295515666Y-49495390D01*
X295517290Y-49492162D01*
X295518535Y-49488760D01*
X295634957Y-49170622D01*
X295634960Y-49170612D01*
X295636205Y-49167210D01*
X295637050Y-49163688D01*
X295637053Y-49163680D01*
X295716137Y-48834272D01*
X295716138Y-48834268D01*
X295716984Y-48830743D01*
X295720446Y-48802133D01*
X295758218Y-48490001D01*
X295758218Y-48489995D01*
X295758554Y-48487222D01*
X295759253Y-48465001D01*
X295764397Y-48301297D01*
X295764485Y-48298500D01*
X295763205Y-48276297D01*
X295744775Y-47956667D01*
X295744774Y-47956662D01*
X295744566Y-47953047D01*
X295739580Y-47924477D01*
X295685698Y-47615745D01*
X295685696Y-47615738D01*
X295685074Y-47612172D01*
X295676638Y-47583690D01*
X295612464Y-47367046D01*
X295586797Y-47280394D01*
X295576134Y-47255394D01*
X295452462Y-46965449D01*
X295452460Y-46965446D01*
X295451038Y-46962111D01*
X295445167Y-46951817D01*
X295281387Y-46664681D01*
X295279596Y-46661541D01*
X295259091Y-46633626D01*
X295130662Y-46458793D01*
X295074743Y-46382668D01*
X295049045Y-46355013D01*
X294841662Y-46131843D01*
X294839195Y-46129188D01*
X294813033Y-46106843D01*
X294578830Y-45906816D01*
X294576074Y-45904462D01*
X294288867Y-45711467D01*
X294244343Y-45688486D01*
X293984602Y-45554423D01*
X293981382Y-45552761D01*
X293657693Y-45430450D01*
X293322090Y-45346152D01*
X293177881Y-45327167D01*
X292982628Y-45301461D01*
X292982620Y-45301460D01*
X292979024Y-45300987D01*
X292827891Y-45298612D01*
X292636680Y-45295608D01*
X292636676Y-45295608D01*
X292633039Y-45295551D01*
X292629424Y-45295912D01*
X292629420Y-45295912D01*
X292461546Y-45312669D01*
X292288723Y-45329919D01*
X292285186Y-45330690D01*
X292285181Y-45330691D01*
X291954183Y-45402860D01*
X291954178Y-45402861D01*
X291950639Y-45403633D01*
X291623267Y-45515717D01*
X291310948Y-45664686D01*
X291307869Y-45666617D01*
X291307868Y-45666618D01*
X291239020Y-45709806D01*
X291017821Y-45848564D01*
X291014987Y-45850834D01*
X291014982Y-45850838D01*
X290845966Y-45986246D01*
X290747771Y-46064915D01*
X290681540Y-46131843D01*
X290529117Y-46285871D01*
X290504377Y-46310871D01*
X290502136Y-46313729D01*
X290312709Y-46555315D01*
X290290866Y-46583172D01*
X290110068Y-46878209D01*
X290108541Y-46881499D01*
X290108536Y-46881508D01*
X289987109Y-47143101D01*
X289964378Y-47192070D01*
X289963238Y-47195517D01*
X289872916Y-47468626D01*
X289855728Y-47520597D01*
X289854992Y-47524152D01*
X289854991Y-47524155D01*
X289831515Y-47637516D01*
X289785558Y-47859435D01*
X289754798Y-48204092D01*
X143385483Y-48204092D01*
X143384251Y-48182723D01*
X143369775Y-47931667D01*
X143369774Y-47931662D01*
X143369566Y-47928047D01*
X143356972Y-47855885D01*
X143310698Y-47590745D01*
X143310696Y-47590738D01*
X143310074Y-47587172D01*
X143305928Y-47573173D01*
X143238779Y-47346484D01*
X143211797Y-47255394D01*
X143190440Y-47205322D01*
X143077462Y-46940449D01*
X143077460Y-46940446D01*
X143076038Y-46937111D01*
X143040675Y-46875112D01*
X142906387Y-46639681D01*
X142904596Y-46636541D01*
X142865393Y-46583172D01*
X142803599Y-46499051D01*
X142699743Y-46357668D01*
X142658913Y-46313729D01*
X142522017Y-46166412D01*
X142464195Y-46104188D01*
X142201074Y-45879462D01*
X141913867Y-45686467D01*
X141606382Y-45527761D01*
X141282693Y-45405450D01*
X140947090Y-45321152D01*
X140793487Y-45300930D01*
X140607628Y-45276461D01*
X140607620Y-45276460D01*
X140604024Y-45275987D01*
X140452891Y-45273612D01*
X140261680Y-45270608D01*
X140261676Y-45270608D01*
X140258039Y-45270551D01*
X140254424Y-45270912D01*
X140254420Y-45270912D01*
X140086546Y-45287669D01*
X139913723Y-45304919D01*
X139910186Y-45305690D01*
X139910181Y-45305691D01*
X139579183Y-45377860D01*
X139579178Y-45377861D01*
X139575639Y-45378633D01*
X139248267Y-45490717D01*
X138935948Y-45639686D01*
X138932869Y-45641617D01*
X138932868Y-45641618D01*
X138893015Y-45666618D01*
X138642821Y-45823564D01*
X138639987Y-45825834D01*
X138639982Y-45825838D01*
X138470966Y-45961246D01*
X138372771Y-46039915D01*
X138129377Y-46285871D01*
X138127136Y-46288729D01*
X137974187Y-46483793D01*
X137915866Y-46558172D01*
X137735068Y-46853209D01*
X137733541Y-46856499D01*
X137733536Y-46856508D01*
X137662378Y-47009806D01*
X137589378Y-47167070D01*
X137588238Y-47170517D01*
X137584549Y-47181673D01*
X137480728Y-47495597D01*
X137479992Y-47499152D01*
X137479991Y-47499155D01*
X137451239Y-47637995D01*
X137410558Y-47834435D01*
X137379798Y-48179092D01*
X-8992400Y-48179092D01*
X-9005225Y-47956667D01*
X-9005226Y-47956662D01*
X-9005434Y-47953047D01*
X-9010420Y-47924477D01*
X-9064302Y-47615745D01*
X-9064304Y-47615738D01*
X-9064926Y-47612172D01*
X-9073362Y-47583690D01*
X-9137536Y-47367046D01*
X-9163203Y-47280394D01*
X-9173866Y-47255394D01*
X-9297538Y-46965449D01*
X-9297540Y-46965446D01*
X-9298962Y-46962111D01*
X-9304833Y-46951817D01*
X-9468613Y-46664681D01*
X-9470404Y-46661541D01*
X-9490909Y-46633626D01*
X-9619338Y-46458793D01*
X-9675257Y-46382668D01*
X-9700955Y-46355013D01*
X-9908338Y-46131843D01*
X-9910805Y-46129188D01*
X-9936967Y-46106843D01*
X-10171170Y-45906816D01*
X-10173926Y-45904462D01*
X-10461133Y-45711467D01*
X-10505657Y-45688486D01*
X-10765398Y-45554423D01*
X-10768618Y-45552761D01*
X-11092307Y-45430450D01*
X-11427910Y-45346152D01*
X-11572119Y-45327167D01*
X-11767372Y-45301461D01*
X-11767380Y-45301460D01*
X-11770976Y-45300987D01*
X-11922109Y-45298612D01*
X-12113320Y-45295608D01*
X-12113324Y-45295608D01*
X-12116961Y-45295551D01*
X-12120576Y-45295912D01*
X-12120580Y-45295912D01*
X-12288454Y-45312669D01*
X-12461277Y-45329919D01*
X-12464814Y-45330690D01*
X-12464819Y-45330691D01*
X-12795817Y-45402860D01*
X-12795822Y-45402861D01*
X-12799361Y-45403633D01*
X-13126733Y-45515717D01*
X-13439052Y-45664686D01*
X-13442131Y-45666617D01*
X-13442132Y-45666618D01*
X-13510980Y-45709806D01*
X-13732179Y-45848564D01*
X-13735013Y-45850834D01*
X-13735018Y-45850838D01*
X-13904034Y-45986246D01*
X-14002229Y-46064915D01*
X-14068460Y-46131843D01*
X-14220883Y-46285871D01*
X-14245623Y-46310871D01*
X-14247864Y-46313729D01*
X-14437291Y-46555315D01*
X-14459134Y-46583172D01*
X-14639932Y-46878209D01*
X-14641459Y-46881499D01*
X-14641464Y-46881508D01*
X-14762891Y-47143101D01*
X-14785622Y-47192070D01*
X-14786762Y-47195517D01*
X-14877084Y-47468626D01*
X-14894272Y-47520597D01*
X-14895008Y-47524152D01*
X-14895009Y-47524155D01*
X-14918485Y-47637516D01*
X-14964442Y-47859435D01*
X-14995202Y-48204092D01*
X-17445982Y-48204092D01*
X-17445982Y-43257480D01*
X8456314Y-43257480D01*
X8456543Y-43260325D01*
X8456543Y-43260328D01*
X8487675Y-43647262D01*
X8489459Y-43669438D01*
X8559805Y-44076697D01*
X8666772Y-44475904D01*
X8667757Y-44478581D01*
X8801235Y-44841360D01*
X8809481Y-44863773D01*
X8810706Y-44866353D01*
X8810709Y-44866360D01*
X8973655Y-45209524D01*
X8986755Y-45237112D01*
X9087069Y-45406734D01*
X9183715Y-45570154D01*
X9197136Y-45592848D01*
X9198798Y-45595152D01*
X9198799Y-45595154D01*
X9419193Y-45900737D01*
X9438893Y-45928052D01*
X9710036Y-46239966D01*
X10008332Y-46526022D01*
X10010550Y-46527792D01*
X10010555Y-46527797D01*
X10252728Y-46721120D01*
X10331326Y-46783864D01*
X10333689Y-46785422D01*
X10333693Y-46785425D01*
X10673984Y-47009806D01*
X10673995Y-47009812D01*
X10676360Y-47011372D01*
X10678868Y-47012717D01*
X10678870Y-47012718D01*
X11013359Y-47192070D01*
X11040593Y-47206673D01*
X11421028Y-47368158D01*
X11423737Y-47369028D01*
X11423743Y-47369030D01*
X11811814Y-47493626D01*
X11811820Y-47493628D01*
X11814534Y-47494499D01*
X11817307Y-47495119D01*
X11817315Y-47495121D01*
X12215087Y-47584033D01*
X12217870Y-47584655D01*
X12627717Y-47637885D01*
X13040702Y-47653750D01*
X13043564Y-47653600D01*
X13043565Y-47653600D01*
X13450569Y-47632270D01*
X13450576Y-47632269D01*
X13453425Y-47632120D01*
X13456248Y-47631713D01*
X13456250Y-47631713D01*
X13859668Y-47573580D01*
X13859675Y-47573579D01*
X13862490Y-47573173D01*
X14264528Y-47477394D01*
X14267226Y-47476486D01*
X14267233Y-47476484D01*
X14653518Y-47346484D01*
X14653524Y-47346482D01*
X14656230Y-47345571D01*
X15034374Y-47178790D01*
X15077399Y-47154941D01*
X15393343Y-46979811D01*
X15393345Y-46979810D01*
X15395845Y-46978424D01*
X15737669Y-46746120D01*
X15768105Y-46721120D01*
X15867250Y-46639681D01*
X16057031Y-46483793D01*
X16059068Y-46481784D01*
X16059076Y-46481777D01*
X16234998Y-46308293D01*
X16351304Y-46193600D01*
X16405736Y-46129188D01*
X16616219Y-45880116D01*
X16616224Y-45880110D01*
X16618065Y-45877931D01*
X16855119Y-45539384D01*
X16870857Y-45511905D01*
X17059091Y-45183229D01*
X17060513Y-45180746D01*
X17215896Y-44841360D01*
X17231368Y-44807565D01*
X17232557Y-44804968D01*
X17233502Y-44802283D01*
X17233507Y-44802272D01*
X17368885Y-44417844D01*
X17369836Y-44415144D01*
X17454776Y-44079465D01*
X17470516Y-44017262D01*
X17470517Y-44017258D01*
X17471219Y-44014483D01*
X17474739Y-43992262D01*
X17529381Y-43647262D01*
X17535872Y-43606281D01*
X17559229Y-43254624D01*
X17560700Y-43232480D01*
X263231314Y-43232480D01*
X263231543Y-43235325D01*
X263231543Y-43235328D01*
X263259378Y-43581281D01*
X263264459Y-43644438D01*
X263334805Y-44051697D01*
X263441772Y-44450904D01*
X263584481Y-44838773D01*
X263585706Y-44841353D01*
X263585709Y-44841360D01*
X263745627Y-45178147D01*
X263761755Y-45212112D01*
X263874563Y-45402860D01*
X263964197Y-45554423D01*
X263972136Y-45567848D01*
X263973798Y-45570152D01*
X263973799Y-45570154D01*
X264177745Y-45852931D01*
X264213893Y-45903052D01*
X264485036Y-46214966D01*
X264783332Y-46501022D01*
X264785550Y-46502792D01*
X264785555Y-46502797D01*
X265056759Y-46719295D01*
X265106326Y-46758864D01*
X265108689Y-46760422D01*
X265108693Y-46760425D01*
X265448984Y-46984806D01*
X265448995Y-46984812D01*
X265451360Y-46986372D01*
X265453868Y-46987717D01*
X265453870Y-46987718D01*
X265812363Y-47179941D01*
X265815593Y-47181673D01*
X266196028Y-47343158D01*
X266198737Y-47344028D01*
X266198743Y-47344030D01*
X266586814Y-47468626D01*
X266586820Y-47468628D01*
X266589534Y-47469499D01*
X266592307Y-47470119D01*
X266592315Y-47470121D01*
X266938545Y-47547512D01*
X266992870Y-47559655D01*
X267402717Y-47612885D01*
X267815702Y-47628750D01*
X267818564Y-47628600D01*
X267818565Y-47628600D01*
X268225569Y-47607270D01*
X268225576Y-47607269D01*
X268228425Y-47607120D01*
X268231248Y-47606713D01*
X268231250Y-47606713D01*
X268634668Y-47548580D01*
X268634675Y-47548579D01*
X268637490Y-47548173D01*
X269039528Y-47452394D01*
X269042226Y-47451486D01*
X269042233Y-47451484D01*
X269428518Y-47321484D01*
X269428524Y-47321482D01*
X269431230Y-47320571D01*
X269809374Y-47153790D01*
X269811871Y-47152406D01*
X270168343Y-46954811D01*
X270168345Y-46954810D01*
X270170845Y-46953424D01*
X270459734Y-46757095D01*
X270510296Y-46722733D01*
X270510300Y-46722730D01*
X270512669Y-46721120D01*
X270832031Y-46458793D01*
X270834068Y-46456784D01*
X270834076Y-46456777D01*
X271051932Y-46241941D01*
X271126304Y-46168600D01*
X271180736Y-46104188D01*
X271391219Y-45855116D01*
X271391224Y-45855110D01*
X271393065Y-45852931D01*
X271630119Y-45514384D01*
X271678189Y-45430450D01*
X271834091Y-45158229D01*
X271835513Y-45155746D01*
X271970418Y-44861088D01*
X272006368Y-44782565D01*
X272007557Y-44779968D01*
X272008502Y-44777283D01*
X272008507Y-44777272D01*
X272143885Y-44392844D01*
X272144836Y-44390144D01*
X272223450Y-44079465D01*
X272245516Y-43992262D01*
X272245517Y-43992258D01*
X272246219Y-43989483D01*
X272310872Y-43581281D01*
X272318914Y-43460207D01*
X272338146Y-43170650D01*
X272338146Y-43170642D01*
X272338262Y-43168900D01*
X272339261Y-43073500D01*
X272320513Y-42660636D01*
X272264423Y-42251170D01*
X272212749Y-42027343D01*
X272172097Y-41851262D01*
X272172096Y-41851260D01*
X272171453Y-41848473D01*
X272042368Y-41455860D01*
X272041237Y-41453246D01*
X272041233Y-41453236D01*
X271941744Y-41223331D01*
X271878231Y-41076561D01*
X271695393Y-40741212D01*
X271681763Y-40716212D01*
X271681759Y-40716205D01*
X271680393Y-40713700D01*
X271553983Y-40524871D01*
X271452074Y-40372640D01*
X271452066Y-40372629D01*
X271450482Y-40370263D01*
X271190390Y-40049076D01*
X270926571Y-39777785D01*
X270904249Y-39754831D01*
X270904245Y-39754827D01*
X270902259Y-39752785D01*
X270900101Y-39750935D01*
X270900091Y-39750926D01*
X270590634Y-39485690D01*
X270590629Y-39485686D01*
X270588460Y-39483827D01*
X270586129Y-39482170D01*
X270586122Y-39482165D01*
X270253912Y-39246076D01*
X270253910Y-39246075D01*
X270251576Y-39244416D01*
X270022931Y-39111341D01*
X269896837Y-39037952D01*
X269896830Y-39037948D01*
X269894381Y-39036523D01*
X269814497Y-38999273D01*
X269522409Y-38863069D01*
X269522399Y-38863065D01*
X269519813Y-38861859D01*
X269517116Y-38860888D01*
X269133647Y-38722830D01*
X269133638Y-38722827D01*
X269130957Y-38721862D01*
X268826990Y-38642685D01*
X268733782Y-38618406D01*
X268733776Y-38618405D01*
X268731013Y-38617685D01*
X268323273Y-38550184D01*
X268320430Y-38549975D01*
X268320428Y-38549975D01*
X267913939Y-38520124D01*
X267911093Y-38519915D01*
X267740060Y-38522900D01*
X267500718Y-38527078D01*
X267500713Y-38527078D01*
X267497867Y-38527128D01*
X267495034Y-38527436D01*
X267495030Y-38527436D01*
X267264902Y-38552436D01*
X267086994Y-38571763D01*
X266681858Y-38653453D01*
X266679125Y-38654268D01*
X266679120Y-38654269D01*
X266597997Y-38678453D01*
X266285794Y-38771525D01*
X266283133Y-38772589D01*
X266283131Y-38772590D01*
X265999865Y-38885888D01*
X265902060Y-38925007D01*
X265731472Y-39011926D01*
X265536359Y-39111341D01*
X265536354Y-39111344D01*
X265533816Y-39112637D01*
X265531398Y-39114160D01*
X265531394Y-39114162D01*
X265491695Y-39139162D01*
X265184094Y-39332869D01*
X264855770Y-39583891D01*
X264551549Y-39863637D01*
X264273934Y-40169804D01*
X264025210Y-40499871D01*
X263807425Y-40851123D01*
X263806145Y-40853679D01*
X263806140Y-40853688D01*
X263695791Y-41074051D01*
X263622371Y-41220668D01*
X263621330Y-41223324D01*
X263621327Y-41223331D01*
X263519336Y-41483582D01*
X263471571Y-41605463D01*
X263470779Y-41608190D01*
X263470775Y-41608201D01*
X263463512Y-41633201D01*
X263356267Y-42002343D01*
X263277407Y-42408039D01*
X263235642Y-42819213D01*
X263231314Y-43232480D01*
X17560700Y-43232480D01*
X17563146Y-43195650D01*
X17563146Y-43195642D01*
X17563262Y-43193900D01*
X17564261Y-43098500D01*
X17545513Y-42685636D01*
X17542089Y-42660636D01*
X17489810Y-42278997D01*
X17489423Y-42276170D01*
X17396453Y-41873473D01*
X17389151Y-41851262D01*
X17268263Y-41483582D01*
X17268263Y-41483581D01*
X17267368Y-41480860D01*
X17266237Y-41478246D01*
X17266233Y-41478236D01*
X17166744Y-41248331D01*
X17103231Y-41101561D01*
X16978991Y-40873689D01*
X16906763Y-40741212D01*
X16906759Y-40741205D01*
X16905393Y-40738700D01*
X16762247Y-40524871D01*
X16677074Y-40397640D01*
X16677066Y-40397629D01*
X16675482Y-40395263D01*
X16415390Y-40074076D01*
X16389082Y-40047022D01*
X16129249Y-39779831D01*
X16129245Y-39779827D01*
X16127259Y-39777785D01*
X16125101Y-39775935D01*
X16125091Y-39775926D01*
X15815634Y-39510690D01*
X15815629Y-39510686D01*
X15813460Y-39508827D01*
X15811129Y-39507170D01*
X15811122Y-39507165D01*
X15478912Y-39271076D01*
X15478910Y-39271075D01*
X15476576Y-39269416D01*
X15209824Y-39114162D01*
X15121837Y-39062952D01*
X15121830Y-39062948D01*
X15119381Y-39061523D01*
X14883018Y-38951305D01*
X14747409Y-38888069D01*
X14747399Y-38888065D01*
X14744813Y-38886859D01*
X14672676Y-38860888D01*
X14358647Y-38747830D01*
X14358638Y-38747827D01*
X14355957Y-38746862D01*
X14091156Y-38677887D01*
X13958782Y-38643406D01*
X13958776Y-38643405D01*
X13956013Y-38642685D01*
X13548273Y-38575184D01*
X13545430Y-38574975D01*
X13545428Y-38574975D01*
X13138939Y-38545124D01*
X13136093Y-38544915D01*
X12965060Y-38547900D01*
X12725718Y-38552078D01*
X12725713Y-38552078D01*
X12722867Y-38552128D01*
X12720034Y-38552436D01*
X12720030Y-38552436D01*
X12387662Y-38588543D01*
X12311994Y-38596763D01*
X11906858Y-38678453D01*
X11904125Y-38679268D01*
X11904120Y-38679269D01*
X11679803Y-38746141D01*
X11510794Y-38796525D01*
X11508133Y-38797589D01*
X11508131Y-38797590D01*
X11192225Y-38923943D01*
X11127060Y-38950007D01*
X11124513Y-38951305D01*
X10761359Y-39136341D01*
X10761354Y-39136344D01*
X10758816Y-39137637D01*
X10409094Y-39357869D01*
X10080770Y-39608891D01*
X9776549Y-39888637D01*
X9498934Y-40194804D01*
X9497210Y-40197092D01*
X9497209Y-40197093D01*
X9364925Y-40372640D01*
X9250210Y-40524871D01*
X9032425Y-40876123D01*
X9031145Y-40878679D01*
X9031140Y-40878688D01*
X8933310Y-41074051D01*
X8847371Y-41245668D01*
X8846330Y-41248324D01*
X8846327Y-41248331D01*
X8706368Y-41605463D01*
X8696571Y-41630463D01*
X8695779Y-41633190D01*
X8695775Y-41633201D01*
X8634026Y-41845744D01*
X8581267Y-42027343D01*
X8502407Y-42433039D01*
X8460642Y-42844213D01*
X8456314Y-43257480D01*
X-17445982Y-43257480D01*
X-17445982Y-27004092D01*
X-14995202Y-27004092D01*
X-14995107Y-27007722D01*
X-14995107Y-27007723D01*
X-14993311Y-27076297D01*
X-14986144Y-27350001D01*
X-14937388Y-27692576D01*
X-14849581Y-28027277D01*
X-14723886Y-28349667D01*
X-14722189Y-28352872D01*
X-14602292Y-28579318D01*
X-14561970Y-28655474D01*
X-14559920Y-28658457D01*
X-14559918Y-28658460D01*
X-14368035Y-28937652D01*
X-14368029Y-28937659D01*
X-14365978Y-28940644D01*
X-14138508Y-29201398D01*
X-13882576Y-29434278D01*
X-13601573Y-29636199D01*
X-13299224Y-29804485D01*
X-12979537Y-29936903D01*
X-12976043Y-29937898D01*
X-12976041Y-29937899D01*
X-12650249Y-30030704D01*
X-12650244Y-30030705D01*
X-12646748Y-30031701D01*
X-12411066Y-30070295D01*
X-12308849Y-30087034D01*
X-12308845Y-30087034D01*
X-12305269Y-30087620D01*
X-12301643Y-30087791D01*
X-11963253Y-30103749D01*
X-11963252Y-30103749D01*
X-11959626Y-30103920D01*
X-11948754Y-30103179D01*
X-11618031Y-30080633D01*
X-11618023Y-30080632D01*
X-11614400Y-30080385D01*
X-11610824Y-30079722D01*
X-11610822Y-30079722D01*
X-11277732Y-30017988D01*
X-11277728Y-30017987D01*
X-11274167Y-30017327D01*
X-10943437Y-29915581D01*
X-10626593Y-29776496D01*
X-10327835Y-29601916D01*
X-10291629Y-29574732D01*
X-10054029Y-29396337D01*
X-10054025Y-29396334D01*
X-10051122Y-29394154D01*
X-9800123Y-29155965D01*
X-9578164Y-28890505D01*
X-9425739Y-28658460D01*
X-9390174Y-28604318D01*
X-9390169Y-28604309D01*
X-9388187Y-28601292D01*
X-9247357Y-28321285D01*
X-9234337Y-28295398D01*
X-9234334Y-28295390D01*
X-9232710Y-28292162D01*
X-9231465Y-28288760D01*
X-9115043Y-27970622D01*
X-9115040Y-27970612D01*
X-9113795Y-27967210D01*
X-9112950Y-27963688D01*
X-9112947Y-27963680D01*
X-9033863Y-27634272D01*
X-9033862Y-27634268D01*
X-9033016Y-27630743D01*
X-9029554Y-27602133D01*
X-8991782Y-27290001D01*
X-8991782Y-27289995D01*
X-8991446Y-27287222D01*
X-8990747Y-27265001D01*
X-8985603Y-27101297D01*
X-8985515Y-27098500D01*
X-8986795Y-27076297D01*
X-8992400Y-26979092D01*
X137379798Y-26979092D01*
X137388856Y-27325001D01*
X137437612Y-27667576D01*
X137525419Y-28002277D01*
X137651114Y-28324667D01*
X137652811Y-28327872D01*
X137795866Y-28598056D01*
X137813030Y-28630474D01*
X137815080Y-28633457D01*
X137815082Y-28633460D01*
X138006965Y-28912652D01*
X138006971Y-28912659D01*
X138009022Y-28915644D01*
X138011410Y-28918381D01*
X138220852Y-29158469D01*
X138236492Y-29176398D01*
X138492424Y-29409278D01*
X138773427Y-29611199D01*
X139075776Y-29779485D01*
X139395463Y-29911903D01*
X139398957Y-29912898D01*
X139398959Y-29912899D01*
X139724751Y-30005704D01*
X139724756Y-30005705D01*
X139728252Y-30006701D01*
X139963934Y-30045295D01*
X140066151Y-30062034D01*
X140066155Y-30062034D01*
X140069731Y-30062620D01*
X140073357Y-30062791D01*
X140411747Y-30078749D01*
X140411748Y-30078749D01*
X140415374Y-30078920D01*
X140426246Y-30078179D01*
X140756969Y-30055633D01*
X140756977Y-30055632D01*
X140760600Y-30055385D01*
X140764176Y-30054722D01*
X140764178Y-30054722D01*
X141097268Y-29992988D01*
X141097272Y-29992987D01*
X141100833Y-29992327D01*
X141431563Y-29890581D01*
X141688667Y-29777720D01*
X141745072Y-29752960D01*
X141748407Y-29751496D01*
X141992125Y-29609079D01*
X142044025Y-29578751D01*
X142044027Y-29578750D01*
X142047165Y-29576916D01*
X142050074Y-29574732D01*
X142320971Y-29371337D01*
X142320975Y-29371334D01*
X142323878Y-29369154D01*
X142574877Y-29130965D01*
X142796836Y-28865505D01*
X142932839Y-28658460D01*
X142984826Y-28579318D01*
X142984831Y-28579309D01*
X142986813Y-28576292D01*
X143128089Y-28295398D01*
X143140663Y-28270398D01*
X143140666Y-28270390D01*
X143142290Y-28267162D01*
X143143535Y-28263760D01*
X143259957Y-27945622D01*
X143259960Y-27945612D01*
X143261205Y-27942210D01*
X143262050Y-27938688D01*
X143262053Y-27938680D01*
X143341137Y-27609272D01*
X143341138Y-27609268D01*
X143341984Y-27605743D01*
X143372932Y-27350001D01*
X143383218Y-27265001D01*
X143383218Y-27264995D01*
X143383554Y-27262222D01*
X143389485Y-27073500D01*
X143384251Y-26982723D01*
X143384042Y-26979092D01*
X289779798Y-26979092D01*
X289788856Y-27325001D01*
X289837612Y-27667576D01*
X289925419Y-28002277D01*
X290051114Y-28324667D01*
X290052811Y-28327872D01*
X290195866Y-28598056D01*
X290213030Y-28630474D01*
X290215080Y-28633457D01*
X290215082Y-28633460D01*
X290406965Y-28912652D01*
X290406971Y-28912659D01*
X290409022Y-28915644D01*
X290411410Y-28918381D01*
X290620852Y-29158469D01*
X290636492Y-29176398D01*
X290892424Y-29409278D01*
X291173427Y-29611199D01*
X291475776Y-29779485D01*
X291795463Y-29911903D01*
X291798957Y-29912898D01*
X291798959Y-29912899D01*
X292124751Y-30005704D01*
X292124756Y-30005705D01*
X292128252Y-30006701D01*
X292363934Y-30045295D01*
X292466151Y-30062034D01*
X292466155Y-30062034D01*
X292469731Y-30062620D01*
X292473357Y-30062791D01*
X292811747Y-30078749D01*
X292811748Y-30078749D01*
X292815374Y-30078920D01*
X292826246Y-30078179D01*
X293156969Y-30055633D01*
X293156977Y-30055632D01*
X293160600Y-30055385D01*
X293164176Y-30054722D01*
X293164178Y-30054722D01*
X293497268Y-29992988D01*
X293497272Y-29992987D01*
X293500833Y-29992327D01*
X293831563Y-29890581D01*
X294088667Y-29777720D01*
X294145072Y-29752960D01*
X294148407Y-29751496D01*
X294392125Y-29609079D01*
X294444025Y-29578751D01*
X294444027Y-29578750D01*
X294447165Y-29576916D01*
X294450074Y-29574732D01*
X294720971Y-29371337D01*
X294720975Y-29371334D01*
X294723878Y-29369154D01*
X294974877Y-29130965D01*
X295196836Y-28865505D01*
X295332839Y-28658460D01*
X295384826Y-28579318D01*
X295384831Y-28579309D01*
X295386813Y-28576292D01*
X295528089Y-28295398D01*
X295540663Y-28270398D01*
X295540666Y-28270390D01*
X295542290Y-28267162D01*
X295543535Y-28263760D01*
X295659957Y-27945622D01*
X295659960Y-27945612D01*
X295661205Y-27942210D01*
X295662050Y-27938688D01*
X295662053Y-27938680D01*
X295741137Y-27609272D01*
X295741138Y-27609268D01*
X295741984Y-27605743D01*
X295772932Y-27350001D01*
X295783218Y-27265001D01*
X295783218Y-27264995D01*
X295783554Y-27262222D01*
X295789485Y-27073500D01*
X295784251Y-26982723D01*
X295769775Y-26731667D01*
X295769774Y-26731662D01*
X295769566Y-26728047D01*
X295756972Y-26655885D01*
X295710698Y-26390745D01*
X295710696Y-26390738D01*
X295710074Y-26387172D01*
X295611797Y-26055394D01*
X295610373Y-26052055D01*
X295477462Y-25740449D01*
X295477460Y-25740446D01*
X295476038Y-25737111D01*
X295440675Y-25675112D01*
X295306387Y-25439681D01*
X295304596Y-25436541D01*
X295265393Y-25383172D01*
X295228594Y-25333078D01*
X295099743Y-25157668D01*
X295058913Y-25113729D01*
X294981969Y-25030928D01*
X294864195Y-24904188D01*
X294601074Y-24679462D01*
X294313867Y-24486467D01*
X294006382Y-24327761D01*
X293682693Y-24205450D01*
X293347090Y-24121152D01*
X293191991Y-24100733D01*
X293007628Y-24076461D01*
X293007620Y-24076460D01*
X293004024Y-24075987D01*
X292852891Y-24073612D01*
X292661680Y-24070608D01*
X292661676Y-24070608D01*
X292658039Y-24070551D01*
X292654424Y-24070912D01*
X292654420Y-24070912D01*
X292486546Y-24087669D01*
X292313723Y-24104919D01*
X292310186Y-24105690D01*
X292310181Y-24105691D01*
X291979183Y-24177860D01*
X291979178Y-24177861D01*
X291975639Y-24178633D01*
X291648267Y-24290717D01*
X291335948Y-24439686D01*
X291332869Y-24441617D01*
X291332868Y-24441618D01*
X291293015Y-24466618D01*
X291042821Y-24623564D01*
X291039987Y-24625834D01*
X291039982Y-24625838D01*
X290870966Y-24761246D01*
X290772771Y-24839915D01*
X290529377Y-25085871D01*
X290527136Y-25088729D01*
X290451191Y-25185586D01*
X290315866Y-25358172D01*
X290135068Y-25653209D01*
X290133541Y-25656499D01*
X290133536Y-25656508D01*
X290012109Y-25918101D01*
X289989378Y-25967070D01*
X289880728Y-26295597D01*
X289879992Y-26299152D01*
X289879991Y-26299155D01*
X289811293Y-26630885D01*
X289810558Y-26634435D01*
X289779798Y-26979092D01*
X143384042Y-26979092D01*
X143369775Y-26731667D01*
X143369774Y-26731662D01*
X143369566Y-26728047D01*
X143356972Y-26655885D01*
X143310698Y-26390745D01*
X143310696Y-26390738D01*
X143310074Y-26387172D01*
X143211797Y-26055394D01*
X143210373Y-26052055D01*
X143077462Y-25740449D01*
X143077460Y-25740446D01*
X143076038Y-25737111D01*
X143040675Y-25675112D01*
X142906387Y-25439681D01*
X142904596Y-25436541D01*
X142865393Y-25383172D01*
X142828594Y-25333078D01*
X142699743Y-25157668D01*
X142658913Y-25113729D01*
X142581969Y-25030928D01*
X142464195Y-24904188D01*
X142201074Y-24679462D01*
X141913867Y-24486467D01*
X141606382Y-24327761D01*
X141282693Y-24205450D01*
X140947090Y-24121152D01*
X140791991Y-24100733D01*
X140607628Y-24076461D01*
X140607620Y-24076460D01*
X140604024Y-24075987D01*
X140452891Y-24073612D01*
X140261680Y-24070608D01*
X140261676Y-24070608D01*
X140258039Y-24070551D01*
X140254424Y-24070912D01*
X140254420Y-24070912D01*
X140086546Y-24087669D01*
X139913723Y-24104919D01*
X139910186Y-24105690D01*
X139910181Y-24105691D01*
X139579183Y-24177860D01*
X139579178Y-24177861D01*
X139575639Y-24178633D01*
X139248267Y-24290717D01*
X138935948Y-24439686D01*
X138932869Y-24441617D01*
X138932868Y-24441618D01*
X138893015Y-24466618D01*
X138642821Y-24623564D01*
X138639987Y-24625834D01*
X138639982Y-24625838D01*
X138470966Y-24761246D01*
X138372771Y-24839915D01*
X138129377Y-25085871D01*
X138127136Y-25088729D01*
X138051191Y-25185586D01*
X137915866Y-25358172D01*
X137735068Y-25653209D01*
X137733541Y-25656499D01*
X137733536Y-25656508D01*
X137612109Y-25918101D01*
X137589378Y-25967070D01*
X137480728Y-26295597D01*
X137479992Y-26299152D01*
X137479991Y-26299155D01*
X137411293Y-26630885D01*
X137410558Y-26634435D01*
X137379798Y-26979092D01*
X-8992400Y-26979092D01*
X-9005225Y-26756667D01*
X-9005226Y-26756662D01*
X-9005434Y-26753047D01*
X-9010420Y-26724477D01*
X-9064302Y-26415745D01*
X-9064304Y-26415738D01*
X-9064926Y-26412172D01*
X-9073362Y-26383690D01*
X-9105286Y-26275918D01*
X-9163203Y-26080394D01*
X-9173866Y-26055394D01*
X-9297538Y-25765449D01*
X-9297540Y-25765446D01*
X-9298962Y-25762111D01*
X-9313221Y-25737111D01*
X-9468613Y-25464681D01*
X-9470404Y-25461541D01*
X-9490909Y-25433626D01*
X-9673114Y-25185586D01*
X-9675257Y-25182668D01*
X-9700955Y-25155013D01*
X-9908338Y-24931843D01*
X-9910805Y-24929188D01*
X-9936967Y-24906843D01*
X-10171170Y-24706816D01*
X-10173926Y-24704462D01*
X-10461133Y-24511467D01*
X-10505657Y-24488486D01*
X-10765398Y-24354423D01*
X-10768618Y-24352761D01*
X-11092307Y-24230450D01*
X-11427910Y-24146152D01*
X-11572119Y-24127167D01*
X-11767372Y-24101461D01*
X-11767380Y-24101460D01*
X-11770976Y-24100987D01*
X-11922109Y-24098612D01*
X-12113320Y-24095608D01*
X-12113324Y-24095608D01*
X-12116961Y-24095551D01*
X-12120576Y-24095912D01*
X-12120580Y-24095912D01*
X-12260757Y-24109904D01*
X-12461277Y-24129919D01*
X-12464814Y-24130690D01*
X-12464819Y-24130691D01*
X-12795817Y-24202860D01*
X-12795822Y-24202861D01*
X-12799361Y-24203633D01*
X-13126733Y-24315717D01*
X-13439052Y-24464686D01*
X-13442131Y-24466617D01*
X-13442132Y-24466618D01*
X-13510980Y-24509806D01*
X-13732179Y-24648564D01*
X-13735013Y-24650834D01*
X-13735018Y-24650838D01*
X-13904034Y-24786246D01*
X-14002229Y-24864915D01*
X-14068460Y-24931843D01*
X-14220883Y-25085871D01*
X-14245623Y-25110871D01*
X-14247864Y-25113729D01*
X-14437291Y-25355315D01*
X-14459134Y-25383172D01*
X-14639932Y-25678209D01*
X-14641459Y-25681499D01*
X-14641464Y-25681508D01*
X-14680428Y-25765449D01*
X-14785622Y-25992070D01*
X-14894272Y-26320597D01*
X-14964442Y-26659435D01*
X-14995202Y-27004092D01*
X-17445982Y-27004092D01*
X-17445982Y-24703947D01*
X-17444989Y-24688156D01*
X-17441879Y-24663534D01*
X-17440996Y-24656547D01*
X-17441683Y-24649540D01*
X-17441683Y-24649534D01*
X-17443166Y-24634409D01*
X-17443379Y-24612230D01*
X-17431992Y-24467541D01*
X-17428899Y-24448013D01*
X-17389588Y-24284273D01*
X-17383478Y-24265470D01*
X-17347510Y-24178633D01*
X-17319040Y-24109900D01*
X-17310065Y-24092286D01*
X-17222076Y-23948702D01*
X-17210461Y-23932714D01*
X-17101092Y-23804660D01*
X-17087117Y-23790685D01*
X-17087110Y-23790679D01*
X-16959068Y-23681321D01*
X-16943080Y-23669706D01*
X-16799496Y-23581717D01*
X-16781882Y-23572742D01*
X-16626312Y-23508304D01*
X-16607509Y-23502194D01*
X-16443768Y-23462883D01*
X-16424240Y-23459790D01*
X-16290598Y-23449272D01*
X-16264924Y-23449877D01*
X-16257729Y-23450786D01*
X-16213008Y-23446401D01*
X-16200712Y-23445800D01*
X296970232Y-23445800D01*
X296986020Y-23446793D01*
G37*
G04 #@! TD.AperFunction*
M02*
