G04 #@! TF.GenerationSoftware,KiCad,Pcbnew,(5.1.7)-1*
G04 #@! TF.CreationDate,2020-12-07T01:10:59-05:00*
G04 #@! TF.ProjectId,lckplate,6c636b70-6c61-4746-952e-6b696361645f,rev?*
G04 #@! TF.SameCoordinates,Original*
G04 #@! TF.FileFunction,Profile,NP*
%FSLAX46Y46*%
G04 Gerber Fmt 4.6, Leading zero omitted, Abs format (unit mm)*
G04 Created by KiCad (PCBNEW (5.1.7)-1) date 2020-12-07 01:10:59*
%MOMM*%
%LPD*%
G01*
G04 APERTURE LIST*
G04 #@! TA.AperFunction,Profile*
%ADD10C,0.200000*%
G04 #@! TD*
G04 APERTURE END LIST*
D10*
X-4480183Y-141909163D02*
X308795167Y-141909163D01*
X7930561Y-115877773D02*
G75*
G02*
X7516500Y-116097500I-414061J280273D01*
G01*
X100093317Y-127823483D02*
G75*
G02*
X100371165Y-127739176I277848J-415693D01*
G01*
X32867956Y-114205339D02*
X31751955Y-115875313D01*
X57351638Y-118830596D02*
X57809545Y-117730196D01*
X47540000Y-119638500D02*
G75*
G02*
X48040000Y-119138500I500000J0D01*
G01*
X57809545Y-117730196D02*
G75*
G02*
X58271172Y-117422292I461627J-192096D01*
G01*
X91410361Y-124523517D02*
G75*
G02*
X91132513Y-124607824I-277848J415693D01*
G01*
X172730157Y-133147280D02*
G75*
G02*
X172230157Y-132647280I0J500000D01*
G01*
X48040000Y-133138500D02*
G75*
G02*
X47540000Y-132638500I0J500000D01*
G01*
X253199911Y-58727673D02*
G75*
G02*
X252785850Y-58947400I-414061J280273D01*
G01*
X58157500Y-133138500D02*
X58157500Y-133173500D01*
X65157500Y-132673500D02*
G75*
G02*
X64657500Y-133173500I-500000J0D01*
G01*
X23504546Y-114097200D02*
G75*
G02*
X23820802Y-114252288I0J-400000D01*
G01*
X58157500Y-133173500D02*
X64657500Y-133173500D01*
X32951700Y-100498000D02*
X32951700Y-113960427D01*
X100371165Y-124607824D02*
G75*
G02*
X100093317Y-124523517I0J500000D01*
G01*
X83220877Y-127739176D02*
G75*
G02*
X82720877Y-127239176I0J500000D01*
G01*
X136587780Y-124607824D02*
X147981003Y-124607824D01*
X148258851Y-124523517D02*
G75*
G02*
X156941807Y-124523517I4341478J-6495363D01*
G01*
X157219655Y-127739176D02*
X168612878Y-127739176D01*
X72754820Y-133147280D02*
G75*
G02*
X72254820Y-132647280I0J500000D01*
G01*
X72254820Y-117922292D02*
G75*
G02*
X72754820Y-117422292I500000J0D01*
G01*
X136587780Y-127739176D02*
G75*
G02*
X136087780Y-127239176I0J500000D01*
G01*
X136087780Y-127239176D02*
X136087780Y-125107824D01*
X157219655Y-124607824D02*
G75*
G02*
X156941807Y-124523517I0J500000D01*
G01*
X169112878Y-127239176D02*
X169112878Y-125107824D01*
X-16321Y-114205339D02*
X1100911Y-115875503D01*
X65157500Y-132673500D02*
X65157500Y-117922292D01*
X56890011Y-119138500D02*
X48040000Y-119138500D01*
X179171515Y-117422292D02*
G75*
G02*
X179671515Y-117922292I0J-500000D01*
G01*
X169112878Y-127239176D02*
G75*
G02*
X168612878Y-127739176I-500000J0D01*
G01*
X25336500Y-116097500D02*
G75*
G02*
X24922600Y-115878012I0J500000D01*
G01*
X108782801Y-127239176D02*
G75*
G02*
X108282801Y-127739176I-500000J0D01*
G01*
X32951700Y-113960427D02*
G75*
G02*
X32867956Y-114205339I-400000J0D01*
G01*
X64657500Y-117422292D02*
G75*
G02*
X65157500Y-117922292I0J-500000D01*
G01*
X147981003Y-127739176D02*
X136587780Y-127739176D01*
X136087780Y-125107824D02*
G75*
G02*
X136587780Y-124607824I500000J0D01*
G01*
X156941807Y-127823483D02*
G75*
G02*
X157219655Y-127739176I277848J-415693D01*
G01*
X246785850Y-58947400D02*
X252785850Y-58947400D01*
X9030833Y-114252288D02*
X7930562Y-115877773D01*
X-16321Y-114205339D02*
G75*
G02*
X-100065Y-113960427I316256J244912D01*
G01*
X147981002Y-127739176D02*
G75*
G02*
X148258850Y-127823483I1J-500000D01*
G01*
X156941807Y-127823484D02*
G75*
G02*
X148258850Y-127823483I-4341478J6495364D01*
G01*
X1516501Y-116097500D02*
G75*
G02*
X1100911Y-115875503I-1J500000D01*
G01*
X57351638Y-118830596D02*
G75*
G02*
X56890011Y-119138500I-461627J192096D01*
G01*
X31751954Y-115875313D02*
G75*
G02*
X31336238Y-116097500I-415716J277813D01*
G01*
X172230157Y-117922292D02*
G75*
G02*
X172730157Y-117422292I500000J0D01*
G01*
X168612878Y-124607824D02*
X157219655Y-124607824D01*
X48040000Y-133138500D02*
X58157500Y-133138500D01*
X82720877Y-125107824D02*
G75*
G02*
X83220877Y-124607824I500000J0D01*
G01*
X79696178Y-132647280D02*
G75*
G02*
X79196178Y-133147280I-500000J0D01*
G01*
X179671515Y-132647280D02*
G75*
G02*
X179171515Y-133147280I-500000J0D01*
G01*
X47540000Y-119638500D02*
X47540000Y-132638500D01*
X79196178Y-117422292D02*
G75*
G02*
X79696178Y-117922292I0J-500000D01*
G01*
X9030833Y-114252288D02*
G75*
G02*
X9347089Y-114097200I316256J-244912D01*
G01*
X270605850Y-58947400D02*
X276605588Y-58947400D01*
X148258851Y-124523517D02*
G75*
G02*
X147981003Y-124607824I-277848J415693D01*
G01*
X168612878Y-124607824D02*
G75*
G02*
X169112878Y-125107824I0J-500000D01*
G01*
X32551700Y-100098000D02*
G75*
G02*
X32951700Y-100498000I0J-400000D01*
G01*
X91132513Y-127739176D02*
G75*
G02*
X91410361Y-127823483I0J-500000D01*
G01*
X108282801Y-124607824D02*
G75*
G02*
X108782801Y-125107824I0J-500000D01*
G01*
X299935Y-100098000D02*
X32551700Y-100098000D01*
X254616439Y-56947100D02*
X268773896Y-56947100D01*
X244404300Y-97047400D02*
X250404300Y-97047400D01*
X16283000Y-75497900D02*
G75*
G02*
X15783000Y-75997900I-500000J0D01*
G01*
X268224300Y-97047400D02*
G75*
G02*
X267810400Y-96827912I0J500000D01*
G01*
X268224300Y-97047400D02*
X274224038Y-97047400D01*
X82958100Y-94547500D02*
G75*
G02*
X82458100Y-95047500I-500000J0D01*
G01*
X242871479Y-95155239D02*
G75*
G02*
X242787735Y-94910327I316256J244912D01*
G01*
X25336500Y-116097500D02*
X31336238Y-116097500D01*
X21828428Y-81461365D02*
G75*
G02*
X22228428Y-81061365I400000J0D01*
G01*
X26614065Y-94660565D02*
G75*
G02*
X26214065Y-95060565I-400000J0D01*
G01*
X2283000Y-62497900D02*
G75*
G02*
X2783000Y-61997900I500000J0D01*
G01*
X275755756Y-95155239D02*
X274639755Y-96825213D01*
X251918633Y-95202188D02*
X250818362Y-96827673D01*
X245253029Y-57055239D02*
G75*
G02*
X245169285Y-56810327I316256J244912D01*
G01*
X2783000Y-75997900D02*
X15783000Y-75997900D01*
X278221050Y-43347900D02*
X278221050Y-56810327D01*
X255206857Y-100511465D02*
G75*
G02*
X255606857Y-100111465I400000J0D01*
G01*
X244404301Y-97047400D02*
G75*
G02*
X243988711Y-96825403I-1J500000D01*
G01*
X255606857Y-114110665D02*
G75*
G02*
X255206857Y-113710665I0J400000D01*
G01*
X254300183Y-57102188D02*
X253199912Y-58727673D01*
X278221050Y-56810327D02*
G75*
G02*
X278137306Y-57055239I-400000J0D01*
G01*
X242787735Y-81447900D02*
G75*
G02*
X243187735Y-81047900I400000J0D01*
G01*
X26614065Y-94660565D02*
X26614065Y-81461365D01*
X15783000Y-61997900D02*
X2783000Y-61997900D01*
X16283000Y-75497900D02*
X16283000Y-62497900D01*
X246785851Y-58947400D02*
G75*
G02*
X246370261Y-58725403I-1J500000D01*
G01*
X266708602Y-95202188D02*
X267810400Y-96827912D01*
X275839500Y-94910327D02*
G75*
G02*
X275755756Y-95155239I-400000J0D01*
G01*
X251918633Y-95202188D02*
G75*
G02*
X252234889Y-95047100I316256J-244912D01*
G01*
X69458100Y-95047500D02*
X82458100Y-95047500D01*
X26214065Y-81061365D02*
X22228428Y-81061365D01*
X275439500Y-81047900D02*
G75*
G02*
X275839500Y-81447900I0J-400000D01*
G01*
X259419949Y-113710665D02*
G75*
G02*
X259019949Y-114110665I-400000J0D01*
G01*
X1516500Y-116097500D02*
X7516500Y-116097500D01*
X269090152Y-57102188D02*
X270191950Y-58727912D01*
X245169285Y-56810327D02*
X245169285Y-43347900D01*
X277021304Y-58725213D02*
G75*
G02*
X276605588Y-58947400I-415716J277813D01*
G01*
X278137306Y-57055239D02*
X277021305Y-58725213D01*
X250818361Y-96827673D02*
G75*
G02*
X250404300Y-97047400I-414061J280273D01*
G01*
X242871479Y-95155239D02*
X243988711Y-96825403D01*
X252234889Y-95047100D02*
X266392346Y-95047100D01*
X2783000Y-75997900D02*
G75*
G02*
X2283000Y-75497900I0J500000D01*
G01*
X259019949Y-100111465D02*
X255606857Y-100111465D01*
X82958100Y-94547500D02*
X82958100Y-81547500D01*
X243187735Y-81047900D02*
X275439500Y-81047900D01*
X242787735Y-94910327D02*
X242787735Y-81447900D01*
X274639754Y-96825213D02*
G75*
G02*
X274224038Y-97047400I-415716J277813D01*
G01*
X266392346Y-95047100D02*
G75*
G02*
X266708602Y-95202188I0J-400000D01*
G01*
X259419949Y-113710665D02*
X259419949Y-100511465D01*
X255606857Y-114110665D02*
X259019949Y-114110665D01*
X15783000Y-61997900D02*
G75*
G02*
X16283000Y-62497900I0J-500000D01*
G01*
X2283000Y-62497900D02*
X2283000Y-75497900D01*
X22228428Y-95060565D02*
X26214065Y-95060565D01*
X82458100Y-81047500D02*
G75*
G02*
X82958100Y-81547500I0J-500000D01*
G01*
X26214065Y-81061365D02*
G75*
G02*
X26614065Y-81461365I0J-400000D01*
G01*
X270605850Y-58947400D02*
G75*
G02*
X270191950Y-58727912I0J500000D01*
G01*
X255206857Y-100511465D02*
X255206857Y-113710665D01*
X21828428Y-81461365D02*
X21828428Y-94660565D01*
X245253029Y-57055239D02*
X246370261Y-58725403D01*
X268773896Y-56947100D02*
G75*
G02*
X269090152Y-57102188I0J-400000D01*
G01*
X259019949Y-100111465D02*
G75*
G02*
X259419949Y-100511465I0J-400000D01*
G01*
X22228428Y-95060565D02*
G75*
G02*
X21828428Y-94660565I0J400000D01*
G01*
X275839500Y-81447900D02*
X275839500Y-94910327D01*
X254300183Y-57102188D02*
G75*
G02*
X254616439Y-56947100I316256J-244912D01*
G01*
X149633500Y-113597500D02*
X149633500Y-100597500D01*
X132470500Y-119173500D02*
G75*
G02*
X132970500Y-119673500I0J-500000D01*
G01*
X132970500Y-132673500D02*
G75*
G02*
X132470500Y-133173500I-500000J0D01*
G01*
X140395500Y-62497900D02*
X140395500Y-75497900D01*
X136133500Y-114097500D02*
X149133500Y-114097500D01*
X149133500Y-100097500D02*
X136133500Y-100097500D01*
X35320300Y-32661000D02*
X35320300Y-19661000D01*
X153895500Y-61997900D02*
X140895500Y-61997900D01*
X132970500Y-132673500D02*
X132970500Y-119673500D01*
X112307500Y-133173500D02*
X132470500Y-133173500D01*
X35320300Y-32661000D02*
G75*
G02*
X34820300Y-33161000I-500000J0D01*
G01*
X132470500Y-119173500D02*
X112307500Y-119173500D01*
X154395500Y-75497900D02*
X154395500Y-62497900D01*
X34820300Y-19161000D02*
G75*
G02*
X35320300Y-19661000I0J-500000D01*
G01*
X21320300Y-19661000D02*
X21320300Y-32661000D01*
X111807500Y-119673500D02*
G75*
G02*
X112307500Y-119173500I500000J0D01*
G01*
X69458100Y-95047500D02*
G75*
G02*
X68958100Y-94547500I0J500000D01*
G01*
X68958100Y-81547500D02*
X68958100Y-94547500D01*
X154395500Y-75497900D02*
G75*
G02*
X153895500Y-75997900I-500000J0D01*
G01*
X68958100Y-81547500D02*
G75*
G02*
X69458100Y-81047500I500000J0D01*
G01*
X34820300Y-19161000D02*
X21820300Y-19161000D01*
X282476500Y-123923500D02*
G75*
G02*
X282976500Y-124423500I0J-500000D01*
G01*
X306795500Y-94547500D02*
X306795500Y-81547500D01*
X82458100Y-81047500D02*
X69458100Y-81047500D01*
X306295500Y-81047500D02*
G75*
G02*
X306795500Y-81547500I0J-500000D01*
G01*
X306795500Y-94547500D02*
G75*
G02*
X306295500Y-95047500I-500000J0D01*
G01*
X293295500Y-95047500D02*
X306295500Y-95047500D01*
X188020500Y-43447900D02*
X188020500Y-56447900D01*
X136133500Y-114097500D02*
G75*
G02*
X135633500Y-113597500I0J500000D01*
G01*
X282976500Y-137423500D02*
G75*
G02*
X282476500Y-137923500I-500000J0D01*
G01*
X140395500Y-62497900D02*
G75*
G02*
X140895500Y-61997900I500000J0D01*
G01*
X293295500Y-95047500D02*
G75*
G02*
X292795500Y-94547500I0J500000D01*
G01*
X292795500Y-81547500D02*
X292795500Y-94547500D01*
X306295500Y-81047500D02*
X293295500Y-81047500D01*
X292795500Y-81547500D02*
G75*
G02*
X293295500Y-81047500I500000J0D01*
G01*
X282983500Y-118360500D02*
X282983500Y-105360500D01*
X188520500Y-56947900D02*
G75*
G02*
X188020500Y-56447900I0J500000D01*
G01*
X135633500Y-100597500D02*
X135633500Y-113597500D01*
X21320300Y-19661000D02*
G75*
G02*
X21820300Y-19161000I500000J0D01*
G01*
X140895500Y-75997900D02*
X153895500Y-75997900D01*
X21820300Y-33161000D02*
G75*
G02*
X21320300Y-32661000I0J500000D01*
G01*
X282483500Y-104860500D02*
G75*
G02*
X282983500Y-105360500I0J-500000D01*
G01*
X282983500Y-118360500D02*
G75*
G02*
X282483500Y-118860500I-500000J0D01*
G01*
X202020500Y-56447900D02*
G75*
G02*
X201520500Y-56947900I-500000J0D01*
G01*
X153895500Y-61997900D02*
G75*
G02*
X154395500Y-62497900I0J-500000D01*
G01*
X111807500Y-119673500D02*
X111807500Y-132673500D01*
X282976500Y-137423500D02*
X282976500Y-124423500D01*
X269476500Y-137923500D02*
X282476500Y-137923500D01*
X269483500Y-118860500D02*
X282483500Y-118860500D01*
X149133500Y-100097500D02*
G75*
G02*
X149633500Y-100597500I0J-500000D01*
G01*
X140895500Y-75997900D02*
G75*
G02*
X140395500Y-75497900I0J500000D01*
G01*
X269483500Y-118860500D02*
G75*
G02*
X268983500Y-118360500I0J500000D01*
G01*
X112307500Y-133173500D02*
G75*
G02*
X111807500Y-132673500I0J500000D01*
G01*
X268983500Y-105360500D02*
X268983500Y-118360500D01*
X149633500Y-113597500D02*
G75*
G02*
X149133500Y-114097500I-500000J0D01*
G01*
X282483500Y-104860500D02*
X269483500Y-104860500D01*
X21820300Y-33161000D02*
X34820300Y-33161000D01*
X135633500Y-100597500D02*
G75*
G02*
X136133500Y-100097500I500000J0D01*
G01*
X268983500Y-105360500D02*
G75*
G02*
X269483500Y-104860500I500000J0D01*
G01*
X201520500Y-42947900D02*
G75*
G02*
X202020500Y-43447900I0J-500000D01*
G01*
X202020500Y-56447900D02*
X202020500Y-43447900D01*
X188520500Y-56947900D02*
X201520500Y-56947900D01*
X188020500Y-43447900D02*
G75*
G02*
X188520500Y-42947900I500000J0D01*
G01*
X201520500Y-42947900D02*
X188520500Y-42947900D01*
X73433100Y-113597500D02*
G75*
G02*
X72933100Y-114097500I-500000J0D01*
G01*
X45145500Y-62497900D02*
G75*
G02*
X45645500Y-61997900I500000J0D01*
G01*
X72933100Y-100097500D02*
G75*
G02*
X73433100Y-100597500I0J-500000D01*
G01*
X269476500Y-137923500D02*
G75*
G02*
X268976500Y-137423500I0J500000D01*
G01*
X259957500Y-75997900D02*
X272957500Y-75997900D01*
X183258500Y-81547500D02*
G75*
G02*
X183758500Y-81047500I500000J0D01*
G01*
X226620500Y-56947900D02*
G75*
G02*
X226120500Y-56447900I0J500000D01*
G01*
X59145500Y-75497900D02*
G75*
G02*
X58645500Y-75997900I-500000J0D01*
G01*
X197258500Y-94547500D02*
G75*
G02*
X196758500Y-95047500I-500000J0D01*
G01*
X72933100Y-100097500D02*
X59933100Y-100097500D01*
X235358500Y-94547500D02*
G75*
G02*
X234858500Y-95047500I-500000J0D01*
G01*
X268976500Y-124423500D02*
X268976500Y-137423500D01*
X221070500Y-56447900D02*
G75*
G02*
X220570500Y-56947900I-500000J0D01*
G01*
X59433100Y-100597500D02*
G75*
G02*
X59933100Y-100097500I500000J0D01*
G01*
X58645500Y-61997900D02*
X45645500Y-61997900D01*
X239620500Y-42947900D02*
G75*
G02*
X240120500Y-43447900I0J-500000D01*
G01*
X59933100Y-114097500D02*
X72933100Y-114097500D01*
X87720500Y-56447900D02*
X87720500Y-43447900D01*
X240120500Y-56447900D02*
X240120500Y-43447900D01*
X207570500Y-56947900D02*
G75*
G02*
X207070500Y-56447900I0J500000D01*
G01*
X220570500Y-42947900D02*
X207570500Y-42947900D01*
X226120500Y-43447900D02*
G75*
G02*
X226620500Y-42947900I500000J0D01*
G01*
X221358500Y-81547500D02*
X221358500Y-94547500D01*
X183758500Y-95047500D02*
X196758500Y-95047500D01*
X45145500Y-62497900D02*
X45145500Y-75497900D01*
X272957500Y-61997900D02*
G75*
G02*
X273457500Y-62497900I0J-500000D01*
G01*
X259957500Y-75997900D02*
G75*
G02*
X259457500Y-75497900I0J500000D01*
G01*
X207070500Y-43447900D02*
G75*
G02*
X207570500Y-42947900I500000J0D01*
G01*
X196758500Y-81047500D02*
X183758500Y-81047500D01*
X207570500Y-56947900D02*
X220570500Y-56947900D01*
X45645500Y-75997900D02*
X58645500Y-75997900D01*
X74220500Y-56947900D02*
X87220500Y-56947900D01*
X207070500Y-43447900D02*
X207070500Y-56447900D01*
X273457500Y-75497900D02*
G75*
G02*
X272957500Y-75997900I-500000J0D01*
G01*
X59433100Y-100597500D02*
X59433100Y-113597500D01*
X268976500Y-124423500D02*
G75*
G02*
X269476500Y-123923500I500000J0D01*
G01*
X282476500Y-123923500D02*
X269476500Y-123923500D01*
X273457500Y-75497900D02*
X273457500Y-62497900D01*
X259457500Y-62497900D02*
G75*
G02*
X259957500Y-61997900I500000J0D01*
G01*
X272957500Y-61997900D02*
X259957500Y-61997900D01*
X226620500Y-56947900D02*
X239620500Y-56947900D01*
X196758500Y-81047500D02*
G75*
G02*
X197258500Y-81547500I0J-500000D01*
G01*
X226120500Y-43447900D02*
X226120500Y-56447900D01*
X183258500Y-81547500D02*
X183258500Y-94547500D01*
X45645500Y-75997900D02*
G75*
G02*
X45145500Y-75497900I0J500000D01*
G01*
X221858500Y-95047500D02*
G75*
G02*
X221358500Y-94547500I0J500000D01*
G01*
X197258500Y-94547500D02*
X197258500Y-81547500D01*
X234858500Y-81047500D02*
G75*
G02*
X235358500Y-81547500I0J-500000D01*
G01*
X87720500Y-56447900D02*
G75*
G02*
X87220500Y-56947900I-500000J0D01*
G01*
X221858500Y-95047500D02*
X234858500Y-95047500D01*
X234858500Y-81047500D02*
X221858500Y-81047500D01*
X87220500Y-42947900D02*
G75*
G02*
X87720500Y-43447900I0J-500000D01*
G01*
X239620500Y-42947900D02*
X226620500Y-42947900D01*
X183758500Y-95047500D02*
G75*
G02*
X183258500Y-94547500I0J500000D01*
G01*
X73433100Y-113597500D02*
X73433100Y-100597500D01*
X259457500Y-62497900D02*
X259457500Y-75497900D01*
X240120500Y-56447900D02*
G75*
G02*
X239620500Y-56947900I-500000J0D01*
G01*
X59145500Y-75497900D02*
X59145500Y-62497900D01*
X58645500Y-61997900D02*
G75*
G02*
X59145500Y-62497900I0J-500000D01*
G01*
X221358500Y-81547500D02*
G75*
G02*
X221858500Y-81047500I500000J0D01*
G01*
X220570500Y-42947900D02*
G75*
G02*
X221070500Y-43447900I0J-500000D01*
G01*
X221070500Y-56447900D02*
X221070500Y-43447900D01*
X59933100Y-114097500D02*
G75*
G02*
X59433100Y-113597500I0J500000D01*
G01*
X235358500Y-94547500D02*
X235358500Y-81547500D01*
X198045500Y-75997900D02*
G75*
G02*
X197545500Y-75497900I0J500000D01*
G01*
X235344500Y-32661000D02*
X235344500Y-19661000D01*
X221344500Y-19661000D02*
X221344500Y-32661000D01*
X192783500Y-100597500D02*
G75*
G02*
X193283500Y-100097500I500000J0D01*
G01*
X116295500Y-75497900D02*
G75*
G02*
X115795500Y-75997900I-500000J0D01*
G01*
X193283500Y-114097500D02*
X206283500Y-114097500D01*
X211833500Y-100597500D02*
X211833500Y-113597500D01*
X225833500Y-113597500D02*
G75*
G02*
X225333500Y-114097500I-500000J0D01*
G01*
X73720500Y-43447900D02*
X73720500Y-56447900D01*
X159932500Y-33161000D02*
G75*
G02*
X159432500Y-32661000I0J500000D01*
G01*
X206783500Y-113597500D02*
G75*
G02*
X206283500Y-114097500I-500000J0D01*
G01*
X73720500Y-43447900D02*
G75*
G02*
X74220500Y-42947900I500000J0D01*
G01*
X54383100Y-113597500D02*
X54383100Y-100597500D01*
X211545500Y-75497900D02*
X211545500Y-62497900D01*
X197545500Y-62497900D02*
G75*
G02*
X198045500Y-61997900I500000J0D01*
G01*
X159432500Y-19661000D02*
G75*
G02*
X159932500Y-19161000I500000J0D01*
G01*
X225833500Y-113597500D02*
X225833500Y-100597500D01*
X163920500Y-56447900D02*
X163920500Y-43447900D01*
X193283500Y-114097500D02*
G75*
G02*
X192783500Y-113597500I0J500000D01*
G01*
X234844500Y-19161000D02*
G75*
G02*
X235344500Y-19661000I0J-500000D01*
G01*
X234844500Y-19161000D02*
X221844500Y-19161000D01*
X116295500Y-75497900D02*
X116295500Y-62497900D01*
X150420500Y-56947900D02*
X163420500Y-56947900D01*
X163420500Y-42947900D02*
X150420500Y-42947900D01*
X40883100Y-114097500D02*
X53883100Y-114097500D01*
X212333500Y-114097500D02*
X225333500Y-114097500D01*
X40883100Y-114097500D02*
G75*
G02*
X40383100Y-113597500I0J500000D01*
G01*
X212333500Y-114097500D02*
G75*
G02*
X211833500Y-113597500I0J500000D01*
G01*
X40383100Y-100597500D02*
X40383100Y-113597500D01*
X40383100Y-100597500D02*
G75*
G02*
X40883100Y-100097500I500000J0D01*
G01*
X211045500Y-61997900D02*
G75*
G02*
X211545500Y-62497900I0J-500000D01*
G01*
X206283500Y-100097500D02*
G75*
G02*
X206783500Y-100597500I0J-500000D01*
G01*
X211545500Y-75497900D02*
G75*
G02*
X211045500Y-75997900I-500000J0D01*
G01*
X206283500Y-100097500D02*
X193283500Y-100097500D01*
X149920500Y-43447900D02*
G75*
G02*
X150420500Y-42947900I500000J0D01*
G01*
X159432500Y-19661000D02*
X159432500Y-32661000D01*
X192783500Y-100597500D02*
X192783500Y-113597500D01*
X225333500Y-100097500D02*
X212333500Y-100097500D01*
X221844500Y-33161000D02*
G75*
G02*
X221344500Y-32661000I0J500000D01*
G01*
X221344500Y-19661000D02*
G75*
G02*
X221844500Y-19161000I500000J0D01*
G01*
X102795500Y-75997900D02*
X115795500Y-75997900D01*
X197545500Y-62497900D02*
X197545500Y-75497900D01*
X172932500Y-19161000D02*
X159932500Y-19161000D01*
X172932500Y-19161000D02*
G75*
G02*
X173432500Y-19661000I0J-500000D01*
G01*
X173432500Y-32661000D02*
X173432500Y-19661000D01*
X206783500Y-113597500D02*
X206783500Y-100597500D01*
X211833500Y-100597500D02*
G75*
G02*
X212333500Y-100097500I500000J0D01*
G01*
X225333500Y-100097500D02*
G75*
G02*
X225833500Y-100597500I0J-500000D01*
G01*
X74220500Y-56947900D02*
G75*
G02*
X73720500Y-56447900I0J500000D01*
G01*
X159932500Y-33161000D02*
X172932500Y-33161000D01*
X235344500Y-32661000D02*
G75*
G02*
X234844500Y-33161000I-500000J0D01*
G01*
X87220500Y-42947900D02*
X74220500Y-42947900D01*
X53883100Y-100097500D02*
G75*
G02*
X54383100Y-100597500I0J-500000D01*
G01*
X54383100Y-113597500D02*
G75*
G02*
X53883100Y-114097500I-500000J0D01*
G01*
X150420500Y-56947900D02*
G75*
G02*
X149920500Y-56447900I0J500000D01*
G01*
X173432500Y-32661000D02*
G75*
G02*
X172932500Y-33161000I-500000J0D01*
G01*
X53883100Y-100097500D02*
X40883100Y-100097500D01*
X198045500Y-75997900D02*
X211045500Y-75997900D01*
X211045500Y-61997900D02*
X198045500Y-61997900D01*
X163420500Y-42947900D02*
G75*
G02*
X163920500Y-43447900I0J-500000D01*
G01*
X221844500Y-33161000D02*
X234844500Y-33161000D01*
X163920500Y-56447900D02*
G75*
G02*
X163420500Y-56947900I-500000J0D01*
G01*
X149920500Y-43447900D02*
X149920500Y-56447900D01*
X115795500Y-61997900D02*
G75*
G02*
X116295500Y-62497900I0J-500000D01*
G01*
X202794500Y-33161000D02*
X215794500Y-33161000D01*
X216308500Y-94547500D02*
X216308500Y-81547500D01*
X293295500Y-75997900D02*
X306295500Y-75997900D01*
X215808500Y-81047500D02*
X202808500Y-81047500D01*
X306795500Y-75497900D02*
X306795500Y-62497900D01*
X306795500Y-75497900D02*
G75*
G02*
X306295500Y-75997900I-500000J0D01*
G01*
X145658500Y-95047500D02*
X158658500Y-95047500D01*
X292795500Y-62497900D02*
X292795500Y-75497900D01*
X145658500Y-95047500D02*
G75*
G02*
X145158500Y-94547500I0J500000D01*
G01*
X158658500Y-81047500D02*
X145658500Y-81047500D01*
X140882500Y-33161000D02*
G75*
G02*
X140382500Y-32661000I0J500000D01*
G01*
X202294500Y-19661000D02*
X202294500Y-32661000D01*
X215794500Y-19161000D02*
X202794500Y-19161000D01*
X158658500Y-81047500D02*
G75*
G02*
X159158500Y-81547500I0J-500000D01*
G01*
X145158500Y-81547500D02*
G75*
G02*
X145658500Y-81047500I500000J0D01*
G01*
X26595500Y-75997900D02*
X39595500Y-75997900D01*
X292795500Y-62497900D02*
G75*
G02*
X293295500Y-61997900I500000J0D01*
G01*
X39595500Y-61997900D02*
G75*
G02*
X40095500Y-62497900I0J-500000D01*
G01*
X140382500Y-19661000D02*
G75*
G02*
X140882500Y-19161000I500000J0D01*
G01*
X292795500Y-43447900D02*
G75*
G02*
X293295500Y-42947900I500000J0D01*
G01*
X159158500Y-94547500D02*
X159158500Y-81547500D01*
X140382500Y-19661000D02*
X140382500Y-32661000D01*
X292795500Y-43447900D02*
X292795500Y-56447900D01*
X154382500Y-32661000D02*
G75*
G02*
X153882500Y-33161000I-500000J0D01*
G01*
X40095500Y-75497900D02*
G75*
G02*
X39595500Y-75997900I-500000J0D01*
G01*
X115795500Y-61997900D02*
X102795500Y-61997900D01*
X249926500Y-124423500D02*
X249926500Y-137423500D01*
X263426500Y-123923500D02*
G75*
G02*
X263926500Y-124423500I0J-500000D01*
G01*
X263926500Y-137423500D02*
X263926500Y-124423500D01*
X250426500Y-137923500D02*
G75*
G02*
X249926500Y-137423500I0J500000D01*
G01*
X306295500Y-61997900D02*
X293295500Y-61997900D01*
X153882500Y-19161000D02*
G75*
G02*
X154382500Y-19661000I0J-500000D01*
G01*
X306795500Y-56447900D02*
X306795500Y-43447900D01*
X140882500Y-33161000D02*
X153882500Y-33161000D01*
X306295500Y-42947900D02*
X293295500Y-42947900D01*
X102295500Y-62497900D02*
X102295500Y-75497900D01*
X202808500Y-95047500D02*
X215808500Y-95047500D01*
X202308500Y-81547500D02*
X202308500Y-94547500D01*
X293295500Y-56947900D02*
G75*
G02*
X292795500Y-56447900I0J500000D01*
G01*
X263926500Y-137423500D02*
G75*
G02*
X263426500Y-137923500I-500000J0D01*
G01*
X306295500Y-61997900D02*
G75*
G02*
X306795500Y-62497900I0J-500000D01*
G01*
X154382500Y-32661000D02*
X154382500Y-19661000D01*
X249926500Y-124423500D02*
G75*
G02*
X250426500Y-123923500I500000J0D01*
G01*
X306795500Y-56447900D02*
G75*
G02*
X306295500Y-56947900I-500000J0D01*
G01*
X293295500Y-56947900D02*
X306295500Y-56947900D01*
X102795500Y-75997900D02*
G75*
G02*
X102295500Y-75497900I0J500000D01*
G01*
X102295500Y-62497900D02*
G75*
G02*
X102795500Y-61997900I500000J0D01*
G01*
X159158500Y-94547500D02*
G75*
G02*
X158658500Y-95047500I-500000J0D01*
G01*
X250426500Y-137923500D02*
X263426500Y-137923500D01*
X216308500Y-94547500D02*
G75*
G02*
X215808500Y-95047500I-500000J0D01*
G01*
X202808500Y-95047500D02*
G75*
G02*
X202308500Y-94547500I0J500000D01*
G01*
X306295500Y-42947900D02*
G75*
G02*
X306795500Y-43447900I0J-500000D01*
G01*
X216294500Y-32661000D02*
X216294500Y-19661000D01*
X202294500Y-19661000D02*
G75*
G02*
X202794500Y-19161000I500000J0D01*
G01*
X293295500Y-75997900D02*
G75*
G02*
X292795500Y-75497900I0J500000D01*
G01*
X145158500Y-81547500D02*
X145158500Y-94547500D01*
X153882500Y-19161000D02*
X140882500Y-19161000D01*
X202794500Y-33161000D02*
G75*
G02*
X202294500Y-32661000I0J500000D01*
G01*
X215794500Y-19161000D02*
G75*
G02*
X216294500Y-19661000I0J-500000D01*
G01*
X40095500Y-75497900D02*
X40095500Y-62497900D01*
X263426500Y-123923500D02*
X250426500Y-123923500D01*
X215808500Y-81047500D02*
G75*
G02*
X216308500Y-81547500I0J-500000D01*
G01*
X216294500Y-32661000D02*
G75*
G02*
X215794500Y-33161000I-500000J0D01*
G01*
X202308500Y-81547500D02*
G75*
G02*
X202808500Y-81047500I500000J0D01*
G01*
X301526500Y-123923500D02*
G75*
G02*
X302026500Y-124423500I0J-500000D01*
G01*
X302026500Y-137423500D02*
G75*
G02*
X301526500Y-137923500I-500000J0D01*
G01*
X288526500Y-137923500D02*
X301526500Y-137923500D01*
X134832500Y-19161000D02*
G75*
G02*
X135332500Y-19661000I0J-500000D01*
G01*
X251527500Y-100097500D02*
G75*
G02*
X252027500Y-100597500I0J-500000D01*
G01*
X288026500Y-124423500D02*
G75*
G02*
X288526500Y-123923500I500000J0D01*
G01*
X121832500Y-33161000D02*
G75*
G02*
X121332500Y-32661000I0J500000D01*
G01*
X121332500Y-19661000D02*
G75*
G02*
X121832500Y-19161000I500000J0D01*
G01*
X238027500Y-100597500D02*
G75*
G02*
X238527500Y-100097500I500000J0D01*
G01*
X238527500Y-114097500D02*
G75*
G02*
X238027500Y-113597500I0J500000D01*
G01*
X251527500Y-100097500D02*
X238527500Y-100097500D01*
X288026500Y-124423500D02*
X288026500Y-137423500D01*
X121832500Y-33161000D02*
X134832500Y-33161000D01*
X238027500Y-100597500D02*
X238027500Y-113597500D01*
X249645500Y-75497900D02*
G75*
G02*
X249145500Y-75997900I-500000J0D01*
G01*
X16570500Y-43447900D02*
X16570500Y-56447900D01*
X15799000Y-119138500D02*
G75*
G02*
X16299000Y-119638500I0J-500000D01*
G01*
X-82200Y-119638500D02*
G75*
G02*
X417800Y-119138500I500000J0D01*
G01*
X26595500Y-75997900D02*
G75*
G02*
X26095500Y-75497900I0J500000D01*
G01*
X26095500Y-62497900D02*
X26095500Y-75497900D01*
X26095500Y-62497900D02*
G75*
G02*
X26595500Y-61997900I500000J0D01*
G01*
X39595500Y-61997900D02*
X26595500Y-61997900D01*
X40370300Y-19661000D02*
G75*
G02*
X40870300Y-19161000I500000J0D01*
G01*
X40870300Y-33161000D02*
X53870300Y-33161000D01*
X30070500Y-42947900D02*
G75*
G02*
X30570500Y-43447900I0J-500000D01*
G01*
X30570500Y-56447900D02*
X30570500Y-43447900D01*
X30570500Y-56447900D02*
G75*
G02*
X30070500Y-56947900I-500000J0D01*
G01*
X17070500Y-56947900D02*
X30070500Y-56947900D01*
X97245500Y-75497900D02*
G75*
G02*
X96745500Y-75997900I-500000J0D01*
G01*
X135332500Y-32661000D02*
G75*
G02*
X134832500Y-33161000I-500000J0D01*
G01*
X252027500Y-113597500D02*
X252027500Y-100597500D01*
X53870300Y-19161000D02*
G75*
G02*
X54370300Y-19661000I0J-500000D01*
G01*
X17070500Y-56947900D02*
G75*
G02*
X16570500Y-56447900I0J500000D01*
G01*
X83745500Y-75997900D02*
G75*
G02*
X83245500Y-75497900I0J500000D01*
G01*
X16299000Y-132638500D02*
G75*
G02*
X15799000Y-133138500I-500000J0D01*
G01*
X83245500Y-62497900D02*
G75*
G02*
X83745500Y-61997900I500000J0D01*
G01*
X135332500Y-32661000D02*
X135332500Y-19661000D01*
X16570500Y-43447900D02*
G75*
G02*
X17070500Y-42947900I500000J0D01*
G01*
X236145500Y-75997900D02*
X249145500Y-75997900D01*
X252027500Y-113597500D02*
G75*
G02*
X251527500Y-114097500I-500000J0D01*
G01*
X249645500Y-75497900D02*
X249645500Y-62497900D01*
X96745500Y-61997900D02*
G75*
G02*
X97245500Y-62497900I0J-500000D01*
G01*
X83245500Y-62497900D02*
X83245500Y-75497900D01*
X30070500Y-42947900D02*
X17070500Y-42947900D01*
X16299000Y-132638500D02*
X16299000Y-119638500D01*
X97245500Y-75497900D02*
X97245500Y-62497900D01*
X301526500Y-123923500D02*
X288526500Y-123923500D01*
X96745500Y-61997900D02*
X83745500Y-61997900D01*
X15799000Y-119138500D02*
X417800Y-119138500D01*
X-82200Y-119638500D02*
X-82200Y-132638500D01*
X121332500Y-19661000D02*
X121332500Y-32661000D01*
X54370300Y-32661000D02*
X54370300Y-19661000D01*
X40370300Y-19661000D02*
X40370300Y-32661000D01*
X40870300Y-33161000D02*
G75*
G02*
X40370300Y-32661000I0J500000D01*
G01*
X134832500Y-19161000D02*
X121832500Y-19161000D01*
X288526500Y-137923500D02*
G75*
G02*
X288026500Y-137423500I0J500000D01*
G01*
X249145500Y-61997900D02*
G75*
G02*
X249645500Y-62497900I0J-500000D01*
G01*
X238527500Y-114097500D02*
X251527500Y-114097500D01*
X417800Y-133138500D02*
X15799000Y-133138500D01*
X417800Y-133138500D02*
G75*
G02*
X-82200Y-132638500I0J500000D01*
G01*
X302026500Y-137423500D02*
X302026500Y-124423500D01*
X54370300Y-32661000D02*
G75*
G02*
X53870300Y-33161000I-500000J0D01*
G01*
X53870300Y-19161000D02*
X40870300Y-19161000D01*
X83745500Y-75997900D02*
X96745500Y-75997900D01*
X97533500Y-100597500D02*
G75*
G02*
X98033500Y-100097500I500000J0D01*
G01*
X36120500Y-56947900D02*
G75*
G02*
X35620500Y-56447900I0J500000D01*
G01*
X126608500Y-95047500D02*
X139608500Y-95047500D01*
X68670500Y-56447900D02*
G75*
G02*
X68170500Y-56947900I-500000J0D01*
G01*
X55170500Y-56947900D02*
G75*
G02*
X54670500Y-56447900I0J500000D01*
G01*
X98033500Y-114097500D02*
X111033500Y-114097500D01*
X144370500Y-42947900D02*
G75*
G02*
X144870500Y-43447900I0J-500000D01*
G01*
X168683500Y-113597500D02*
X168683500Y-100597500D01*
X168183500Y-100097500D02*
X155183500Y-100097500D01*
X139608500Y-81047500D02*
X126608500Y-81047500D01*
X111033500Y-100097500D02*
X98033500Y-100097500D01*
X106770500Y-56447900D02*
X106770500Y-43447900D01*
X35620500Y-43447900D02*
G75*
G02*
X36120500Y-42947900I500000J0D01*
G01*
X236145500Y-75997900D02*
G75*
G02*
X235645500Y-75497900I0J500000D01*
G01*
X126608500Y-95047500D02*
G75*
G02*
X126108500Y-94547500I0J500000D01*
G01*
X249145500Y-61997900D02*
X236145500Y-61997900D01*
X130870500Y-43447900D02*
X130870500Y-56447900D01*
X49120500Y-42947900D02*
X36120500Y-42947900D01*
X130870500Y-43447900D02*
G75*
G02*
X131370500Y-42947900I500000J0D01*
G01*
X235645500Y-62497900D02*
X235645500Y-75497900D01*
X54670500Y-43447900D02*
X54670500Y-56447900D01*
X155183500Y-114097500D02*
X168183500Y-114097500D01*
X116282500Y-32661000D02*
G75*
G02*
X115782500Y-33161000I-500000J0D01*
G01*
X111033500Y-100097500D02*
G75*
G02*
X111533500Y-100597500I0J-500000D01*
G01*
X140108500Y-94547500D02*
G75*
G02*
X139608500Y-95047500I-500000J0D01*
G01*
X235645500Y-62497900D02*
G75*
G02*
X236145500Y-61997900I500000J0D01*
G01*
X55170500Y-56947900D02*
X68170500Y-56947900D01*
X68170500Y-42947900D02*
X55170500Y-42947900D01*
X92770500Y-43447900D02*
X92770500Y-56447900D01*
X98033500Y-114097500D02*
G75*
G02*
X97533500Y-113597500I0J500000D01*
G01*
X139608500Y-81047500D02*
G75*
G02*
X140108500Y-81547500I0J-500000D01*
G01*
X106770500Y-56447900D02*
G75*
G02*
X106270500Y-56947900I-500000J0D01*
G01*
X144870500Y-56447900D02*
X144870500Y-43447900D01*
X106270500Y-42947900D02*
X93270500Y-42947900D01*
X49120500Y-42947900D02*
G75*
G02*
X49620500Y-43447900I0J-500000D01*
G01*
X35620500Y-43447900D02*
X35620500Y-56447900D01*
X68170500Y-42947900D02*
G75*
G02*
X68670500Y-43447900I0J-500000D01*
G01*
X68670500Y-56447900D02*
X68670500Y-43447900D01*
X54670500Y-43447900D02*
G75*
G02*
X55170500Y-42947900I500000J0D01*
G01*
X106270500Y-42947900D02*
G75*
G02*
X106770500Y-43447900I0J-500000D01*
G01*
X92770500Y-43447900D02*
G75*
G02*
X93270500Y-42947900I500000J0D01*
G01*
X126108500Y-81547500D02*
X126108500Y-94547500D01*
X168183500Y-100097500D02*
G75*
G02*
X168683500Y-100597500I0J-500000D01*
G01*
X111533500Y-113597500D02*
G75*
G02*
X111033500Y-114097500I-500000J0D01*
G01*
X93270500Y-56947900D02*
G75*
G02*
X92770500Y-56447900I0J500000D01*
G01*
X116282500Y-32661000D02*
X116282500Y-19661000D01*
X131370500Y-56947900D02*
X144370500Y-56947900D01*
X131370500Y-56947900D02*
G75*
G02*
X130870500Y-56447900I0J500000D01*
G01*
X140108500Y-94547500D02*
X140108500Y-81547500D01*
X97533500Y-100597500D02*
X97533500Y-113597500D01*
X115782500Y-19161000D02*
G75*
G02*
X116282500Y-19661000I0J-500000D01*
G01*
X126108500Y-81547500D02*
G75*
G02*
X126608500Y-81047500I500000J0D01*
G01*
X155183500Y-114097500D02*
G75*
G02*
X154683500Y-113597500I0J500000D01*
G01*
X111533500Y-113597500D02*
X111533500Y-100597500D01*
X168683500Y-113597500D02*
G75*
G02*
X168183500Y-114097500I-500000J0D01*
G01*
X49620500Y-56447900D02*
X49620500Y-43447900D01*
X144370500Y-42947900D02*
X131370500Y-42947900D01*
X154683500Y-100597500D02*
G75*
G02*
X155183500Y-100097500I500000J0D01*
G01*
X49620500Y-56447900D02*
G75*
G02*
X49120500Y-56947900I-500000J0D01*
G01*
X144870500Y-56447900D02*
G75*
G02*
X144370500Y-56947900I-500000J0D01*
G01*
X102782500Y-33161000D02*
X115782500Y-33161000D01*
X154683500Y-100597500D02*
X154683500Y-113597500D01*
X93270500Y-56947900D02*
X106270500Y-56947900D01*
X36120500Y-56947900D02*
X49120500Y-56947900D01*
X92483100Y-113597500D02*
G75*
G02*
X91983100Y-114097500I-500000J0D01*
G01*
X111820500Y-43447900D02*
X111820500Y-56447900D01*
X78483100Y-100597500D02*
G75*
G02*
X78983100Y-100097500I500000J0D01*
G01*
X77695500Y-61997900D02*
X64695500Y-61997900D01*
X112320500Y-56947900D02*
X125320500Y-56947900D01*
X64695500Y-75997900D02*
G75*
G02*
X64195500Y-75497900I0J500000D01*
G01*
X168970500Y-43447900D02*
G75*
G02*
X169470500Y-42947900I500000J0D01*
G01*
X169470500Y-56947900D02*
X182470500Y-56947900D01*
X217095500Y-75997900D02*
G75*
G02*
X216595500Y-75497900I0J500000D01*
G01*
X125320500Y-42947900D02*
X112320500Y-42947900D01*
X64695500Y-75997900D02*
X77695500Y-75997900D01*
X11520500Y-32635600D02*
X11520500Y-19635600D01*
X216595500Y-62497900D02*
G75*
G02*
X217095500Y-61997900I500000J0D01*
G01*
X11520500Y-32635600D02*
G75*
G02*
X11020500Y-33135600I-500000J0D01*
G01*
X230095500Y-61997900D02*
X217095500Y-61997900D01*
X278215500Y-32661000D02*
G75*
G02*
X277715500Y-33161000I-500000J0D01*
G01*
X182970500Y-56447900D02*
G75*
G02*
X182470500Y-56947900I-500000J0D01*
G01*
X64195500Y-62497900D02*
X64195500Y-75497900D01*
X92483100Y-113597500D02*
X92483100Y-100597500D01*
X125320500Y-42947900D02*
G75*
G02*
X125820500Y-43447900I0J-500000D01*
G01*
X293290500Y-33161000D02*
G75*
G02*
X292790500Y-32661000I0J500000D01*
G01*
X125820500Y-56447900D02*
G75*
G02*
X125320500Y-56947900I-500000J0D01*
G01*
X264715500Y-33161000D02*
G75*
G02*
X264215500Y-32661000I0J500000D01*
G01*
X77695500Y-61997900D02*
G75*
G02*
X78195500Y-62497900I0J-500000D01*
G01*
X277715500Y-19161000D02*
X264715500Y-19161000D01*
X169470500Y-56947900D02*
G75*
G02*
X168970500Y-56447900I0J500000D01*
G01*
X292790500Y-19661000D02*
G75*
G02*
X293290500Y-19161000I500000J0D01*
G01*
X168970500Y-43447900D02*
X168970500Y-56447900D01*
X78195500Y-75497900D02*
X78195500Y-62497900D01*
X306790500Y-32661000D02*
X306790500Y-19661000D01*
X292790500Y-19661000D02*
X292790500Y-32661000D01*
X306790500Y-32661000D02*
G75*
G02*
X306290500Y-33161000I-500000J0D01*
G01*
X182470500Y-42947900D02*
G75*
G02*
X182970500Y-43447900I0J-500000D01*
G01*
X306290500Y-19161000D02*
G75*
G02*
X306790500Y-19661000I0J-500000D01*
G01*
X64195500Y-62497900D02*
G75*
G02*
X64695500Y-61997900I500000J0D01*
G01*
X91983100Y-100097500D02*
G75*
G02*
X92483100Y-100597500I0J-500000D01*
G01*
X78483100Y-100597500D02*
X78483100Y-113597500D01*
X91983100Y-100097500D02*
X78983100Y-100097500D01*
X112320500Y-56947900D02*
G75*
G02*
X111820500Y-56447900I0J500000D01*
G01*
X293290500Y-33161000D02*
X306290500Y-33161000D01*
X111820500Y-43447900D02*
G75*
G02*
X112320500Y-42947900I500000J0D01*
G01*
X102782500Y-33161000D02*
G75*
G02*
X102282500Y-32661000I0J500000D01*
G01*
X277715500Y-19161000D02*
G75*
G02*
X278215500Y-19661000I0J-500000D01*
G01*
X306290500Y-19161000D02*
X293290500Y-19161000D01*
X102282500Y-19661000D02*
X102282500Y-32661000D01*
X78195500Y-75497900D02*
G75*
G02*
X77695500Y-75997900I-500000J0D01*
G01*
X182470500Y-42947900D02*
X169470500Y-42947900D01*
X182970500Y-56447900D02*
X182970500Y-43447900D01*
X102282500Y-19661000D02*
G75*
G02*
X102782500Y-19161000I500000J0D01*
G01*
X115782500Y-19161000D02*
X102782500Y-19161000D01*
X78983100Y-114097500D02*
X91983100Y-114097500D01*
X230095500Y-61997900D02*
G75*
G02*
X230595500Y-62497900I0J-500000D01*
G01*
X230595500Y-75497900D02*
X230595500Y-62497900D01*
X230595500Y-75497900D02*
G75*
G02*
X230095500Y-75997900I-500000J0D01*
G01*
X264215500Y-19661000D02*
X264215500Y-32661000D01*
X217095500Y-75997900D02*
X230095500Y-75997900D01*
X216595500Y-62497900D02*
X216595500Y-75497900D01*
X278215500Y-32661000D02*
X278215500Y-19661000D01*
X-1979500Y-33135600D02*
X11020500Y-33135600D01*
X264715500Y-33161000D02*
X277715500Y-33161000D01*
X78983100Y-114097500D02*
G75*
G02*
X78483100Y-113597500I0J500000D01*
G01*
X264215500Y-19661000D02*
G75*
G02*
X264715500Y-19161000I500000J0D01*
G01*
X11020500Y-19135600D02*
G75*
G02*
X11520500Y-19635600I0J-500000D01*
G01*
X125820500Y-56447900D02*
X125820500Y-43447900D01*
X196744500Y-19161000D02*
X183744500Y-19161000D01*
X-1979500Y-56947900D02*
G75*
G02*
X-2479500Y-56447900I0J500000D01*
G01*
X-2479500Y-43447900D02*
X-2479500Y-56447900D01*
X197244500Y-32661000D02*
G75*
G02*
X196744500Y-33161000I-500000J0D01*
G01*
X121845500Y-75997900D02*
X134845500Y-75997900D01*
X197244500Y-32661000D02*
X197244500Y-19661000D01*
X50408100Y-95047500D02*
X63408100Y-95047500D01*
X206776500Y-132660500D02*
X206776500Y-119660500D01*
X193276500Y-133160500D02*
X206276500Y-133160500D01*
X49908100Y-81547500D02*
X49908100Y-94547500D01*
X206276500Y-119160500D02*
X193276500Y-119160500D01*
X135345500Y-75497900D02*
X135345500Y-62497900D01*
X193276500Y-133160500D02*
G75*
G02*
X192776500Y-132660500I0J500000D01*
G01*
X183744500Y-33161000D02*
X196744500Y-33161000D01*
X121345500Y-62497900D02*
X121345500Y-75497900D01*
X196744500Y-19161000D02*
G75*
G02*
X197244500Y-19661000I0J-500000D01*
G01*
X192776500Y-119660500D02*
G75*
G02*
X193276500Y-119160500I500000J0D01*
G01*
X-2479500Y-43447900D02*
G75*
G02*
X-1979500Y-42947900I500000J0D01*
G01*
X49908100Y-81547500D02*
G75*
G02*
X50408100Y-81047500I500000J0D01*
G01*
X135345500Y-75497900D02*
G75*
G02*
X134845500Y-75997900I-500000J0D01*
G01*
X63408100Y-81047500D02*
X50408100Y-81047500D01*
X121345500Y-62497900D02*
G75*
G02*
X121845500Y-61997900I500000J0D01*
G01*
X183244500Y-19661000D02*
X183244500Y-32661000D01*
X178495500Y-62497900D02*
X178495500Y-75497900D01*
X191995500Y-61997900D02*
X178995500Y-61997900D01*
X121845500Y-75997900D02*
G75*
G02*
X121345500Y-75497900I0J500000D01*
G01*
X192495500Y-75497900D02*
X192495500Y-62497900D01*
X63908100Y-94547500D02*
G75*
G02*
X63408100Y-95047500I-500000J0D01*
G01*
X11020500Y-42947900D02*
X-1979500Y-42947900D01*
X63408100Y-81047500D02*
G75*
G02*
X63908100Y-81547500I0J-500000D01*
G01*
X183744500Y-33161000D02*
G75*
G02*
X183244500Y-32661000I0J500000D01*
G01*
X63908100Y-94547500D02*
X63908100Y-81547500D01*
X50408100Y-95047500D02*
G75*
G02*
X49908100Y-94547500I0J500000D01*
G01*
X206276500Y-119160500D02*
G75*
G02*
X206776500Y-119660500I0J-500000D01*
G01*
X206776500Y-132660500D02*
G75*
G02*
X206276500Y-133160500I-500000J0D01*
G01*
X192776500Y-119660500D02*
X192776500Y-132660500D01*
X191995500Y-61997900D02*
G75*
G02*
X192495500Y-62497900I0J-500000D01*
G01*
X192495500Y-75497900D02*
G75*
G02*
X191995500Y-75997900I-500000J0D01*
G01*
X134845500Y-61997900D02*
G75*
G02*
X135345500Y-62497900I0J-500000D01*
G01*
X178995500Y-75997900D02*
X191995500Y-75997900D01*
X178995500Y-75997900D02*
G75*
G02*
X178495500Y-75497900I0J500000D01*
G01*
X178495500Y-62497900D02*
G75*
G02*
X178995500Y-61997900I500000J0D01*
G01*
X183244500Y-19661000D02*
G75*
G02*
X183744500Y-19161000I500000J0D01*
G01*
X107058500Y-81547500D02*
X107058500Y-94547500D01*
X18164200Y-81047500D02*
G75*
G02*
X18664200Y-81547500I0J-500000D01*
G01*
X92470300Y-32661000D02*
X92470300Y-19661000D01*
X73420300Y-32661000D02*
G75*
G02*
X72920300Y-33161000I-500000J0D01*
G01*
X78470300Y-19661000D02*
G75*
G02*
X78970300Y-19161000I500000J0D01*
G01*
X130083500Y-100097500D02*
X117083500Y-100097500D01*
X121058500Y-94547500D02*
X121058500Y-81547500D01*
X59420300Y-19661000D02*
G75*
G02*
X59920300Y-19161000I500000J0D01*
G01*
X44358100Y-81047500D02*
G75*
G02*
X44858100Y-81547500I0J-500000D01*
G01*
X18664200Y-94547500D02*
G75*
G02*
X18164200Y-95047500I-500000J0D01*
G01*
X116583500Y-100597500D02*
G75*
G02*
X117083500Y-100097500I500000J0D01*
G01*
X164708500Y-95047500D02*
G75*
G02*
X164208500Y-94547500I0J500000D01*
G01*
X44858100Y-94547500D02*
X44858100Y-81547500D01*
X44858100Y-94547500D02*
G75*
G02*
X44358100Y-95047500I-500000J0D01*
G01*
X30858100Y-81547500D02*
X30858100Y-94547500D01*
X59420300Y-19661000D02*
X59420300Y-32661000D01*
X19447483Y-76010565D02*
X21780406Y-76010565D01*
X72920300Y-19161000D02*
G75*
G02*
X73420300Y-19661000I0J-500000D01*
G01*
X107558500Y-95047500D02*
G75*
G02*
X107058500Y-94547500I0J500000D01*
G01*
X78970300Y-33161000D02*
X91970300Y-33161000D01*
X18164200Y-81047500D02*
X401800Y-81047500D01*
X78470300Y-19661000D02*
X78470300Y-32661000D01*
X44358100Y-81047500D02*
X31358100Y-81047500D01*
X117083500Y-114097500D02*
X130083500Y-114097500D01*
X130583500Y-113597500D02*
G75*
G02*
X130083500Y-114097500I-500000J0D01*
G01*
X72920300Y-19161000D02*
X59920300Y-19161000D01*
X21780406Y-62011365D02*
G75*
G02*
X22180406Y-62411365I0J-400000D01*
G01*
X120558500Y-81047500D02*
G75*
G02*
X121058500Y-81547500I0J-500000D01*
G01*
X117083500Y-114097500D02*
G75*
G02*
X116583500Y-113597500I0J500000D01*
G01*
X401800Y-95047500D02*
G75*
G02*
X-98200Y-94547500I0J500000D01*
G01*
X22180406Y-75610565D02*
G75*
G02*
X21780406Y-76010565I-400000J0D01*
G01*
X-98200Y-81547500D02*
X-98200Y-94547500D01*
X59920300Y-33161000D02*
X72920300Y-33161000D01*
X401800Y-95047500D02*
X18164200Y-95047500D01*
X73420300Y-32661000D02*
X73420300Y-19661000D01*
X107558500Y-95047500D02*
X120558500Y-95047500D01*
X91970300Y-19161000D02*
G75*
G02*
X92470300Y-19661000I0J-500000D01*
G01*
X92470300Y-32661000D02*
G75*
G02*
X91970300Y-33161000I-500000J0D01*
G01*
X91970300Y-19161000D02*
X78970300Y-19161000D01*
X-98200Y-81547500D02*
G75*
G02*
X401800Y-81047500I500000J0D01*
G01*
X18664200Y-94547500D02*
X18664200Y-81547500D01*
X164208500Y-81547500D02*
X164208500Y-94547500D01*
X31358100Y-95047500D02*
X44358100Y-95047500D01*
X22180406Y-75610565D02*
X22180406Y-62411365D01*
X116583500Y-100597500D02*
X116583500Y-113597500D01*
X59920300Y-33161000D02*
G75*
G02*
X59420300Y-32661000I0J500000D01*
G01*
X121058500Y-94547500D02*
G75*
G02*
X120558500Y-95047500I-500000J0D01*
G01*
X19047483Y-62411365D02*
G75*
G02*
X19447483Y-62011365I400000J0D01*
G01*
X134845500Y-61997900D02*
X121845500Y-61997900D01*
X177708500Y-81047500D02*
X164708500Y-81047500D01*
X107058500Y-81547500D02*
G75*
G02*
X107558500Y-81047500I500000J0D01*
G01*
X177708500Y-81047500D02*
G75*
G02*
X178208500Y-81547500I0J-500000D01*
G01*
X178208500Y-94547500D02*
X178208500Y-81547500D01*
X19447483Y-76010565D02*
G75*
G02*
X19047483Y-75610565I0J400000D01*
G01*
X130083500Y-100097500D02*
G75*
G02*
X130583500Y-100597500I0J-500000D01*
G01*
X164208500Y-81547500D02*
G75*
G02*
X164708500Y-81047500I500000J0D01*
G01*
X178208500Y-94547500D02*
G75*
G02*
X177708500Y-95047500I-500000J0D01*
G01*
X164708500Y-95047500D02*
X177708500Y-95047500D01*
X19047483Y-62411365D02*
X19047483Y-75610565D01*
X31358100Y-95047500D02*
G75*
G02*
X30858100Y-94547500I0J500000D01*
G01*
X120558500Y-81047500D02*
X107558500Y-81047500D01*
X30858100Y-81547500D02*
G75*
G02*
X31358100Y-81047500I500000J0D01*
G01*
X130583500Y-113597500D02*
X130583500Y-100597500D01*
X78970300Y-33161000D02*
G75*
G02*
X78470300Y-32661000I0J500000D01*
G01*
X72754820Y-133147280D02*
X79196178Y-133147280D01*
X234433143Y-100111465D02*
G75*
G02*
X234833143Y-100511465I0J-400000D01*
G01*
X231020051Y-100111465D02*
X234433143Y-100111465D01*
X100093317Y-127823483D02*
G75*
G02*
X91410361Y-127823483I-4341478J6495363D01*
G01*
X23820802Y-114252288D02*
X24922600Y-115878012D01*
X58271172Y-117422292D02*
X64657500Y-117422292D01*
X100371165Y-127739176D02*
X108282801Y-127739176D01*
X-100065Y-100498000D02*
G75*
G02*
X299935Y-100098000I400000J0D01*
G01*
X245569285Y-42947900D02*
X277821050Y-42947900D01*
X108782801Y-127239176D02*
X108782801Y-125107824D01*
X153975167Y-132459163D02*
G75*
G03*
X153975167Y-132459163I-1800000J0D01*
G01*
X179671515Y-132647280D02*
X179671515Y-117922292D01*
X91132513Y-124607824D02*
X83220877Y-124607824D01*
X277821050Y-42947900D02*
G75*
G02*
X278221050Y-43347900I0J-400000D01*
G01*
X245169285Y-43347900D02*
G75*
G02*
X245569285Y-42947900I400000J0D01*
G01*
X79696178Y-117922292D02*
X79696178Y-132647280D01*
X79196178Y-117422292D02*
X72754820Y-117422292D01*
X234833143Y-113710665D02*
G75*
G02*
X234433143Y-114110665I-400000J0D01*
G01*
X21780406Y-62011365D02*
X19447483Y-62011365D01*
X257313055Y-75610565D02*
G75*
G02*
X256913055Y-76010565I-400000J0D01*
G01*
X234433143Y-114110665D02*
X231020051Y-114110665D01*
X83220877Y-127739176D02*
X91132513Y-127739176D01*
X-6480183Y-18610400D02*
X-6480183Y-139909163D01*
X108282801Y-124607824D02*
X100371165Y-124607824D01*
X172730157Y-117422292D02*
X179171515Y-117422292D01*
X306423821Y-78522500D02*
G75*
G03*
X306423821Y-78522500I-1800000J0D01*
G01*
X310795167Y-139909163D02*
X310795167Y-18610400D01*
X1819817Y-136109163D02*
G75*
G03*
X1819817Y-136109163I-1800000J0D01*
G01*
X308795167Y-16610400D02*
G75*
G02*
X310795167Y-18610400I0J-2000000D01*
G01*
X256913055Y-62011365D02*
G75*
G02*
X257313055Y-62411365I0J-400000D01*
G01*
X252998433Y-76010565D02*
G75*
G02*
X252598433Y-75610565I0J400000D01*
G01*
X82720877Y-125107824D02*
X82720877Y-127239176D01*
X-6480183Y-18610400D02*
G75*
G02*
X-4480183Y-16610400I2000000J0D01*
G01*
X257313055Y-75610565D02*
X257313055Y-62411365D01*
X252998433Y-76010565D02*
X256913055Y-76010565D01*
X-4480183Y-141909163D02*
G75*
G02*
X-6480183Y-139909163I0J2000000D01*
G01*
X234833143Y-100511465D02*
X234833143Y-113710665D01*
X-4480183Y-16610400D02*
X308795167Y-16610400D01*
X172230157Y-117922292D02*
X172230157Y-132647280D01*
X252598433Y-62411365D02*
X252598433Y-75610565D01*
X91410361Y-124523517D02*
G75*
G02*
X100093317Y-124523517I4341478J-6495363D01*
G01*
X172730157Y-133147280D02*
X179171515Y-133147280D01*
X9347089Y-114097200D02*
X23504546Y-114097200D01*
X1561129Y-78142864D02*
G75*
G03*
X1561129Y-78142864I-1800000J0D01*
G01*
X72254820Y-132647280D02*
X72254820Y-117922292D01*
X-100065Y-113960427D02*
X-100065Y-100498000D01*
X231020051Y-114110665D02*
G75*
G02*
X230620051Y-113710665I0J400000D01*
G01*
X153975167Y-59441658D02*
G75*
G03*
X153975167Y-59441658I-1800000J0D01*
G01*
X252598433Y-62411365D02*
G75*
G02*
X252998433Y-62011365I400000J0D01*
G01*
X256913055Y-62011365D02*
X252998433Y-62011365D01*
X230620051Y-100511465D02*
G75*
G02*
X231020051Y-100111465I400000J0D01*
G01*
X230620051Y-113710665D02*
X230620051Y-100511465D01*
X306742147Y-136409163D02*
G75*
G03*
X306742147Y-136409163I-1800000J0D01*
G01*
X310795167Y-139909163D02*
G75*
G02*
X308795167Y-141909163I-2000000J0D01*
G01*
X44873900Y-132638500D02*
X44873900Y-119638500D01*
X253894500Y-19161000D02*
X240894500Y-19161000D01*
X102008100Y-94547500D02*
G75*
G02*
X101508100Y-95047500I-500000J0D01*
G01*
X187733500Y-113597500D02*
G75*
G02*
X187233500Y-114097500I-500000J0D01*
G01*
X11520500Y-56447900D02*
G75*
G02*
X11020500Y-56947900I-500000J0D01*
G01*
X187233500Y-100097500D02*
G75*
G02*
X187733500Y-100597500I0J-500000D01*
G01*
X221351500Y-119660500D02*
X221351500Y-132660500D01*
X221351500Y-119660500D02*
G75*
G02*
X221851500Y-119160500I500000J0D01*
G01*
X11020500Y-42947900D02*
G75*
G02*
X11520500Y-43447900I0J-500000D01*
G01*
X159945500Y-75997900D02*
G75*
G02*
X159445500Y-75497900I0J500000D01*
G01*
X173733500Y-100597500D02*
G75*
G02*
X174233500Y-100097500I500000J0D01*
G01*
X101508100Y-81047500D02*
X88508100Y-81047500D01*
X88008100Y-81547500D02*
X88008100Y-94547500D01*
X173733500Y-100597500D02*
X173733500Y-113597500D01*
X88508100Y-95047500D02*
G75*
G02*
X88008100Y-94547500I0J500000D01*
G01*
X-1979500Y-33135600D02*
G75*
G02*
X-2479500Y-32635600I0J500000D01*
G01*
X235351500Y-132660500D02*
G75*
G02*
X234851500Y-133160500I-500000J0D01*
G01*
X172945500Y-61997900D02*
G75*
G02*
X173445500Y-62497900I0J-500000D01*
G01*
X-2479500Y-19635600D02*
X-2479500Y-32635600D01*
X240894500Y-33161000D02*
X253894500Y-33161000D01*
X240394500Y-19661000D02*
G75*
G02*
X240894500Y-19161000I500000J0D01*
G01*
X293296500Y-114097500D02*
G75*
G02*
X292796500Y-113597500I0J500000D01*
G01*
X44373900Y-119138500D02*
G75*
G02*
X44873900Y-119638500I0J-500000D01*
G01*
X159445500Y-62497900D02*
X159445500Y-75497900D01*
X-2479500Y-19635600D02*
G75*
G02*
X-1979500Y-19135600I500000J0D01*
G01*
X11020500Y-19135600D02*
X-1979500Y-19135600D01*
X254394500Y-32661000D02*
G75*
G02*
X253894500Y-33161000I-500000J0D01*
G01*
X240394500Y-19661000D02*
X240394500Y-32661000D01*
X24228900Y-133138500D02*
G75*
G02*
X23728900Y-132638500I0J500000D01*
G01*
X174233500Y-114097500D02*
G75*
G02*
X173733500Y-113597500I0J500000D01*
G01*
X-1979500Y-56947900D02*
X11020500Y-56947900D01*
X173445500Y-75497900D02*
G75*
G02*
X172945500Y-75997900I-500000J0D01*
G01*
X240894500Y-33161000D02*
G75*
G02*
X240394500Y-32661000I0J500000D01*
G01*
X23728900Y-119638500D02*
G75*
G02*
X24228900Y-119138500I500000J0D01*
G01*
X221851500Y-133160500D02*
G75*
G02*
X221351500Y-132660500I0J500000D01*
G01*
X101508100Y-81047500D02*
G75*
G02*
X102008100Y-81547500I0J-500000D01*
G01*
X174233500Y-114097500D02*
X187233500Y-114097500D01*
X306296500Y-100097500D02*
G75*
G02*
X306796500Y-100597500I0J-500000D01*
G01*
X306796500Y-113597500D02*
X306796500Y-100597500D01*
X306796500Y-113597500D02*
G75*
G02*
X306296500Y-114097500I-500000J0D01*
G01*
X293296500Y-114097500D02*
X306296500Y-114097500D01*
X44873900Y-132638500D02*
G75*
G02*
X44373900Y-133138500I-500000J0D01*
G01*
X44373900Y-119138500D02*
X24228900Y-119138500D01*
X292796500Y-100597500D02*
X292796500Y-113597500D01*
X292796500Y-100597500D02*
G75*
G02*
X293296500Y-100097500I500000J0D01*
G01*
X24228900Y-133138500D02*
X44373900Y-133138500D01*
X187733500Y-113597500D02*
X187733500Y-100597500D01*
X102008100Y-94547500D02*
X102008100Y-81547500D01*
X173445500Y-75497900D02*
X173445500Y-62497900D01*
X234851500Y-119160500D02*
G75*
G02*
X235351500Y-119660500I0J-500000D01*
G01*
X187233500Y-100097500D02*
X174233500Y-100097500D01*
X234851500Y-119160500D02*
X221851500Y-119160500D01*
X172945500Y-61997900D02*
X159945500Y-61997900D01*
X159945500Y-75997900D02*
X172945500Y-75997900D01*
X11520500Y-56447900D02*
X11520500Y-43447900D01*
X159445500Y-62497900D02*
G75*
G02*
X159945500Y-61997900I500000J0D01*
G01*
X88008100Y-81547500D02*
G75*
G02*
X88508100Y-81047500I500000J0D01*
G01*
X306296500Y-100097500D02*
X293296500Y-100097500D01*
X253894500Y-19161000D02*
G75*
G02*
X254394500Y-19661000I0J-500000D01*
G01*
X254394500Y-32661000D02*
X254394500Y-19661000D01*
X88508100Y-95047500D02*
X101508100Y-95047500D01*
X235351500Y-132660500D02*
X235351500Y-119660500D01*
X221851500Y-133160500D02*
X234851500Y-133160500D01*
X23728900Y-119638500D02*
X23728900Y-132638500D01*
M02*
