G04 #@! TF.GenerationSoftware,KiCad,Pcbnew,(5.1.7)-1*
G04 #@! TF.CreationDate,2020-12-07T01:10:59-05:00*
G04 #@! TF.ProjectId,lckplate,6c636b70-6c61-4746-952e-6b696361645f,rev?*
G04 #@! TF.SameCoordinates,Original*
G04 #@! TF.FileFunction,Soldermask,Bot*
G04 #@! TF.FilePolarity,Negative*
%FSLAX46Y46*%
G04 Gerber Fmt 4.6, Leading zero omitted, Abs format (unit mm)*
G04 Created by KiCad (PCBNEW (5.1.7)-1) date 2020-12-07 01:10:59*
%MOMM*%
%LPD*%
G01*
G04 APERTURE LIST*
%ADD10C,0.300000*%
G04 APERTURE END LIST*
D10*
X90826757Y-131099928D02*
X90746400Y-131028500D01*
X90594614Y-130957071D01*
X90237471Y-130957071D01*
X90103542Y-131028500D01*
X90041042Y-131099928D01*
X89987471Y-131242785D01*
X90005328Y-131385642D01*
X90103542Y-131599928D01*
X91067828Y-132457071D01*
X90139257Y-132457071D01*
X89023185Y-130957071D02*
X88880328Y-130957071D01*
X88746400Y-131028500D01*
X88683900Y-131099928D01*
X88630328Y-131242785D01*
X88594614Y-131528500D01*
X88639257Y-131885642D01*
X88746400Y-132171357D01*
X88835685Y-132314214D01*
X88916042Y-132385642D01*
X89067828Y-132457071D01*
X89210685Y-132457071D01*
X89344614Y-132385642D01*
X89407114Y-132314214D01*
X89460685Y-132171357D01*
X89496400Y-131885642D01*
X89451757Y-131528500D01*
X89344614Y-131242785D01*
X89255328Y-131099928D01*
X89174971Y-131028500D01*
X89023185Y-130957071D01*
X87969614Y-131099928D02*
X87889257Y-131028500D01*
X87737471Y-130957071D01*
X87380328Y-130957071D01*
X87246400Y-131028500D01*
X87183900Y-131099928D01*
X87130328Y-131242785D01*
X87148185Y-131385642D01*
X87246400Y-131599928D01*
X88210685Y-132457071D01*
X87282114Y-132457071D01*
X86166042Y-130957071D02*
X86023185Y-130957071D01*
X85889257Y-131028500D01*
X85826757Y-131099928D01*
X85773185Y-131242785D01*
X85737471Y-131528500D01*
X85782114Y-131885642D01*
X85889257Y-132171357D01*
X85978542Y-132314214D01*
X86058900Y-132385642D01*
X86210685Y-132457071D01*
X86353542Y-132457071D01*
X86487471Y-132385642D01*
X86549971Y-132314214D01*
X86603542Y-132171357D01*
X86639257Y-131885642D01*
X86594614Y-131528500D01*
X86487471Y-131242785D01*
X86398185Y-131099928D01*
X86317828Y-131028500D01*
X86166042Y-130957071D01*
M02*
