G04 #@! TF.GenerationSoftware,KiCad,Pcbnew,(5.1.7)-1*
G04 #@! TF.CreationDate,2020-12-07T01:10:59-05:00*
G04 #@! TF.ProjectId,lckplate,6c636b70-6c61-4746-952e-6b696361645f,rev?*
G04 #@! TF.SameCoordinates,Original*
G04 #@! TF.FileFunction,Legend,Bot*
G04 #@! TF.FilePolarity,Positive*
%FSLAX46Y46*%
G04 Gerber Fmt 4.6, Leading zero omitted, Abs format (unit mm)*
G04 Created by KiCad (PCBNEW (5.1.7)-1) date 2020-12-07 01:10:59*
%MOMM*%
%LPD*%
G01*
G04 APERTURE LIST*
%ADD10C,0.375000*%
G04 APERTURE END LIST*
D10*
X106473922Y-132457071D02*
X106348922Y-131457071D01*
X106384636Y-131742785D02*
X106295350Y-131599928D01*
X106214993Y-131528500D01*
X106063208Y-131457071D01*
X105920350Y-131457071D01*
X104964993Y-132385642D02*
X105116779Y-132457071D01*
X105402493Y-132457071D01*
X105536422Y-132385642D01*
X105589993Y-132242785D01*
X105518565Y-131671357D01*
X105429279Y-131528500D01*
X105277493Y-131457071D01*
X104991779Y-131457071D01*
X104857850Y-131528500D01*
X104804279Y-131671357D01*
X104822136Y-131814214D01*
X105554279Y-131957071D01*
X104277493Y-131457071D02*
X104045350Y-132457071D01*
X103563208Y-131457071D01*
X102331065Y-132457071D02*
X103188208Y-132457071D01*
X102759636Y-132457071D02*
X102572136Y-130957071D01*
X102741779Y-131171357D01*
X102902493Y-131314214D01*
X103054279Y-131385642D01*
X100250708Y-132957071D02*
X99982850Y-130814214D01*
X97259636Y-132457071D02*
X97973922Y-132457071D01*
X97786422Y-130957071D01*
X96777493Y-131457071D02*
X96545350Y-132457071D01*
X96063208Y-131457071D02*
X96545350Y-132457071D01*
X96732850Y-132814214D01*
X96813208Y-132885642D01*
X96964993Y-132957071D01*
X95679279Y-132385642D02*
X95545350Y-132457071D01*
X95259636Y-132457071D01*
X95107850Y-132385642D01*
X95018565Y-132242785D01*
X95009636Y-132171357D01*
X95063208Y-132028500D01*
X95197136Y-131957071D01*
X95411422Y-131957071D01*
X95545350Y-131885642D01*
X95598922Y-131742785D01*
X95589993Y-131671357D01*
X95500708Y-131528500D01*
X95348922Y-131457071D01*
X95134636Y-131457071D01*
X95000708Y-131528500D01*
X94188208Y-132457071D02*
X94322136Y-132385642D01*
X94384636Y-132314214D01*
X94438208Y-132171357D01*
X94384636Y-131742785D01*
X94295350Y-131599928D01*
X94214993Y-131528500D01*
X94063208Y-131457071D01*
X93848922Y-131457071D01*
X93714993Y-131528500D01*
X93652493Y-131599928D01*
X93598922Y-131742785D01*
X93652493Y-132171357D01*
X93741779Y-132314214D01*
X93822136Y-132385642D01*
X93973922Y-132457071D01*
X94188208Y-132457071D01*
X92259636Y-132457071D02*
X93116779Y-132457071D01*
X92688208Y-132457071D02*
X92500708Y-130957071D01*
X92670350Y-131171357D01*
X92831065Y-131314214D01*
X92982850Y-131385642D01*
M02*
