%TF.GenerationSoftware,KiCad,Pcbnew,6.0.11-2627ca5db0~126~ubuntu22.04.1*%
%TF.CreationDate,2023-03-02T17:59:36+00:00*%
%TF.ProjectId,pcb-r1,7063622d-7231-42e6-9b69-6361645f7063,rev?*%
%TF.SameCoordinates,Original*%
%TF.FileFunction,Soldermask,Top*%
%TF.FilePolarity,Negative*%
%FSLAX46Y46*%
G04 Gerber Fmt 4.6, Leading zero omitted, Abs format (unit mm)*
G04 Created by KiCad (PCBNEW 6.0.11-2627ca5db0~126~ubuntu22.04.1) date 2023-03-02 17:59:36*
%MOMM*%
%LPD*%
G01*
G04 APERTURE LIST*
G04 Aperture macros list*
%AMRoundRect*
0 Rectangle with rounded corners*
0 $1 Rounding radius*
0 $2 $3 $4 $5 $6 $7 $8 $9 X,Y pos of 4 corners*
0 Add a 4 corners polygon primitive as box body*
4,1,4,$2,$3,$4,$5,$6,$7,$8,$9,$2,$3,0*
0 Add four circle primitives for the rounded corners*
1,1,$1+$1,$2,$3*
1,1,$1+$1,$4,$5*
1,1,$1+$1,$6,$7*
1,1,$1+$1,$8,$9*
0 Add four rect primitives between the rounded corners*
20,1,$1+$1,$2,$3,$4,$5,0*
20,1,$1+$1,$4,$5,$6,$7,0*
20,1,$1+$1,$6,$7,$8,$9,0*
20,1,$1+$1,$8,$9,$2,$3,0*%
G04 Aperture macros list end*
%ADD10C,0.010000*%
%ADD11RoundRect,0.050000X0.900000X-0.900000X0.900000X0.900000X-0.900000X0.900000X-0.900000X-0.900000X0*%
%ADD12O,1.900000X1.900000*%
%ADD13C,4.500000*%
%ADD14C,4.087800*%
%ADD15C,1.850000*%
%ADD16C,3.148000*%
%ADD17C,2.100000*%
%ADD18RoundRect,0.050000X1.000000X-1.000000X1.000000X1.000000X-1.000000X1.000000X-1.000000X-1.000000X0*%
%ADD19RoundRect,0.050000X1.000000X-1.600000X1.000000X1.600000X-1.000000X1.600000X-1.000000X-1.600000X0*%
%ADD20RoundRect,0.050000X-0.600000X0.600000X-0.600000X-0.600000X0.600000X-0.600000X0.600000X0.600000X0*%
%ADD21C,1.300000*%
%ADD22C,1.700000*%
%ADD23C,1.500000*%
%ADD24RoundRect,0.050000X0.850000X0.850000X-0.850000X0.850000X-0.850000X-0.850000X0.850000X-0.850000X0*%
%ADD25C,1.800000*%
%ADD26RoundRect,0.050000X-0.800000X0.800000X-0.800000X-0.800000X0.800000X-0.800000X0.800000X0.800000X0*%
%ADD27O,1.700000X1.700000*%
%ADD28O,1.500000X1.500000*%
%ADD29RoundRect,0.050000X-0.900000X-0.900000X0.900000X-0.900000X0.900000X0.900000X-0.900000X0.900000X0*%
%ADD30C,1.900000*%
%ADD31RoundRect,0.050000X0.800000X-0.800000X0.800000X0.800000X-0.800000X0.800000X-0.800000X-0.800000X0*%
%ADD32O,0.750000X1.100000*%
%ADD33O,1.000000X1.800000*%
%ADD34O,1.000000X2.500000*%
%ADD35C,1.600000*%
%ADD36C,1.624000*%
G04 APERTURE END LIST*
%TO.C,G\u002A\u002A\u002A*%
G36*
X-4689580Y-9855548D02*
G01*
X-4540881Y-9992435D01*
X-4428981Y-10120895D01*
X-4379034Y-10233206D01*
X-4404371Y-10353239D01*
X-4518320Y-10504867D01*
X-4734211Y-10711963D01*
X-5065374Y-10998399D01*
X-5136043Y-11058353D01*
X-5490170Y-11366925D01*
X-5859886Y-11702878D01*
X-6184707Y-12010793D01*
X-6294687Y-12119937D01*
X-6532611Y-12377600D01*
X-6780853Y-12673811D01*
X-7017575Y-12978686D01*
X-7220941Y-13262339D01*
X-7369114Y-13494884D01*
X-7440256Y-13646434D01*
X-7438186Y-13684908D01*
X-7350011Y-13666807D01*
X-7159225Y-13579347D01*
X-6914350Y-13445550D01*
X-6458995Y-13182064D01*
X-6124333Y-12998061D01*
X-5884581Y-12888063D01*
X-5713955Y-12846590D01*
X-5586672Y-12868164D01*
X-5476949Y-12947307D01*
X-5359002Y-13078540D01*
X-5333004Y-13109543D01*
X-5243646Y-13240976D01*
X-5274153Y-13307779D01*
X-5310410Y-13324379D01*
X-5391289Y-13427950D01*
X-5383875Y-13489038D01*
X-5411862Y-13631061D01*
X-5556600Y-13819584D01*
X-5784811Y-14022595D01*
X-6063214Y-14208079D01*
X-6210238Y-14283967D01*
X-6529684Y-14397088D01*
X-6900741Y-14477428D01*
X-7264405Y-14517113D01*
X-7561670Y-14508265D01*
X-7676043Y-14479630D01*
X-7842842Y-14373995D01*
X-8042511Y-14200040D01*
X-8086676Y-14154990D01*
X-8252043Y-13925729D01*
X-8318789Y-13671071D01*
X-8285307Y-13361543D01*
X-8149986Y-12967671D01*
X-8004400Y-12647805D01*
X-7827523Y-12313115D01*
X-7628593Y-12010033D01*
X-7375985Y-11697085D01*
X-7038073Y-11332802D01*
X-6874100Y-11165605D01*
X-6380247Y-10684366D01*
X-5968474Y-10323500D01*
X-5618843Y-10068227D01*
X-5311413Y-9903769D01*
X-5062729Y-9823057D01*
X-4847008Y-9795749D01*
X-4689580Y-9855548D01*
G37*
D10*
X-4689580Y-9855548D02*
X-4540881Y-9992435D01*
X-4428981Y-10120895D01*
X-4379034Y-10233206D01*
X-4404371Y-10353239D01*
X-4518320Y-10504867D01*
X-4734211Y-10711963D01*
X-5065374Y-10998399D01*
X-5136043Y-11058353D01*
X-5490170Y-11366925D01*
X-5859886Y-11702878D01*
X-6184707Y-12010793D01*
X-6294687Y-12119937D01*
X-6532611Y-12377600D01*
X-6780853Y-12673811D01*
X-7017575Y-12978686D01*
X-7220941Y-13262339D01*
X-7369114Y-13494884D01*
X-7440256Y-13646434D01*
X-7438186Y-13684908D01*
X-7350011Y-13666807D01*
X-7159225Y-13579347D01*
X-6914350Y-13445550D01*
X-6458995Y-13182064D01*
X-6124333Y-12998061D01*
X-5884581Y-12888063D01*
X-5713955Y-12846590D01*
X-5586672Y-12868164D01*
X-5476949Y-12947307D01*
X-5359002Y-13078540D01*
X-5333004Y-13109543D01*
X-5243646Y-13240976D01*
X-5274153Y-13307779D01*
X-5310410Y-13324379D01*
X-5391289Y-13427950D01*
X-5383875Y-13489038D01*
X-5411862Y-13631061D01*
X-5556600Y-13819584D01*
X-5784811Y-14022595D01*
X-6063214Y-14208079D01*
X-6210238Y-14283967D01*
X-6529684Y-14397088D01*
X-6900741Y-14477428D01*
X-7264405Y-14517113D01*
X-7561670Y-14508265D01*
X-7676043Y-14479630D01*
X-7842842Y-14373995D01*
X-8042511Y-14200040D01*
X-8086676Y-14154990D01*
X-8252043Y-13925729D01*
X-8318789Y-13671071D01*
X-8285307Y-13361543D01*
X-8149986Y-12967671D01*
X-8004400Y-12647805D01*
X-7827523Y-12313115D01*
X-7628593Y-12010033D01*
X-7375985Y-11697085D01*
X-7038073Y-11332802D01*
X-6874100Y-11165605D01*
X-6380247Y-10684366D01*
X-5968474Y-10323500D01*
X-5618843Y-10068227D01*
X-5311413Y-9903769D01*
X-5062729Y-9823057D01*
X-4847008Y-9795749D01*
X-4689580Y-9855548D01*
G36*
X-3605053Y-15233010D02*
G01*
X-3380870Y-15282231D01*
X-3284896Y-15288834D01*
X-3123975Y-15348829D01*
X-3068904Y-15421545D01*
X-3068258Y-15591729D01*
X-3145227Y-15785370D01*
X-3263173Y-15931011D01*
X-3348139Y-15966167D01*
X-3467445Y-16033410D01*
X-3559329Y-16156667D01*
X-3631336Y-16276161D01*
X-3723561Y-16382009D01*
X-3861115Y-16491012D01*
X-4069112Y-16619971D01*
X-4372665Y-16785689D01*
X-4796887Y-17004967D01*
X-4924311Y-17069906D01*
X-5293104Y-17262017D01*
X-5600271Y-17430495D01*
X-5817703Y-17559282D01*
X-5917288Y-17632322D01*
X-5920596Y-17638986D01*
X-5887643Y-17735872D01*
X-5796683Y-17954538D01*
X-5661327Y-18263320D01*
X-5495187Y-18630556D01*
X-5481707Y-18659916D01*
X-5041367Y-19617999D01*
X-5289756Y-19821038D01*
X-5530789Y-19981849D01*
X-5718802Y-20002565D01*
X-5888573Y-19875131D01*
X-6043225Y-19646510D01*
X-6223638Y-19321779D01*
X-6404982Y-18970063D01*
X-6456625Y-18863344D01*
X-6587987Y-18591444D01*
X-6707450Y-18354628D01*
X-6750777Y-18273399D01*
X-6856366Y-18082964D01*
X-7297922Y-18304218D01*
X-7697245Y-18525055D01*
X-7940071Y-18710455D01*
X-8034070Y-18866494D01*
X-8035811Y-18888796D01*
X-8091509Y-18992155D01*
X-8234072Y-19170452D01*
X-8426706Y-19384815D01*
X-8632615Y-19596368D01*
X-8815003Y-19766238D01*
X-8937076Y-19855551D01*
X-8955868Y-19860834D01*
X-9068615Y-19803612D01*
X-9219724Y-19672198D01*
X-9347145Y-19526967D01*
X-9390478Y-19437962D01*
X-9346577Y-19327725D01*
X-9236439Y-19132297D01*
X-9092408Y-18904163D01*
X-8946830Y-18695810D01*
X-8883670Y-18615574D01*
X-8805005Y-18447717D01*
X-8797811Y-18389796D01*
X-8755721Y-18261368D01*
X-8725289Y-18238056D01*
X-8637977Y-18152815D01*
X-8489056Y-17959484D01*
X-8303602Y-17695434D01*
X-8106691Y-17398038D01*
X-7923397Y-17104668D01*
X-7778798Y-16852696D01*
X-7727392Y-16750802D01*
X-7621252Y-16541321D01*
X-7537037Y-16406825D01*
X-7520353Y-16389500D01*
X-7451458Y-16300148D01*
X-7324845Y-16104426D01*
X-7166737Y-15843028D01*
X-7151790Y-15817553D01*
X-6841842Y-15287938D01*
X-6450836Y-15326228D01*
X-6126842Y-15397724D01*
X-5897551Y-15527022D01*
X-5890143Y-15534205D01*
X-5720456Y-15703892D01*
X-6068593Y-16150681D01*
X-6240357Y-16378998D01*
X-6356354Y-16548529D01*
X-6391538Y-16622661D01*
X-6391500Y-16622700D01*
X-6306230Y-16602093D01*
X-6103409Y-16516323D01*
X-5811837Y-16380151D01*
X-5460314Y-16208334D01*
X-5077642Y-16015632D01*
X-4692620Y-15816804D01*
X-4334050Y-15626609D01*
X-4030732Y-15459806D01*
X-3811466Y-15331153D01*
X-3705053Y-15255411D01*
X-3700223Y-15243543D01*
X-3686785Y-15212840D01*
X-3605053Y-15233010D01*
G37*
X-3605053Y-15233010D02*
X-3380870Y-15282231D01*
X-3284896Y-15288834D01*
X-3123975Y-15348829D01*
X-3068904Y-15421545D01*
X-3068258Y-15591729D01*
X-3145227Y-15785370D01*
X-3263173Y-15931011D01*
X-3348139Y-15966167D01*
X-3467445Y-16033410D01*
X-3559329Y-16156667D01*
X-3631336Y-16276161D01*
X-3723561Y-16382009D01*
X-3861115Y-16491012D01*
X-4069112Y-16619971D01*
X-4372665Y-16785689D01*
X-4796887Y-17004967D01*
X-4924311Y-17069906D01*
X-5293104Y-17262017D01*
X-5600271Y-17430495D01*
X-5817703Y-17559282D01*
X-5917288Y-17632322D01*
X-5920596Y-17638986D01*
X-5887643Y-17735872D01*
X-5796683Y-17954538D01*
X-5661327Y-18263320D01*
X-5495187Y-18630556D01*
X-5481707Y-18659916D01*
X-5041367Y-19617999D01*
X-5289756Y-19821038D01*
X-5530789Y-19981849D01*
X-5718802Y-20002565D01*
X-5888573Y-19875131D01*
X-6043225Y-19646510D01*
X-6223638Y-19321779D01*
X-6404982Y-18970063D01*
X-6456625Y-18863344D01*
X-6587987Y-18591444D01*
X-6707450Y-18354628D01*
X-6750777Y-18273399D01*
X-6856366Y-18082964D01*
X-7297922Y-18304218D01*
X-7697245Y-18525055D01*
X-7940071Y-18710455D01*
X-8034070Y-18866494D01*
X-8035811Y-18888796D01*
X-8091509Y-18992155D01*
X-8234072Y-19170452D01*
X-8426706Y-19384815D01*
X-8632615Y-19596368D01*
X-8815003Y-19766238D01*
X-8937076Y-19855551D01*
X-8955868Y-19860834D01*
X-9068615Y-19803612D01*
X-9219724Y-19672198D01*
X-9347145Y-19526967D01*
X-9390478Y-19437962D01*
X-9346577Y-19327725D01*
X-9236439Y-19132297D01*
X-9092408Y-18904163D01*
X-8946830Y-18695810D01*
X-8883670Y-18615574D01*
X-8805005Y-18447717D01*
X-8797811Y-18389796D01*
X-8755721Y-18261368D01*
X-8725289Y-18238056D01*
X-8637977Y-18152815D01*
X-8489056Y-17959484D01*
X-8303602Y-17695434D01*
X-8106691Y-17398038D01*
X-7923397Y-17104668D01*
X-7778798Y-16852696D01*
X-7727392Y-16750802D01*
X-7621252Y-16541321D01*
X-7537037Y-16406825D01*
X-7520353Y-16389500D01*
X-7451458Y-16300148D01*
X-7324845Y-16104426D01*
X-7166737Y-15843028D01*
X-7151790Y-15817553D01*
X-6841842Y-15287938D01*
X-6450836Y-15326228D01*
X-6126842Y-15397724D01*
X-5897551Y-15527022D01*
X-5890143Y-15534205D01*
X-5720456Y-15703892D01*
X-6068593Y-16150681D01*
X-6240357Y-16378998D01*
X-6356354Y-16548529D01*
X-6391538Y-16622661D01*
X-6391500Y-16622700D01*
X-6306230Y-16602093D01*
X-6103409Y-16516323D01*
X-5811837Y-16380151D01*
X-5460314Y-16208334D01*
X-5077642Y-16015632D01*
X-4692620Y-15816804D01*
X-4334050Y-15626609D01*
X-4030732Y-15459806D01*
X-3811466Y-15331153D01*
X-3705053Y-15255411D01*
X-3700223Y-15243543D01*
X-3686785Y-15212840D01*
X-3605053Y-15233010D01*
G36*
X300235029Y-9808218D02*
G01*
X300383728Y-9945105D01*
X300495628Y-10073565D01*
X300545575Y-10185876D01*
X300520238Y-10305909D01*
X300406289Y-10457537D01*
X300190398Y-10664633D01*
X299859235Y-10951069D01*
X299788566Y-11011023D01*
X299434439Y-11319595D01*
X299064723Y-11655548D01*
X298739902Y-11963463D01*
X298629922Y-12072607D01*
X298391998Y-12330270D01*
X298143756Y-12626481D01*
X297907034Y-12931356D01*
X297703668Y-13215009D01*
X297555495Y-13447554D01*
X297484353Y-13599104D01*
X297486423Y-13637578D01*
X297574598Y-13619477D01*
X297765384Y-13532017D01*
X298010259Y-13398220D01*
X298465614Y-13134734D01*
X298800276Y-12950731D01*
X299040028Y-12840733D01*
X299210654Y-12799260D01*
X299337937Y-12820834D01*
X299447660Y-12899977D01*
X299565607Y-13031210D01*
X299591605Y-13062213D01*
X299680963Y-13193646D01*
X299650456Y-13260449D01*
X299614199Y-13277049D01*
X299533320Y-13380620D01*
X299540734Y-13441708D01*
X299512747Y-13583731D01*
X299368009Y-13772254D01*
X299139798Y-13975265D01*
X298861395Y-14160749D01*
X298714371Y-14236637D01*
X298394925Y-14349758D01*
X298023868Y-14430098D01*
X297660204Y-14469783D01*
X297362939Y-14460935D01*
X297248566Y-14432300D01*
X297081767Y-14326665D01*
X296882098Y-14152710D01*
X296837933Y-14107660D01*
X296672566Y-13878399D01*
X296605820Y-13623741D01*
X296639302Y-13314213D01*
X296774623Y-12920341D01*
X296920209Y-12600475D01*
X297097086Y-12265785D01*
X297296016Y-11962703D01*
X297548624Y-11649755D01*
X297886536Y-11285472D01*
X298050509Y-11118275D01*
X298544362Y-10637036D01*
X298956135Y-10276170D01*
X299305766Y-10020897D01*
X299613196Y-9856439D01*
X299861880Y-9775727D01*
X300077601Y-9748419D01*
X300235029Y-9808218D01*
G37*
X300235029Y-9808218D02*
X300383728Y-9945105D01*
X300495628Y-10073565D01*
X300545575Y-10185876D01*
X300520238Y-10305909D01*
X300406289Y-10457537D01*
X300190398Y-10664633D01*
X299859235Y-10951069D01*
X299788566Y-11011023D01*
X299434439Y-11319595D01*
X299064723Y-11655548D01*
X298739902Y-11963463D01*
X298629922Y-12072607D01*
X298391998Y-12330270D01*
X298143756Y-12626481D01*
X297907034Y-12931356D01*
X297703668Y-13215009D01*
X297555495Y-13447554D01*
X297484353Y-13599104D01*
X297486423Y-13637578D01*
X297574598Y-13619477D01*
X297765384Y-13532017D01*
X298010259Y-13398220D01*
X298465614Y-13134734D01*
X298800276Y-12950731D01*
X299040028Y-12840733D01*
X299210654Y-12799260D01*
X299337937Y-12820834D01*
X299447660Y-12899977D01*
X299565607Y-13031210D01*
X299591605Y-13062213D01*
X299680963Y-13193646D01*
X299650456Y-13260449D01*
X299614199Y-13277049D01*
X299533320Y-13380620D01*
X299540734Y-13441708D01*
X299512747Y-13583731D01*
X299368009Y-13772254D01*
X299139798Y-13975265D01*
X298861395Y-14160749D01*
X298714371Y-14236637D01*
X298394925Y-14349758D01*
X298023868Y-14430098D01*
X297660204Y-14469783D01*
X297362939Y-14460935D01*
X297248566Y-14432300D01*
X297081767Y-14326665D01*
X296882098Y-14152710D01*
X296837933Y-14107660D01*
X296672566Y-13878399D01*
X296605820Y-13623741D01*
X296639302Y-13314213D01*
X296774623Y-12920341D01*
X296920209Y-12600475D01*
X297097086Y-12265785D01*
X297296016Y-11962703D01*
X297548624Y-11649755D01*
X297886536Y-11285472D01*
X298050509Y-11118275D01*
X298544362Y-10637036D01*
X298956135Y-10276170D01*
X299305766Y-10020897D01*
X299613196Y-9856439D01*
X299861880Y-9775727D01*
X300077601Y-9748419D01*
X300235029Y-9808218D01*
G36*
X301213658Y-15136010D02*
G01*
X301437841Y-15185231D01*
X301533815Y-15191833D01*
X301694736Y-15251829D01*
X301749807Y-15324545D01*
X301750453Y-15494729D01*
X301673484Y-15688370D01*
X301555537Y-15834011D01*
X301470571Y-15869167D01*
X301351266Y-15936409D01*
X301259382Y-16059667D01*
X301187374Y-16179161D01*
X301095150Y-16285009D01*
X300957596Y-16394011D01*
X300749599Y-16522970D01*
X300446046Y-16688688D01*
X300021824Y-16907967D01*
X299894400Y-16972906D01*
X299525607Y-17165017D01*
X299218439Y-17333495D01*
X299001008Y-17462282D01*
X298901423Y-17535322D01*
X298898115Y-17541986D01*
X298931068Y-17638872D01*
X299022028Y-17857537D01*
X299157384Y-18166320D01*
X299323523Y-18533556D01*
X299337003Y-18562916D01*
X299777343Y-19520999D01*
X299528955Y-19724038D01*
X299287921Y-19884849D01*
X299099908Y-19905565D01*
X298930137Y-19778130D01*
X298775485Y-19549510D01*
X298595072Y-19224778D01*
X298413729Y-18873063D01*
X298362085Y-18766343D01*
X298230724Y-18494444D01*
X298111260Y-18257628D01*
X298067934Y-18176399D01*
X297962345Y-17985964D01*
X297520789Y-18207217D01*
X297121466Y-18428054D01*
X296878640Y-18613455D01*
X296784641Y-18769494D01*
X296782900Y-18791796D01*
X296727202Y-18895154D01*
X296584638Y-19073452D01*
X296392005Y-19287814D01*
X296186096Y-19499368D01*
X296003708Y-19669238D01*
X295881635Y-19758551D01*
X295862843Y-19763833D01*
X295750096Y-19706612D01*
X295598986Y-19575198D01*
X295471566Y-19429967D01*
X295428233Y-19340962D01*
X295472133Y-19230725D01*
X295582272Y-19035296D01*
X295726302Y-18807162D01*
X295871880Y-18598810D01*
X295935040Y-18518573D01*
X296013706Y-18350717D01*
X296020900Y-18292796D01*
X296062990Y-18164368D01*
X296093422Y-18141055D01*
X296180734Y-18055815D01*
X296329655Y-17862484D01*
X296515109Y-17598434D01*
X296712020Y-17301037D01*
X296895313Y-17007667D01*
X297039912Y-16755696D01*
X297091319Y-16653801D01*
X297197458Y-16444321D01*
X297281673Y-16309824D01*
X297298358Y-16292500D01*
X297367253Y-16203148D01*
X297493865Y-16007426D01*
X297651973Y-15746027D01*
X297666921Y-15720552D01*
X297976869Y-15190938D01*
X298367875Y-15229228D01*
X298691869Y-15300724D01*
X298921160Y-15430021D01*
X298928567Y-15437205D01*
X299098255Y-15606892D01*
X298750117Y-16053681D01*
X298578354Y-16281998D01*
X298462357Y-16451528D01*
X298427173Y-16525661D01*
X298427211Y-16525700D01*
X298512480Y-16505093D01*
X298715301Y-16419323D01*
X299006874Y-16283151D01*
X299358396Y-16111334D01*
X299741069Y-15918632D01*
X300126090Y-15719804D01*
X300484661Y-15529609D01*
X300787979Y-15362805D01*
X301007245Y-15234153D01*
X301113657Y-15158410D01*
X301118487Y-15146542D01*
X301131926Y-15115840D01*
X301213658Y-15136010D01*
G37*
X301213658Y-15136010D02*
X301437841Y-15185231D01*
X301533815Y-15191833D01*
X301694736Y-15251829D01*
X301749807Y-15324545D01*
X301750453Y-15494729D01*
X301673484Y-15688370D01*
X301555537Y-15834011D01*
X301470571Y-15869167D01*
X301351266Y-15936409D01*
X301259382Y-16059667D01*
X301187374Y-16179161D01*
X301095150Y-16285009D01*
X300957596Y-16394011D01*
X300749599Y-16522970D01*
X300446046Y-16688688D01*
X300021824Y-16907967D01*
X299894400Y-16972906D01*
X299525607Y-17165017D01*
X299218439Y-17333495D01*
X299001008Y-17462282D01*
X298901423Y-17535322D01*
X298898115Y-17541986D01*
X298931068Y-17638872D01*
X299022028Y-17857537D01*
X299157384Y-18166320D01*
X299323523Y-18533556D01*
X299337003Y-18562916D01*
X299777343Y-19520999D01*
X299528955Y-19724038D01*
X299287921Y-19884849D01*
X299099908Y-19905565D01*
X298930137Y-19778130D01*
X298775485Y-19549510D01*
X298595072Y-19224778D01*
X298413729Y-18873063D01*
X298362085Y-18766343D01*
X298230724Y-18494444D01*
X298111260Y-18257628D01*
X298067934Y-18176399D01*
X297962345Y-17985964D01*
X297520789Y-18207217D01*
X297121466Y-18428054D01*
X296878640Y-18613455D01*
X296784641Y-18769494D01*
X296782900Y-18791796D01*
X296727202Y-18895154D01*
X296584638Y-19073452D01*
X296392005Y-19287814D01*
X296186096Y-19499368D01*
X296003708Y-19669238D01*
X295881635Y-19758551D01*
X295862843Y-19763833D01*
X295750096Y-19706612D01*
X295598986Y-19575198D01*
X295471566Y-19429967D01*
X295428233Y-19340962D01*
X295472133Y-19230725D01*
X295582272Y-19035296D01*
X295726302Y-18807162D01*
X295871880Y-18598810D01*
X295935040Y-18518573D01*
X296013706Y-18350717D01*
X296020900Y-18292796D01*
X296062990Y-18164368D01*
X296093422Y-18141055D01*
X296180734Y-18055815D01*
X296329655Y-17862484D01*
X296515109Y-17598434D01*
X296712020Y-17301037D01*
X296895313Y-17007667D01*
X297039912Y-16755696D01*
X297091319Y-16653801D01*
X297197458Y-16444321D01*
X297281673Y-16309824D01*
X297298358Y-16292500D01*
X297367253Y-16203148D01*
X297493865Y-16007426D01*
X297651973Y-15746027D01*
X297666921Y-15720552D01*
X297976869Y-15190938D01*
X298367875Y-15229228D01*
X298691869Y-15300724D01*
X298921160Y-15430021D01*
X298928567Y-15437205D01*
X299098255Y-15606892D01*
X298750117Y-16053681D01*
X298578354Y-16281998D01*
X298462357Y-16451528D01*
X298427173Y-16525661D01*
X298427211Y-16525700D01*
X298512480Y-16505093D01*
X298715301Y-16419323D01*
X299006874Y-16283151D01*
X299358396Y-16111334D01*
X299741069Y-15918632D01*
X300126090Y-15719804D01*
X300484661Y-15529609D01*
X300787979Y-15362805D01*
X301007245Y-15234153D01*
X301113657Y-15158410D01*
X301118487Y-15146542D01*
X301131926Y-15115840D01*
X301213658Y-15136010D01*
G36*
X299281418Y-4416684D02*
G01*
X299435472Y-4551690D01*
X299541111Y-4704017D01*
X299554398Y-4799016D01*
X299561298Y-4962752D01*
X299598240Y-5019307D01*
X299610801Y-5107700D01*
X299547532Y-5286525D01*
X299401475Y-5570716D01*
X299165669Y-5975211D01*
X299110212Y-6066791D01*
X298862149Y-6477150D01*
X298618078Y-6885427D01*
X298406346Y-7243936D01*
X298257215Y-7501616D01*
X297985021Y-7981732D01*
X298330638Y-7859791D01*
X298612357Y-7768601D01*
X298962435Y-7666138D01*
X299180020Y-7607312D01*
X299683785Y-7476773D01*
X299926676Y-7709477D01*
X300081961Y-7879856D01*
X300165145Y-8013211D01*
X300169566Y-8035085D01*
X300111881Y-8140820D01*
X299931315Y-8256599D01*
X299616604Y-8387167D01*
X299156483Y-8537265D01*
X298603233Y-8694464D01*
X297954207Y-8869237D01*
X297449363Y-9001033D01*
X297069978Y-9093085D01*
X296797329Y-9148624D01*
X296612691Y-9170885D01*
X296497341Y-9163099D01*
X296432556Y-9128499D01*
X296401121Y-9074667D01*
X296380942Y-8889544D01*
X296452972Y-8655790D01*
X296594768Y-8389012D01*
X296709991Y-8180071D01*
X296776453Y-8033113D01*
X296782900Y-8005409D01*
X296830065Y-7905450D01*
X296950148Y-7723391D01*
X297034544Y-7608082D01*
X297183532Y-7383024D01*
X297275050Y-7190666D01*
X297288544Y-7127333D01*
X297320653Y-7001129D01*
X297354400Y-6978476D01*
X297425517Y-6910931D01*
X297556333Y-6732714D01*
X297721160Y-6479380D01*
X297756566Y-6421810D01*
X298066123Y-5920142D01*
X298360507Y-5455143D01*
X298626259Y-5047004D01*
X298849920Y-4715916D01*
X299018027Y-4482070D01*
X299117122Y-4365654D01*
X299133510Y-4356382D01*
X299281418Y-4416684D01*
G37*
X299281418Y-4416684D02*
X299435472Y-4551690D01*
X299541111Y-4704017D01*
X299554398Y-4799016D01*
X299561298Y-4962752D01*
X299598240Y-5019307D01*
X299610801Y-5107700D01*
X299547532Y-5286525D01*
X299401475Y-5570716D01*
X299165669Y-5975211D01*
X299110212Y-6066791D01*
X298862149Y-6477150D01*
X298618078Y-6885427D01*
X298406346Y-7243936D01*
X298257215Y-7501616D01*
X297985021Y-7981732D01*
X298330638Y-7859791D01*
X298612357Y-7768601D01*
X298962435Y-7666138D01*
X299180020Y-7607312D01*
X299683785Y-7476773D01*
X299926676Y-7709477D01*
X300081961Y-7879856D01*
X300165145Y-8013211D01*
X300169566Y-8035085D01*
X300111881Y-8140820D01*
X299931315Y-8256599D01*
X299616604Y-8387167D01*
X299156483Y-8537265D01*
X298603233Y-8694464D01*
X297954207Y-8869237D01*
X297449363Y-9001033D01*
X297069978Y-9093085D01*
X296797329Y-9148624D01*
X296612691Y-9170885D01*
X296497341Y-9163099D01*
X296432556Y-9128499D01*
X296401121Y-9074667D01*
X296380942Y-8889544D01*
X296452972Y-8655790D01*
X296594768Y-8389012D01*
X296709991Y-8180071D01*
X296776453Y-8033113D01*
X296782900Y-8005409D01*
X296830065Y-7905450D01*
X296950148Y-7723391D01*
X297034544Y-7608082D01*
X297183532Y-7383024D01*
X297275050Y-7190666D01*
X297288544Y-7127333D01*
X297320653Y-7001129D01*
X297354400Y-6978476D01*
X297425517Y-6910931D01*
X297556333Y-6732714D01*
X297721160Y-6479380D01*
X297756566Y-6421810D01*
X298066123Y-5920142D01*
X298360507Y-5455143D01*
X298626259Y-5047004D01*
X298849920Y-4715916D01*
X299018027Y-4482070D01*
X299117122Y-4365654D01*
X299133510Y-4356382D01*
X299281418Y-4416684D01*
G36*
X-5603249Y-4586017D02*
G01*
X-5449194Y-4721023D01*
X-5343556Y-4873350D01*
X-5330269Y-4968349D01*
X-5323369Y-5132085D01*
X-5286427Y-5188640D01*
X-5273865Y-5277034D01*
X-5337134Y-5455858D01*
X-5483192Y-5740050D01*
X-5718997Y-6144545D01*
X-5774455Y-6236124D01*
X-6022517Y-6646483D01*
X-6266589Y-7054761D01*
X-6478321Y-7413269D01*
X-6627452Y-7670949D01*
X-6899645Y-8151065D01*
X-6554028Y-8029124D01*
X-6272310Y-7937934D01*
X-5922232Y-7835471D01*
X-5704646Y-7776645D01*
X-5200881Y-7646106D01*
X-4957991Y-7878810D01*
X-4802706Y-8049189D01*
X-4719522Y-8182544D01*
X-4715100Y-8204419D01*
X-4772786Y-8310153D01*
X-4953351Y-8425933D01*
X-5268063Y-8556500D01*
X-5728184Y-8706598D01*
X-6281434Y-8863797D01*
X-6930460Y-9038571D01*
X-7435304Y-9170367D01*
X-7814688Y-9262418D01*
X-8087338Y-9317958D01*
X-8271976Y-9340218D01*
X-8387325Y-9332432D01*
X-8452111Y-9297832D01*
X-8483546Y-9244000D01*
X-8503725Y-9058878D01*
X-8431694Y-8825123D01*
X-8289898Y-8558346D01*
X-8174676Y-8349405D01*
X-8108213Y-8202446D01*
X-8101767Y-8174743D01*
X-8054601Y-8074783D01*
X-7934519Y-7892724D01*
X-7850123Y-7777416D01*
X-7701135Y-7552358D01*
X-7609617Y-7359999D01*
X-7596123Y-7296667D01*
X-7564013Y-7170462D01*
X-7530267Y-7147809D01*
X-7459150Y-7080265D01*
X-7328334Y-6902048D01*
X-7163507Y-6648714D01*
X-7128100Y-6591144D01*
X-6818544Y-6089475D01*
X-6524160Y-5624476D01*
X-6258407Y-5216338D01*
X-6034747Y-4885250D01*
X-5866639Y-4651403D01*
X-5767544Y-4534987D01*
X-5751157Y-4525716D01*
X-5603249Y-4586017D01*
G37*
X-5603249Y-4586017D02*
X-5449194Y-4721023D01*
X-5343556Y-4873350D01*
X-5330269Y-4968349D01*
X-5323369Y-5132085D01*
X-5286427Y-5188640D01*
X-5273865Y-5277034D01*
X-5337134Y-5455858D01*
X-5483192Y-5740050D01*
X-5718997Y-6144545D01*
X-5774455Y-6236124D01*
X-6022517Y-6646483D01*
X-6266589Y-7054761D01*
X-6478321Y-7413269D01*
X-6627452Y-7670949D01*
X-6899645Y-8151065D01*
X-6554028Y-8029124D01*
X-6272310Y-7937934D01*
X-5922232Y-7835471D01*
X-5704646Y-7776645D01*
X-5200881Y-7646106D01*
X-4957991Y-7878810D01*
X-4802706Y-8049189D01*
X-4719522Y-8182544D01*
X-4715100Y-8204419D01*
X-4772786Y-8310153D01*
X-4953351Y-8425933D01*
X-5268063Y-8556500D01*
X-5728184Y-8706598D01*
X-6281434Y-8863797D01*
X-6930460Y-9038571D01*
X-7435304Y-9170367D01*
X-7814688Y-9262418D01*
X-8087338Y-9317958D01*
X-8271976Y-9340218D01*
X-8387325Y-9332432D01*
X-8452111Y-9297832D01*
X-8483546Y-9244000D01*
X-8503725Y-9058878D01*
X-8431694Y-8825123D01*
X-8289898Y-8558346D01*
X-8174676Y-8349405D01*
X-8108213Y-8202446D01*
X-8101767Y-8174743D01*
X-8054601Y-8074783D01*
X-7934519Y-7892724D01*
X-7850123Y-7777416D01*
X-7701135Y-7552358D01*
X-7609617Y-7359999D01*
X-7596123Y-7296667D01*
X-7564013Y-7170462D01*
X-7530267Y-7147809D01*
X-7459150Y-7080265D01*
X-7328334Y-6902048D01*
X-7163507Y-6648714D01*
X-7128100Y-6591144D01*
X-6818544Y-6089475D01*
X-6524160Y-5624476D01*
X-6258407Y-5216338D01*
X-6034747Y-4885250D01*
X-5866639Y-4651403D01*
X-5767544Y-4534987D01*
X-5751157Y-4525716D01*
X-5603249Y-4586017D01*
%TD*%
D11*
%TO.C,D73*%
X259492500Y-128511700D03*
D12*
X259492500Y-120891700D03*
%TD*%
D11*
%TO.C,D72*%
X283306100Y-123050700D03*
D12*
X283306100Y-115430700D03*
%TD*%
D11*
%TO.C,D66*%
X127006100Y-123050700D03*
D12*
X127006100Y-115430700D03*
%TD*%
D11*
%TO.C,D61*%
X32156100Y-123100700D03*
D12*
X32156100Y-115480700D03*
%TD*%
D11*
%TO.C,D59*%
X29503900Y-123108500D03*
D12*
X29503900Y-115488500D03*
%TD*%
D11*
%TO.C,D55*%
X193677800Y-104772100D03*
D12*
X193677800Y-97152100D03*
%TD*%
D11*
%TO.C,D65*%
X107956100Y-123050700D03*
D12*
X107956100Y-115430700D03*
%TD*%
D11*
%TO.C,D74*%
X12178900Y-143654800D03*
D12*
X12178900Y-136034800D03*
%TD*%
D11*
%TO.C,D69*%
X184156100Y-123050700D03*
D12*
X184156100Y-115430700D03*
%TD*%
D11*
%TO.C,D58*%
X283827800Y-104772100D03*
D12*
X283827800Y-97152100D03*
%TD*%
D11*
%TO.C,D68*%
X165106100Y-123050700D03*
D12*
X165106100Y-115430700D03*
%TD*%
D11*
%TO.C,D56*%
X212727800Y-104772100D03*
D12*
X212727800Y-97152100D03*
%TD*%
D11*
%TO.C,D67*%
X146056100Y-123050700D03*
D12*
X146056100Y-115430700D03*
%TD*%
D11*
%TO.C,D70*%
X203206100Y-123050700D03*
D12*
X203206100Y-115430700D03*
%TD*%
D11*
%TO.C,D64*%
X88906100Y-123050700D03*
D12*
X88906100Y-115430700D03*
%TD*%
D11*
%TO.C,D63*%
X69856100Y-123050700D03*
D12*
X69856100Y-115430700D03*
%TD*%
D11*
%TO.C,D71*%
X225256100Y-123050700D03*
D12*
X225256100Y-115430700D03*
%TD*%
D11*
%TO.C,D62*%
X50806100Y-123050700D03*
D12*
X50806100Y-115430700D03*
%TD*%
D13*
%TO.C,REF\u002A\u002A*%
X298628900Y-146483500D03*
%TD*%
D14*
%TO.C,SW81*%
X112477000Y-135865000D03*
X55327000Y-127610000D03*
D15*
X117557000Y-135865000D03*
D16*
X169627000Y-142850000D03*
X55327000Y-142850000D03*
D14*
X169627000Y-127610000D03*
D15*
X107397000Y-135865000D03*
%TD*%
D13*
%TO.C,REF\u002A\u002A*%
X298328900Y-88258500D03*
%TD*%
%TO.C,REF\u002A\u002A*%
X145809914Y-69108500D03*
%TD*%
D17*
%TO.C,SW87*%
X183410500Y-2184800D03*
X176910500Y-2184800D03*
X176910500Y-6684800D03*
X183410500Y-6684800D03*
%TD*%
D13*
%TO.C,REF\u002A\u002A*%
X145803900Y-142583500D03*
%TD*%
%TO.C,REF\u002A\u002A*%
X-6571100Y-88158500D03*
%TD*%
D18*
%TO.C,SW93*%
X290985100Y-43351500D03*
D17*
X295985100Y-43351500D03*
X293485100Y-43351500D03*
D19*
X299085100Y-35851500D03*
X287885100Y-35851500D03*
D17*
X295985100Y-28851500D03*
X290985100Y-28851500D03*
%TD*%
D15*
%TO.C,SW90*%
X114547000Y-135852000D03*
D16*
X69627100Y-142837000D03*
D14*
X169626900Y-127597000D03*
X69627100Y-127597000D03*
D15*
X124707000Y-135852000D03*
D16*
X169626900Y-142837000D03*
D14*
X119627000Y-135852000D03*
%TD*%
D13*
%TO.C,REF\u002A\u002A*%
X145803900Y-1583500D03*
%TD*%
%TO.C,REF\u002A\u002A*%
X145803900Y-22783500D03*
%TD*%
D17*
%TO.C,SW91*%
X188683400Y-2108600D03*
X195183400Y-2108600D03*
X188683400Y-6608600D03*
X195183400Y-6608600D03*
%TD*%
D20*
%TO.C,C3*%
X201377300Y-3429400D03*
D21*
X201377300Y-4929400D03*
%TD*%
D15*
%TO.C,SW44*%
X265207000Y-78689400D03*
D14*
X260127000Y-78689400D03*
D15*
X255047000Y-78689400D03*
%TD*%
D13*
%TO.C,REF\u002A\u002A*%
X-6346100Y-146083500D03*
%TD*%
D22*
%TO.C,C2*%
X227969200Y-18498200D03*
X225469200Y-18498200D03*
%TD*%
D23*
%TO.C,F1*%
X162318900Y-7078500D03*
X162318900Y-1978500D03*
%TD*%
D22*
%TO.C,C5*%
X260368800Y-21765700D03*
X255368800Y-21765700D03*
%TD*%
%TO.C,C1*%
X228007300Y-3664600D03*
X225507300Y-3664600D03*
%TD*%
D24*
%TO.C,J1*%
X172014900Y-2921400D03*
D25*
X172014900Y-5461400D03*
X169474900Y-2921400D03*
X169474900Y-5461400D03*
X166934900Y-2921400D03*
X166934900Y-5461400D03*
%TD*%
D26*
%TO.C,Z1*%
X202568300Y-10960500D03*
D27*
X202568300Y-16040500D03*
%TD*%
D26*
%TO.C,Z2*%
X206568300Y-10960500D03*
D27*
X206568300Y-16040500D03*
%TD*%
D22*
%TO.C,C4*%
X260394200Y-1603900D03*
X255394200Y-1603900D03*
%TD*%
D23*
%TO.C,R1*%
X219538300Y-18962500D03*
D28*
X211918300Y-18962500D03*
%TD*%
D29*
%TO.C,LED*%
X206000100Y-3950100D03*
D30*
X208540100Y-3950100D03*
%TD*%
D11*
%TO.C,D91*%
X248767600Y-86547600D03*
D12*
X248767600Y-78927600D03*
%TD*%
D11*
%TO.C,D51*%
X117477800Y-104772100D03*
D12*
X117477800Y-97152100D03*
%TD*%
D11*
%TO.C,D50*%
X98427800Y-104772100D03*
D12*
X98427800Y-97152100D03*
%TD*%
D14*
%TO.C,SW6*%
X102952000Y-35852500D03*
D15*
X108032000Y-35852500D03*
X97872000Y-35852500D03*
%TD*%
D11*
%TO.C,D82*%
X279539200Y-147129900D03*
D12*
X279539200Y-139509900D03*
%TD*%
D11*
%TO.C,D81*%
X260489200Y-147129900D03*
D12*
X260489200Y-139509900D03*
%TD*%
D11*
%TO.C,D79*%
X211931000Y-142100700D03*
D12*
X211931000Y-134480700D03*
%TD*%
D13*
%TO.C,REF\u002A\u002A*%
X298178900Y-22808500D03*
%TD*%
D11*
%TO.C,D78*%
X183444900Y-142100700D03*
D12*
X183444900Y-134480700D03*
%TD*%
D11*
%TO.C,D77*%
X103396800Y-141725800D03*
D12*
X103396800Y-134105800D03*
%TD*%
D11*
%TO.C,D85*%
X231777800Y-104772100D03*
D12*
X231777800Y-97152100D03*
%TD*%
D13*
%TO.C,REF\u002A\u002A*%
X-6571100Y-22808500D03*
%TD*%
D11*
%TO.C,D80*%
X240439200Y-147129900D03*
D12*
X240439200Y-139509900D03*
%TD*%
D11*
%TO.C,D76*%
X39903900Y-143553500D03*
D12*
X39903900Y-135933500D03*
%TD*%
D11*
%TO.C,D75*%
X15048900Y-143654800D03*
D12*
X15048900Y-136034800D03*
%TD*%
D13*
%TO.C,REF\u002A\u002A*%
X298203900Y-1583500D03*
%TD*%
D11*
%TO.C,D53*%
X155577800Y-104772100D03*
D12*
X155577800Y-97152100D03*
%TD*%
D13*
%TO.C,REF\u002A\u002A*%
X-6571100Y-1608500D03*
%TD*%
D11*
%TO.C,D14*%
X255115700Y-43536000D03*
D12*
X255115700Y-35916000D03*
%TD*%
D11*
%TO.C,D4*%
X50923700Y-43536000D03*
D12*
X50923700Y-35916000D03*
%TD*%
D11*
%TO.C,D1*%
X8653900Y-43533500D03*
D12*
X8653900Y-35913500D03*
%TD*%
D11*
%TO.C,D12*%
X212253700Y-43536000D03*
D12*
X212253700Y-35916000D03*
%TD*%
D11*
%TO.C,D10*%
X174153700Y-43536000D03*
D12*
X174153700Y-35916000D03*
%TD*%
D11*
%TO.C,D2*%
X11473700Y-43536000D03*
D12*
X11473700Y-35916000D03*
%TD*%
D11*
%TO.C,D5*%
X69973700Y-43536000D03*
D12*
X69973700Y-35916000D03*
%TD*%
D11*
%TO.C,D3*%
X31873700Y-43536000D03*
D12*
X31873700Y-35916000D03*
%TD*%
D15*
%TO.C,SW83*%
X227101000Y-135852000D03*
D14*
X222021000Y-135852000D03*
D15*
X216941000Y-135852000D03*
%TD*%
D11*
%TO.C,D13*%
X231303700Y-43536000D03*
D12*
X231303700Y-35916000D03*
%TD*%
D11*
%TO.C,D6*%
X93191700Y-43536000D03*
D12*
X93191700Y-35916000D03*
%TD*%
D11*
%TO.C,D11*%
X193203700Y-43536000D03*
D12*
X193203700Y-35916000D03*
%TD*%
D11*
%TO.C,D15*%
X283927700Y-43536000D03*
D12*
X283927700Y-35916000D03*
%TD*%
D11*
%TO.C,D9*%
X150341700Y-43536000D03*
D12*
X150341700Y-35916000D03*
%TD*%
D11*
%TO.C,D8*%
X131291700Y-43536000D03*
D12*
X131291700Y-35916000D03*
%TD*%
D11*
%TO.C,D7*%
X112241700Y-43536000D03*
D12*
X112241700Y-35916000D03*
%TD*%
D15*
%TO.C,SW89*%
X36623400Y-135830000D03*
X26463400Y-135830000D03*
D14*
X31543400Y-135830000D03*
%TD*%
D15*
%TO.C,SW80*%
X53289500Y-135830000D03*
D14*
X48209500Y-135830000D03*
D15*
X43129500Y-135830000D03*
%TD*%
D31*
%TO.C,U1*%
X232378000Y-19266300D03*
D27*
X234918000Y-19266300D03*
X237458000Y-19266300D03*
X239998000Y-19266300D03*
X242538000Y-19266300D03*
X245078000Y-19266300D03*
X247618000Y-19266300D03*
X250158000Y-19266300D03*
X252698000Y-19266300D03*
X255238000Y-19266300D03*
X257778000Y-19266300D03*
X260318000Y-19266300D03*
X262858000Y-19266300D03*
X265398000Y-19266300D03*
X267938000Y-19266300D03*
X270478000Y-19266300D03*
X273018000Y-19266300D03*
X275558000Y-19266300D03*
X278098000Y-19266300D03*
X280638000Y-19266300D03*
X280638000Y-4026300D03*
X278098000Y-4026300D03*
X275558000Y-4026300D03*
X273018000Y-4026300D03*
X270478000Y-4026300D03*
X267938000Y-4026300D03*
X265398000Y-4026300D03*
X262858000Y-4026300D03*
X260318000Y-4026300D03*
X257778000Y-4026300D03*
X255238000Y-4026300D03*
X252698000Y-4026300D03*
X250158000Y-4026300D03*
X247618000Y-4026300D03*
X245078000Y-4026300D03*
X242538000Y-4026300D03*
X239998000Y-4026300D03*
X237458000Y-4026300D03*
X234918000Y-4026300D03*
X232378000Y-4026300D03*
%TD*%
D15*
%TO.C,SW79*%
X29478400Y-135830000D03*
X19318400Y-135830000D03*
D14*
X24398400Y-135830000D03*
%TD*%
D32*
%TO.C,USB1*%
X76005200Y-5368200D03*
X75155200Y-5368200D03*
X74305200Y-5368200D03*
X73455200Y-5368200D03*
X72605200Y-5368200D03*
X71755200Y-5368200D03*
X70905200Y-5368200D03*
X70055200Y-5368200D03*
X70050200Y-4043200D03*
X70900200Y-4043200D03*
X71750200Y-4043200D03*
X72600200Y-4043200D03*
X73450200Y-4043200D03*
X74300200Y-4043200D03*
X75150200Y-4043200D03*
X76005200Y-4043200D03*
D33*
X68705200Y-1008200D03*
D34*
X77355200Y-4388200D03*
D33*
X77355200Y-1008200D03*
D34*
X68705200Y-4388200D03*
%TD*%
D14*
%TO.C,SW78*%
X587300Y-135830000D03*
D15*
X5667300Y-135830000D03*
X-4492700Y-135830000D03*
%TD*%
D14*
%TO.C,SW26*%
X188690000Y-59639400D03*
D15*
X193770000Y-59639400D03*
X183610000Y-59639400D03*
%TD*%
D14*
%TO.C,SW63*%
X22002250Y-125044000D03*
D15*
X15176000Y-116789000D03*
D16*
X22002250Y-109804000D03*
D14*
X-1810250Y-125044000D03*
X10096000Y-116789000D03*
D16*
X-1810250Y-109804000D03*
D15*
X5016000Y-116789000D03*
%TD*%
%TO.C,SW60*%
X247904000Y-97739000D03*
D14*
X252984000Y-97739000D03*
X264890250Y-105994000D03*
X241077750Y-105994000D03*
D15*
X258064000Y-97739000D03*
D16*
X264890250Y-90754000D03*
X241077750Y-90754000D03*
%TD*%
D15*
%TO.C,SW31*%
X-2127500Y-78689400D03*
X8032500Y-78689400D03*
D14*
X2952500Y-78689400D03*
%TD*%
%TO.C,SW88*%
X2968500Y-135830000D03*
D15*
X-2111500Y-135830000D03*
X8048500Y-135830000D03*
%TD*%
%TO.C,SW61*%
X288385000Y-97739000D03*
X298545000Y-97739000D03*
D14*
X293465000Y-97739000D03*
%TD*%
D35*
%TO.C,Y1*%
X226777300Y-8566800D03*
X226777300Y-13446800D03*
%TD*%
D15*
%TO.C,SW86*%
X293776000Y-140615000D03*
D14*
X288696000Y-140615000D03*
D15*
X283616000Y-140615000D03*
%TD*%
D14*
%TO.C,SW84*%
X250596000Y-140615000D03*
D15*
X245516000Y-140615000D03*
X255676000Y-140615000D03*
%TD*%
%TO.C,SW85*%
X264566000Y-140615000D03*
X274726000Y-140615000D03*
D14*
X269646000Y-140615000D03*
%TD*%
D15*
%TO.C,SW15*%
X298540000Y-35852500D03*
X288380000Y-35852500D03*
D14*
X293460000Y-35852500D03*
%TD*%
%TO.C,SW82*%
X193446000Y-135852000D03*
D15*
X188366000Y-135852000D03*
X198526000Y-135852000D03*
%TD*%
%TO.C,SW8*%
X146132000Y-35852500D03*
D14*
X141052000Y-35852500D03*
D15*
X135972000Y-35852500D03*
%TD*%
D23*
%TO.C,R7*%
X219538300Y-3962500D03*
D28*
X211918300Y-3962500D03*
%TD*%
D23*
%TO.C,R6*%
X219538300Y-6462500D03*
D28*
X211918300Y-6462500D03*
%TD*%
D23*
%TO.C,R5*%
X219538300Y-8962500D03*
D28*
X211918300Y-8962500D03*
%TD*%
D23*
%TO.C,R4*%
X219538300Y-11462500D03*
D28*
X211918300Y-11462500D03*
%TD*%
D14*
%TO.C,SW33*%
X45815000Y-78689400D03*
D15*
X40735000Y-78689400D03*
X50895000Y-78689400D03*
%TD*%
%TO.C,SW12*%
X227094000Y-35852500D03*
X216934000Y-35852500D03*
D14*
X222014000Y-35852500D03*
%TD*%
D23*
%TO.C,R3*%
X219538300Y-13962500D03*
D28*
X211918300Y-13962500D03*
%TD*%
D15*
%TO.C,SW25*%
X164560000Y-59639400D03*
X174720000Y-59639400D03*
D14*
X169640000Y-59639400D03*
%TD*%
D23*
%TO.C,R2*%
X219538300Y-16462500D03*
D28*
X211918300Y-16462500D03*
%TD*%
D14*
%TO.C,SW18*%
X36290000Y-59639400D03*
D15*
X41370000Y-59639400D03*
X31210000Y-59639400D03*
%TD*%
%TO.C,SW7*%
X116922000Y-35852500D03*
X127082000Y-35852500D03*
D14*
X122002000Y-35852500D03*
%TD*%
%TO.C,SW5*%
X79139800Y-35852500D03*
D15*
X74059800Y-35852500D03*
X84219800Y-35852500D03*
%TD*%
%TO.C,SW2*%
X16909800Y-35852500D03*
X27069800Y-35852500D03*
D14*
X21989800Y-35852500D03*
%TD*%
%TO.C,SW19*%
X55340000Y-59639400D03*
D15*
X50260000Y-59639400D03*
X60420000Y-59639400D03*
%TD*%
D14*
%TO.C,SW11*%
X202964000Y-35852500D03*
D15*
X197884000Y-35852500D03*
X208044000Y-35852500D03*
%TD*%
D14*
%TO.C,SW10*%
X183914000Y-35852500D03*
D15*
X178834000Y-35852500D03*
X188994000Y-35852500D03*
%TD*%
%TO.C,SW3*%
X46119800Y-35852500D03*
D14*
X41039800Y-35852500D03*
D15*
X35959800Y-35852500D03*
%TD*%
D14*
%TO.C,SW34*%
X64865000Y-78689400D03*
D15*
X59785000Y-78689400D03*
X69945000Y-78689400D03*
%TD*%
%TO.C,SW22*%
X117570000Y-59639400D03*
X107410000Y-59639400D03*
D14*
X112490000Y-59639400D03*
%TD*%
D15*
%TO.C,SW16*%
X3270000Y-59639400D03*
X-6890000Y-59639400D03*
D14*
X-1810000Y-59639400D03*
%TD*%
%TO.C,SW23*%
X131540000Y-59639400D03*
D15*
X126460000Y-59639400D03*
X136620000Y-59639400D03*
%TD*%
%TO.C,SW14*%
X259805000Y-35852500D03*
X269965000Y-35852500D03*
D14*
X264885000Y-35852500D03*
%TD*%
D15*
%TO.C,SW30*%
X298545000Y-59639400D03*
D14*
X293465000Y-59639400D03*
D15*
X288385000Y-59639400D03*
%TD*%
D14*
%TO.C,SW21*%
X93440000Y-59639400D03*
D15*
X88360000Y-59639400D03*
X98520000Y-59639400D03*
%TD*%
%TO.C,SW20*%
X79470000Y-59639400D03*
D14*
X74390000Y-59639400D03*
D15*
X69310000Y-59639400D03*
%TD*%
%TO.C,SW17*%
X12160000Y-59639400D03*
D14*
X17240000Y-59639400D03*
D15*
X22320000Y-59639400D03*
%TD*%
D14*
%TO.C,SW9*%
X160102000Y-35852500D03*
D15*
X155022000Y-35852500D03*
X165182000Y-35852500D03*
%TD*%
D16*
%TO.C,SW29*%
X267271250Y-52654400D03*
X243458750Y-52654400D03*
D14*
X243458750Y-67894400D03*
X267271250Y-67894400D03*
D15*
X250285000Y-59639400D03*
X260445000Y-59639400D03*
D14*
X255365000Y-59639400D03*
%TD*%
%TO.C,SW28*%
X226790000Y-59639400D03*
D15*
X221710000Y-59639400D03*
X231870000Y-59639400D03*
%TD*%
D14*
%TO.C,SW27*%
X207740000Y-59639400D03*
D15*
X212820000Y-59639400D03*
X202660000Y-59639400D03*
%TD*%
%TO.C,SW4*%
X65169800Y-35852500D03*
X55009800Y-35852500D03*
D14*
X60089800Y-35852500D03*
%TD*%
D15*
%TO.C,SW1*%
X3270000Y-35827100D03*
D14*
X-1810000Y-35827100D03*
D15*
X-6890000Y-35827100D03*
%TD*%
%TO.C,SW24*%
X155670000Y-59639400D03*
D14*
X150590000Y-59639400D03*
D15*
X145510000Y-59639400D03*
%TD*%
D14*
%TO.C,SW13*%
X241064000Y-35852500D03*
D15*
X246144000Y-35852500D03*
X235984000Y-35852500D03*
%TD*%
%TO.C,SW32*%
X21685000Y-78689400D03*
D14*
X26765000Y-78689400D03*
D15*
X31845000Y-78689400D03*
%TD*%
D11*
%TO.C,D41*%
X188617600Y-86734800D03*
D12*
X188617600Y-79114800D03*
%TD*%
D11*
%TO.C,D48*%
X60327800Y-104772100D03*
D12*
X60327800Y-97152100D03*
%TD*%
D11*
%TO.C,D38*%
X131467600Y-86734800D03*
D12*
X131467600Y-79114800D03*
%TD*%
D11*
%TO.C,D46*%
X22278900Y-104783500D03*
D12*
X22278900Y-97163500D03*
%TD*%
D11*
%TO.C,D36*%
X93367600Y-87547600D03*
D12*
X93367600Y-79927600D03*
%TD*%
D11*
%TO.C,D47*%
X41277800Y-104772100D03*
D12*
X41277800Y-97152100D03*
%TD*%
D11*
%TO.C,D35*%
X74317600Y-87547600D03*
D12*
X74317600Y-79927600D03*
%TD*%
D11*
%TO.C,D40*%
X169567600Y-86734800D03*
D12*
X169567600Y-79114800D03*
%TD*%
D11*
%TO.C,D52*%
X136527800Y-104772100D03*
D12*
X136527800Y-97152100D03*
%TD*%
D11*
%TO.C,D43*%
X226717600Y-86734800D03*
D12*
X226717600Y-79114800D03*
%TD*%
D11*
%TO.C,D37*%
X112417600Y-86734800D03*
D12*
X112417600Y-79114800D03*
%TD*%
D11*
%TO.C,D42*%
X207667600Y-86734800D03*
D12*
X207667600Y-79114800D03*
%TD*%
D11*
%TO.C,D39*%
X150517600Y-86734800D03*
D12*
X150517600Y-79114800D03*
%TD*%
D11*
%TO.C,D54*%
X174627800Y-104772100D03*
D12*
X174627800Y-97152100D03*
%TD*%
D11*
%TO.C,D34*%
X55267600Y-87547600D03*
D12*
X55267600Y-79927600D03*
%TD*%
D11*
%TO.C,D45*%
X19278900Y-104783500D03*
D12*
X19278900Y-97163500D03*
%TD*%
D11*
%TO.C,D44*%
X283917600Y-87547600D03*
D12*
X283917600Y-79927600D03*
%TD*%
D11*
%TO.C,D49*%
X79377800Y-104772100D03*
D12*
X79377800Y-97152100D03*
%TD*%
D11*
%TO.C,D28*%
X236297600Y-68186700D03*
D12*
X236297600Y-60566700D03*
%TD*%
D11*
%TO.C,D19*%
X64847600Y-68186700D03*
D12*
X64847600Y-60566700D03*
%TD*%
D11*
%TO.C,D17*%
X26747600Y-68186700D03*
D12*
X26747600Y-60566700D03*
%TD*%
D11*
%TO.C,D31*%
X12703900Y-87422600D03*
D12*
X12703900Y-79802600D03*
%TD*%
D11*
%TO.C,D23*%
X141047600Y-68186700D03*
D12*
X141047600Y-60566700D03*
%TD*%
D11*
%TO.C,D30*%
X283847600Y-68186700D03*
D12*
X283847600Y-60566700D03*
%TD*%
D11*
%TO.C,D25*%
X179147600Y-68186700D03*
D12*
X179147600Y-60566700D03*
%TD*%
D11*
%TO.C,D22*%
X121997600Y-68186700D03*
D12*
X121997600Y-60566700D03*
%TD*%
D11*
%TO.C,D18*%
X45797600Y-68186700D03*
D12*
X45797600Y-60566700D03*
%TD*%
D11*
%TO.C,D16*%
X7697600Y-68186700D03*
D12*
X7697600Y-60566700D03*
%TD*%
D11*
%TO.C,D32*%
X15692600Y-87422600D03*
D12*
X15692600Y-79802600D03*
%TD*%
D11*
%TO.C,D26*%
X198197600Y-68186700D03*
D12*
X198197600Y-60566700D03*
%TD*%
D11*
%TO.C,D24*%
X160097600Y-68186700D03*
D12*
X160097600Y-60566700D03*
%TD*%
D11*
%TO.C,D21*%
X102947600Y-68186700D03*
D12*
X102947600Y-60566700D03*
%TD*%
D11*
%TO.C,D29*%
X274628900Y-68228500D03*
D12*
X274628900Y-60608500D03*
%TD*%
D11*
%TO.C,D33*%
X36217600Y-87547600D03*
D12*
X36217600Y-79927600D03*
%TD*%
D11*
%TO.C,D20*%
X83897600Y-68186700D03*
D12*
X83897600Y-60566700D03*
%TD*%
D11*
%TO.C,D27*%
X217247600Y-68186700D03*
D12*
X217247600Y-60566700D03*
%TD*%
D15*
%TO.C,SW69*%
X122333000Y-116789000D03*
X112173000Y-116789000D03*
D14*
X117253000Y-116789000D03*
%TD*%
D15*
%TO.C,SW76*%
X288386000Y-116789000D03*
D14*
X293466000Y-116789000D03*
D15*
X298546000Y-116789000D03*
%TD*%
%TO.C,SW66*%
X65182600Y-116789000D03*
D14*
X60102600Y-116789000D03*
D15*
X55022600Y-116789000D03*
%TD*%
D14*
%TO.C,SW65*%
X41052600Y-116789000D03*
D15*
X35972600Y-116789000D03*
X46132600Y-116789000D03*
%TD*%
%TO.C,SW77*%
X264573000Y-121552000D03*
D14*
X269653000Y-121552000D03*
D15*
X274733000Y-121552000D03*
%TD*%
D14*
%TO.C,SW57*%
X202978000Y-97739000D03*
D15*
X208058000Y-97739000D03*
X197898000Y-97739000D03*
%TD*%
%TO.C,SW51*%
X83597600Y-97739000D03*
X93757600Y-97739000D03*
D14*
X88677600Y-97739000D03*
%TD*%
D15*
%TO.C,SW38*%
X135985000Y-78689400D03*
D14*
X141065000Y-78689400D03*
D15*
X146145000Y-78689400D03*
%TD*%
%TO.C,SW47*%
X253700Y-97739000D03*
X10413700Y-97739000D03*
D14*
X5333700Y-97739000D03*
%TD*%
D15*
%TO.C,SW71*%
X160433000Y-116789000D03*
X150273000Y-116789000D03*
D14*
X155353000Y-116789000D03*
%TD*%
%TO.C,SW68*%
X98203000Y-116789000D03*
D15*
X103283000Y-116789000D03*
X93123000Y-116789000D03*
%TD*%
D14*
%TO.C,SW39*%
X160115000Y-78689400D03*
D15*
X155035000Y-78689400D03*
X165195000Y-78689400D03*
%TD*%
%TO.C,SW46*%
X-4508700Y-97739000D03*
D14*
X571300Y-97739000D03*
D15*
X5651300Y-97739000D03*
%TD*%
D14*
%TO.C,SW37*%
X122015000Y-78689400D03*
D15*
X116935000Y-78689400D03*
X127095000Y-78689400D03*
%TD*%
%TO.C,SW58*%
X227108000Y-97739000D03*
X216948000Y-97739000D03*
D14*
X222028000Y-97739000D03*
%TD*%
D15*
%TO.C,SW75*%
X243777000Y-116789000D03*
D14*
X238697000Y-116789000D03*
D15*
X233617000Y-116789000D03*
%TD*%
D14*
%TO.C,SW55*%
X164878000Y-97739000D03*
D15*
X169958000Y-97739000D03*
X159798000Y-97739000D03*
%TD*%
%TO.C,SW52*%
X112808000Y-97739000D03*
D14*
X107728000Y-97739000D03*
D15*
X102648000Y-97739000D03*
%TD*%
D14*
%TO.C,SW49*%
X50577600Y-97739000D03*
D15*
X55657600Y-97739000D03*
X45497600Y-97739000D03*
%TD*%
%TO.C,SW72*%
X169323000Y-116789000D03*
D14*
X174403000Y-116789000D03*
D15*
X179483000Y-116789000D03*
%TD*%
%TO.C,SW41*%
X203295000Y-78689400D03*
D14*
X198215000Y-78689400D03*
D15*
X193135000Y-78689400D03*
%TD*%
%TO.C,SW74*%
X217583000Y-116789000D03*
D14*
X212503000Y-116789000D03*
D15*
X207423000Y-116789000D03*
%TD*%
%TO.C,SW54*%
X140748000Y-97739000D03*
D14*
X145828000Y-97739000D03*
D15*
X150908000Y-97739000D03*
%TD*%
%TO.C,SW48*%
X26447600Y-97739000D03*
X36607600Y-97739000D03*
D14*
X31527600Y-97739000D03*
%TD*%
D15*
%TO.C,SW36*%
X108045000Y-78689400D03*
D14*
X102965000Y-78689400D03*
D15*
X97885000Y-78689400D03*
%TD*%
D14*
%TO.C,SW73*%
X193453000Y-116789000D03*
D15*
X188373000Y-116789000D03*
X198533000Y-116789000D03*
%TD*%
D14*
%TO.C,SW35*%
X83915000Y-78689400D03*
D15*
X88995000Y-78689400D03*
X78835000Y-78689400D03*
%TD*%
%TO.C,SW67*%
X84232600Y-116789000D03*
X74072600Y-116789000D03*
D14*
X79152600Y-116789000D03*
%TD*%
D15*
%TO.C,SW70*%
X131223000Y-116789000D03*
X141383000Y-116789000D03*
D14*
X136303000Y-116789000D03*
%TD*%
D15*
%TO.C,SW50*%
X74707600Y-97739000D03*
X64547600Y-97739000D03*
D14*
X69627600Y-97739000D03*
%TD*%
D15*
%TO.C,SW53*%
X131858000Y-97739000D03*
D14*
X126778000Y-97739000D03*
D15*
X121698000Y-97739000D03*
%TD*%
%TO.C,SW45*%
X288385000Y-78689400D03*
D14*
X293465000Y-78689400D03*
D15*
X298545000Y-78689400D03*
%TD*%
%TO.C,SW43*%
X231235000Y-78689400D03*
D14*
X236315000Y-78689400D03*
D15*
X241395000Y-78689400D03*
%TD*%
D14*
%TO.C,SW42*%
X217265000Y-78689400D03*
D15*
X212185000Y-78689400D03*
X222345000Y-78689400D03*
%TD*%
%TO.C,SW56*%
X178848000Y-97739000D03*
D14*
X183928000Y-97739000D03*
D15*
X189008000Y-97739000D03*
%TD*%
%TO.C,SW40*%
X184245000Y-78689400D03*
D14*
X179165000Y-78689400D03*
D15*
X174085000Y-78689400D03*
%TD*%
D36*
%TO.C,SSD1306*%
X197078900Y-19908500D03*
X197078900Y-17368500D03*
X197078900Y-14828500D03*
X197078900Y-12288500D03*
%TD*%
M02*
