%TF.GenerationSoftware,KiCad,Pcbnew,6.0.11-2627ca5db0~126~ubuntu22.04.1*%
%TF.CreationDate,2023-03-02T17:59:36+00:00*%
%TF.ProjectId,pcb-r1,7063622d-7231-42e6-9b69-6361645f7063,rev?*%
%TF.SameCoordinates,Original*%
%TF.FileFunction,Soldermask,Bot*%
%TF.FilePolarity,Negative*%
%FSLAX46Y46*%
G04 Gerber Fmt 4.6, Leading zero omitted, Abs format (unit mm)*
G04 Created by KiCad (PCBNEW 6.0.11-2627ca5db0~126~ubuntu22.04.1) date 2023-03-02 17:59:36*
%MOMM*%
%LPD*%
G01*
G04 APERTURE LIST*
G04 Aperture macros list*
%AMRoundRect*
0 Rectangle with rounded corners*
0 $1 Rounding radius*
0 $2 $3 $4 $5 $6 $7 $8 $9 X,Y pos of 4 corners*
0 Add a 4 corners polygon primitive as box body*
4,1,4,$2,$3,$4,$5,$6,$7,$8,$9,$2,$3,0*
0 Add four circle primitives for the rounded corners*
1,1,$1+$1,$2,$3*
1,1,$1+$1,$4,$5*
1,1,$1+$1,$6,$7*
1,1,$1+$1,$8,$9*
0 Add four rect primitives between the rounded corners*
20,1,$1+$1,$2,$3,$4,$5,0*
20,1,$1+$1,$4,$5,$6,$7,0*
20,1,$1+$1,$6,$7,$8,$9,0*
20,1,$1+$1,$8,$9,$2,$3,0*%
G04 Aperture macros list end*
%ADD10RoundRect,0.050000X0.900000X-0.900000X0.900000X0.900000X-0.900000X0.900000X-0.900000X-0.900000X0*%
%ADD11O,1.900000X1.900000*%
%ADD12C,4.500000*%
%ADD13C,4.087800*%
%ADD14C,1.850000*%
%ADD15C,3.148000*%
%ADD16C,2.350000*%
%ADD17C,2.100000*%
%ADD18RoundRect,0.050000X1.000000X-1.000000X1.000000X1.000000X-1.000000X1.000000X-1.000000X-1.000000X0*%
%ADD19RoundRect,0.050000X1.000000X-1.600000X1.000000X1.600000X-1.000000X1.600000X-1.000000X-1.600000X0*%
%ADD20RoundRect,0.050000X-0.600000X0.600000X-0.600000X-0.600000X0.600000X-0.600000X0.600000X0.600000X0*%
%ADD21C,1.300000*%
%ADD22C,1.700000*%
%ADD23C,1.500000*%
%ADD24RoundRect,0.050000X0.850000X0.850000X-0.850000X0.850000X-0.850000X-0.850000X0.850000X-0.850000X0*%
%ADD25C,1.800000*%
%ADD26RoundRect,0.050000X-0.800000X0.800000X-0.800000X-0.800000X0.800000X-0.800000X0.800000X0.800000X0*%
%ADD27O,1.700000X1.700000*%
%ADD28O,1.500000X1.500000*%
%ADD29RoundRect,0.050000X-0.900000X-0.900000X0.900000X-0.900000X0.900000X0.900000X-0.900000X0.900000X0*%
%ADD30C,1.900000*%
%ADD31RoundRect,0.050000X0.800000X-0.800000X0.800000X0.800000X-0.800000X0.800000X-0.800000X-0.800000X0*%
%ADD32O,0.750000X1.100000*%
%ADD33O,1.000000X1.800000*%
%ADD34O,1.000000X2.500000*%
%ADD35C,1.600000*%
%ADD36C,1.624000*%
G04 APERTURE END LIST*
D10*
%TO.C,D73*%
X259492500Y-128511700D03*
D11*
X259492500Y-120891700D03*
%TD*%
D10*
%TO.C,D72*%
X283306100Y-123050700D03*
D11*
X283306100Y-115430700D03*
%TD*%
D10*
%TO.C,D66*%
X127006100Y-123050700D03*
D11*
X127006100Y-115430700D03*
%TD*%
D10*
%TO.C,D61*%
X32156100Y-123100700D03*
D11*
X32156100Y-115480700D03*
%TD*%
D10*
%TO.C,D59*%
X29503900Y-123108500D03*
D11*
X29503900Y-115488500D03*
%TD*%
D10*
%TO.C,D55*%
X193677800Y-104772100D03*
D11*
X193677800Y-97152100D03*
%TD*%
D10*
%TO.C,D65*%
X107956100Y-123050700D03*
D11*
X107956100Y-115430700D03*
%TD*%
D10*
%TO.C,D74*%
X12178900Y-143654800D03*
D11*
X12178900Y-136034800D03*
%TD*%
D10*
%TO.C,D69*%
X184156100Y-123050700D03*
D11*
X184156100Y-115430700D03*
%TD*%
D10*
%TO.C,D58*%
X283827800Y-104772100D03*
D11*
X283827800Y-97152100D03*
%TD*%
D10*
%TO.C,D68*%
X165106100Y-123050700D03*
D11*
X165106100Y-115430700D03*
%TD*%
D10*
%TO.C,D56*%
X212727800Y-104772100D03*
D11*
X212727800Y-97152100D03*
%TD*%
D10*
%TO.C,D67*%
X146056100Y-123050700D03*
D11*
X146056100Y-115430700D03*
%TD*%
D10*
%TO.C,D70*%
X203206100Y-123050700D03*
D11*
X203206100Y-115430700D03*
%TD*%
D10*
%TO.C,D64*%
X88906100Y-123050700D03*
D11*
X88906100Y-115430700D03*
%TD*%
D10*
%TO.C,D63*%
X69856100Y-123050700D03*
D11*
X69856100Y-115430700D03*
%TD*%
D10*
%TO.C,D71*%
X225256100Y-123050700D03*
D11*
X225256100Y-115430700D03*
%TD*%
D10*
%TO.C,D62*%
X50806100Y-123050700D03*
D11*
X50806100Y-115430700D03*
%TD*%
D12*
%TO.C,REF\u002A\u002A*%
X298628900Y-146483500D03*
%TD*%
D13*
%TO.C,SW81*%
X112477000Y-135865000D03*
X55327000Y-127610000D03*
D14*
X117557000Y-135865000D03*
D15*
X169627000Y-142850000D03*
X55327000Y-142850000D03*
D13*
X169627000Y-127610000D03*
D14*
X107397000Y-135865000D03*
D16*
X108667000Y-133325000D03*
X115017000Y-130785000D03*
%TD*%
D12*
%TO.C,REF\u002A\u002A*%
X298328900Y-88258500D03*
%TD*%
%TO.C,REF\u002A\u002A*%
X145809914Y-69108500D03*
%TD*%
D17*
%TO.C,SW87*%
X183410500Y-2184800D03*
X176910500Y-2184800D03*
X176910500Y-6684800D03*
X183410500Y-6684800D03*
%TD*%
D12*
%TO.C,REF\u002A\u002A*%
X145803900Y-142583500D03*
%TD*%
%TO.C,REF\u002A\u002A*%
X-6571100Y-88158500D03*
%TD*%
D18*
%TO.C,SW93*%
X290985100Y-43351500D03*
D17*
X295985100Y-43351500D03*
X293485100Y-43351500D03*
D19*
X299085100Y-35851500D03*
X287885100Y-35851500D03*
D17*
X295985100Y-28851500D03*
X290985100Y-28851500D03*
%TD*%
D14*
%TO.C,SW90*%
X114547000Y-135852000D03*
D15*
X69627100Y-142837000D03*
D13*
X169626900Y-127597000D03*
X69627100Y-127597000D03*
D14*
X124707000Y-135852000D03*
D15*
X169626900Y-142837000D03*
D13*
X119627000Y-135852000D03*
D16*
X115817000Y-133312000D03*
X122167000Y-130772000D03*
%TD*%
D12*
%TO.C,REF\u002A\u002A*%
X145803900Y-1583500D03*
%TD*%
%TO.C,REF\u002A\u002A*%
X145803900Y-22783500D03*
%TD*%
D17*
%TO.C,SW91*%
X188683400Y-2108600D03*
X195183400Y-2108600D03*
X188683400Y-6608600D03*
X195183400Y-6608600D03*
%TD*%
D20*
%TO.C,C3*%
X201377300Y-3429400D03*
D21*
X201377300Y-4929400D03*
%TD*%
D14*
%TO.C,SW44*%
X265207000Y-78689400D03*
D13*
X260127000Y-78689400D03*
D14*
X255047000Y-78689400D03*
D16*
X256317000Y-76149400D03*
X262667000Y-73609400D03*
%TD*%
D12*
%TO.C,REF\u002A\u002A*%
X-6346100Y-146083500D03*
%TD*%
D22*
%TO.C,C2*%
X227969200Y-18498200D03*
X225469200Y-18498200D03*
%TD*%
D23*
%TO.C,F1*%
X162318900Y-7078500D03*
X162318900Y-1978500D03*
%TD*%
D22*
%TO.C,C5*%
X260368800Y-21765700D03*
X255368800Y-21765700D03*
%TD*%
%TO.C,C1*%
X228007300Y-3664600D03*
X225507300Y-3664600D03*
%TD*%
D24*
%TO.C,J1*%
X172014900Y-2921400D03*
D25*
X172014900Y-5461400D03*
X169474900Y-2921400D03*
X169474900Y-5461400D03*
X166934900Y-2921400D03*
X166934900Y-5461400D03*
%TD*%
D26*
%TO.C,Z1*%
X202568300Y-10960500D03*
D27*
X202568300Y-16040500D03*
%TD*%
D26*
%TO.C,Z2*%
X206568300Y-10960500D03*
D27*
X206568300Y-16040500D03*
%TD*%
D22*
%TO.C,C4*%
X260394200Y-1603900D03*
X255394200Y-1603900D03*
%TD*%
D23*
%TO.C,R1*%
X219538300Y-18962500D03*
D28*
X211918300Y-18962500D03*
%TD*%
D29*
%TO.C,LED*%
X206000100Y-3950100D03*
D30*
X208540100Y-3950100D03*
%TD*%
D10*
%TO.C,D91*%
X248767600Y-86547600D03*
D11*
X248767600Y-78927600D03*
%TD*%
D10*
%TO.C,D51*%
X117477800Y-104772100D03*
D11*
X117477800Y-97152100D03*
%TD*%
D10*
%TO.C,D50*%
X98427800Y-104772100D03*
D11*
X98427800Y-97152100D03*
%TD*%
D13*
%TO.C,SW6*%
X102952000Y-35852500D03*
D14*
X108032000Y-35852500D03*
X97872000Y-35852500D03*
D16*
X99142000Y-33312500D03*
X105492000Y-30772500D03*
%TD*%
D10*
%TO.C,D82*%
X279539200Y-147129900D03*
D11*
X279539200Y-139509900D03*
%TD*%
D10*
%TO.C,D81*%
X260489200Y-147129900D03*
D11*
X260489200Y-139509900D03*
%TD*%
D10*
%TO.C,D79*%
X211931000Y-142100700D03*
D11*
X211931000Y-134480700D03*
%TD*%
D12*
%TO.C,REF\u002A\u002A*%
X298178900Y-22808500D03*
%TD*%
D10*
%TO.C,D78*%
X183444900Y-142100700D03*
D11*
X183444900Y-134480700D03*
%TD*%
D10*
%TO.C,D77*%
X103396800Y-141725800D03*
D11*
X103396800Y-134105800D03*
%TD*%
D10*
%TO.C,D85*%
X231777800Y-104772100D03*
D11*
X231777800Y-97152100D03*
%TD*%
D12*
%TO.C,REF\u002A\u002A*%
X-6571100Y-22808500D03*
%TD*%
D10*
%TO.C,D80*%
X240439200Y-147129900D03*
D11*
X240439200Y-139509900D03*
%TD*%
D10*
%TO.C,D76*%
X39903900Y-143553500D03*
D11*
X39903900Y-135933500D03*
%TD*%
D10*
%TO.C,D75*%
X15048900Y-143654800D03*
D11*
X15048900Y-136034800D03*
%TD*%
D12*
%TO.C,REF\u002A\u002A*%
X298203900Y-1583500D03*
%TD*%
D10*
%TO.C,D53*%
X155577800Y-104772100D03*
D11*
X155577800Y-97152100D03*
%TD*%
D12*
%TO.C,REF\u002A\u002A*%
X-6571100Y-1608500D03*
%TD*%
D10*
%TO.C,D14*%
X255115700Y-43536000D03*
D11*
X255115700Y-35916000D03*
%TD*%
D10*
%TO.C,D4*%
X50923700Y-43536000D03*
D11*
X50923700Y-35916000D03*
%TD*%
D10*
%TO.C,D1*%
X8653900Y-43533500D03*
D11*
X8653900Y-35913500D03*
%TD*%
D10*
%TO.C,D12*%
X212253700Y-43536000D03*
D11*
X212253700Y-35916000D03*
%TD*%
D10*
%TO.C,D10*%
X174153700Y-43536000D03*
D11*
X174153700Y-35916000D03*
%TD*%
D10*
%TO.C,D2*%
X11473700Y-43536000D03*
D11*
X11473700Y-35916000D03*
%TD*%
D10*
%TO.C,D5*%
X69973700Y-43536000D03*
D11*
X69973700Y-35916000D03*
%TD*%
D10*
%TO.C,D3*%
X31873700Y-43536000D03*
D11*
X31873700Y-35916000D03*
%TD*%
D14*
%TO.C,SW83*%
X227101000Y-135852000D03*
D13*
X222021000Y-135852000D03*
D14*
X216941000Y-135852000D03*
D16*
X218211000Y-133312000D03*
X224561000Y-130772000D03*
%TD*%
D10*
%TO.C,D13*%
X231303700Y-43536000D03*
D11*
X231303700Y-35916000D03*
%TD*%
D10*
%TO.C,D6*%
X93191700Y-43536000D03*
D11*
X93191700Y-35916000D03*
%TD*%
D10*
%TO.C,D11*%
X193203700Y-43536000D03*
D11*
X193203700Y-35916000D03*
%TD*%
D10*
%TO.C,D15*%
X283927700Y-43536000D03*
D11*
X283927700Y-35916000D03*
%TD*%
D10*
%TO.C,D9*%
X150341700Y-43536000D03*
D11*
X150341700Y-35916000D03*
%TD*%
D10*
%TO.C,D8*%
X131291700Y-43536000D03*
D11*
X131291700Y-35916000D03*
%TD*%
D10*
%TO.C,D7*%
X112241700Y-43536000D03*
D11*
X112241700Y-35916000D03*
%TD*%
D14*
%TO.C,SW89*%
X36623400Y-135830000D03*
X26463400Y-135830000D03*
D13*
X31543400Y-135830000D03*
D16*
X27733400Y-133290000D03*
X34083400Y-130750000D03*
%TD*%
D14*
%TO.C,SW80*%
X53289500Y-135830000D03*
D13*
X48209500Y-135830000D03*
D14*
X43129500Y-135830000D03*
D16*
X44399500Y-133290000D03*
X50749500Y-130750000D03*
%TD*%
D31*
%TO.C,U1*%
X232378000Y-19266300D03*
D27*
X234918000Y-19266300D03*
X237458000Y-19266300D03*
X239998000Y-19266300D03*
X242538000Y-19266300D03*
X245078000Y-19266300D03*
X247618000Y-19266300D03*
X250158000Y-19266300D03*
X252698000Y-19266300D03*
X255238000Y-19266300D03*
X257778000Y-19266300D03*
X260318000Y-19266300D03*
X262858000Y-19266300D03*
X265398000Y-19266300D03*
X267938000Y-19266300D03*
X270478000Y-19266300D03*
X273018000Y-19266300D03*
X275558000Y-19266300D03*
X278098000Y-19266300D03*
X280638000Y-19266300D03*
X280638000Y-4026300D03*
X278098000Y-4026300D03*
X275558000Y-4026300D03*
X273018000Y-4026300D03*
X270478000Y-4026300D03*
X267938000Y-4026300D03*
X265398000Y-4026300D03*
X262858000Y-4026300D03*
X260318000Y-4026300D03*
X257778000Y-4026300D03*
X255238000Y-4026300D03*
X252698000Y-4026300D03*
X250158000Y-4026300D03*
X247618000Y-4026300D03*
X245078000Y-4026300D03*
X242538000Y-4026300D03*
X239998000Y-4026300D03*
X237458000Y-4026300D03*
X234918000Y-4026300D03*
X232378000Y-4026300D03*
%TD*%
D14*
%TO.C,SW79*%
X29478400Y-135830000D03*
X19318400Y-135830000D03*
D13*
X24398400Y-135830000D03*
D16*
X20588400Y-133290000D03*
X26938400Y-130750000D03*
%TD*%
D32*
%TO.C,USB1*%
X76005200Y-5368200D03*
X75155200Y-5368200D03*
X74305200Y-5368200D03*
X73455200Y-5368200D03*
X72605200Y-5368200D03*
X71755200Y-5368200D03*
X70905200Y-5368200D03*
X70055200Y-5368200D03*
X70050200Y-4043200D03*
X70900200Y-4043200D03*
X71750200Y-4043200D03*
X72600200Y-4043200D03*
X73450200Y-4043200D03*
X74300200Y-4043200D03*
X75150200Y-4043200D03*
X76005200Y-4043200D03*
D33*
X68705200Y-1008200D03*
D34*
X77355200Y-4388200D03*
D33*
X77355200Y-1008200D03*
D34*
X68705200Y-4388200D03*
%TD*%
D13*
%TO.C,SW78*%
X587300Y-135830000D03*
D14*
X5667300Y-135830000D03*
X-4492700Y-135830000D03*
D16*
X-3222700Y-133290000D03*
X3127300Y-130750000D03*
%TD*%
D13*
%TO.C,SW26*%
X188690000Y-59639400D03*
D14*
X193770000Y-59639400D03*
X183610000Y-59639400D03*
D16*
X184880000Y-57099400D03*
X191230000Y-54559400D03*
%TD*%
D13*
%TO.C,SW63*%
X22002250Y-125044000D03*
D14*
X15176000Y-116789000D03*
D15*
X22002250Y-109804000D03*
D13*
X-1810250Y-125044000D03*
X10096000Y-116789000D03*
D15*
X-1810250Y-109804000D03*
D14*
X5016000Y-116789000D03*
D16*
X6286000Y-114249000D03*
X12636000Y-111709000D03*
%TD*%
D14*
%TO.C,SW60*%
X247904000Y-97739000D03*
D13*
X252984000Y-97739000D03*
X264890250Y-105994000D03*
X241077750Y-105994000D03*
D14*
X258064000Y-97739000D03*
D15*
X264890250Y-90754000D03*
X241077750Y-90754000D03*
D16*
X249174000Y-95199000D03*
X255524000Y-92659000D03*
%TD*%
D14*
%TO.C,SW31*%
X-2127500Y-78689400D03*
X8032500Y-78689400D03*
D13*
X2952500Y-78689400D03*
D16*
X-857500Y-76149400D03*
X5492500Y-73609400D03*
%TD*%
D13*
%TO.C,SW88*%
X2968500Y-135830000D03*
D14*
X-2111500Y-135830000D03*
X8048500Y-135830000D03*
D16*
X-841500Y-133290000D03*
X5508500Y-130750000D03*
%TD*%
D14*
%TO.C,SW61*%
X288385000Y-97739000D03*
X298545000Y-97739000D03*
D13*
X293465000Y-97739000D03*
D16*
X289655000Y-95199000D03*
X296005000Y-92659000D03*
%TD*%
D35*
%TO.C,Y1*%
X226777300Y-8566800D03*
X226777300Y-13446800D03*
%TD*%
D14*
%TO.C,SW86*%
X293776000Y-140615000D03*
D13*
X288696000Y-140615000D03*
D14*
X283616000Y-140615000D03*
D16*
X284886000Y-138075000D03*
X291236000Y-135535000D03*
%TD*%
D13*
%TO.C,SW84*%
X250596000Y-140615000D03*
D14*
X245516000Y-140615000D03*
X255676000Y-140615000D03*
D16*
X246786000Y-138075000D03*
X253136000Y-135535000D03*
%TD*%
D14*
%TO.C,SW85*%
X264566000Y-140615000D03*
X274726000Y-140615000D03*
D13*
X269646000Y-140615000D03*
D16*
X265836000Y-138075000D03*
X272186000Y-135535000D03*
%TD*%
D14*
%TO.C,SW15*%
X298540000Y-35852500D03*
X288380000Y-35852500D03*
D13*
X293460000Y-35852500D03*
D16*
X289650000Y-33312500D03*
X296000000Y-30772500D03*
%TD*%
D13*
%TO.C,SW82*%
X193446000Y-135852000D03*
D14*
X188366000Y-135852000D03*
X198526000Y-135852000D03*
D16*
X189636000Y-133312000D03*
X195986000Y-130772000D03*
%TD*%
D14*
%TO.C,SW8*%
X146132000Y-35852500D03*
D13*
X141052000Y-35852500D03*
D14*
X135972000Y-35852500D03*
D16*
X137242000Y-33312500D03*
X143592000Y-30772500D03*
%TD*%
D23*
%TO.C,R7*%
X219538300Y-3962500D03*
D28*
X211918300Y-3962500D03*
%TD*%
D23*
%TO.C,R6*%
X219538300Y-6462500D03*
D28*
X211918300Y-6462500D03*
%TD*%
D23*
%TO.C,R5*%
X219538300Y-8962500D03*
D28*
X211918300Y-8962500D03*
%TD*%
D23*
%TO.C,R4*%
X219538300Y-11462500D03*
D28*
X211918300Y-11462500D03*
%TD*%
D13*
%TO.C,SW33*%
X45815000Y-78689400D03*
D14*
X40735000Y-78689400D03*
X50895000Y-78689400D03*
D16*
X42005000Y-76149400D03*
X48355000Y-73609400D03*
%TD*%
D14*
%TO.C,SW12*%
X227094000Y-35852500D03*
X216934000Y-35852500D03*
D13*
X222014000Y-35852500D03*
D16*
X218204000Y-33312500D03*
X224554000Y-30772500D03*
%TD*%
D23*
%TO.C,R3*%
X219538300Y-13962500D03*
D28*
X211918300Y-13962500D03*
%TD*%
D14*
%TO.C,SW25*%
X164560000Y-59639400D03*
X174720000Y-59639400D03*
D13*
X169640000Y-59639400D03*
D16*
X165830000Y-57099400D03*
X172180000Y-54559400D03*
%TD*%
D23*
%TO.C,R2*%
X219538300Y-16462500D03*
D28*
X211918300Y-16462500D03*
%TD*%
D13*
%TO.C,SW18*%
X36290000Y-59639400D03*
D14*
X41370000Y-59639400D03*
X31210000Y-59639400D03*
D16*
X32480000Y-57099400D03*
X38830000Y-54559400D03*
%TD*%
D14*
%TO.C,SW7*%
X116922000Y-35852500D03*
X127082000Y-35852500D03*
D13*
X122002000Y-35852500D03*
D16*
X118192000Y-33312500D03*
X124542000Y-30772500D03*
%TD*%
D13*
%TO.C,SW5*%
X79139800Y-35852500D03*
D14*
X74059800Y-35852500D03*
X84219800Y-35852500D03*
D16*
X75329800Y-33312500D03*
X81679800Y-30772500D03*
%TD*%
D14*
%TO.C,SW2*%
X16909800Y-35852500D03*
X27069800Y-35852500D03*
D13*
X21989800Y-35852500D03*
D16*
X18179800Y-33312500D03*
X24529800Y-30772500D03*
%TD*%
D13*
%TO.C,SW19*%
X55340000Y-59639400D03*
D14*
X50260000Y-59639400D03*
X60420000Y-59639400D03*
D16*
X51530000Y-57099400D03*
X57880000Y-54559400D03*
%TD*%
D13*
%TO.C,SW11*%
X202964000Y-35852500D03*
D14*
X197884000Y-35852500D03*
X208044000Y-35852500D03*
D16*
X199154000Y-33312500D03*
X205504000Y-30772500D03*
%TD*%
D13*
%TO.C,SW10*%
X183914000Y-35852500D03*
D14*
X178834000Y-35852500D03*
X188994000Y-35852500D03*
D16*
X180104000Y-33312500D03*
X186454000Y-30772500D03*
%TD*%
D14*
%TO.C,SW3*%
X46119800Y-35852500D03*
D13*
X41039800Y-35852500D03*
D14*
X35959800Y-35852500D03*
D16*
X37229800Y-33312500D03*
X43579800Y-30772500D03*
%TD*%
D13*
%TO.C,SW34*%
X64865000Y-78689400D03*
D14*
X59785000Y-78689400D03*
X69945000Y-78689400D03*
D16*
X61055000Y-76149400D03*
X67405000Y-73609400D03*
%TD*%
D14*
%TO.C,SW22*%
X117570000Y-59639400D03*
X107410000Y-59639400D03*
D13*
X112490000Y-59639400D03*
D16*
X108680000Y-57099400D03*
X115030000Y-54559400D03*
%TD*%
D14*
%TO.C,SW16*%
X3270000Y-59639400D03*
X-6890000Y-59639400D03*
D13*
X-1810000Y-59639400D03*
D16*
X-5620000Y-57099400D03*
X730000Y-54559400D03*
%TD*%
D13*
%TO.C,SW23*%
X131540000Y-59639400D03*
D14*
X126460000Y-59639400D03*
X136620000Y-59639400D03*
D16*
X127730000Y-57099400D03*
X134080000Y-54559400D03*
%TD*%
D14*
%TO.C,SW14*%
X259805000Y-35852500D03*
X269965000Y-35852500D03*
D13*
X264885000Y-35852500D03*
D16*
X261075000Y-33312500D03*
X267425000Y-30772500D03*
%TD*%
D14*
%TO.C,SW30*%
X298545000Y-59639400D03*
D13*
X293465000Y-59639400D03*
D14*
X288385000Y-59639400D03*
D16*
X289655000Y-57099400D03*
X296005000Y-54559400D03*
%TD*%
D13*
%TO.C,SW21*%
X93440000Y-59639400D03*
D14*
X88360000Y-59639400D03*
X98520000Y-59639400D03*
D16*
X89630000Y-57099400D03*
X95980000Y-54559400D03*
%TD*%
D14*
%TO.C,SW20*%
X79470000Y-59639400D03*
D13*
X74390000Y-59639400D03*
D14*
X69310000Y-59639400D03*
D16*
X70580000Y-57099400D03*
X76930000Y-54559400D03*
%TD*%
D14*
%TO.C,SW17*%
X12160000Y-59639400D03*
D13*
X17240000Y-59639400D03*
D14*
X22320000Y-59639400D03*
D16*
X13430000Y-57099400D03*
X19780000Y-54559400D03*
%TD*%
D13*
%TO.C,SW9*%
X160102000Y-35852500D03*
D14*
X155022000Y-35852500D03*
X165182000Y-35852500D03*
D16*
X156292000Y-33312500D03*
X162642000Y-30772500D03*
%TD*%
D15*
%TO.C,SW29*%
X267271250Y-52654400D03*
X243458750Y-52654400D03*
D13*
X243458750Y-67894400D03*
X267271250Y-67894400D03*
D14*
X250285000Y-59639400D03*
X260445000Y-59639400D03*
D13*
X255365000Y-59639400D03*
D16*
X251555000Y-57099400D03*
X257905000Y-54559400D03*
%TD*%
D13*
%TO.C,SW28*%
X226790000Y-59639400D03*
D14*
X221710000Y-59639400D03*
X231870000Y-59639400D03*
D16*
X222980000Y-57099400D03*
X229330000Y-54559400D03*
%TD*%
D13*
%TO.C,SW27*%
X207740000Y-59639400D03*
D14*
X212820000Y-59639400D03*
X202660000Y-59639400D03*
D16*
X203930000Y-57099400D03*
X210280000Y-54559400D03*
%TD*%
D14*
%TO.C,SW4*%
X65169800Y-35852500D03*
X55009800Y-35852500D03*
D13*
X60089800Y-35852500D03*
D16*
X56279800Y-33312500D03*
X62629800Y-30772500D03*
%TD*%
D14*
%TO.C,SW1*%
X3270000Y-35827100D03*
D13*
X-1810000Y-35827100D03*
D14*
X-6890000Y-35827100D03*
D16*
X-5620000Y-33287100D03*
X730000Y-30747100D03*
%TD*%
D14*
%TO.C,SW24*%
X155670000Y-59639400D03*
D13*
X150590000Y-59639400D03*
D14*
X145510000Y-59639400D03*
D16*
X146780000Y-57099400D03*
X153130000Y-54559400D03*
%TD*%
D13*
%TO.C,SW13*%
X241064000Y-35852500D03*
D14*
X246144000Y-35852500D03*
X235984000Y-35852500D03*
D16*
X237254000Y-33312500D03*
X243604000Y-30772500D03*
%TD*%
D14*
%TO.C,SW32*%
X21685000Y-78689400D03*
D13*
X26765000Y-78689400D03*
D14*
X31845000Y-78689400D03*
D16*
X22955000Y-76149400D03*
X29305000Y-73609400D03*
%TD*%
D10*
%TO.C,D41*%
X188617600Y-86734800D03*
D11*
X188617600Y-79114800D03*
%TD*%
D10*
%TO.C,D48*%
X60327800Y-104772100D03*
D11*
X60327800Y-97152100D03*
%TD*%
D10*
%TO.C,D38*%
X131467600Y-86734800D03*
D11*
X131467600Y-79114800D03*
%TD*%
D10*
%TO.C,D46*%
X22278900Y-104783500D03*
D11*
X22278900Y-97163500D03*
%TD*%
D10*
%TO.C,D36*%
X93367600Y-87547600D03*
D11*
X93367600Y-79927600D03*
%TD*%
D10*
%TO.C,D47*%
X41277800Y-104772100D03*
D11*
X41277800Y-97152100D03*
%TD*%
D10*
%TO.C,D35*%
X74317600Y-87547600D03*
D11*
X74317600Y-79927600D03*
%TD*%
D10*
%TO.C,D40*%
X169567600Y-86734800D03*
D11*
X169567600Y-79114800D03*
%TD*%
D10*
%TO.C,D52*%
X136527800Y-104772100D03*
D11*
X136527800Y-97152100D03*
%TD*%
D10*
%TO.C,D43*%
X226717600Y-86734800D03*
D11*
X226717600Y-79114800D03*
%TD*%
D10*
%TO.C,D37*%
X112417600Y-86734800D03*
D11*
X112417600Y-79114800D03*
%TD*%
D10*
%TO.C,D42*%
X207667600Y-86734800D03*
D11*
X207667600Y-79114800D03*
%TD*%
D10*
%TO.C,D39*%
X150517600Y-86734800D03*
D11*
X150517600Y-79114800D03*
%TD*%
D10*
%TO.C,D54*%
X174627800Y-104772100D03*
D11*
X174627800Y-97152100D03*
%TD*%
D10*
%TO.C,D34*%
X55267600Y-87547600D03*
D11*
X55267600Y-79927600D03*
%TD*%
D10*
%TO.C,D45*%
X19278900Y-104783500D03*
D11*
X19278900Y-97163500D03*
%TD*%
D10*
%TO.C,D44*%
X283917600Y-87547600D03*
D11*
X283917600Y-79927600D03*
%TD*%
D10*
%TO.C,D49*%
X79377800Y-104772100D03*
D11*
X79377800Y-97152100D03*
%TD*%
D10*
%TO.C,D28*%
X236297600Y-68186700D03*
D11*
X236297600Y-60566700D03*
%TD*%
D10*
%TO.C,D19*%
X64847600Y-68186700D03*
D11*
X64847600Y-60566700D03*
%TD*%
D10*
%TO.C,D17*%
X26747600Y-68186700D03*
D11*
X26747600Y-60566700D03*
%TD*%
D10*
%TO.C,D31*%
X12703900Y-87422600D03*
D11*
X12703900Y-79802600D03*
%TD*%
D10*
%TO.C,D23*%
X141047600Y-68186700D03*
D11*
X141047600Y-60566700D03*
%TD*%
D10*
%TO.C,D30*%
X283847600Y-68186700D03*
D11*
X283847600Y-60566700D03*
%TD*%
D10*
%TO.C,D25*%
X179147600Y-68186700D03*
D11*
X179147600Y-60566700D03*
%TD*%
D10*
%TO.C,D22*%
X121997600Y-68186700D03*
D11*
X121997600Y-60566700D03*
%TD*%
D10*
%TO.C,D18*%
X45797600Y-68186700D03*
D11*
X45797600Y-60566700D03*
%TD*%
D10*
%TO.C,D16*%
X7697600Y-68186700D03*
D11*
X7697600Y-60566700D03*
%TD*%
D10*
%TO.C,D32*%
X15692600Y-87422600D03*
D11*
X15692600Y-79802600D03*
%TD*%
D10*
%TO.C,D26*%
X198197600Y-68186700D03*
D11*
X198197600Y-60566700D03*
%TD*%
D10*
%TO.C,D24*%
X160097600Y-68186700D03*
D11*
X160097600Y-60566700D03*
%TD*%
D10*
%TO.C,D21*%
X102947600Y-68186700D03*
D11*
X102947600Y-60566700D03*
%TD*%
D10*
%TO.C,D29*%
X274628900Y-68228500D03*
D11*
X274628900Y-60608500D03*
%TD*%
D10*
%TO.C,D33*%
X36217600Y-87547600D03*
D11*
X36217600Y-79927600D03*
%TD*%
D10*
%TO.C,D20*%
X83897600Y-68186700D03*
D11*
X83897600Y-60566700D03*
%TD*%
D10*
%TO.C,D27*%
X217247600Y-68186700D03*
D11*
X217247600Y-60566700D03*
%TD*%
D14*
%TO.C,SW69*%
X122333000Y-116789000D03*
X112173000Y-116789000D03*
D13*
X117253000Y-116789000D03*
D16*
X113443000Y-114249000D03*
X119793000Y-111709000D03*
%TD*%
D14*
%TO.C,SW76*%
X288386000Y-116789000D03*
D13*
X293466000Y-116789000D03*
D14*
X298546000Y-116789000D03*
D16*
X289656000Y-114249000D03*
X296006000Y-111709000D03*
%TD*%
D14*
%TO.C,SW66*%
X65182600Y-116789000D03*
D13*
X60102600Y-116789000D03*
D14*
X55022600Y-116789000D03*
D16*
X56292600Y-114249000D03*
X62642600Y-111709000D03*
%TD*%
D13*
%TO.C,SW65*%
X41052600Y-116789000D03*
D14*
X35972600Y-116789000D03*
X46132600Y-116789000D03*
D16*
X37242600Y-114249000D03*
X43592600Y-111709000D03*
%TD*%
D14*
%TO.C,SW77*%
X264573000Y-121552000D03*
D13*
X269653000Y-121552000D03*
D14*
X274733000Y-121552000D03*
D16*
X265843000Y-119012000D03*
X272193000Y-116472000D03*
%TD*%
D13*
%TO.C,SW57*%
X202978000Y-97739000D03*
D14*
X208058000Y-97739000D03*
X197898000Y-97739000D03*
D16*
X199168000Y-95199000D03*
X205518000Y-92659000D03*
%TD*%
D14*
%TO.C,SW51*%
X83597600Y-97739000D03*
X93757600Y-97739000D03*
D13*
X88677600Y-97739000D03*
D16*
X84867600Y-95199000D03*
X91217600Y-92659000D03*
%TD*%
D14*
%TO.C,SW38*%
X135985000Y-78689400D03*
D13*
X141065000Y-78689400D03*
D14*
X146145000Y-78689400D03*
D16*
X137255000Y-76149400D03*
X143605000Y-73609400D03*
%TD*%
D14*
%TO.C,SW47*%
X253700Y-97739000D03*
X10413700Y-97739000D03*
D13*
X5333700Y-97739000D03*
D16*
X1523700Y-95199000D03*
X7873700Y-92659000D03*
%TD*%
D14*
%TO.C,SW71*%
X160433000Y-116789000D03*
X150273000Y-116789000D03*
D13*
X155353000Y-116789000D03*
D16*
X151543000Y-114249000D03*
X157893000Y-111709000D03*
%TD*%
D13*
%TO.C,SW68*%
X98203000Y-116789000D03*
D14*
X103283000Y-116789000D03*
X93123000Y-116789000D03*
D16*
X94393000Y-114249000D03*
X100743000Y-111709000D03*
%TD*%
D13*
%TO.C,SW39*%
X160115000Y-78689400D03*
D14*
X155035000Y-78689400D03*
X165195000Y-78689400D03*
D16*
X156305000Y-76149400D03*
X162655000Y-73609400D03*
%TD*%
D14*
%TO.C,SW46*%
X-4508700Y-97739000D03*
D13*
X571300Y-97739000D03*
D14*
X5651300Y-97739000D03*
D16*
X-3238700Y-95199000D03*
X3111300Y-92659000D03*
%TD*%
D13*
%TO.C,SW37*%
X122015000Y-78689400D03*
D14*
X116935000Y-78689400D03*
X127095000Y-78689400D03*
D16*
X118205000Y-76149400D03*
X124555000Y-73609400D03*
%TD*%
D14*
%TO.C,SW58*%
X227108000Y-97739000D03*
X216948000Y-97739000D03*
D13*
X222028000Y-97739000D03*
D16*
X218218000Y-95199000D03*
X224568000Y-92659000D03*
%TD*%
D14*
%TO.C,SW75*%
X243777000Y-116789000D03*
D13*
X238697000Y-116789000D03*
D14*
X233617000Y-116789000D03*
D16*
X234887000Y-114249000D03*
X241237000Y-111709000D03*
%TD*%
D13*
%TO.C,SW55*%
X164878000Y-97739000D03*
D14*
X169958000Y-97739000D03*
X159798000Y-97739000D03*
D16*
X161068000Y-95199000D03*
X167418000Y-92659000D03*
%TD*%
D14*
%TO.C,SW52*%
X112808000Y-97739000D03*
D13*
X107728000Y-97739000D03*
D14*
X102648000Y-97739000D03*
D16*
X103918000Y-95199000D03*
X110268000Y-92659000D03*
%TD*%
D13*
%TO.C,SW49*%
X50577600Y-97739000D03*
D14*
X55657600Y-97739000D03*
X45497600Y-97739000D03*
D16*
X46767600Y-95199000D03*
X53117600Y-92659000D03*
%TD*%
D14*
%TO.C,SW72*%
X169323000Y-116789000D03*
D13*
X174403000Y-116789000D03*
D14*
X179483000Y-116789000D03*
D16*
X170593000Y-114249000D03*
X176943000Y-111709000D03*
%TD*%
D14*
%TO.C,SW41*%
X203295000Y-78689400D03*
D13*
X198215000Y-78689400D03*
D14*
X193135000Y-78689400D03*
D16*
X194405000Y-76149400D03*
X200755000Y-73609400D03*
%TD*%
D14*
%TO.C,SW74*%
X217583000Y-116789000D03*
D13*
X212503000Y-116789000D03*
D14*
X207423000Y-116789000D03*
D16*
X208693000Y-114249000D03*
X215043000Y-111709000D03*
%TD*%
D14*
%TO.C,SW54*%
X140748000Y-97739000D03*
D13*
X145828000Y-97739000D03*
D14*
X150908000Y-97739000D03*
D16*
X142018000Y-95199000D03*
X148368000Y-92659000D03*
%TD*%
D14*
%TO.C,SW48*%
X26447600Y-97739000D03*
X36607600Y-97739000D03*
D13*
X31527600Y-97739000D03*
D16*
X27717600Y-95199000D03*
X34067600Y-92659000D03*
%TD*%
D14*
%TO.C,SW36*%
X108045000Y-78689400D03*
D13*
X102965000Y-78689400D03*
D14*
X97885000Y-78689400D03*
D16*
X99155000Y-76149400D03*
X105505000Y-73609400D03*
%TD*%
D13*
%TO.C,SW73*%
X193453000Y-116789000D03*
D14*
X188373000Y-116789000D03*
X198533000Y-116789000D03*
D16*
X189643000Y-114249000D03*
X195993000Y-111709000D03*
%TD*%
D13*
%TO.C,SW35*%
X83915000Y-78689400D03*
D14*
X88995000Y-78689400D03*
X78835000Y-78689400D03*
D16*
X80105000Y-76149400D03*
X86455000Y-73609400D03*
%TD*%
D14*
%TO.C,SW67*%
X84232600Y-116789000D03*
X74072600Y-116789000D03*
D13*
X79152600Y-116789000D03*
D16*
X75342600Y-114249000D03*
X81692600Y-111709000D03*
%TD*%
D14*
%TO.C,SW70*%
X131223000Y-116789000D03*
X141383000Y-116789000D03*
D13*
X136303000Y-116789000D03*
D16*
X132493000Y-114249000D03*
X138843000Y-111709000D03*
%TD*%
D14*
%TO.C,SW50*%
X74707600Y-97739000D03*
X64547600Y-97739000D03*
D13*
X69627600Y-97739000D03*
D16*
X65817600Y-95199000D03*
X72167600Y-92659000D03*
%TD*%
D14*
%TO.C,SW53*%
X131858000Y-97739000D03*
D13*
X126778000Y-97739000D03*
D14*
X121698000Y-97739000D03*
D16*
X122968000Y-95199000D03*
X129318000Y-92659000D03*
%TD*%
D14*
%TO.C,SW45*%
X288385000Y-78689400D03*
D13*
X293465000Y-78689400D03*
D14*
X298545000Y-78689400D03*
D16*
X289655000Y-76149400D03*
X296005000Y-73609400D03*
%TD*%
D14*
%TO.C,SW43*%
X231235000Y-78689400D03*
D13*
X236315000Y-78689400D03*
D14*
X241395000Y-78689400D03*
D16*
X232505000Y-76149400D03*
X238855000Y-73609400D03*
%TD*%
D13*
%TO.C,SW42*%
X217265000Y-78689400D03*
D14*
X212185000Y-78689400D03*
X222345000Y-78689400D03*
D16*
X213455000Y-76149400D03*
X219805000Y-73609400D03*
%TD*%
D14*
%TO.C,SW56*%
X178848000Y-97739000D03*
D13*
X183928000Y-97739000D03*
D14*
X189008000Y-97739000D03*
D16*
X180118000Y-95199000D03*
X186468000Y-92659000D03*
%TD*%
D14*
%TO.C,SW40*%
X184245000Y-78689400D03*
D13*
X179165000Y-78689400D03*
D14*
X174085000Y-78689400D03*
D16*
X175355000Y-76149400D03*
X181705000Y-73609400D03*
%TD*%
D36*
%TO.C,SSD1306*%
X197078900Y-19908500D03*
X197078900Y-17368500D03*
X197078900Y-14828500D03*
X197078900Y-12288500D03*
%TD*%
M02*
