G04 #@! TF.GenerationSoftware,KiCad,Pcbnew,(5.1.7)-1*
G04 #@! TF.CreationDate,2020-12-06T11:00:51-05:00*
G04 #@! TF.ProjectId,neoutline,6e656f75-746c-4696-9e65-2e6b69636164,rev?*
G04 #@! TF.SameCoordinates,Original*
G04 #@! TF.FileFunction,Copper,L1,Top*
G04 #@! TF.FilePolarity,Positive*
%FSLAX46Y46*%
G04 Gerber Fmt 4.6, Leading zero omitted, Abs format (unit mm)*
G04 Created by KiCad (PCBNEW (5.1.7)-1) date 2020-12-06 11:00:51*
%MOMM*%
%LPD*%
G01*
G04 APERTURE LIST*
G04 #@! TA.AperFunction,ComponentPad*
%ADD10C,7.500000*%
G04 #@! TD*
G04 #@! TA.AperFunction,ComponentPad*
%ADD11C,4.400000*%
G04 #@! TD*
G04 #@! TA.AperFunction,NonConductor*
%ADD12C,0.254000*%
G04 #@! TD*
G04 #@! TA.AperFunction,NonConductor*
%ADD13C,0.100000*%
G04 #@! TD*
G04 APERTURE END LIST*
D10*
G04 #@! TO.P,REF\u002A\u002A,1*
G04 #@! TO.N,N/C*
X267783900Y-43073500D03*
G04 #@! TD*
G04 #@! TO.P,REF\u002A\u002A,1*
G04 #@! TO.N,N/C*
X13008900Y-43098500D03*
G04 #@! TD*
D11*
G04 #@! TO.P,REF\u002A\u002A,1*
G04 #@! TO.N,N/C*
X-11991100Y-27098500D03*
G04 #@! TD*
G04 #@! TO.P,REF\u002A\u002A,1*
G04 #@! TO.N,N/C*
X292758900Y-48298500D03*
G04 #@! TD*
G04 #@! TO.P,REF\u002A\u002A,1*
G04 #@! TO.N,N/C*
X292783900Y-27073500D03*
G04 #@! TD*
G04 #@! TO.P,REF\u002A\u002A,1*
G04 #@! TO.N,N/C*
X-11991100Y-48298500D03*
G04 #@! TD*
G04 #@! TO.P,REF\u002A\u002A,1*
G04 #@! TO.N,N/C*
X140383900Y-168073500D03*
G04 #@! TD*
G04 #@! TO.P,REF\u002A\u002A,1*
G04 #@! TO.N,N/C*
X293208900Y-171973500D03*
G04 #@! TD*
G04 #@! TO.P,REF\u002A\u002A,1*
G04 #@! TO.N,N/C*
X140383900Y-27073500D03*
G04 #@! TD*
G04 #@! TO.P,REF\u002A\u002A,1*
G04 #@! TO.N,N/C*
X-11766100Y-171573500D03*
G04 #@! TD*
G04 #@! TO.P,REF\u002A\u002A,1*
G04 #@! TO.N,N/C*
X292908900Y-113748500D03*
G04 #@! TD*
G04 #@! TO.P,REF\u002A\u002A,1*
G04 #@! TO.N,N/C*
X-11991100Y-113648500D03*
G04 #@! TD*
G04 #@! TO.P,REF\u002A\u002A,1*
G04 #@! TO.N,N/C*
X140383900Y-48273500D03*
G04 #@! TD*
G04 #@! TO.P,REF\u002A\u002A,1*
G04 #@! TO.N,N/C*
X140389914Y-94598500D03*
G04 #@! TD*
D12*
X297216900Y-23695661D02*
X297397770Y-23750269D01*
X297564592Y-23838970D01*
X297711006Y-23958382D01*
X297831441Y-24103963D01*
X297921299Y-24270152D01*
X297977170Y-24450642D01*
X298001869Y-24685636D01*
X298001868Y-175370046D01*
X297978507Y-175608303D01*
X297923899Y-175789172D01*
X297835197Y-175955996D01*
X297715786Y-176102408D01*
X297570208Y-176222841D01*
X297404015Y-176312702D01*
X297223527Y-176368572D01*
X296988541Y-176393270D01*
X-16196258Y-176393270D01*
X-16434515Y-176369909D01*
X-16615384Y-176315301D01*
X-16782208Y-176226599D01*
X-16928620Y-176107188D01*
X-17049053Y-175961610D01*
X-17138914Y-175795417D01*
X-17194784Y-175614929D01*
X-17219482Y-175379943D01*
X-17219482Y-171265517D01*
X-14893100Y-171265517D01*
X-14893100Y-171881483D01*
X-14772931Y-172485612D01*
X-14537211Y-173054690D01*
X-14194999Y-173566846D01*
X-13759446Y-174002399D01*
X-13247290Y-174344611D01*
X-12678212Y-174580331D01*
X-12074083Y-174700500D01*
X-11458117Y-174700500D01*
X-10853988Y-174580331D01*
X-10284910Y-174344611D01*
X-9772754Y-174002399D01*
X-9337201Y-173566846D01*
X-8994989Y-173054690D01*
X-8759269Y-172485612D01*
X-8639100Y-171881483D01*
X-8639100Y-171665517D01*
X290081900Y-171665517D01*
X290081900Y-172281483D01*
X290202069Y-172885612D01*
X290437789Y-173454690D01*
X290780001Y-173966846D01*
X291215554Y-174402399D01*
X291727710Y-174744611D01*
X292296788Y-174980331D01*
X292900917Y-175100500D01*
X293516883Y-175100500D01*
X294121012Y-174980331D01*
X294690090Y-174744611D01*
X295202246Y-174402399D01*
X295637799Y-173966846D01*
X295980011Y-173454690D01*
X296215731Y-172885612D01*
X296335900Y-172281483D01*
X296335900Y-171665517D01*
X296215731Y-171061388D01*
X295980011Y-170492310D01*
X295637799Y-169980154D01*
X295202246Y-169544601D01*
X294690090Y-169202389D01*
X294121012Y-168966669D01*
X293516883Y-168846500D01*
X292900917Y-168846500D01*
X292296788Y-168966669D01*
X291727710Y-169202389D01*
X291215554Y-169544601D01*
X290780001Y-169980154D01*
X290437789Y-170492310D01*
X290202069Y-171061388D01*
X290081900Y-171665517D01*
X-8639100Y-171665517D01*
X-8639100Y-171265517D01*
X-8759269Y-170661388D01*
X-8994989Y-170092310D01*
X-9337201Y-169580154D01*
X-9772754Y-169144601D01*
X-10284910Y-168802389D01*
X-10853988Y-168566669D01*
X-11458117Y-168446500D01*
X-12074083Y-168446500D01*
X-12678212Y-168566669D01*
X-13247290Y-168802389D01*
X-13759446Y-169144601D01*
X-14194999Y-169580154D01*
X-14537211Y-170092310D01*
X-14772931Y-170661388D01*
X-14893100Y-171265517D01*
X-17219482Y-171265517D01*
X-17219482Y-167765517D01*
X137256900Y-167765517D01*
X137256900Y-168381483D01*
X137377069Y-168985612D01*
X137612789Y-169554690D01*
X137955001Y-170066846D01*
X138390554Y-170502399D01*
X138902710Y-170844611D01*
X139471788Y-171080331D01*
X140075917Y-171200500D01*
X140691883Y-171200500D01*
X141296012Y-171080331D01*
X141865090Y-170844611D01*
X142377246Y-170502399D01*
X142812799Y-170066846D01*
X143155011Y-169554690D01*
X143390731Y-168985612D01*
X143510900Y-168381483D01*
X143510900Y-167765517D01*
X143390731Y-167161388D01*
X143155011Y-166592310D01*
X142812799Y-166080154D01*
X142377246Y-165644601D01*
X141865090Y-165302389D01*
X141296012Y-165066669D01*
X140691883Y-164946500D01*
X140075917Y-164946500D01*
X139471788Y-165066669D01*
X138902710Y-165302389D01*
X138390554Y-165644601D01*
X137955001Y-166080154D01*
X137612789Y-166592310D01*
X137377069Y-167161388D01*
X137256900Y-167765517D01*
X-17219482Y-167765517D01*
X-17219482Y-113340517D01*
X-15118100Y-113340517D01*
X-15118100Y-113956483D01*
X-14997931Y-114560612D01*
X-14762211Y-115129690D01*
X-14419999Y-115641846D01*
X-13984446Y-116077399D01*
X-13472290Y-116419611D01*
X-12903212Y-116655331D01*
X-12299083Y-116775500D01*
X-11683117Y-116775500D01*
X-11078988Y-116655331D01*
X-10509910Y-116419611D01*
X-9997754Y-116077399D01*
X-9562201Y-115641846D01*
X-9219989Y-115129690D01*
X-8984269Y-114560612D01*
X-8864100Y-113956483D01*
X-8864100Y-113440517D01*
X289781900Y-113440517D01*
X289781900Y-114056483D01*
X289902069Y-114660612D01*
X290137789Y-115229690D01*
X290480001Y-115741846D01*
X290915554Y-116177399D01*
X291427710Y-116519611D01*
X291996788Y-116755331D01*
X292600917Y-116875500D01*
X293216883Y-116875500D01*
X293821012Y-116755331D01*
X294390090Y-116519611D01*
X294902246Y-116177399D01*
X295337799Y-115741846D01*
X295680011Y-115229690D01*
X295915731Y-114660612D01*
X296035900Y-114056483D01*
X296035900Y-113440517D01*
X295915731Y-112836388D01*
X295680011Y-112267310D01*
X295337799Y-111755154D01*
X294902246Y-111319601D01*
X294390090Y-110977389D01*
X293821012Y-110741669D01*
X293216883Y-110621500D01*
X292600917Y-110621500D01*
X291996788Y-110741669D01*
X291427710Y-110977389D01*
X290915554Y-111319601D01*
X290480001Y-111755154D01*
X290137789Y-112267310D01*
X289902069Y-112836388D01*
X289781900Y-113440517D01*
X-8864100Y-113440517D01*
X-8864100Y-113340517D01*
X-8984269Y-112736388D01*
X-9219989Y-112167310D01*
X-9562201Y-111655154D01*
X-9997754Y-111219601D01*
X-10509910Y-110877389D01*
X-11078988Y-110641669D01*
X-11683117Y-110521500D01*
X-12299083Y-110521500D01*
X-12903212Y-110641669D01*
X-13472290Y-110877389D01*
X-13984446Y-111219601D01*
X-14419999Y-111655154D01*
X-14762211Y-112167310D01*
X-14997931Y-112736388D01*
X-15118100Y-113340517D01*
X-17219482Y-113340517D01*
X-17219482Y-94290517D01*
X137262914Y-94290517D01*
X137262914Y-94906483D01*
X137383083Y-95510612D01*
X137618803Y-96079690D01*
X137961015Y-96591846D01*
X138396568Y-97027399D01*
X138908724Y-97369611D01*
X139477802Y-97605331D01*
X140081931Y-97725500D01*
X140697897Y-97725500D01*
X141302026Y-97605331D01*
X141871104Y-97369611D01*
X142383260Y-97027399D01*
X142818813Y-96591846D01*
X143161025Y-96079690D01*
X143396745Y-95510612D01*
X143516914Y-94906483D01*
X143516914Y-94290517D01*
X143396745Y-93686388D01*
X143161025Y-93117310D01*
X142818813Y-92605154D01*
X142383260Y-92169601D01*
X141871104Y-91827389D01*
X141302026Y-91591669D01*
X140697897Y-91471500D01*
X140081931Y-91471500D01*
X139477802Y-91591669D01*
X138908724Y-91827389D01*
X138396568Y-92169601D01*
X137961015Y-92605154D01*
X137618803Y-93117310D01*
X137383083Y-93686388D01*
X137262914Y-94290517D01*
X-17219482Y-94290517D01*
X-17219482Y-47990517D01*
X-15118100Y-47990517D01*
X-15118100Y-48606483D01*
X-14997931Y-49210612D01*
X-14762211Y-49779690D01*
X-14419999Y-50291846D01*
X-13984446Y-50727399D01*
X-13472290Y-51069611D01*
X-12903212Y-51305331D01*
X-12299083Y-51425500D01*
X-11683117Y-51425500D01*
X-11078988Y-51305331D01*
X-10509910Y-51069611D01*
X-9997754Y-50727399D01*
X-9562201Y-50291846D01*
X-9219989Y-49779690D01*
X-8984269Y-49210612D01*
X-8864100Y-48606483D01*
X-8864100Y-47990517D01*
X-8869072Y-47965517D01*
X137256900Y-47965517D01*
X137256900Y-48581483D01*
X137377069Y-49185612D01*
X137612789Y-49754690D01*
X137955001Y-50266846D01*
X138390554Y-50702399D01*
X138902710Y-51044611D01*
X139471788Y-51280331D01*
X140075917Y-51400500D01*
X140691883Y-51400500D01*
X141296012Y-51280331D01*
X141865090Y-51044611D01*
X142377246Y-50702399D01*
X142812799Y-50266846D01*
X143155011Y-49754690D01*
X143390731Y-49185612D01*
X143510900Y-48581483D01*
X143510900Y-47990517D01*
X289631900Y-47990517D01*
X289631900Y-48606483D01*
X289752069Y-49210612D01*
X289987789Y-49779690D01*
X290330001Y-50291846D01*
X290765554Y-50727399D01*
X291277710Y-51069611D01*
X291846788Y-51305331D01*
X292450917Y-51425500D01*
X293066883Y-51425500D01*
X293671012Y-51305331D01*
X294240090Y-51069611D01*
X294752246Y-50727399D01*
X295187799Y-50291846D01*
X295530011Y-49779690D01*
X295765731Y-49210612D01*
X295885900Y-48606483D01*
X295885900Y-47990517D01*
X295765731Y-47386388D01*
X295530011Y-46817310D01*
X295187799Y-46305154D01*
X294752246Y-45869601D01*
X294240090Y-45527389D01*
X293671012Y-45291669D01*
X293066883Y-45171500D01*
X292450917Y-45171500D01*
X291846788Y-45291669D01*
X291277710Y-45527389D01*
X290765554Y-45869601D01*
X290330001Y-46305154D01*
X289987789Y-46817310D01*
X289752069Y-47386388D01*
X289631900Y-47990517D01*
X143510900Y-47990517D01*
X143510900Y-47965517D01*
X143390731Y-47361388D01*
X143155011Y-46792310D01*
X142812799Y-46280154D01*
X142377246Y-45844601D01*
X141865090Y-45502389D01*
X141296012Y-45266669D01*
X140691883Y-45146500D01*
X140075917Y-45146500D01*
X139471788Y-45266669D01*
X138902710Y-45502389D01*
X138390554Y-45844601D01*
X137955001Y-46280154D01*
X137612789Y-46792310D01*
X137377069Y-47361388D01*
X137256900Y-47965517D01*
X-8869072Y-47965517D01*
X-8984269Y-47386388D01*
X-9219989Y-46817310D01*
X-9562201Y-46305154D01*
X-9997754Y-45869601D01*
X-10509910Y-45527389D01*
X-11078988Y-45291669D01*
X-11683117Y-45171500D01*
X-12299083Y-45171500D01*
X-12903212Y-45291669D01*
X-13472290Y-45527389D01*
X-13984446Y-45869601D01*
X-14419999Y-46305154D01*
X-14762211Y-46817310D01*
X-14997931Y-47386388D01*
X-15118100Y-47990517D01*
X-17219482Y-47990517D01*
X-17219482Y-42637856D01*
X8331900Y-42637856D01*
X8331900Y-43559144D01*
X8511634Y-44462731D01*
X8864196Y-45313890D01*
X9376037Y-46079914D01*
X10027486Y-46731363D01*
X10793510Y-47243204D01*
X11644669Y-47595766D01*
X12548256Y-47775500D01*
X13469544Y-47775500D01*
X14373131Y-47595766D01*
X15224290Y-47243204D01*
X15990314Y-46731363D01*
X16641763Y-46079914D01*
X17153604Y-45313890D01*
X17506166Y-44462731D01*
X17685900Y-43559144D01*
X17685900Y-42637856D01*
X17680928Y-42612856D01*
X263106900Y-42612856D01*
X263106900Y-43534144D01*
X263286634Y-44437731D01*
X263639196Y-45288890D01*
X264151037Y-46054914D01*
X264802486Y-46706363D01*
X265568510Y-47218204D01*
X266419669Y-47570766D01*
X267323256Y-47750500D01*
X268244544Y-47750500D01*
X269148131Y-47570766D01*
X269999290Y-47218204D01*
X270765314Y-46706363D01*
X271416763Y-46054914D01*
X271928604Y-45288890D01*
X272281166Y-44437731D01*
X272460900Y-43534144D01*
X272460900Y-42612856D01*
X272281166Y-41709269D01*
X271928604Y-40858110D01*
X271416763Y-40092086D01*
X270765314Y-39440637D01*
X269999290Y-38928796D01*
X269148131Y-38576234D01*
X268244544Y-38396500D01*
X267323256Y-38396500D01*
X266419669Y-38576234D01*
X265568510Y-38928796D01*
X264802486Y-39440637D01*
X264151037Y-40092086D01*
X263639196Y-40858110D01*
X263286634Y-41709269D01*
X263106900Y-42612856D01*
X17680928Y-42612856D01*
X17506166Y-41734269D01*
X17153604Y-40883110D01*
X16641763Y-40117086D01*
X15990314Y-39465637D01*
X15224290Y-38953796D01*
X14373131Y-38601234D01*
X13469544Y-38421500D01*
X12548256Y-38421500D01*
X11644669Y-38601234D01*
X10793510Y-38953796D01*
X10027486Y-39465637D01*
X9376037Y-40117086D01*
X8864196Y-40883110D01*
X8511634Y-41734269D01*
X8331900Y-42637856D01*
X-17219482Y-42637856D01*
X-17219482Y-26790517D01*
X-15118100Y-26790517D01*
X-15118100Y-27406483D01*
X-14997931Y-28010612D01*
X-14762211Y-28579690D01*
X-14419999Y-29091846D01*
X-13984446Y-29527399D01*
X-13472290Y-29869611D01*
X-12903212Y-30105331D01*
X-12299083Y-30225500D01*
X-11683117Y-30225500D01*
X-11078988Y-30105331D01*
X-10509910Y-29869611D01*
X-9997754Y-29527399D01*
X-9562201Y-29091846D01*
X-9219989Y-28579690D01*
X-8984269Y-28010612D01*
X-8864100Y-27406483D01*
X-8864100Y-26790517D01*
X-8869072Y-26765517D01*
X137256900Y-26765517D01*
X137256900Y-27381483D01*
X137377069Y-27985612D01*
X137612789Y-28554690D01*
X137955001Y-29066846D01*
X138390554Y-29502399D01*
X138902710Y-29844611D01*
X139471788Y-30080331D01*
X140075917Y-30200500D01*
X140691883Y-30200500D01*
X141296012Y-30080331D01*
X141865090Y-29844611D01*
X142377246Y-29502399D01*
X142812799Y-29066846D01*
X143155011Y-28554690D01*
X143390731Y-27985612D01*
X143510900Y-27381483D01*
X143510900Y-26765517D01*
X289656900Y-26765517D01*
X289656900Y-27381483D01*
X289777069Y-27985612D01*
X290012789Y-28554690D01*
X290355001Y-29066846D01*
X290790554Y-29502399D01*
X291302710Y-29844611D01*
X291871788Y-30080331D01*
X292475917Y-30200500D01*
X293091883Y-30200500D01*
X293696012Y-30080331D01*
X294265090Y-29844611D01*
X294777246Y-29502399D01*
X295212799Y-29066846D01*
X295555011Y-28554690D01*
X295790731Y-27985612D01*
X295910900Y-27381483D01*
X295910900Y-26765517D01*
X295790731Y-26161388D01*
X295555011Y-25592310D01*
X295212799Y-25080154D01*
X294777246Y-24644601D01*
X294265090Y-24302389D01*
X293696012Y-24066669D01*
X293091883Y-23946500D01*
X292475917Y-23946500D01*
X291871788Y-24066669D01*
X291302710Y-24302389D01*
X290790554Y-24644601D01*
X290355001Y-25080154D01*
X290012789Y-25592310D01*
X289777069Y-26161388D01*
X289656900Y-26765517D01*
X143510900Y-26765517D01*
X143390731Y-26161388D01*
X143155011Y-25592310D01*
X142812799Y-25080154D01*
X142377246Y-24644601D01*
X141865090Y-24302389D01*
X141296012Y-24066669D01*
X140691883Y-23946500D01*
X140075917Y-23946500D01*
X139471788Y-24066669D01*
X138902710Y-24302389D01*
X138390554Y-24644601D01*
X137955001Y-25080154D01*
X137612789Y-25592310D01*
X137377069Y-26161388D01*
X137256900Y-26765517D01*
X-8869072Y-26765517D01*
X-8984269Y-26186388D01*
X-9219989Y-25617310D01*
X-9562201Y-25105154D01*
X-9997754Y-24669601D01*
X-10509910Y-24327389D01*
X-11078988Y-24091669D01*
X-11683117Y-23971500D01*
X-12299083Y-23971500D01*
X-12903212Y-24091669D01*
X-13472290Y-24327389D01*
X-13984446Y-24669601D01*
X-14419999Y-25105154D01*
X-14762211Y-25617310D01*
X-14997931Y-26186388D01*
X-15118100Y-26790517D01*
X-17219482Y-26790517D01*
X-17219482Y-24695524D01*
X-17196121Y-24457268D01*
X-17141513Y-24276398D01*
X-17052812Y-24109576D01*
X-16933400Y-23963162D01*
X-16787819Y-23842727D01*
X-16621630Y-23752869D01*
X-16441140Y-23696998D01*
X-16206155Y-23672300D01*
X296978644Y-23672300D01*
X297216900Y-23695661D01*
G04 #@! TA.AperFunction,NonConductor*
D13*
G36*
X297216900Y-23695661D02*
G01*
X297397770Y-23750269D01*
X297564592Y-23838970D01*
X297711006Y-23958382D01*
X297831441Y-24103963D01*
X297921299Y-24270152D01*
X297977170Y-24450642D01*
X298001869Y-24685636D01*
X298001868Y-175370046D01*
X297978507Y-175608303D01*
X297923899Y-175789172D01*
X297835197Y-175955996D01*
X297715786Y-176102408D01*
X297570208Y-176222841D01*
X297404015Y-176312702D01*
X297223527Y-176368572D01*
X296988541Y-176393270D01*
X-16196258Y-176393270D01*
X-16434515Y-176369909D01*
X-16615384Y-176315301D01*
X-16782208Y-176226599D01*
X-16928620Y-176107188D01*
X-17049053Y-175961610D01*
X-17138914Y-175795417D01*
X-17194784Y-175614929D01*
X-17219482Y-175379943D01*
X-17219482Y-171265517D01*
X-14893100Y-171265517D01*
X-14893100Y-171881483D01*
X-14772931Y-172485612D01*
X-14537211Y-173054690D01*
X-14194999Y-173566846D01*
X-13759446Y-174002399D01*
X-13247290Y-174344611D01*
X-12678212Y-174580331D01*
X-12074083Y-174700500D01*
X-11458117Y-174700500D01*
X-10853988Y-174580331D01*
X-10284910Y-174344611D01*
X-9772754Y-174002399D01*
X-9337201Y-173566846D01*
X-8994989Y-173054690D01*
X-8759269Y-172485612D01*
X-8639100Y-171881483D01*
X-8639100Y-171665517D01*
X290081900Y-171665517D01*
X290081900Y-172281483D01*
X290202069Y-172885612D01*
X290437789Y-173454690D01*
X290780001Y-173966846D01*
X291215554Y-174402399D01*
X291727710Y-174744611D01*
X292296788Y-174980331D01*
X292900917Y-175100500D01*
X293516883Y-175100500D01*
X294121012Y-174980331D01*
X294690090Y-174744611D01*
X295202246Y-174402399D01*
X295637799Y-173966846D01*
X295980011Y-173454690D01*
X296215731Y-172885612D01*
X296335900Y-172281483D01*
X296335900Y-171665517D01*
X296215731Y-171061388D01*
X295980011Y-170492310D01*
X295637799Y-169980154D01*
X295202246Y-169544601D01*
X294690090Y-169202389D01*
X294121012Y-168966669D01*
X293516883Y-168846500D01*
X292900917Y-168846500D01*
X292296788Y-168966669D01*
X291727710Y-169202389D01*
X291215554Y-169544601D01*
X290780001Y-169980154D01*
X290437789Y-170492310D01*
X290202069Y-171061388D01*
X290081900Y-171665517D01*
X-8639100Y-171665517D01*
X-8639100Y-171265517D01*
X-8759269Y-170661388D01*
X-8994989Y-170092310D01*
X-9337201Y-169580154D01*
X-9772754Y-169144601D01*
X-10284910Y-168802389D01*
X-10853988Y-168566669D01*
X-11458117Y-168446500D01*
X-12074083Y-168446500D01*
X-12678212Y-168566669D01*
X-13247290Y-168802389D01*
X-13759446Y-169144601D01*
X-14194999Y-169580154D01*
X-14537211Y-170092310D01*
X-14772931Y-170661388D01*
X-14893100Y-171265517D01*
X-17219482Y-171265517D01*
X-17219482Y-167765517D01*
X137256900Y-167765517D01*
X137256900Y-168381483D01*
X137377069Y-168985612D01*
X137612789Y-169554690D01*
X137955001Y-170066846D01*
X138390554Y-170502399D01*
X138902710Y-170844611D01*
X139471788Y-171080331D01*
X140075917Y-171200500D01*
X140691883Y-171200500D01*
X141296012Y-171080331D01*
X141865090Y-170844611D01*
X142377246Y-170502399D01*
X142812799Y-170066846D01*
X143155011Y-169554690D01*
X143390731Y-168985612D01*
X143510900Y-168381483D01*
X143510900Y-167765517D01*
X143390731Y-167161388D01*
X143155011Y-166592310D01*
X142812799Y-166080154D01*
X142377246Y-165644601D01*
X141865090Y-165302389D01*
X141296012Y-165066669D01*
X140691883Y-164946500D01*
X140075917Y-164946500D01*
X139471788Y-165066669D01*
X138902710Y-165302389D01*
X138390554Y-165644601D01*
X137955001Y-166080154D01*
X137612789Y-166592310D01*
X137377069Y-167161388D01*
X137256900Y-167765517D01*
X-17219482Y-167765517D01*
X-17219482Y-113340517D01*
X-15118100Y-113340517D01*
X-15118100Y-113956483D01*
X-14997931Y-114560612D01*
X-14762211Y-115129690D01*
X-14419999Y-115641846D01*
X-13984446Y-116077399D01*
X-13472290Y-116419611D01*
X-12903212Y-116655331D01*
X-12299083Y-116775500D01*
X-11683117Y-116775500D01*
X-11078988Y-116655331D01*
X-10509910Y-116419611D01*
X-9997754Y-116077399D01*
X-9562201Y-115641846D01*
X-9219989Y-115129690D01*
X-8984269Y-114560612D01*
X-8864100Y-113956483D01*
X-8864100Y-113440517D01*
X289781900Y-113440517D01*
X289781900Y-114056483D01*
X289902069Y-114660612D01*
X290137789Y-115229690D01*
X290480001Y-115741846D01*
X290915554Y-116177399D01*
X291427710Y-116519611D01*
X291996788Y-116755331D01*
X292600917Y-116875500D01*
X293216883Y-116875500D01*
X293821012Y-116755331D01*
X294390090Y-116519611D01*
X294902246Y-116177399D01*
X295337799Y-115741846D01*
X295680011Y-115229690D01*
X295915731Y-114660612D01*
X296035900Y-114056483D01*
X296035900Y-113440517D01*
X295915731Y-112836388D01*
X295680011Y-112267310D01*
X295337799Y-111755154D01*
X294902246Y-111319601D01*
X294390090Y-110977389D01*
X293821012Y-110741669D01*
X293216883Y-110621500D01*
X292600917Y-110621500D01*
X291996788Y-110741669D01*
X291427710Y-110977389D01*
X290915554Y-111319601D01*
X290480001Y-111755154D01*
X290137789Y-112267310D01*
X289902069Y-112836388D01*
X289781900Y-113440517D01*
X-8864100Y-113440517D01*
X-8864100Y-113340517D01*
X-8984269Y-112736388D01*
X-9219989Y-112167310D01*
X-9562201Y-111655154D01*
X-9997754Y-111219601D01*
X-10509910Y-110877389D01*
X-11078988Y-110641669D01*
X-11683117Y-110521500D01*
X-12299083Y-110521500D01*
X-12903212Y-110641669D01*
X-13472290Y-110877389D01*
X-13984446Y-111219601D01*
X-14419999Y-111655154D01*
X-14762211Y-112167310D01*
X-14997931Y-112736388D01*
X-15118100Y-113340517D01*
X-17219482Y-113340517D01*
X-17219482Y-94290517D01*
X137262914Y-94290517D01*
X137262914Y-94906483D01*
X137383083Y-95510612D01*
X137618803Y-96079690D01*
X137961015Y-96591846D01*
X138396568Y-97027399D01*
X138908724Y-97369611D01*
X139477802Y-97605331D01*
X140081931Y-97725500D01*
X140697897Y-97725500D01*
X141302026Y-97605331D01*
X141871104Y-97369611D01*
X142383260Y-97027399D01*
X142818813Y-96591846D01*
X143161025Y-96079690D01*
X143396745Y-95510612D01*
X143516914Y-94906483D01*
X143516914Y-94290517D01*
X143396745Y-93686388D01*
X143161025Y-93117310D01*
X142818813Y-92605154D01*
X142383260Y-92169601D01*
X141871104Y-91827389D01*
X141302026Y-91591669D01*
X140697897Y-91471500D01*
X140081931Y-91471500D01*
X139477802Y-91591669D01*
X138908724Y-91827389D01*
X138396568Y-92169601D01*
X137961015Y-92605154D01*
X137618803Y-93117310D01*
X137383083Y-93686388D01*
X137262914Y-94290517D01*
X-17219482Y-94290517D01*
X-17219482Y-47990517D01*
X-15118100Y-47990517D01*
X-15118100Y-48606483D01*
X-14997931Y-49210612D01*
X-14762211Y-49779690D01*
X-14419999Y-50291846D01*
X-13984446Y-50727399D01*
X-13472290Y-51069611D01*
X-12903212Y-51305331D01*
X-12299083Y-51425500D01*
X-11683117Y-51425500D01*
X-11078988Y-51305331D01*
X-10509910Y-51069611D01*
X-9997754Y-50727399D01*
X-9562201Y-50291846D01*
X-9219989Y-49779690D01*
X-8984269Y-49210612D01*
X-8864100Y-48606483D01*
X-8864100Y-47990517D01*
X-8869072Y-47965517D01*
X137256900Y-47965517D01*
X137256900Y-48581483D01*
X137377069Y-49185612D01*
X137612789Y-49754690D01*
X137955001Y-50266846D01*
X138390554Y-50702399D01*
X138902710Y-51044611D01*
X139471788Y-51280331D01*
X140075917Y-51400500D01*
X140691883Y-51400500D01*
X141296012Y-51280331D01*
X141865090Y-51044611D01*
X142377246Y-50702399D01*
X142812799Y-50266846D01*
X143155011Y-49754690D01*
X143390731Y-49185612D01*
X143510900Y-48581483D01*
X143510900Y-47990517D01*
X289631900Y-47990517D01*
X289631900Y-48606483D01*
X289752069Y-49210612D01*
X289987789Y-49779690D01*
X290330001Y-50291846D01*
X290765554Y-50727399D01*
X291277710Y-51069611D01*
X291846788Y-51305331D01*
X292450917Y-51425500D01*
X293066883Y-51425500D01*
X293671012Y-51305331D01*
X294240090Y-51069611D01*
X294752246Y-50727399D01*
X295187799Y-50291846D01*
X295530011Y-49779690D01*
X295765731Y-49210612D01*
X295885900Y-48606483D01*
X295885900Y-47990517D01*
X295765731Y-47386388D01*
X295530011Y-46817310D01*
X295187799Y-46305154D01*
X294752246Y-45869601D01*
X294240090Y-45527389D01*
X293671012Y-45291669D01*
X293066883Y-45171500D01*
X292450917Y-45171500D01*
X291846788Y-45291669D01*
X291277710Y-45527389D01*
X290765554Y-45869601D01*
X290330001Y-46305154D01*
X289987789Y-46817310D01*
X289752069Y-47386388D01*
X289631900Y-47990517D01*
X143510900Y-47990517D01*
X143510900Y-47965517D01*
X143390731Y-47361388D01*
X143155011Y-46792310D01*
X142812799Y-46280154D01*
X142377246Y-45844601D01*
X141865090Y-45502389D01*
X141296012Y-45266669D01*
X140691883Y-45146500D01*
X140075917Y-45146500D01*
X139471788Y-45266669D01*
X138902710Y-45502389D01*
X138390554Y-45844601D01*
X137955001Y-46280154D01*
X137612789Y-46792310D01*
X137377069Y-47361388D01*
X137256900Y-47965517D01*
X-8869072Y-47965517D01*
X-8984269Y-47386388D01*
X-9219989Y-46817310D01*
X-9562201Y-46305154D01*
X-9997754Y-45869601D01*
X-10509910Y-45527389D01*
X-11078988Y-45291669D01*
X-11683117Y-45171500D01*
X-12299083Y-45171500D01*
X-12903212Y-45291669D01*
X-13472290Y-45527389D01*
X-13984446Y-45869601D01*
X-14419999Y-46305154D01*
X-14762211Y-46817310D01*
X-14997931Y-47386388D01*
X-15118100Y-47990517D01*
X-17219482Y-47990517D01*
X-17219482Y-42637856D01*
X8331900Y-42637856D01*
X8331900Y-43559144D01*
X8511634Y-44462731D01*
X8864196Y-45313890D01*
X9376037Y-46079914D01*
X10027486Y-46731363D01*
X10793510Y-47243204D01*
X11644669Y-47595766D01*
X12548256Y-47775500D01*
X13469544Y-47775500D01*
X14373131Y-47595766D01*
X15224290Y-47243204D01*
X15990314Y-46731363D01*
X16641763Y-46079914D01*
X17153604Y-45313890D01*
X17506166Y-44462731D01*
X17685900Y-43559144D01*
X17685900Y-42637856D01*
X17680928Y-42612856D01*
X263106900Y-42612856D01*
X263106900Y-43534144D01*
X263286634Y-44437731D01*
X263639196Y-45288890D01*
X264151037Y-46054914D01*
X264802486Y-46706363D01*
X265568510Y-47218204D01*
X266419669Y-47570766D01*
X267323256Y-47750500D01*
X268244544Y-47750500D01*
X269148131Y-47570766D01*
X269999290Y-47218204D01*
X270765314Y-46706363D01*
X271416763Y-46054914D01*
X271928604Y-45288890D01*
X272281166Y-44437731D01*
X272460900Y-43534144D01*
X272460900Y-42612856D01*
X272281166Y-41709269D01*
X271928604Y-40858110D01*
X271416763Y-40092086D01*
X270765314Y-39440637D01*
X269999290Y-38928796D01*
X269148131Y-38576234D01*
X268244544Y-38396500D01*
X267323256Y-38396500D01*
X266419669Y-38576234D01*
X265568510Y-38928796D01*
X264802486Y-39440637D01*
X264151037Y-40092086D01*
X263639196Y-40858110D01*
X263286634Y-41709269D01*
X263106900Y-42612856D01*
X17680928Y-42612856D01*
X17506166Y-41734269D01*
X17153604Y-40883110D01*
X16641763Y-40117086D01*
X15990314Y-39465637D01*
X15224290Y-38953796D01*
X14373131Y-38601234D01*
X13469544Y-38421500D01*
X12548256Y-38421500D01*
X11644669Y-38601234D01*
X10793510Y-38953796D01*
X10027486Y-39465637D01*
X9376037Y-40117086D01*
X8864196Y-40883110D01*
X8511634Y-41734269D01*
X8331900Y-42637856D01*
X-17219482Y-42637856D01*
X-17219482Y-26790517D01*
X-15118100Y-26790517D01*
X-15118100Y-27406483D01*
X-14997931Y-28010612D01*
X-14762211Y-28579690D01*
X-14419999Y-29091846D01*
X-13984446Y-29527399D01*
X-13472290Y-29869611D01*
X-12903212Y-30105331D01*
X-12299083Y-30225500D01*
X-11683117Y-30225500D01*
X-11078988Y-30105331D01*
X-10509910Y-29869611D01*
X-9997754Y-29527399D01*
X-9562201Y-29091846D01*
X-9219989Y-28579690D01*
X-8984269Y-28010612D01*
X-8864100Y-27406483D01*
X-8864100Y-26790517D01*
X-8869072Y-26765517D01*
X137256900Y-26765517D01*
X137256900Y-27381483D01*
X137377069Y-27985612D01*
X137612789Y-28554690D01*
X137955001Y-29066846D01*
X138390554Y-29502399D01*
X138902710Y-29844611D01*
X139471788Y-30080331D01*
X140075917Y-30200500D01*
X140691883Y-30200500D01*
X141296012Y-30080331D01*
X141865090Y-29844611D01*
X142377246Y-29502399D01*
X142812799Y-29066846D01*
X143155011Y-28554690D01*
X143390731Y-27985612D01*
X143510900Y-27381483D01*
X143510900Y-26765517D01*
X289656900Y-26765517D01*
X289656900Y-27381483D01*
X289777069Y-27985612D01*
X290012789Y-28554690D01*
X290355001Y-29066846D01*
X290790554Y-29502399D01*
X291302710Y-29844611D01*
X291871788Y-30080331D01*
X292475917Y-30200500D01*
X293091883Y-30200500D01*
X293696012Y-30080331D01*
X294265090Y-29844611D01*
X294777246Y-29502399D01*
X295212799Y-29066846D01*
X295555011Y-28554690D01*
X295790731Y-27985612D01*
X295910900Y-27381483D01*
X295910900Y-26765517D01*
X295790731Y-26161388D01*
X295555011Y-25592310D01*
X295212799Y-25080154D01*
X294777246Y-24644601D01*
X294265090Y-24302389D01*
X293696012Y-24066669D01*
X293091883Y-23946500D01*
X292475917Y-23946500D01*
X291871788Y-24066669D01*
X291302710Y-24302389D01*
X290790554Y-24644601D01*
X290355001Y-25080154D01*
X290012789Y-25592310D01*
X289777069Y-26161388D01*
X289656900Y-26765517D01*
X143510900Y-26765517D01*
X143390731Y-26161388D01*
X143155011Y-25592310D01*
X142812799Y-25080154D01*
X142377246Y-24644601D01*
X141865090Y-24302389D01*
X141296012Y-24066669D01*
X140691883Y-23946500D01*
X140075917Y-23946500D01*
X139471788Y-24066669D01*
X138902710Y-24302389D01*
X138390554Y-24644601D01*
X137955001Y-25080154D01*
X137612789Y-25592310D01*
X137377069Y-26161388D01*
X137256900Y-26765517D01*
X-8869072Y-26765517D01*
X-8984269Y-26186388D01*
X-9219989Y-25617310D01*
X-9562201Y-25105154D01*
X-9997754Y-24669601D01*
X-10509910Y-24327389D01*
X-11078988Y-24091669D01*
X-11683117Y-23971500D01*
X-12299083Y-23971500D01*
X-12903212Y-24091669D01*
X-13472290Y-24327389D01*
X-13984446Y-24669601D01*
X-14419999Y-25105154D01*
X-14762211Y-25617310D01*
X-14997931Y-26186388D01*
X-15118100Y-26790517D01*
X-17219482Y-26790517D01*
X-17219482Y-24695524D01*
X-17196121Y-24457268D01*
X-17141513Y-24276398D01*
X-17052812Y-24109576D01*
X-16933400Y-23963162D01*
X-16787819Y-23842727D01*
X-16621630Y-23752869D01*
X-16441140Y-23696998D01*
X-16206155Y-23672300D01*
X296978644Y-23672300D01*
X297216900Y-23695661D01*
G37*
G04 #@! TD.AperFunction*
M02*
